<?xml version="1.0" encoding="UTF-8"?>
<!DOCTYPE svg PUBLIC "-//W3C//DTD SVG 1.1//EN" "http://www.w3.org/Graphics/SVG/1.1/DTD/svg11.dtd">
<!-- Creator: CorelDRAW X8 -->
<svg xmlns="http://www.w3.org/2000/svg" xml:space="preserve" width="78px" height="95px" version="1.1" style="shape-rendering:geometricPrecision; text-rendering:geometricPrecision; image-rendering:optimizeQuality; fill-rule:evenodd; clip-rule:evenodd"
viewBox="0 0 223 272"
 xmlns:xlink="http://www.w3.org/1999/xlink">
 <defs>
  <style type="text/css">
   <![CDATA[
    .fil0 {fill:#00D1E0;fill-rule:nonzero}
   ]]>
  </style>
 </defs>
 <g id="Слой_x0020_1">
  <metadata id="CorelCorpID_0Corel-Layer"/>
  <path class="fil0" d="M182 66c-8,15 -22,24 -35,31 -13,8 -20,17 -23,25 -4,7 -3,14 -1,15l-2 0 -4 2c0,3 2,4 4,6l3 1 2 0 1 1 1 0 0 1 1 0 0 0 0 0 -1 1 -3 3 -13 15 -6 7 -2 2 0 0c-10,-6 13,10 11,8l0 0 0 0 0 -3c1,-2 -1,0 -2,0l-4 -1 -1 0 1 0 3 -2c4,-2 7,-8 8,-14 3,-13 3,-29 4,-44 2,-14 7,-26 16,-33 8,-7 17,-8 28,-2 10,6 24,17 38,40 7,12 13,27 16,45 1,9 2,19 1,30 -1,6 -1,11 -3,17l-2 9 -1 2c1,-2 -2,8 -6,13 -4,6 -8,12 -13,16 -2,2 -5,4 -7,5l-1 0 -1 1 -3 1 -5 3c-3,2 -7,3 -11,4 -8,1 -16,2 -26,1 -18,-2 -37,-8 -56,-16 -17,-7 -37,-13 -55,-27 -17,-13 -29,-34 -32,-60 -5,-53 6,-111 31,-142 14,-18 32,-25 49,-27 17,-1 32,2 45,5 26,6 43,23 52,35 7,11 8,19 4,26z"/>
 </g>
</svg>
