<?xml version="1.0" encoding="utf-8"?>
<!-- Generator: Adobe Illustrator 21.0.0, SVG Export Plug-In . SVG Version: 6.00 Build 0)  -->
<svg version="1.1" id="Слой_1" xmlns="http://www.w3.org/2000/svg" xmlns:xlink="http://www.w3.org/1999/xlink" x="0px" y="0px"
	 width="388px" height="362px" viewBox="0 0 388 362" style="enable-background:new 0 0 388 362;" xml:space="preserve">
<style type="text/css">
	.st0{fill:#FEFEFE;}
</style>
<g id="Слой_x0020_1">
	<g id="_857955093328">
		<g>
			<path class="st0" d="M1.9,315.1v7.6c0,0.8,0,0.8-0.1,1.7c0.4-0.9,0.8-1.4,1.2-2l4.8-6.3v-1.1h1.9v12.7H7.8v-7.5
				c0-0.4,0-1.2,0.1-1.8c-0.1,0.2-0.3,0.6-1.2,1.8l-4.8,6.3v1.2H0v-12.7H1.9z"/>
			<polygon class="st0" points="15.6,315.1 15.6,320.4 21.5,320.4 21.5,315.1 23.4,315.1 23.4,327.8 21.5,327.8 21.5,322 15.6,322 
				15.6,327.8 13.7,327.8 13.7,315.1 			"/>
			<polygon class="st0" points="35.3,315.1 35.3,316.7 31.3,316.7 31.3,327.8 29.4,327.8 29.4,316.7 25.4,316.7 25.4,315.1 			"/>
			<path class="st0" d="M45.6,320.2c0-0.8-0.2-1.7-0.6-2.3c-0.4-0.6-1.2-1.5-2.7-1.5c-1.2,0-2.2,0.6-2.8,1.3
				c-0.5,0.7-0.8,1.6-0.9,2.5H45.6z M47.5,324.4c-0.4,1.1-1,2-2.1,2.8c-1,0.7-2.1,1-3.3,1c-1.8,0-3.2-0.6-4.3-1.9
				c-1.1-1.3-1.5-2.9-1.5-4.7c0-3.4,1.9-6.7,5.9-6.7c4.7,0,5.5,4.4,5.5,6.4v0.4h-9.2c0,0.9,0.1,1.8,0.4,2.5c0.6,1.5,1.8,2.2,3.3,2.2
				c1.4,0,2.2-0.6,2.6-1.1c0.4-0.4,0.6-0.9,0.8-1.3L47.5,324.4z"/>
			<path class="st0" d="M59.4,315.1v12.7h-1.9v-11.2h-4.1c-0.2,5.7-0.4,7.4-0.8,8.5c-0.9,2.5-2.8,2.7-3.7,2.7c0,0-0.1,0-0.1,0v-1.6
				c0.1,0,0.1,0,0.2,0c0.6,0,1.4-0.4,1.9-1.3c0.4-0.7,0.6-1.9,0.8-8.3l0-1.4H59.4z"/>
			<path class="st0" d="M72.1,315.1v12.7h-1.9v-11.2h-4.1c-0.2,5.7-0.4,7.4-0.8,8.5c-0.9,2.5-2.8,2.7-3.7,2.7c0,0-0.1,0-0.1,0v-1.6
				c0.1,0,0.1,0,0.2,0c0.6,0,1.4-0.4,1.9-1.3c0.4-0.7,0.6-1.9,0.8-8.3l0-1.4H72.1z"/>
			<path class="st0" d="M84.4,320.2c0-0.8-0.2-1.7-0.6-2.3c-0.4-0.6-1.2-1.5-2.7-1.5c-1.2,0-2.2,0.6-2.8,1.3
				c-0.5,0.7-0.9,1.6-0.9,2.5H84.4z M86.3,324.4c-0.4,1.1-1,2-2.1,2.8c-1,0.7-2.1,1-3.3,1c-1.8,0-3.2-0.6-4.3-1.9
				c-1.1-1.3-1.5-2.9-1.5-4.7c0-3.4,1.9-6.7,5.9-6.7c4.7,0,5.5,4.4,5.5,6.4v0.4h-9.2c0,0.9,0.1,1.8,0.4,2.5c0.6,1.5,1.8,2.2,3.3,2.2
				c1.4,0,2.2-0.6,2.7-1.1c0.3-0.4,0.6-0.9,0.8-1.3L86.3,324.4z"/>
			<path class="st0" d="M93.1,320.4c1.7,0,2.5-0.4,3.1-2.7c0.2-0.7,0.3-1.5,0.8-2c0.5-0.6,1.3-0.7,1.7-0.7c0.2,0,0.4,0,0.6,0.1v1.5
				c-0.1,0-0.3,0-0.4,0c-0.3,0-0.6,0.1-0.8,0.4c-0.2,0.3-0.4,0.9-0.4,1.2l-0.2,0.9c-0.3,1.4-1.1,2-1.9,2.1v0c1.2,0.1,1.7,0.9,2,1.7
				c0.5,1.3,0.7,2.4,1,2.9c0.2,0.4,0.4,0.5,1,0.5c0.1,0,0.3,0,0.4,0v1.5c-0.3,0-0.5,0-0.8,0c-2.1,0-2.3-0.9-2.7-2.4
				c-0.5-1.6-0.6-2.1-0.9-2.4c-0.5-0.9-1.2-1.1-2.3-1.1h-1.8v5.9h-1.9v-12.7h1.9v5.3H93.1z"/>
			<polygon class="st0" points="110.2,315.1 110.2,316.7 106.2,316.7 106.2,327.8 104.3,327.8 104.3,316.7 100.3,316.7 100.3,315.1 
							"/>
			<path class="st0" d="M116.1,329c-0.3,0.8-0.6,1.6-1.3,2.3c-0.7,0.6-1.4,0.9-2.4,0.9c-0.5,0-1.1-0.1-1.6-0.3v-1.5
				c0.5,0.2,0.9,0.2,1.4,0.2c0.4,0,0.9,0,1.4-0.4c0.5-0.4,0.8-1.1,1.2-2.2l0.1-0.4l-4.5-12.5h2.2l3.3,9.8l3.4-9.8h1.7L116.1,329z"/>
			<path class="st0" d="M129.1,321.5c-2,0-3.1,0.3-3.8,0.6c-1.1,0.5-1.3,1.5-1.3,2.1c0,0.5,0.2,1.2,0.9,1.7c0.4,0.3,1,0.5,1.8,0.5
				c1.2,0,2.3-0.6,3-1.4c0.6-0.8,1-2,1-2.9v-0.6H129.1z M122.2,318.3c0.5-2.7,2.6-3.5,5.4-3.5c0.8,0,2.5,0,3.6,0.9
				c1.4,1.1,1.4,2.9,1.4,4.5v4.9c0,0.7,0.1,1.5,0.3,2.7h-2c-0.2-0.9-0.2-1.7-0.2-2.4c-0.4,0.7-1.4,2.6-4.4,2.6
				c-1.6,0-2.7-0.5-3.3-1.1c-0.5-0.5-1.2-1.4-1.2-2.7c0-1.7,1-2.7,1.7-3.2c1.5-1.1,3.5-1.1,5.5-1.1h1.6v-0.5c0-0.7-0.1-1.5-0.5-2.1
				c-0.7-0.9-1.8-0.9-2.7-0.9c-1.1,0-3.2,0.2-3.5,2.2L122.2,318.3z"/>
			<path class="st0" d="M145.1,315.1v12.7h-1.9v-11.2h-4.1c-0.2,5.7-0.4,7.4-0.8,8.5c-0.8,2.5-2.8,2.7-3.7,2.7c0,0-0.1,0-0.1,0v-1.6
				c0.1,0,0.1,0,0.2,0c0.6,0,1.5-0.4,1.9-1.3c0.4-0.7,0.7-1.9,0.8-8.3l0-1.4H145.1z"/>
			<path class="st0" d="M151.1,326.3h3c0.5,0,1.2,0,1.9-0.5c0.4-0.4,0.8-1.1,0.8-1.9c0-1-0.4-1.5-0.9-1.8c-0.5-0.3-1.2-0.4-1.7-0.4
				h-3V326.3z M151.1,315.1v5h3.5c1,0,2.2,0.1,3.1,1c0.4,0.4,1,1.3,1,2.8c0,1.2-0.4,2.3-1.3,3.1c-0.9,0.8-1.8,0.9-2.6,0.9h-5.8
				v-12.7H151.1z"/>
			<polygon class="st0" points="163.7,315.1 163.7,320.4 169.6,320.4 169.6,315.1 171.5,315.1 171.5,327.8 169.6,327.8 169.6,322 
				163.7,322 163.7,327.8 161.8,327.8 161.8,315.1 			"/>
			<path class="st0" d="M183.8,321.5c0-4.2-2-5-3.6-5c-1.5,0-3.5,0.8-3.5,5s2,5,3.5,5C181.8,326.4,183.8,325.6,183.8,321.5z
				 M180.2,314.9c3.3,0,5.7,2.4,5.7,6.6s-2.4,6.6-5.7,6.6c-3.3,0-5.7-2.4-5.7-6.6S177,314.9,180.2,314.9z"/>
			<polygon class="st0" points="188.3,322.2 193.6,322.2 193.6,320.6 188.3,320.6 			"/>
			<path class="st0" d="M198.7,322.8c0,0.6,0.1,1.7,0.9,2.6c0.7,0.8,1.6,1.1,2.4,1.1c0.7,0,1.8-0.3,2.5-1.5c0.6-1,0.8-2.4,0.8-3.5
				c0-2.1-0.5-3.1-0.7-3.5c-0.7-1.1-1.7-1.4-2.5-1.4c-0.9,0-1.6,0.3-2.3,1c-0.9,1-1,2-1,2.6V322.8z M196.8,332v-16.9h1.7v2.4l0,0
				c0.5-1.2,1.7-2.6,3.8-2.6c1.6,0,2.7,0.6,3.5,1.5c1.1,1.2,1.6,3.3,1.6,5.1c0,1.7-0.4,3.6-1.3,4.8c-0.7,0.9-1.8,1.9-3.8,1.9
				c-2,0-3.1-1.1-3.6-2.2h-0.1v6.1H196.8z"/>
			<path class="st0" d="M216.8,321.5c-2,0-3.1,0.3-3.8,0.6c-1.1,0.5-1.3,1.5-1.3,2.1c0,0.5,0.2,1.2,0.9,1.7c0.4,0.3,1,0.5,1.8,0.5
				c1.2,0,2.3-0.6,3-1.4c0.6-0.8,1-2,1-2.9v-0.6H216.8z M209.9,318.3c0.5-2.7,2.6-3.5,5.4-3.5c0.8,0,2.5,0,3.6,0.9
				c1.4,1.1,1.4,2.9,1.4,4.5v4.9c0,0.7,0.1,1.5,0.3,2.7h-2c-0.1-0.9-0.2-1.7-0.2-2.4c-0.4,0.7-1.4,2.6-4.4,2.6
				c-1.6,0-2.7-0.5-3.3-1.1c-0.5-0.5-1.2-1.4-1.2-2.7c0-1.7,1-2.7,1.7-3.2c1.5-1.1,3.5-1.1,5.5-1.1h1.6v-0.5c0-0.7,0-1.5-0.5-2.1
				c-0.7-0.9-1.8-0.9-2.7-0.9c-1,0-3.2,0.2-3.5,2.2L209.9,318.3z"/>
			<path class="st0" d="M223.3,318.4c0.4-1.6,1.4-2.5,2.3-2.9c0.4-0.2,1.4-0.6,3-0.6c1.1,0,2.3,0.1,3.2,0.7c1.2,0.7,1.6,1.8,1.6,2.7
				c0,1.1-0.6,1.8-0.8,2c-0.4,0.4-1,0.7-1.8,0.8v0.1c0.8,0,1.6,0.4,2.2,1c0.5,0.5,0.8,1.2,0.8,2.1c0,1.5-0.9,2.4-1.6,2.9
				c-1.2,0.8-2.7,0.9-3.7,0.9c-1,0-2.8-0.1-4.1-1.2c-0.7-0.6-1.2-1.6-1.4-2.5l1.9-0.4c0.1,0.8,0.5,1.3,0.7,1.5c0.5,0.5,1.3,1,2.8,1
				c0.8,0,1.7-0.2,2.3-0.5c0.5-0.3,0.9-0.9,0.9-1.7c0-0.8-0.3-1.3-0.6-1.6c-0.7-0.6-1.7-0.7-2.5-0.7H227v-1.5h1.4
				c0.5,0,1.3-0.1,1.8-0.3c0.9-0.4,1.1-1.2,1.1-1.8c0-0.7-0.4-1.2-0.7-1.4c-0.5-0.4-1.4-0.5-2.2-0.5c-0.7,0-1.6,0.2-2.4,0.8
				c-0.4,0.3-0.8,0.9-1,1.6L223.3,318.4z"/>
			<path class="st0" d="M238.7,326.3h4c0.9,0,1.6-0.3,2-0.6c0.4-0.4,0.6-1,0.6-1.5c0-0.9-0.5-1.4-0.8-1.6c-0.6-0.5-1.5-0.5-2-0.5
				h-3.8V326.3z M238.7,320.4h3.6c0.6,0,1.4-0.1,1.9-0.6c0.3-0.4,0.5-0.9,0.5-1.4c0-0.4-0.1-0.9-0.5-1.2c-0.5-0.4-1.1-0.4-1.7-0.4
				h-3.7V320.4z M242.4,315.1c1,0,2.1,0,3,0.5c0.5,0.3,1.3,1,1.3,2.4c0,0.8-0.3,1.6-0.9,2.1c-0.2,0.2-0.7,0.6-1.6,0.8v0
				c0.9,0.1,1.8,0.5,2.4,1c0.2,0.2,0.8,0.9,0.8,2.2c0,1.2-0.5,2.2-1.3,2.8c-1,0.7-2.1,0.8-3.1,0.8h-6.3v-12.7H242.4z"/>
			<path class="st0" d="M259.6,315.1v12.7h-1.9v-11.2h-4.1c-0.2,5.7-0.4,7.4-0.8,8.5c-0.9,2.5-2.8,2.7-3.7,2.7c0,0-0.1,0-0.1,0v-1.6
				c0.1,0,0.1,0,0.2,0c0.6,0,1.4-0.4,1.9-1.3c0.4-0.7,0.6-1.9,0.8-8.3l0-1.4H259.6z"/>
			<path class="st0" d="M271.8,320.2c0-0.8-0.2-1.7-0.6-2.3c-0.4-0.6-1.2-1.5-2.7-1.5c-1.2,0-2.2,0.6-2.8,1.3
				c-0.5,0.7-0.8,1.6-0.9,2.5H271.8z M273.8,324.4c-0.4,1.1-1,2-2.1,2.8c-1,0.7-2,1-3.3,1c-1.8,0-3.2-0.6-4.3-1.9
				c-1.1-1.3-1.5-2.9-1.5-4.7c0-3.4,1.9-6.7,5.9-6.7c4.7,0,5.5,4.4,5.5,6.4v0.4h-9.2c0,0.9,0.1,1.8,0.4,2.5c0.6,1.5,1.8,2.2,3.3,2.2
				c1.4,0,2.2-0.6,2.6-1.1c0.4-0.4,0.6-0.9,0.8-1.3L273.8,324.4z"/>
			<path class="st0" d="M280.5,320.4c1.7,0,2.5-0.4,3.1-2.7c0.2-0.7,0.3-1.5,0.8-2c0.5-0.6,1.3-0.7,1.7-0.7c0.2,0,0.4,0,0.6,0.1v1.5
				c-0.1,0-0.3,0-0.4,0c-0.3,0-0.6,0.1-0.8,0.4c-0.2,0.3-0.4,0.9-0.4,1.2l-0.2,0.9c-0.3,1.4-1.1,2-1.9,2.1v0c1.2,0.1,1.7,0.9,2,1.7
				c0.5,1.3,0.7,2.4,1,2.9c0.2,0.4,0.4,0.5,1,0.5c0.1,0,0.3,0,0.4,0v1.5c-0.3,0-0.6,0-0.8,0c-2.1,0-2.3-0.9-2.8-2.4
				c-0.5-1.6-0.6-2.1-0.8-2.4c-0.5-0.9-1.2-1.1-2.3-1.1h-1.8v5.9h-1.9v-12.7h1.9v5.3H280.5z"/>
			<path class="st0" d="M296,321.5c-2,0-3.1,0.3-3.8,0.6c-1.1,0.5-1.3,1.5-1.3,2.1c0,0.5,0.2,1.2,0.9,1.7c0.4,0.3,0.9,0.5,1.8,0.5
				c1.2,0,2.3-0.6,3-1.4c0.6-0.8,1-2,1-2.9v-0.6H296z M289.1,318.3c0.5-2.7,2.6-3.5,5.4-3.5c0.8,0,2.5,0,3.6,0.9
				c1.4,1.1,1.4,2.9,1.4,4.5v4.9c0,0.7,0.1,1.5,0.3,2.7h-2c-0.2-0.9-0.2-1.7-0.2-2.4c-0.4,0.7-1.4,2.6-4.4,2.6
				c-1.6,0-2.7-0.5-3.3-1.1c-0.6-0.5-1.2-1.4-1.2-2.7c0-1.7,1-2.7,1.7-3.2c1.6-1.1,3.6-1.1,5.5-1.1h1.6v-0.5c0-0.7-0.1-1.5-0.5-2.1
				c-0.6-0.9-1.7-0.9-2.6-0.9c-1.1,0-3.2,0.2-3.5,2.2L289.1,318.3z"/>
			<polygon class="st0" points="311.2,315.1 311.2,316.7 307.2,316.7 307.2,327.8 305.3,327.8 305.3,316.7 301.3,316.7 301.3,315.1 
							"/>
			<path class="st0" d="M321.5,320.2c0-0.8-0.2-1.7-0.6-2.3c-0.4-0.6-1.2-1.5-2.7-1.5c-1.2,0-2.2,0.6-2.8,1.3
				c-0.5,0.7-0.8,1.6-0.9,2.5H321.5z M323.4,324.4c-0.4,1.1-1,2-2.1,2.8c-1,0.7-2,1-3.3,1c-1.8,0-3.2-0.6-4.3-1.9
				c-1.1-1.3-1.5-2.9-1.5-4.7c0-3.4,1.9-6.7,5.9-6.7c4.7,0,5.5,4.4,5.5,6.4v0.4h-9.2c0,0.9,0.1,1.8,0.4,2.5c0.6,1.5,1.8,2.2,3.3,2.2
				c1.4,0,2.2-0.6,2.6-1.1c0.4-0.4,0.6-0.9,0.8-1.3L323.4,324.4z"/>
			<path class="st0" d="M335.2,315.1v12.7h-1.9v-11.2h-4.1c-0.2,5.7-0.4,7.4-0.8,8.5c-0.9,2.5-2.8,2.7-3.7,2.7c0,0-0.1,0-0.1,0v-1.6
				c0.1,0,0.1,0,0.2,0c0.6,0,1.4-0.4,1.9-1.3c0.4-0.7,0.6-1.9,0.8-8.3l0-1.4H335.2z"/>
			<path class="st0" d="M341.2,326.3h3c0.5,0,1.2,0,1.9-0.5c0.4-0.4,0.8-1.1,0.8-1.9c0-1-0.4-1.5-0.9-1.8c-0.5-0.3-1.2-0.4-1.7-0.4
				h-3V326.3z M341.2,315.1v5h3.5c1,0,2.2,0.1,3.1,1c0.4,0.4,1,1.3,1,2.8c0,1.2-0.4,2.3-1.3,3.1c-0.9,0.8-1.8,0.9-2.6,0.9h-5.8
				v-12.7H341.2z"/>
			<polygon class="st0" points="353.8,315.1 353.8,320.4 359.7,320.4 359.7,315.1 361.6,315.1 361.6,327.8 359.7,327.8 359.7,322 
				353.8,322 353.8,327.8 351.9,327.8 351.9,315.1 			"/>
			<path class="st0" d="M371.9,321.5c-2,0-3.1,0.3-3.8,0.6c-1.1,0.5-1.3,1.5-1.3,2.1c0,0.5,0.2,1.2,0.9,1.7c0.4,0.3,0.9,0.5,1.8,0.5
				c1.2,0,2.3-0.6,3-1.4c0.6-0.8,1-2,1-2.9v-0.6H371.9z M365,318.3c0.5-2.7,2.6-3.5,5.4-3.5c0.8,0,2.5,0,3.6,0.9
				c1.4,1.1,1.4,2.9,1.4,4.5v4.9c0,0.7,0.1,1.5,0.3,2.7h-2c-0.2-0.9-0.2-1.7-0.2-2.4c-0.4,0.7-1.4,2.6-4.4,2.6
				c-1.6,0-2.7-0.5-3.3-1.1c-0.5-0.5-1.1-1.4-1.1-2.7c0-1.7,1-2.7,1.7-3.2c1.6-1.1,3.6-1.1,5.5-1.1h1.7v-0.5c0-0.7-0.1-1.5-0.5-2.1
				c-0.6-0.9-1.7-0.9-2.6-0.9c-1.1,0-3.2,0.2-3.6,2.2L365,318.3z"/>
			<path class="st0" d="M383.5,316.7c-1.1,0-1.8,0-2.5,0.7c-0.4,0.5-0.5,1-0.5,1.6c0,0.4,0.1,1.1,0.6,1.5c0.6,0.5,1.5,0.5,2.2,0.5
				h2.7v-4.4H383.5z M388,327.8h-1.9v-5.2h-2.7l-2.8,5.2h-2.2l3-5.3c-0.1,0-1.2-0.3-1.9-1c-0.4-0.4-1-1.2-1-2.8
				c0-0.6,0.1-1.5,0.7-2.2c0.9-1.2,2.1-1.4,3.6-1.4h5.2V327.8z"/>
			<path class="st0" d="M109.4,350.4c1.7,0,2.5-0.3,3.1-2.7c0.2-0.7,0.3-1.5,0.7-2c0.5-0.6,1.3-0.7,1.8-0.7c0.2,0,0.4,0,0.6,0v1.5
				c-0.1,0-0.3,0-0.4,0c-0.3,0-0.6,0.1-0.8,0.4c-0.2,0.3-0.4,0.9-0.4,1.2l-0.2,0.9c-0.3,1.4-1.1,2-1.9,2.1v0.1
				c1.2,0.1,1.7,0.9,2,1.7c0.5,1.3,0.7,2.4,1,2.9c0.2,0.4,0.4,0.5,1,0.5c0.1,0,0.3,0,0.4,0v1.5c-0.3,0.1-0.5,0.1-0.8,0.1
				c-2.1,0-2.3-0.9-2.8-2.4c-0.5-1.6-0.6-2.1-0.8-2.4c-0.5-0.9-1.2-1.1-2.3-1.1h-1.8v5.9h-1.9v-12.7h1.9v5.3H109.4z"/>
			<path class="st0" d="M126.9,351.4c0-4.2-2-5-3.5-5c-1.5,0-3.6,0.8-3.6,5s2,5,3.6,5C124.8,356.4,126.9,355.6,126.9,351.4z
				 M123.3,344.8c3.3,0,5.7,2.4,5.7,6.6s-2.4,6.6-5.7,6.6c-3.3,0-5.7-2.4-5.7-6.6S120,344.8,123.3,344.8z"/>
			<path class="st0" d="M134.7,345.1l4,9.7l3.8-9.7h2.6v12.7h-1.9v-8.7c0-0.9,0-0.8,0.1-2c-0.1,0.2-0.4,0.8-1,2.2l-3.3,8.5h-1
				l-3.5-8.5c-0.4-0.9-0.4-1.1-0.9-2.2c0,0.7,0.1,1.3,0.1,1.9v8.8h-1.7v-12.7H134.7z"/>
			<path class="st0" d="M155.4,351.5c-2,0-3.1,0.3-3.8,0.6c-1.1,0.5-1.3,1.5-1.3,2.1c0,0.5,0.2,1.2,0.9,1.7c0.4,0.3,0.9,0.5,1.8,0.5
				c1.2,0,2.3-0.6,3-1.4c0.6-0.8,1-2,1-2.9v-0.6H155.4z M148.5,348.3c0.5-2.7,2.6-3.5,5.4-3.5c0.8,0,2.5,0,3.6,0.9
				c1.4,1.1,1.4,2.8,1.4,4.5v4.9c0,0.7,0.1,1.5,0.3,2.7h-2c-0.2-0.9-0.2-1.7-0.2-2.4c-0.4,0.7-1.5,2.6-4.4,2.6
				c-1.6,0-2.7-0.5-3.3-1.1c-0.5-0.5-1.1-1.4-1.1-2.7c0-1.7,1-2.7,1.7-3.2c1.5-1.1,3.6-1.1,5.5-1.1h1.7v-0.5c0-0.7-0.1-1.5-0.5-2.1
				c-0.6-0.9-1.7-0.9-2.6-0.9c-1.1,0-3.2,0.2-3.6,2.2L148.5,348.3z"/>
			<polygon class="st0" points="164.6,345.1 164.6,350.4 170.5,350.4 170.5,345.1 172.4,345.1 172.4,357.8 170.5,357.8 170.5,351.9 
				164.6,351.9 164.6,357.8 162.8,357.8 162.8,345.1 			"/>
			<path class="st0" d="M179.6,347.3c-0.1,1.9-0.3,5-1.1,7.2c-0.3,0.7-0.6,1.5-0.8,1.8h5.8v-9.6h-3.9L179.6,347.3z M185.4,345.1
				v11.2h1.3v5h-1.8v-3.4h-8.5v3.4h-1.8v-5h1c0.4-0.6,0.8-1.4,1.2-2.3c0.9-2.3,1-4.8,1.1-7.8l0-1.2H185.4z"/>
			<polygon class="st0" points="191.2,345.1 191.2,350.4 197.1,350.4 197.1,345.1 199,345.1 199,357.8 197.1,357.8 197.1,351.9 
				191.2,351.9 191.2,357.8 189.3,357.8 189.3,345.1 			"/>
			<path class="st0" d="M209.3,351.5c-2,0-3.1,0.3-3.8,0.6c-1.1,0.5-1.3,1.5-1.3,2.1c0,0.5,0.2,1.2,0.9,1.7c0.4,0.3,1,0.5,1.8,0.5
				c1.2,0,2.3-0.6,3-1.4c0.6-0.8,1-2,1-2.9v-0.6H209.3z M202.4,348.3c0.5-2.7,2.6-3.5,5.4-3.5c0.8,0,2.5,0,3.6,0.9
				c1.4,1.1,1.4,2.8,1.4,4.5v4.9c0,0.7,0.1,1.5,0.3,2.7h-2c-0.2-0.9-0.2-1.7-0.2-2.4c-0.4,0.7-1.4,2.6-4.4,2.6
				c-1.6,0-2.7-0.5-3.3-1.1c-0.5-0.5-1.2-1.4-1.2-2.7c0-1.7,1-2.7,1.7-3.2c1.5-1.1,3.5-1.1,5.5-1.1h1.6v-0.5c0-0.7-0.1-1.5-0.5-2.1
				c-0.7-0.9-1.8-0.9-2.7-0.9c-1.1,0-3.2,0.2-3.5,2.2L202.4,348.3z"/>
			<path class="st0" d="M220.9,346.6c-1,0-1.8,0-2.5,0.7c-0.4,0.5-0.5,1-0.5,1.6c0,0.4,0.1,1.1,0.6,1.5c0.6,0.5,1.5,0.5,2.2,0.5h2.7
				v-4.4H220.9z M225.4,357.8h-1.9v-5.2h-2.7l-2.8,5.2h-2.2l3-5.3c-0.1,0-1.2-0.3-1.9-1c-0.4-0.4-1-1.2-1-2.8c0-0.6,0.1-1.5,0.7-2.2
				c0.9-1.2,2.1-1.4,3.6-1.4h5.2V357.8z"/>
			<path class="st0" d="M237.2,345.1v7.6c0,0.8,0,0.8-0.1,1.7c0.4-0.9,0.8-1.4,1.2-2l4.8-6.3v-1.1h1.9v12.7h-1.9v-7.5
				c0-0.4,0-1.2,0.1-1.8c-0.1,0.2-0.3,0.6-1.2,1.8l-4.8,6.3v1.2h-1.9v-12.7H237.2z"/>
			<polygon class="st0" points="256.7,345.1 256.7,346.6 250.9,346.6 250.9,357.8 249,357.8 249,345.1 			"/>
			<path class="st0" d="M260.9,352.8c0,0.7,0.1,1.7,0.9,2.6c0.7,0.8,1.6,1.1,2.4,1.1c0.7,0,1.8-0.3,2.5-1.5c0.6-1,0.8-2.4,0.8-3.5
				c0-2.1-0.5-3.1-0.7-3.5c-0.7-1.2-1.7-1.4-2.5-1.4c-0.9,0-1.6,0.3-2.3,1c-0.9,1-1,2-1,2.6V352.8z M259,361.9v-16.9h1.7v2.4l0,0
				c0.5-1.2,1.7-2.6,3.8-2.6c1.6,0,2.7,0.6,3.5,1.5c1.1,1.2,1.6,3.2,1.6,5.1c0,1.7-0.4,3.5-1.3,4.8c-0.7,0.9-1.9,1.9-3.8,1.9
				c-2,0-3.1-1.1-3.6-2.2h-0.1v6.2H259z"/>
			<path class="st0" d="M278.9,351.5c-2,0-3.1,0.3-3.8,0.6c-1.1,0.5-1.3,1.5-1.3,2.1c0,0.5,0.2,1.2,0.9,1.7c0.4,0.3,1,0.5,1.8,0.5
				c1.2,0,2.3-0.6,3-1.4c0.6-0.8,1-2,1-2.9v-0.6H278.9z M272,348.3c0.5-2.7,2.6-3.5,5.4-3.5c0.9,0,2.5,0,3.6,0.9
				c1.4,1.1,1.4,2.8,1.4,4.5v4.9c0,0.7,0.1,1.5,0.3,2.7h-2c-0.1-0.9-0.2-1.7-0.2-2.4c-0.4,0.7-1.4,2.6-4.4,2.6
				c-1.6,0-2.7-0.5-3.3-1.1c-0.5-0.5-1.2-1.4-1.2-2.7c0-1.7,1-2.7,1.7-3.2c1.5-1.1,3.5-1.1,5.5-1.1h1.6v-0.5c0-0.7,0-1.5-0.5-2.1
				c-0.7-0.9-1.8-0.9-2.7-0.9c-1,0-3.2,0.2-3.5,2.2L272,348.3z"/>
		</g>
	</g>
</g>
<g id="Слой_x0020_1_1_">
	<path class="st0" d="M227.5,9.7l13,1.4c8.8,0.9,17,5.2,22.8,11.9l9.1,10.5c2.1,2.4,4.4,4.5,7,6.2l10.9,7.3
		c7.4,4.9,12.6,12.5,14.6,21.1l3.2,13.7c0.7,3,1.8,5.9,3.3,8.7l6.3,11.6c4.2,7.7,5.3,16.8,3.1,25.3l-3.5,13.7c-0.8,3-1.1,6-1.1,9.1
		l0.2,13.3c0.1,8.8-3.1,17.4-9,23.9l-9.5,10.5c-2.1,2.3-3.8,4.8-5.2,7.6l-6,11.8c-1.3,2.7-3,5.1-5,7.3c1.8-0.3,3.5-0.5,5.3-0.7
		c3-0.3,5.7,0.5,8,2.5l25.4-2.5c2.8-0.3,5.4,0.5,7.5,2.1l7.1-1.4c3.4-0.7,6.7,0.2,9.3,2.6c2.6,2.4,3.8,5.5,3.5,9
		c-0.1,0.9-0.2,1.9-0.2,2.9c0.6,0.2,1.2,0.4,1.8,0.6c0-1.6,0-3.3,0-4.9c0-3.1,1.1-5.8,3.3-7.9s5-3.1,8.1-2.9l14.3,0.9
		c3.1,0.2,5.7,1.5,7.7,3.9c2,2.4,2.7,5.2,2.3,8.3l-4.6,31.9c0,0.3-0.1,0.6-0.2,0.8c0.7,1.4,1.2,2.8,1.6,4.3c0.6,2.5,0.5,5.1-0.1,7.6
		c-0.6,2.2-1.5,4.2-2.8,6c-1.3,1.9-3,3.5-4.9,4.7c-1.8,1.1-3.7,1.9-5.7,2.4c-2.6,0.6-5.2,0.6-7.8,0c-1.9-0.5-3.8-1.2-5.5-2.3
		c-1.2-0.7-2.3-1.6-3.3-2.6c-2.2,1-4.5,1.8-6.9,2.4c-6.9,1.7-14.5,1.7-21.5,1.3c-2.2-0.1-4.2-0.9-5.8-2.2c-0.6,0.3-1.3,0.5-2,0.6
		l-13.9,2.9c-3.2,0.7-6.2,0-8.7-2c-1.8,1-3.8,1.5-6,1.4l-12.6-0.8c-0.9-0.1-1.7-0.2-2.5-0.4c-0.1,0.1-0.2,0.2-0.3,0.3
		c-3.5,4.6-10.1,5.6-14.8,2.2c-1.5-1.1-3.1-2.2-4.7-3.1l-10.9,1.5c-2.7,0.4-5.1-0.2-7.3-1.6l-9.9,2.2c-3.4,0.7-6.5,0-9.2-2.2
		c-2.1-1.8-3.4-4-3.8-6.7c-1.5,2.1-3.7,3.7-6.4,4.3l-11.1,2.5c-3.2,0.7-6.2,0.1-8.8-1.9c-0.2-0.2-0.4-0.3-0.7-0.5
		c-2.2,0.4-4.4,1-6.6,1.4c-1.6,0.3-3.2,0.7-4.8,1.3c-3.1,1-6.2,0.7-9-1l-3.4,1.5c-3.7,1.7-7.8,1.2-10.9-1.1
		c-0.9,0.4-1.8,0.7-2.7,0.8l-12.4,2c-2.9,0.5-5.7-0.2-8-1.9c-2.6,1-5.6,0.9-8.3-0.3l-12.3-5.7c-1.6,3.2-4.7,5.6-8.5,6L84.5,294
		c-3.3,0.3-6.2-0.7-8.5-2.9c-0.3-0.3-0.5-0.5-0.8-0.8c-1.6,0.2-3.2,0.4-4.7,0.7c-4.9,0.8-9.9,1.7-14.7,2.8c-0.8,0.2-1.6,0.3-2.3,0.3
		c-1,0.2-2,0.3-3,0.3c-6.2-0.3-12.5-0.4-18.7-0.2c-6.2,0.1-12.4,0.5-18.6,1.2c-5.8,0.6-11.1-3.6-11.8-9.4l-1.2-10.1
		c-0.6-5,2.4-9.6,6.9-11.3c2.6-9.6,4.6-19.4,6.2-29.2c0.8-4.7,4.4-8.3,9.2-8.9l17.9-2.4c3.1-0.4,5.8,0.4,8.2,2.3
		c0.4,0.3,0.7,0.6,1,1c0.6-0.2,1.3-0.3,1.9-0.4l25.8-3.1c2.7-0.3,5.3,0.4,7.4,1.8c5.7-1.2,11.7-2,17.4-1.7c0.2,0,0.5,0,0.7,0.1
		c-1.7-2-3.2-4.3-4.5-6.7L92,204.7c-1.4-2.7-3.2-5.3-5.2-7.6l-9-9.9c-5.9-6.5-9.2-15.1-9.1-23.9l0.1-13.9c0-3.1-0.3-6.2-1.1-9.2
		l-3.4-12.9c-2.2-8.6-1.1-17.6,3.1-25.4L74,89.7c1.5-2.8,2.6-5.7,3.3-8.7l3-12.9c2-8.6,7.2-16.2,14.6-21.1l11.5-7.7
		c2.6-1.8,5-3.9,7-6.3l8.5-9.9c5.8-6.8,13.9-11,22.8-12l13.7-1.5c3.1-0.3,6.2-1.1,9.2-2.3l12.2-4.8c8.3-3.3,17.5-3.3,25.7,0
		l12.8,5.1C221.3,8.6,224.4,9.4,227.5,9.7z M192.6,24.7c-58.4,0-105.9,47.5-105.9,105.9c0,40,22.3,74.9,55.1,92.9l-4.3-1.5
		c-1.4-0.5-2.8-0.7-4.1-0.6c-29.6-19.4-49.2-52.8-49.2-90.7c0-59.7,48.6-108.3,108.3-108.3s108.3,48.6,108.3,108.3
		c0,40.3-22.1,75.5-54.9,94.2c-1.2,0.2-2.4,0.4-3.3,0.5l-4,0.6c35.3-17.2,59.8-53.4,59.8-95.3C298.5,72.2,251,24.7,192.6,24.7z
		 M360.5,266.7c0.1,0.1,0-5.1-0.2-15.5c-0.1-4.9-0.1-10.5-0.2-16.7l14.3,0.9l-4.6,31.9C363.6,266.9,360.5,266.7,360.5,266.7z
		 M51.9,273.2l-0.4,5.2l-0.5,5.1c-6.5-0.3-13-0.4-19.5-0.3c-6.5,0.1-13,0.5-19.5,1.2l-1.2-10.1l4.7-0.6c3.3-10.7,6.1-23,8.4-37
		l18-2.4c0.8,12.9,2.7,25.7,5.6,38.3L51.9,273.2z M34.6,272.8c-0.8-3.8-1.8-10.2-3-19.3c-1.3,7.4-2.4,14-3.2,19.6L34.6,272.8z
		 M72.9,246.8c-2.4,0.3-4.6,0.6-6.8,0.8c-0.2,1.4-0.3,2.5-0.3,3.2l-0.2,3.1l5.4-0.8l5.4-0.9l0.5,4.5l0.6,4.5
		c-3.5,0.5-5.8,0.9-6.9,1.1c-1.9,0.3-3.5,0.6-5,0.8l-0.2,6l7.3-1.1l7.2-1.1l0.8,6l0.7,6c-3.7,0.2-8,0.7-12.6,1.5
		c-4.7,0.7-9.8,1.7-15.4,2.9c-0.1-2.6-0.1-6.4-0.2-11.4l-0.2-11.5c-0.1-10.1-0.2-17.7-0.2-22.9l12.9-1.5l12.9-1.5l0.8,5.9l0.8,6
		C77.7,246.4,75.3,246.6,72.9,246.8z M84,260.4c0.2-13.2-0.1-21-0.8-23.5c7.6-1.9,13.7-2.6,18.3-2.4c4.6,0.3,8,1.5,10.4,3.8
		c0.6,0.6,1.1,1.2,1.6,1.9l10.1-4.6c0.9,0.8,2.5,2.7,4.9,5.7c2.1,2.7,3.8,4.5,5.1,5.6l0.3-14.9l12.9,4.6c-0.3,2.7-0.6,6.3-0.8,10.9
		c0.7-0.6,1.7-1.7,2.9-3.4c1.3-1.8,2.2-3,2.8-3.5c-1.6,1.4,0-0.1,4.8-4.4l10.9,5.1l-13,13.1l14.3,22.9l-12.9,6l-10.5-20.5l-0.6,13.1
		c-0.1,2.2,0,4.3,0.2,6.2l-12.4,2l0.5-20.6l-10.6,19.3l-12.6-5.9l15.2-22.9l-10.3-10.8c0.6,1.6,0.8,3.5,0.9,5.6
		c0.1,3.6-0.8,6.9-2.5,9.8c-1.5,2.4-3.5,4.5-6.2,6.2c-3.2,2-6.9,3.4-11.4,4.1c-0.2,3.1,0,7.5,0.6,13.2l-12.7,1.3
		C83.7,279.1,83.9,271.5,84,260.4z M95.3,257.5c2.8-0.1,5.1-0.9,6.9-2.6c1.3-1.3,2.1-2.8,2.4-4.7c0.4-2.5-0.4-4.2-2.5-5
		c-1.7-0.7-4.1-0.6-7.1,0.4L95.3,257.5z M182.2,235.2c-0.9,4.5-1.6,9-2,13.5c-0.4,4.4-0.5,9-0.2,13.7c1.2-4.8,2.9-9.9,5.2-15.3
		c2.2-5.3,3.7-8.7,4.3-10l12.9-1.9c-0.6,8.2-0.9,16.1-0.7,23.7c0.2,7.7,0.4,14.5,0.7,20.5l-11.1,2.5c-0.5-8-0.9-15.8-1.2-23.3
		c-1.5,2.9-3.1,6.3-4.6,10.2c-1.6,3.9-2.6,7.5-2.9,10.6c-0.9,0.2-3.3,0.7-7.2,1.5c-2.3,0.5-4.2,1-5.9,1.5
		c-0.5-7.8-0.8-15.3-0.8-22.7c-0.1-7.3-0.4-14.8-1-22.3L182.2,235.2z M221.4,239.2c20.3-2.9,30.5-4.3,30.6-4.3
		c-0.2,2,0,16.8,0.5,44.5c4.6-4.4,8.3-8.9,11-13.4c-2.9-1.1-5.2-2.9-6.8-5.3c-3-4.7-2.7-9.4,1.2-14c2.7-3.3,6.7-6,12.1-8.1
		c5.1-2,11.1-3.3,18.1-4c-0.8,12.5-1,28.8-0.6,48.9l-12.6-0.8c0.6-4.6,0.8-8.8,0.7-12.8l-1.6,0.1c-3.3,6-7,11.6-10.9,16.8
		c-2.3-1.6-4.4-3-6.4-4.2c-1.8-1-3.2-1.9-4.3-2.8l0,1.6l-12.7,1.8l0.2-36.3c-1.4,0.2-3.2,0.4-5.6,0.7c-0.7,10.2-0.7,21.4,0.2,33.6
		l-12.7,2.8c0.2-4.7,0.1-12.2-0.3-22.3C221.3,251.8,221.2,244.3,221.4,239.2z M276.5,248c-3.3,0.8-5.6,1.9-6.9,3.1
		c-1.4,1.2-1.8,2.7-1.2,4.4c0.4,2.2,3,3.2,7.8,3.1L276.5,248z M323.7,246.8c-5.6,0.3-9.6,0.5-12.1,0.7c-0.4,5.2,0.2,16.4,1.8,33.7
		l-13.9,2.9l-0.1-35.6c-0.8,0.1-2.4,0.2-4.9,0.6c-2.3,0.3-4.2,0.5-5.7,0.6l0.9-12.2l31.8-3.1L323.7,246.8z M325.7,259.5
		c0.1-5.8-0.1-13.2-0.4-22l11.9-2.4c-0.4,4-0.5,8.5-0.2,13.3c4.2-0.1,7.9,0.6,11,2c2.7,1.2,4.7,2.9,6.2,5.1c1.8,2.6,2.6,5.7,2.5,9.3
		c-0.1,4.6-1.3,8.3-3.8,11.1c-2.4,2.7-5.8,4.6-10.4,5.7c-4.6,1.1-10.7,1.5-18.3,1C325.1,277.4,325.6,269.7,325.7,259.5z M336,271.8
		c3,0.4,5.3,0.1,7.1-0.9c2.1-1.2,3-3,2.5-5.5c-0.3-1.9-1.1-3.3-2.4-4.2c-1.8-1.4-4.1-1.8-6.9-1.4L336,271.8z M363.2,284.1
		c-0.9-0.2-1.7-0.6-2.5-1c-0.8-0.5-1.4-1.1-1.8-1.8c-0.5-0.7-0.8-1.5-1-2.4c-0.2-0.8-0.2-1.7,0-2.6c0.2-0.9,0.5-1.7,1.1-2.3
		c0.6-0.7,1.2-1.3,1.9-1.7s1.6-0.8,2.5-1c0.9-0.2,1.8-0.2,2.7-0.1c1,0.2,1.8,0.6,2.6,1.1c0.7,0.5,1.3,1.1,1.8,1.8s0.8,1.4,1,2.3
		c0.2,0.8,0.2,1.7,0,2.6c-0.2,0.9-0.6,1.7-1.1,2.4c-0.5,0.7-1.1,1.3-1.9,1.8c-0.7,0.5-1.6,0.8-2.5,1
		C365.1,284.3,364.1,284.3,363.2,284.1z M169.4,64c0.3,0,0.5-0.1,0.8-0.2c1.2-0.4,1.7-1.7,1.3-2.9l-4.7-12.3
		c-0.4-1.2-1.7-1.8-2.9-1.3c-1.2,0.4-1.8,1.7-1.3,2.9l4.7,12.3C167.7,63.4,168.5,64,169.4,64z M183.8,61.9c0.1,0,0.2,0,0.3,0
		c1.2-0.2,2.1-1.3,1.9-2.5l-2.9-20.5c-0.2-1.2-1.3-2.1-2.5-1.9c-1.2,0.2-2.1,1.3-1.9,2.5l2.9,20.5C181.7,61.1,182.7,61.9,183.8,61.9
		z M198.6,61.9c1.1,0,2.1-0.8,2.2-2l2.6-20.6c0.2-1.2-0.7-2.4-1.9-2.5c-1.2-0.2-2.4,0.7-2.5,1.9l-2.7,20.6c-0.2,1.2,0.7,2.4,1.9,2.5
		C198.4,61.9,198.5,61.9,198.6,61.9z M215.4,62.9c0.9,0,1.7-0.5,2.1-1.3l4.9-11.3c0.5-1.1,0-2.5-1.2-3s-2.5,0-3,1.2l-4.9,11.3
		c-0.5,1.1,0,2.5,1.2,3C214.8,62.9,215.1,62.9,215.4,62.9z M267.4,141.6l-0.2-0.2c-2.3-2.3-5.3-3.6-8.5-4c-4-0.5-7.9,0.7-11,3.2
		l17-35.7c3.1-6.5,0.3-14.3-6.2-17.3l-0.2-0.1c-1.3-0.6-2.6-1-4-1.2c-0.8-0.1-1.6-0.1-2.4-0.1c2.9-6.4,0.1-14.1-6.3-17.1l-0.2-0.1
		c-2.5-1.2-5.2-1.5-8-1c-4.2,0.8-7.7,3.8-9.5,7.7l-0.8,1.7c-1.3-1.8-3-3.3-5-4.2l-0.2-0.1c-2.5-1.2-5.2-1.5-8-1
		c-4.2,0.8-7.7,3.8-9.5,7.6l-9.1,19.2c-1.8,2.7-1.1,12.4,1.2,6.8L208.2,81c1.7-3.6,5.5-5.5,9.2-5.1c0.9,0.1,1.9,0.4,2.8,0.8l0.2,0.1
		c4.5,2.1,5,7.1,2.9,11.6c0,0-8.5,22.6-8.4,23l0.2,0.8L231.7,77c1.7-3.6,5.4-5.5,9.2-5.1c0.9,0.1,1.9,0.4,2.8,0.8l0.2,0.1
		c4.5,2.1,6.4,7.5,4.3,12l-26.5,59.1l26.1-48.5c1.7-3.6,2.5-5.5,6.2-5.1c0.9,0.1,1.9,0.4,2.8,0.8l0.2,0.1c4.5,2.1,6.4,7.5,4.3,12
		c0,0-26.1,55.7-25.7,56l14-14.5c2.4-2.5,5.8-3.6,9-3.2c2.2,0.3,4.4,1.2,6.2,2.9l0.2,0.2c4.3,4.1,4.4,10.9,0.3,15.2l-37,38.4
		c-5.6,7.3-15.7,12.4-23.6,15.1c0,0,17,0.2,26.7-12.5l36.9-38.2C273.5,156.6,273.3,147.2,267.4,141.6z M123.9,131.9l-0.3,0
		c-1.9-0.2-3.8,0.3-5.5,1.3c-2.3,1.4-3.9,3.4-4.5,5.8c-0.6,2.4-0.3,4.9,1,7.1l27,46c6.2,14.1,18.6,23.5,33.2,25.3
		c4.6,0.5,9.3,0.3,13.9-0.7c40.7-8.5,32.9-55.9,31-65.4l0-0.1l-8.2-39c-0.7-3.2-3.3-5.6-6.5-6c-0.9-0.1-1.7,0-2.5,0.1
		c-2.2,0.4-3.9,1.6-5,3.3c-1.1,1.7-1.5,3.7-1.1,5.7l6.1,29l-4.4-0.5l-12.6-60c-0.7-3.2-3.3-5.6-6.5-6c-0.9-0.1-1.7,0-2.4,0.1
		c-4.3,0.9-6.9,4.9-6,9l11.6,55.2l-4.4-0.2l-14.2-67.6c-0.7-3.2-3.3-5.6-6.5-6c-1-0.1-1.7,0-2.5,0.1c-4.3,0.9-6.9,4.9-6,9l13.7,65.1
		l-1.4,0.3c-0.4,0.1-0.9,0.2-1.3,0.3l-1.4,0.3l-11.4-54.4c-0.7-3.2-3.3-5.6-6.5-6c-1-0.1-1.7,0-2.5,0.1c-2.2,0.4-3.9,1.6-5,3.3
		c-1.1,1.7-1.5,3.7-1.1,5.7l12.7,60.7l-2,3.2l-11.6-19.8C129.3,133.9,126.8,132.3,123.9,131.9z M201.6,19.2c0,0-0.1,0-0.1,0
		c-2.4-0.2-4.9-0.3-7.3-0.3c-0.7,0-1.2-0.6-1.2-1.3c0-0.7,0.6-1.2,1.2-1.2c0,0,0,0,0,0c2.5,0,5,0.2,7.5,0.3c0.7,0.1,1.2,0.7,1.1,1.3
		C202.7,18.7,202.2,19.2,201.6,19.2z M179.3,19.6c-0.6,0-1.2-0.5-1.2-1.1c-0.1-0.7,0.4-1.3,1.1-1.4c2.5-0.3,5-0.5,7.5-0.6
		c0.8-0.1,1.3,0.5,1.3,1.2c0,0.7-0.5,1.3-1.2,1.3c-2.4,0.1-4.9,0.3-7.3,0.6C179.4,19.6,179.4,19.6,179.3,19.6z M216.2,21.3
		c-0.1,0-0.2,0-0.3,0c-2.4-0.5-4.8-0.9-7.2-1.3c-0.7-0.1-1.1-0.7-1-1.4c0.1-0.7,0.7-1.1,1.4-1c2.5,0.4,5,0.8,7.4,1.3
		c0.7,0.2,1.1,0.8,1,1.5C217.3,20.9,216.8,21.3,216.2,21.3z M164.8,22.3c-0.6,0-1.1-0.4-1.2-0.9c-0.2-0.7,0.2-1.3,0.9-1.5
		c2.4-0.6,4.9-1.2,7.3-1.6c0.7-0.1,1.3,0.3,1.4,1c0.1,0.7-0.3,1.3-1,1.4c-2.4,0.4-4.8,1-7.2,1.6C165,22.3,164.9,22.3,164.8,22.3z
		 M230.5,25.4c-0.1,0-0.3,0-0.4-0.1c-2.3-0.8-4.7-1.6-7-2.2c-0.7-0.2-1-0.9-0.8-1.5c0.2-0.7,0.9-1,1.5-0.9c2.4,0.7,4.8,1.4,7.1,2.3
		c0.6,0.2,1,0.9,0.8,1.6C231.5,25.1,231,25.4,230.5,25.4z M150.7,26.9c-0.5,0-0.9-0.3-1.1-0.8c-0.3-0.6,0.1-1.3,0.7-1.6
		c2.3-0.9,4.7-1.8,7.1-2.6c0.7-0.2,1.4,0.2,1.6,0.8c0.2,0.7-0.1,1.4-0.8,1.6c-2.3,0.8-4.6,1.6-6.9,2.5
		C151,26.9,150.8,26.9,150.7,26.9z M244.1,31.3c-0.2,0-0.4,0-0.6-0.1c-2.2-1.1-4.4-2.2-6.6-3.1c-0.6-0.3-0.9-1-0.6-1.6
		c0.3-0.6,1-0.9,1.6-0.7c2.3,1,4.6,2.1,6.8,3.2c0.6,0.3,0.9,1,0.5,1.7C245,31,244.6,31.3,244.1,31.3z M137.3,33.3
		c-0.4,0-0.9-0.2-1.1-0.6c-0.3-0.6-0.1-1.3,0.5-1.7c2.2-1.2,4.4-2.4,6.7-3.5c0.6-0.3,1.3,0,1.6,0.6c0.3,0.6,0,1.3-0.6,1.7
		c-2.2,1-4.4,2.2-6.5,3.4C137.7,33.2,137.5,33.3,137.3,33.3z M256.8,38.9c-0.2,0-0.5-0.1-0.7-0.2c-2-1.4-4.1-2.7-6.2-4
		c-0.6-0.3-0.8-1.1-0.4-1.7c0.4-0.6,1.1-0.8,1.7-0.4c2.1,1.3,4.2,2.6,6.3,4.1c0.6,0.4,0.7,1.2,0.3,1.7
		C257.6,38.7,257.2,38.9,256.8,38.9z M124.9,41.4c-0.4,0-0.8-0.2-1-0.5c-0.4-0.6-0.3-1.3,0.3-1.7c2-1.5,4-2.9,6.1-4.3
		c0.6-0.4,1.3-0.2,1.7,0.4s0.2,1.3-0.4,1.7c-2,1.3-4.1,2.8-6,4.2C125.4,41.3,125.2,41.4,124.9,41.4z M268.5,48.1
		c-0.3,0-0.6-0.1-0.8-0.3c-1.8-1.6-3.7-3.2-5.6-4.7c-0.5-0.4-0.6-1.2-0.2-1.7c0.4-0.5,1.2-0.6,1.7-0.2c1.9,1.5,3.9,3.2,5.7,4.9
		c0.5,0.5,0.5,1.2,0.1,1.7C269.1,48,268.8,48.1,268.5,48.1z M113.6,51c-0.3,0-0.6-0.1-0.9-0.4c-0.5-0.5-0.5-1.3,0-1.8
		c1.8-1.7,3.6-3.4,5.5-5.1c0.5-0.4,1.3-0.4,1.7,0.1c0.4,0.5,0.4,1.3-0.1,1.8c-1.9,1.6-3.7,3.3-5.4,4.9C114.3,50.9,114,51,113.6,51z
		 M278.8,58.8c-0.3,0-0.7-0.1-0.9-0.4c-1.6-1.9-3.2-3.7-4.9-5.4c-0.5-0.5-0.5-1.3,0-1.8c0.5-0.5,1.3-0.5,1.7,0
		c1.7,1.8,3.4,3.7,5,5.6c0.4,0.5,0.4,1.3-0.1,1.7C279.3,58.7,279,58.8,278.8,58.8z M103.7,62c-0.3,0-0.5-0.1-0.8-0.3
		c-0.5-0.4-0.6-1.2-0.2-1.7c1.5-2,3.2-3.9,4.8-5.7c0.5-0.5,1.2-0.6,1.8-0.1c0.5,0.4,0.6,1.2,0.1,1.7c-1.6,1.8-3.2,3.7-4.7,5.6
		C104.5,61.9,104.1,62,103.7,62z M287.6,70.7c-0.4,0-0.8-0.2-1-0.6c-1.3-2-2.7-4.1-4.2-6c-0.4-0.6-0.3-1.3,0.3-1.7
		c0.6-0.4,1.3-0.3,1.7,0.3c1.5,2,2.9,4.1,4.3,6.2c0.4,0.6,0.2,1.3-0.4,1.7C288,70.6,287.8,70.7,287.6,70.7z M95.4,74.3
		c-0.2,0-0.4-0.1-0.6-0.2c-0.6-0.3-0.8-1.1-0.4-1.7c1.3-2.1,2.6-4.3,4-6.3c0.4-0.6,1.2-0.7,1.7-0.3c0.6,0.4,0.7,1.2,0.3,1.7
		c-1.4,2-2.7,4.1-3.9,6.2C96.2,74.1,95.8,74.3,95.4,74.3z M294.8,83.6c-0.5,0-0.9-0.3-1.1-0.7c-1-2.2-2.2-4.4-3.3-6.5
		c-0.3-0.6-0.1-1.3,0.5-1.7c0.6-0.3,1.4-0.1,1.7,0.5c1.2,2.2,2.4,4.4,3.4,6.7c0.3,0.6,0,1.3-0.6,1.6C295.1,83.6,295,83.6,294.8,83.6
		z M88.6,87.5c-0.2,0-0.3,0-0.5-0.1c-0.6-0.3-0.9-1-0.7-1.6c1-2.3,2-4.6,3.2-6.8c0.3-0.6,1.1-0.9,1.7-0.6c0.6,0.3,0.9,1.1,0.6,1.7
		c-1.1,2.2-2.2,4.4-3.1,6.7C89.6,87.2,89.1,87.5,88.6,87.5z M300.2,97.4c-0.5,0-1-0.3-1.2-0.9c-0.7-2.3-1.6-4.6-2.5-6.9
		c-0.3-0.6,0.1-1.4,0.7-1.6c0.6-0.3,1.4,0.1,1.6,0.7c0.9,2.3,1.8,4.7,2.5,7.1c0.2,0.7-0.2,1.3-0.8,1.6
		C300.5,97.4,300.3,97.4,300.2,97.4z M83.7,101.5c-0.1,0-0.2,0-0.3-0.1c-0.7-0.2-1-0.9-0.9-1.5c0.7-2.4,1.4-4.8,2.2-7.2
		c0.2-0.6,0.9-1,1.6-0.8c0.6,0.2,1,0.9,0.8,1.6c-0.8,2.3-1.5,4.6-2.2,7C84.8,101.1,84.3,101.5,83.7,101.5z M303.8,111.8
		c-0.6,0-1.1-0.4-1.2-1c-0.4-2.4-0.9-4.8-1.5-7.2c-0.2-0.7,0.2-1.3,0.9-1.5s1.3,0.2,1.5,0.9c0.6,2.4,1.1,4.9,1.6,7.3
		c0.1,0.7-0.3,1.3-1,1.4C303.9,111.8,303.9,111.8,303.8,111.8z M80.7,116c-0.1,0-0.1,0-0.2,0c-0.7-0.1-1.2-0.7-1-1.4
		c0.3-2.5,0.8-5,1.3-7.4c0.1-0.7,0.8-1.1,1.5-1c0.7,0.1,1.1,0.8,0.9,1.5c-0.5,2.4-0.9,4.8-1.3,7.2C81.8,115.6,81.3,116,80.7,116z
		 M305.4,126.5c-0.7,0-1.2-0.5-1.2-1.2c-0.1-2.4-0.3-4.9-0.6-7.3c-0.1-0.7,0.4-1.3,1.1-1.4c0.7-0.1,1.3,0.4,1.4,1.1
		c0.3,2.5,0.5,5,0.6,7.5C306.7,125.9,306.2,126.5,305.4,126.5C305.5,126.5,305.5,126.5,305.4,126.5z M79.6,130.8L79.6,130.8
		c-0.7,0-1.2-0.6-1.2-1.2c0-2.5,0.1-5,0.3-7.5c0.1-0.7,0.6-1.2,1.3-1.2c0.7,0.1,1.2,0.7,1.1,1.3c-0.2,2.4-0.3,4.9-0.3,7.3
		C80.8,130.2,80.3,130.8,79.6,130.8z M305.3,139.3C305.3,139.3,305.3,139.3,305.3,139.3c-0.8-0.1-1.3-0.6-1.2-1.3
		c0.2-2.4,0.2-4.9,0.2-7.3c0-0.7,0.6-1.2,1.2-1.2c0.7,0,1.2,0.6,1.2,1.2c0,2.5-0.1,5-0.2,7.5C306.5,138.8,306,139.3,305.3,139.3z
		 M80.4,145.6c-0.6,0-1.2-0.5-1.2-1.1c-0.3-2.5-0.5-5-0.7-7.5c0-0.7,0.5-1.3,1.2-1.3c0.7,0,1.3,0.5,1.3,1.2c0.1,2.4,0.4,4.9,0.7,7.3
		c0.1,0.7-0.4,1.3-1.1,1.4C80.5,145.6,80.5,145.6,80.4,145.6z M303.4,153.9c-0.1,0-0.2,0-0.2,0c-0.7-0.1-1.1-0.8-1-1.4
		c0.5-2.4,0.9-4.8,1.2-7.2c0.1-0.7,0.7-1.2,1.4-1.1c0.7,0.1,1.2,0.7,1.1,1.4c-0.3,2.5-0.7,5-1.2,7.4
		C304.5,153.5,304,153.9,303.4,153.9z M83.2,160.2c-0.6,0-1-0.4-1.2-0.9c-0.6-2.4-1.2-4.9-1.6-7.3c-0.1-0.7,0.3-1.3,1-1.4
		c0.7-0.1,1.3,0.3,1.4,1c0.4,2.4,1,4.8,1.6,7.2c0.2,0.7-0.2,1.3-0.9,1.5C83.4,160.2,83.3,160.2,83.2,160.2z M299.6,168.3
		c-0.1,0-0.3,0-0.4-0.1c-0.7-0.2-1-0.9-0.8-1.6c0.8-2.3,1.5-4.7,2.1-7c0.2-0.7,0.9-1,1.5-0.9c0.7,0.2,1.1,0.8,0.9,1.5
		c-0.7,2.4-1.4,4.8-2.2,7.2C300.6,167.9,300.1,168.3,299.6,168.3z M87.8,174.2c-0.5,0-0.9-0.3-1.2-0.8c-0.9-2.3-1.8-4.7-2.6-7
		c-0.2-0.7,0.1-1.3,0.8-1.6c0.7-0.2,1.3,0.1,1.6,0.8c0.8,2.3,1.6,4.6,2.5,6.9c0.3,0.6-0.1,1.3-0.7,1.6
		C88.1,174.2,88,174.2,87.8,174.2z M293.9,182c-0.2,0-0.4-0.1-0.6-0.1c-0.6-0.3-0.9-1-0.6-1.7c1.1-2.2,2.1-4.4,3-6.7
		c0.3-0.6,1-0.9,1.6-0.7c0.6,0.3,0.9,1,0.7,1.6c-0.9,2.3-2,4.6-3.1,6.8C294.8,181.7,294.3,182,293.9,182z M94.3,187.6
		c-0.4,0-0.8-0.2-1.1-0.6c-1.2-2.2-2.4-4.4-3.5-6.6c-0.3-0.6,0-1.4,0.6-1.7c0.6-0.3,1.4,0,1.7,0.6c1,2.2,2.2,4.4,3.4,6.5
		c0.3,0.6,0.1,1.3-0.5,1.7C94.7,187.5,94.5,187.6,94.3,187.6z M286.4,194.8c-0.2,0-0.5-0.1-0.7-0.2c-0.6-0.4-0.7-1.2-0.3-1.7
		c1.4-2,2.7-4.1,3.9-6.2c0.3-0.6,1.1-0.8,1.7-0.4c0.6,0.3,0.8,1.1,0.4,1.7c-1.2,2.2-2.6,4.3-4,6.4
		C287.2,194.6,286.8,194.8,286.4,194.8z M102.4,199.9c-0.4,0-0.7-0.2-1-0.5c-1.5-2-3-4.1-4.3-6.1c-0.4-0.6-0.2-1.3,0.4-1.7
		c0.6-0.4,1.3-0.2,1.7,0.4c1.3,2,2.8,4,4.2,6c0.4,0.5,0.3,1.3-0.2,1.7C102.9,199.9,102.7,199.9,102.4,199.9z M277.4,206.5
		c-0.3,0-0.6-0.1-0.8-0.3c-0.5-0.5-0.6-1.2-0.1-1.8c1.6-1.8,3.2-3.7,4.7-5.7c0.4-0.6,1.2-0.6,1.7-0.2c0.6,0.4,0.6,1.2,0.2,1.7
		c-1.5,2-3.1,3.9-4.8,5.8C278,206.4,277.7,206.5,277.4,206.5z M112.1,211.2c-0.3,0-0.6-0.1-0.9-0.4c-1.8-1.8-3.5-3.6-5.1-5.5
		c-0.4-0.5-0.4-1.3,0.1-1.8c0.5-0.4,1.3-0.4,1.7,0.1c1.6,1.8,3.3,3.6,5,5.4c0.5,0.5,0.5,1.3,0,1.8
		C112.8,211,112.4,211.2,112.1,211.2z M266.8,217c-0.3,0-0.7-0.1-0.9-0.4c-0.4-0.5-0.4-1.3,0.1-1.7c1.8-1.6,3.6-3.3,5.4-5
		c0.5-0.5,1.3-0.5,1.8,0c0.5,0.5,0.5,1.3,0,1.7c-1.8,1.8-3.6,3.5-5.5,5.1C267.4,216.9,267.1,217,266.8,217z M123.2,221
		c-0.3,0-0.5-0.1-0.8-0.3c-2-1.5-3.9-3.1-5.8-4.8c-0.5-0.4-0.6-1.2-0.1-1.7c0.4-0.5,1.2-0.6,1.7-0.1c1.8,1.6,3.7,3.2,5.6,4.7
		c0.5,0.4,0.6,1.2,0.2,1.7C123.9,220.8,123.6,221,123.2,221z M253.9,224.3c0.1-0.2,0.2-0.4,0.5-0.6c2-1.4,4.1-2.8,6-4.3
		c0.5-0.4,1.3-0.3,1.7,0.2c0.4,0.6,0.3,1.3-0.2,1.7c-1.7,1.3-3.4,2.5-5.2,3.7C255.8,224.8,254.9,224.5,253.9,224.3z"/>
</g>
</svg>
