<?xml version="1.0" encoding="UTF-8"?>
<!DOCTYPE svg PUBLIC "-//W3C//DTD SVG 1.1//EN" "http://www.w3.org/Graphics/SVG/1.1/DTD/svg11.dtd">
<!-- Creator: CorelDRAW X8 -->
<svg xmlns="http://www.w3.org/2000/svg" xml:space="preserve" width="159px" height="86px" version="1.1" style="shape-rendering:geometricPrecision; text-rendering:geometricPrecision; image-rendering:optimizeQuality; fill-rule:evenodd; clip-rule:evenodd"
viewBox="0 0 989 536"
 xmlns:xlink="http://www.w3.org/1999/xlink">
 <defs>
  <style type="text/css">
   <![CDATA[
    .fil0 {fill:#00BCC9;fill-rule:nonzero}
   ]]>
  </style>
 </defs>
 <g id="Слой_x0020_1">
  <metadata id="CorelCorpID_0Corel-Layer"/>
  <path class="fil0" d="M82 71l2 -1 0 -2 0 -1 -1 0 -1 -1 -1 0 -1 1 1 1 0 1 -2 1 1 0 2 1zm-14 4l2 1 0 1c0,0 1,0 1,0l1 0 3 0 0 -1 0 -1 -2 0 0 -2 -2 -2 0 1 0 2 -1 1 -1 0 -1 0zm14 -11l0 -1 -1 -1 0 -2 -1 0 0 2 0 0 0 1 2 1zm-13 6l-2 0 -1 -1 0 2 -1 1 1 1 2 1 0 -1 1 -2 0 -1zm827 371l-1 2 -1 0 0 1 -1 1 0 1 -1 1 0 2 0 0 2 -1 1 -2 1 -1 0 -1 1 -1 1 -2 -1 0 -1 0zm-816 -392l1 1 2 0 1 -1 1 0 1 1 0 1 1 1 1 -1 1 2 2 0 1 0 2 1 2 0 0 0 1 -2 -1 -2 -2 0 -2 0 -2 -2 -1 0 -1 0 -2 0 -1 -1 -4 0 -1 0 0 2 0 0zm7 -12l2 -1 1 1 0 0 1 -1 1 -1 1 -1 0 0 0 -1 -1 0 -1 0 -1 0 -2 0 -1 0 -1 1 0 1 0 1 1 1zm-2 8l2 -1c0,0 2,-1 2,-1l1 -2 1 -1 1 -1 0 -1 -1 -1 -1 1 -2 0 -2 0 0 1 -1 1 1 0 1 0 0 2 1 0 -2 0 -3 1 0 1 1 1 1 0zm740 238l0 -1 -1 1 -1 1 0 1 1 0 1 -2zm53 188l0 0 2 -1 0 -1 -1 1 -1 1zm10 -21l-1 0 -2 2 0 1 -1 0 -1 1 -1 -1 0 -1 -1 0 0 2 0 0 0 1 -1 2 -1 0 0 0 0 2 -2 0 0 1 1 1 -1 0 0 1 1 2 0 -1 1 -1 1 -1 0 -2 0 0 0 -1 1 0 1 0 1 -1 1 -2 1 -2 2 0 1 0 0 -2 0 -1zm-15 15l0 -1 -1 0 -1 0 0 2 0 1 -1 2 0 2 0 0 1 2c0,0 0,-2 0,-2l1 -3 1 -1 2 -1 0 -2 -1 0 -1 1zm-784 -437c0,0 0,1 0,1l2 -1 1 0 1 0 0 -1 0 0 -1 -2 -1 0 0 0 -2 1 -2 0 0 1 1 0 1 1zm-33 36l-1 0 -1 0 -2 -1 -1 -1 -1 1 0 1 0 1 0 1 1 0 1 -1 1 1 1 1 1 1 1 0 -1 0 -2 0 -1 1 0 4 1 1 0 1 0 0 1 0 1 0 1 -1 0 -1 1 0 1 1 0 2 1 0 1 0 0 -1 0 -1 0 -1 1 1 1 -1 0 -2 0 -2 -1 -1 0 0 1 -1 2 0 2 0 0 -1 0 0 0 -1 0 0 -1 0 -1 -1 0 -1 1 -1 1 0 0 1 1 0 1 0 1 -2 1 0 0 -1 -1 -1 0 -1 -1 -1 0 -1 -1 0 -2 1 -1 1 0 1 -1 -1 1 -1 1 -1 0 -2 1 -1 -1 -1 -1 2 -1 2 -1 0 0 -1 1 -1 -1 -1 0 1 -1 1 -1 1 0 1 0 0 1 0 1 0 0 1 -1 1 -1 0 0 2 0 1 -2 0 -1 2 -1 0zm-16 4l2 -1 1 1 1 0 1 1 0 -1 0 -1 1 -1 1 1 1 2 1 1 0 -1 -1 -1 0 -2 -1 -1 0 0 -1 -2 1 -1 2 -1 2 -1 1 0 1 0 0 1 2 1 2 0 0 -1 1 0 -1 -1 -2 0 -4 -2 -3 -1 -2 0 -3 3 -1 1 -2 1 -1 1 0 4 1 1zm807 378l0 -1 -2 -1 0 -2 0 -1 -2 0 0 0 -3 -1 0 -2 -1 -2 -2 -1 -1 0 -1 -2 -1 -2 -1 -2 0 -1 0 -3 -1 -2 0 -1 0 -3 0 -1 -1 -2 0 -1 1 -1 0 -1 0 0 1 1 2 -1 2 0 1 1 1 2 2 1 1 1 2 2 1 0 -1 -2 -2 -2 -2 -1 -1 -2 -1 -2 0 0 -1 -1 -2 -2 0 -2 -1 -1 -1 -1 -2 -2 -2 -4 0 -1 -3 -3 -1 -3 -1 0 0 -2 -1 -1 -1 0 0 0 -1 0 -1 -1 1 -1 -1 -1 -1 0 -1 -2 -1 -2 -1 -1 0 -1 0 -1 1 0 -1 -2 0 -2 -1 -2 -1 0 -2 -2 0 -1 -1 0 0 -1 1 0 1 1 2 2 -1 -2 -1 -2 -2 -2 -1 0 0 -1 -3 -2 -1 -2 0 -2 -1 -1 -2 -1 -1 -2 -1 0 -1 0 1 1 0 1 -1 0 -1 0 -1 0 2 2 2 1 1 1 0 2 1 -1 1 0 0 1 -1 0 -1 1 1 1 1 0 0 1 -1 1 -1 0 -1 -2 -1 1 -1 2 1 1 1 2 1 2 2 2 0 3 0 0 1 3 1 3 1 2 1 1 1 0 -1 1 4 3 1 0 2 3 0 2 0 2 1 2 0 1 1 1 2 1 -1 1 1 1 1 2 1 1 0 2 1 3 0 1 0 1 0 2 1 3 0 1 0 2 2 1 2 3 0 1 2 2 -1 3 1 2 1 2 0 2 2 2 1 1 -1 2 0 3 1 2 1 1 1 2 2 1 0 -2 0 -1 -1 -1 0 -2 0 -2 2 -1 0 0 0 1 1 1 3 -1 0 0 1 0 1 0 -1 1 0 1 2 1 0 2 1 0 0 -1 0 0 0 -2zm-783 -396l0 -1 -1 -1 0 -1 -1 0 0 1 -1 1c0,0 1,1 1,1l2 0zm27 -18l1 -1 -1 -1 0 1 0 1zm-2 22l0 -1 -1 0 -1 1 -1 0 0 -2 -1 1 -2 0 -1 0 -1 0 0 1 1 1 2 0 1 1c0,0 0,0 0,0l4 -1 0 -1zm-6 5l-1 1 0 1 2 2 0 0 1 -1 -1 -1 -1 -2zm9 -2l1 0 1 0 1 -1 0 -1 -1 0 -1 -1 -1 0 -2 0 -1 2 0 1 1 1 1 -1 1 0zm-4 4l-1 -1 -1 0 0 0 1 1c0,0 1,1 1,1l0 -1zm1 2l1 0 0 -1 0 -1 0 1 -1 1zm10 -4l0 1 2 3 0 2 1 2 1 1 2 0 0 -1 -1 -1 0 -1 1 0 0 -1 1 -1 1 -1 1 0 1 -1 -1 0 -2 0 -2 -2 -2 -1 -1 1 -1 0 -1 0zm10 -13l1 1 2 -1 1 -1 1 -1 0 -1 -1 -1 -1 -1 -1 0 -2 1 -2 1 -1 1 0 1 3 1zm-24 20l0 1 1 1 1 1 0 -2 -1 -1 -1 0zm9 -4l0 0 0 -1 -1 0 -1 1 -1 0 1 0 0 1 2 -1zm4 -13l-1 1 0 1 1 0 1 0 1 0 0 -1 1 -1 0 0 -1 -2 -1 0 -1 1 0 1zm-2 -6l-1 0 0 1 0 1 2 1 2 0 0 -2 -1 0 -2 0 0 -1zm0 -6l1 -1 0 -1 0 -1 -1 0 -1 0 0 1 0 1 1 1zm-4 4l-1 1 -1 1 1 1 1 -1 1 0 0 -1 1 0 -2 -2 0 1zm-2 26l1 0 1 -1 0 -1 -1 -1 -1 0 -1 1 -1 1 1 0 1 1zm9 -12l0 1 -2 0 1 1 2 0 1 -1 0 0 -1 -1 -1 0zm-2 -8l-1 0 -1 0 -2 -1 -3 -1 -2 -1 -1 1 0 0 0 1 2 0 2 1 3 2 1 1 1 0 1 -2 0 -1 0 0zm-2 21l1 1 1 1 2 -1 2 0 0 -1 -1 -1 0 -2 0 -1 -1 -2 -1 0 -1 0 -2 0 -1 1 -1 1 1 2 1 2zm-8 -6l-1 0 0 0 0 1 -1 1 1 1 1 -1 0 -1 0 -1zm-35 245l-1 0 -1 1 0 1 1 1 1 0 0 0 0 -1 0 -1 0 0 0 -1zm40 -20l0 -1 -1 -1 -1 1 0 0 1 1 1 0zm62 -27l1 0 1 -1 -1 0 -1 0 0 1zm605 91l-1 0 -1 1 -1 1 0 1 1 1 0 0 0 -1 1 0 0 0 1 0 0 -1 0 -1 0 -1zm6 7l0 1 1 0 0 0 0 -1 0 -1 -1 1zm-748 7l-2 -1c0,0 0,1 0,1l1 1 1 -1zm212 -127l0 -1 -1 -1 -1 1 0 1 0 0 0 1 1 0 1 -1zm539 120l-1 0 0 0 0 0 0 1 0 1 1 -1 0 -1zm-453 -155l0 -1 -1 -1 -1 0 1 1 1 1zm-15 -54l1 -1 -2 -1 -1 0 1 1 -1 1 2 0zm6 3l1 -1 -1 -1 -2 0 1 1 1 1zm523 -66l-1 1 -1 0 1 1 1 -1 0 -1zm-510 123l0 -1 -1 0 0 1 1 1 0 -1zm-21 -66l1 0 1 -1 0 -1 0 -1 -2 0 0 1 0 1 0 1 0 0zm468 208l-1 0 -1 0 -1 -1 -1 1 -1 1 -1 1 0 1 2 2 0 0 0 -1 1 0 0 0 1 1 2 0 0 -1 1 0 -1 -1 0 -1 1 -1 0 0 -1 0 0 0 -1 1 0 -1 0 -1 1 0zm-509 -80l-1 -1 -1 0 0 1 1 0 0 1 2 1 1 0 1 -1 -1 -1 -1 -1 -1 1zm59 -61l1 -1 0 -4 -1 -2 -1 0 0 3 1 1 0 3 0 0zm591 213l1 1 0 -1 0 0 -1 0zm4 -38l0 -1 -2 -1 0 1 -1 1 1 0 2 0zm-1 25l0 1 1 0 0 -1 0 -1 0 0 -1 1zm-1 -3l-1 1 1 0 0 0 0 -1 0 0zm-2 12l1 1 1 -1 -1 0 -1 0zm-1 9l0 0 1 0 0 0 -1 -1 0 1zm-140 -67l-2 1 1 1 1 1 0 -1 1 0 1 -2 -1 0 1 -1 -2 1zm141 65l1 -1 -1 0 0 1zm-2 6l-1 1 1 0 0 0 0 -3 0 0 0 2zm6 -27l0 0 0 1 1 0 0 0 0 -1 -1 0zm4 -133l1 -2 1 -1 2 -1 0 -1 0 -1 -1 -2 -2 -1 0 -1 -1 1 0 1 -1 0 -2 2 -1 0 0 2 0 0 2 -1 0 0 0 1 0 3 1 1 0 1 -1 1 1 1 1 1 0 0 0 -1 -1 -2 1 0 0 -1zm-30 -42l1 1 0 -1 0 0 0 -1 -1 1 0 0zm103 -110l-1 0 -2 -1 1 -1 1 1 1 -1 0 -1 -1 -1 -1 0 -1 1 0 1 -1 -1 -1 0 0 -2 -1 0 -1 0 -1 1 0 -1 0 -1 2 -1 -1 -2 -1 0 2 -1 -1 -2 0 -1 -2 -1 -2 0 -2 1 1 -2 1 0 -1 -2 0 -1 -1 0 -1 1 -1 -1 -1 -1 -2 0 1 -1 2 0 2 -1 1 1 1 -3 2 0 0 -1 -1 -1 -3 -1 2 0 3 0 0 -1 0 -2 -2 0 -1 -2 -1 1 0 -1 0 -2 -1 -4 0 0 1 -1 0 -1 -1 -1 -2 2 -1 0 0 -1 -1 0 0 1 -1 0 -1 -1 1 -1 -5 -1 -1 1 -2 -1 -1 -1 -1 -1 -1 0 -1 0 0 0 -2 -1 -1 2 -1 1 -1 0 -1 1 2 0 -1 1 -1 1 -1 0 0 1 2 1 -1 0 -1 0 -1 -2 0 -1 -1 0 -2 3 -1 2 -2 1 1 0 2 -1 0 0 1 1 2 2 2 1 1 2 -1 1 0 1 2 0 2 -1 1 1 0 1 1 2 0 1 -1 -1 -1 -2 -1 -1 -1 2 1 1 0 0 0 1 -1 -1 -2 -1 -1 -1 -2 1 -1 0 -1 -1 1 -1 -1 -2 -1 -1 -1 -1 -2 -1 -3 -4 -1 -1 0 -1 -1 -1 -1 0 0 1 0 1 -1 -1 0 -1 -3 -2 -2 0 -2 0 1 1 1 1 3 1 -2 1 -3 -1 -1 -2 0 0 -1 -1 -2 0 1 0 0 1 -2 1 -2 -2 1 0 -3 -1 0 0 0 2 -1 -1 -1 -1 -2 0 1 1 -7 -1 -1 1 -3 -1 0 -1 -2 0 0 0 0 1 -1 -1 -2 0 -1 -1 -1 0 1 1 -3 0 -1 0 -1 2 -2 -1 -5 -1 0 -1 3 1 1 1 1 -1 -5 -2 -5 -1 -2 1 -1 -1 1 0 -1 -1 -2 0 1 1 -1 0 -2 -1 -5 -1 -2 0 -1 1 -1 0 -1 -1 -1 0 -3 0 -1 -1 -1 0 -2 1 -1 -1 -1 1 0 1 -1 -1 -6 2 0 1 -2 0 0 1 -1 0 -1 -1 -2 0 0 2 -1 0 -1 0 -2 -1 -2 0 0 1 -3 0 -4 1 -1 -1 -4 1 0 0 2 1 1 3 1 0 0 2 2 2 -1 1 0 1 1 0 1 -1 3 1 1 1 1 1 2 2 1 2 2 1 2 2 -1 0 1 1 -1 1 1 1 0 1 -1 -1 -2 1 0 1 -2 1 -1 1 -3 -1 -1 -1 0 -1 -2 -3 -1 0 -1 0 -3 -1 -3 1 -1 -1 -2 -2 0 -2 -1 -1 -2 0 0 -1 -1 -1 -2 -1 -1 1 0 1 0 2 0 1 -2 2 -1 2 -1 -1 0 -1 0 0 -2 1 -3 0 -3 1 -1 -1 -2 2 -2 0 -1 0 -2 -2 -1 0 0 1 0 1 -3 1 -1 1 -3 0 -2 2 0 3 0 3 3 3 0 2 -2 -2 -1 -2 -2 1 -1 -1 0 1 2 1 0 2 0 1 -2 -3 -1 0 -1 -2 -2 -3 -1 -1 -2 0 1 2 0 1 -1 -2 -2 0 -2 0 0 1 -1 -1 -2 0 -2 2 -1 0 1 -1 0 -1 -2 -3 0 -2 0 -1 -1 -1 -1 -3 -3 -2 -3 -2 -3 -3 -7 -2 -4 0 -2 0 -3 2 0 1 -2 -1 -3 1 -5 3 -2 0 -3 2 -1 1 -3 2 -2 1 -2 1 -2 1 -2 -1 -4 1 -2 1 2 -2 2 -1 1 -1 -2 -2 -4 -1 -4 -2 -1 -1 0 1 -2 2 0 2 -1 -1 0 0 -1 2 -1 0 -1 0 1 -2 1 -1 -1 -2 -2 -1 -2 2 1 1 -1 1 -1 0 -1 -2 0 -2 -1 -2 -2 2 -2 0 -2 1 -1 -1 1 0 0 -2 0 -1 0 -2 0 0 3 2 1 -1 0 -1 -2 -3 -5 -2 -4 -1 -5 2 -4 0 -2 2 0 7 0 2 1 1 -2 2 0 2 -2 1 -1 0 -1 0 0 -1 -1 -1 1 -1 1 0 1 -2 -1 -3 -1 0 -1 -2 1 0 1 -1 0 1 2 1 1 3 0 -1 0 -4 -1 -2 -5 2 -4 2 0 1 -2 2 -2 -1 1 -1 1 0 -1 -2 0 -3 2 1 1 0 2 0 5 -2 1 0 -3 0 -2 0 -3 0 -7 0 -1 1 -9 0 -5 0 -3 1 -3 -2 -3 1 -2 1 1 1 3 0 1 1 2 0 1 1 0 1 -3 3 -1 -1 -3 1 0 2 -1 1 2 3 2 1 1 -2 1 -1 3 -1 0 2 -3 0 1 2 0 1 1 1 -2 1 1 0 2 -1 1 1 -1 2 2 2 2 0 2 2 0 2 -1 -1 -2 0 1 2 -1 0 -1 0 -1 0 -1 -1 -2 -2 -1 0 1 1 -2 1 -1 -1 -1 1 1 2 0 2 2 0 2 -1 1 2 -1 0 2 1 -2 1 -2 0 0 0 3 1 -4 0 -1 -1 -2 0 -1 -1 -2 -1 -2 -1 -2 0 -2 -1 -1 0 -1 0 -5 2 0 1 0 0 1 1 -1 1 1 2 0 0 -1 -1 -1 1 -2 -1 -6 1 -2 -1 -2 -1 -2 -1 -1 -1 -1 -2 -2 0 0 1 2 2 0 3 2 4 2 4 1 7 0 1 -1 0 -1 -1 0 -1 -2 -1 0 0 0 1 0 1 -3 0 -2 -2 -3 -1 -2 -2 -1 0 -5 -4 -1 0 -1 1 -1 -1 -1 0 3 -3 1 0 -1 0 -1 -1 -2 -2 -1 0 1 1 1 1 0 2 -2 1 -2 -1 -3 -2 -1 -1 -3 0 0 -2 -1 0 3 0 3 0 1 1 2 0 1 -2 0 -1 -1 0 -1 -1 -1 0 0 -2 -1 -1 -1 0 -1 -1 0 0 -1 0 -1 1 -3 0 0 -2 3 -3 0 -1 -1 0 -2 2 -1 -1 2 -2 -1 -1 -1 0 0 1 -1 -2 -1 0 -1 0 -1 -1 1 -2 0 0 -1 0 -1 2 -1 -3 -1 -1 -2 1 -1 0 0 -2 -1 1 -1 0 0 1 -1 -2 0 0 -2 0 -1 0 -1 -1 -2 1 -1 0 -1 1 1 0 1 2 -1 -1 -1 1 0 1 0 -1 -2 1 -1 -1 1 -1 1 0 -1 -2 -1 0 0 1 -1 1 -1 -1 -1 -1 -2 -1 0 1 -1 0 -2 0 -1 -1 0 2 -1 0 -2 -1 -1 0 1 1 0 1 -2 1 -1 0 0 -1 -1 1 1 2 1 1 0 1 1 0 0 2 2 0 1 2 -1 1 2 1 0 1 -1 1 -1 0 0 -1 -2 1 -1 -1 -2 1 1 0 -1 2 -2 0 -1 0 -3 1 -5 1 -2 -1 -2 0 -1 1 -1 -1 -7 0 -1 -2 -1 -2 1 -2 0 0 0 -1 -2 -1 -2 0 -5 2 -6 0 -5 2 -3 0 0 1 -1 0 -1 1 -2 1 -2 1 1 2 2 0 1 0 0 0 0 1 -1 0 -2 2 1 1 -1 -1 0 -2 -2 -2 -1 -1 1 -1 -2 -1 -1 0 -3 -3 -1 0 0 1 3 2 0 2 -1 1 -3 0 -1 1 -2 0 -4 -3 0 -2 1 0 -1 -2 -2 1 0 2 -1 1 -2 -2 -2 0 -2 2 1 2 -2 1 1 2 2 1 2 -2 1 -1 2 -1 1 1 0 1 -3 2 1 1 -1 2 -2 0 -2 0 0 0 1 1 -1 2 -2 2 1 1 -1 0 -1 1 -2 1 -3 1 -3 0 -1 1 1 2 3 2 1 1 -1 0 -2 0 -1 1 1 1 -1 1 -1 1 -2 0 0 1 0 -1 1 -1 1 -4 -1 0 0 -1 1 -1 0 -2 -1 -2 1 -1 1 -1 1 -1 -1 -3 -1 -1 1 -1 1 0 0 0 2 0 2 -3 0 -1 -1 -2 1 -3 1 -2 1 -2 -1 -2 0 0 -1 1 -1 0 -2 0 1 0 2 -2 2 0 0 -2 0 0 1 -1 1 -2 0 -1 0 -1 2 -1 0 -1 -1 -1 0 -1 1 -2 0 -1 0 -1 1 0 1 -2 0 -3 0 -2 -2 -2 1 -1 -1 -1 -1 0 0 0 -1 -1 -1 -1 -1 0 0 2 -1 0 -1 0 -1 -2 1 0 -1 -1 -2 0 -1 -1 0 0 2 0 3 0 1 1 1 0 0 0 1 0 0 1 1 0 0 -1 -1 -1 -1 -1 -1 -2 -1 0 0 0 -1 0 -1 0 0 -2 -2 -1 0 -2 -2 0 0 -2 -1 0 -2 1 0 1 2 1 1 0 0 1 -1 0 0 1 -1 1 -3 -3 0 -1 0 -1 -2 -1 -5 -3 -2 0 0 -1 -4 1 0 -1 1 -1 -1 -1 -1 0 -1 0 -1 0 -1 1 -1 0 -1 1 -1 1 -2 0 -1 0 -2 2 -2 0 -1 1 -1 -1 -1 0 -1 1 0 1 1 1 1 -1 1 2 0 3 -1 2 -2 0 -2 1 -3 1 -1 0 1 -1 2 -1 0 -1 -2 -3 1 -2 0 -1 1 -1 -1 -2 0 -1 -2 -2 -1 1 -1 -1 -1 0 -1 2 -1 0 -1 -1 -2 1 -1 2 -1 0 -1 -1 2 -2 -1 -1 -1 0 -2 3 -3 2 -2 -1 2 -2 1 0 2 -2 -1 -1 1 -2 0 0 2 -1 -1 -1 -2 0 0 -1 -1 -2 0 0 -2 2 -2 -1 -1 -2 -1 0 -2 2 -2 -2 -1 0 -2 1 0 1 -2 1 1 1 -1 2 0 2 0 1 -1 2 -1 6 2 2 0 1 -1 0 0 2 2 2 1 0 2 2 2 0 -2 1 0 2 0 1 3 0 2 0 2 0 3 1 0 0 -1 1 -1 0 -2 0 -1 -1 -4 2 -1 -1 -1 1 -2 -1 -1 0 -1 1 -3 0 -1 1 0 1 2 0 0 1 2 0 1 1 1 -1 2 2 2 1 1 2 -1 3 -2 1 1 -3 -1 -1 0 -2 -2 0 -1 0 0 -1 -1 0 -1 0 -2 0 -2 2 2 0 -1 1 -2 0 1 1 0 1 -2 2 0 -2 -1 0 -1 1 0 1 0 2 -1 0 -1 -2 -1 -2 0 1 0 1 -1 2 -1 2 -1 -1 0 -1 1 -3 -1 -1 -1 0 -4 1 -2 0 -2 1 -1 0 -1 -1 -2 0 1 2 -1 1 0 0 0 -1 -1 0 -1 1 0 0 -1 3 1 1 2 -1 1 0 2 -1 1 0 0 2 -4 1 -1 2 -2 0 -3 1 0 1 0 1 -2 0 -2 0 0 0 -1 1 -1 1 -2 0 0 1 1 1 -1 0 0 1 -1 1 -1 -1 0 0 -2 2 0 0 0 1 0 1 -2 2 1 1 -2 0 -3 1 -1 1 0 1 1 0 1 -1 3 1 -1 1 -1 0 0 0 1 1 -1 3 -1 1 0 1 0 1 -2 -2 -1 0 -2 -2 -1 0 0 0 1 1 0 1 -1 1 1 2 2 -1 2 1 2 0 0 1 2 1 1 0 1 0 0 0 -1 1 -2 0 -1 -1 -1 0 -1 1 0 1 2 2 1 -1 2 0 1 2 1 1 1 -1 2 0 -1 1 3 2 1 0 2 1 -2 3 -3 2 -1 1 0 1 3 2 2 1 -3 0 -3 -2 0 -2 1 -2 1 -1 0 -1 1 -2 -1 0 -5 2 -3 1 0 1 -2 1 -2 0 -2 0 -2 2 -5 1 -5 1 -1 0 -2 2 -2 0 -1 1 1 1 0 2 0 1 1 1 1 0 0 1 0 1 2 1 2 3 0 3 1 1 0 0 1 2 2 1 2 0 5 0 2 -1 0 1 0 1 0 2 2 1 2 2 4 0 2 1 1 0 2 2 0 4 1 1 -1 2 2 1 1 1 3 4 1 3 2 1 0 2 -1 3 -1 0 -1 -1 1 2 2 0 2 1 3 3 2 1 1 0 1 0 2 -1 3 -1 2 2 3 0 1 1 1 1 0 3 -1 -3 -1 -1 -2 0 -3 -2 -2 0 -2 2 0 2 0 1 -3 -3 -3 0 -2 -1 0 -1 -1 -2 -2 -1 -3 0 -2 -1 0 -1 0 -1 1 -1 0 -1 0 -3 -1 -3 -1 0 -1 2 -1 0 0 2 -1 1 0 1 0 1 -1 0 -1 -4 1 -1 0 -2 -2 -1 0 -3 -1 -1 0 -2 2 -1 0 -1 0 -2 0 -2 -2 0 0 0 -1 -1 -4 2 -4 0 -2 0 -3 -3 -2 0 0 -2 -4 0 -2 -1 -2 -2 -5 0 -2 -1 -1 1 -2 3 0 1 -1 1 -1 -1 0 1 1 1 2 -1 3 0 1 3 -1 3 -3 0 -3 -1 -2 -2 -1 0 -2 1 -1 1 -1 0 2 3 1 0 1 2 2 2 3 0 1 1 4 0 1 -1 1 1 0 1 2 0 1 2 1 0 1 1 3 1 1 -1 -1 1 -3 0 -2 -1 -2 0 -2 -2 -1 0 -1 1 -2 0 -1 1 -1 -1 -1 -1 -2 1 -2 0 -2 -1 -2 0 -1 -1 1 -1 0 -1 -1 -1 0 -1 -2 -2 -1 -1 0 -2 -1 -2 0 -3 -1 -1 0 -2 -1 -1 -1 0 0 -2 -3 -2 0 1 3 5 1 4 -1 3 -3 3 -1 1 0 1 1 1 0 2 -1 3 0 1 3 2 4 2 0 2 2 0 2 2 1 3 0 4 0 2 1 2 0 3 1 2 3 2 0 2 0 2 1 1 2 0 2 -1 2 1 1 -1 1 -2 2 -2 2 1 1 -1 3 2 1 -1 1 2 4 1 2 0 2 2 0 1 2 2 1 1 0 0 1 1 1 1 -1 1 -2 0 0 2 1 2 1 1 0 1 0 1 2 0 1 1 2 0 1 -1 1 1 1 -1 1 1 0 0 -1 1 -2 0 -1 0 -3 1 -2 -2 -1 0 -2 -1 1 -1 0 -2 -1 -1 -1 -2 -1 0 0 -2 -2 -2 0 0 -1 -1 -3 -1 0 -2 -2 -2 -2 0 -3 3 -2 0 -1 1 -3 2 1 4 1 1 3 2 2 5 0 1 -2 4 -1 2 1 2 -1 3 0 1 -2 2 0 1 -2 1 -1 1 0 2 1 1 0 1 -2 1 -3 0 0 -1 -3 0 -3 0 -2 0 -6 -1 -2 -2 0 -1 -3 0 -1 2 0 -1 -1 0 1 -2 2 0 4 -1 1 0 4 1 1 0 0 -1 2 0 0 1 -3 2 2 1 3 -1 1 -1 1 -1 0 -1 -1 -1 0 -1 1 1 1 -1 0 -3 2 -1 0 -1 -1 1 -1 -1 2 -1 0 -3 -1 0 1 -2 0 0 2 -1 -1 -2 -1 -2 -1 -2 0 -2 0 -2 1 0 0 -1 -2 -2 -1 0 -1 -1 -3 -1 -3 -3 0 -3 -1 -1 0 -1 -1 -1 -1 -1 1 -2 -3 -3 0 -2 -1 -2 0 -1 0 -1 -1 -1 -1 -4 -1 -1 -1 -2 -1 -2 -1 -1 -1 1 0 -1 -2 0 -1 -2 -1 -1 -1 -2 1 0 0 -1 0 -2 0 -1 -1 -1 1 -3 -1 -2 0 -3 -1 -1 0 -1 -1 -2 1 0 0 -1 -2 -1 -2 0 -4 -1 -2 -1 -1 1 -1 0 -2 0 -1 0 -3 0 -1 1 -1 0 1 -1 -2 -1 -1 1 0 2 0 3 1 1 0 1 -1 2 1 1 0 2 0 1 0 1 0 2 1 2 -1 1 0 1 1 2 0 1 -2 1 -3 4 -1 0 1 1 1 2 -1 1 -1 2 2 2 1 -1 1 1 1 3 2 0 1 1 -1 0 -1 1 0 2 3 1 0 2 -1 1 -1 -1 0 1 1 3 1 1 0 2 1 -1 2 1 1 0 2 1 1 -2 1 1 0 2 1 1 1 0 3 4 2 0 1 -1 1 0 0 1 2 0 -2 1 0 4 0 0 1 2 0 1 -1 0 0 2 0 0 -1 0 -2 -3 -2 -1 -3 -1 -1 -2 -1 -1 -4 0 -4 -2 -3 -1 0 -1 -1 0 -1 -1 -3 1 -1 1 -1 -2 1 0 -1 -1 -4 -2 -3 -1 -7 0 -5 0 -2 0 -1 0 -2 -1 0 1 -1 -1 -1 1 0 2 0 1 -1 0 0 1 1 1 1 1 1 2 0 1 1 -1 1 0 1 2 0 2 2 0 2 2 -2 0 -1 -1 -1 0 -1 3 -1 0 -2 0 -1 0 0 1 1 2 1 0 0 1 -1 1 -4 0 -1 -1 1 -1 -1 -2 1 -1 0 0 -1 -2 -1 0 1 -1 -1 -1 -1 1 -1 0 -2 2 -1 0 -1 1 0 1 -2 0 -1 1 0 1 -1 0 -3 0 -1 0 -1 0 -1 0 -1 0 -2 1 0 0 -2 1 -1 1 0 1 1 0 0 1 0 1 -1 0 -1 0 0 -1 -1 0 -2 1 0 2 0 -1 -2 -1 -1 1 -1 0 -1 0 -1 0 -1 -2 2 -1 1 0 1 -1 -1 -1 0 -1 1 0 -1 -2 -1 1 -1 -1 -1 0 3 -1 1 0 2 -1 -1 -1 -2 1 -4 1 -2 1 1 1 0 1 1 1 -1 1 -1 0 -1 -1 0 -1 1 0 0 -1 -1 0 -3 2 1 1 1 1 1 0 -1 1 -1 2 -1 -1 0 0 0 -2 0 0 -1 -1 -3 1 0 1 -2 1 -2 0 -1 0 0 1 -3 3 0 0 -3 4 -1 0 -2 -1 0 0 0 2 2 1 1 1 -3 -1 0 1 -4 0 -1 1 1 1 0 1 -1 2 1 2 -1 1 -3 1 0 1 -2 0 0 1 -1 -2 -2 2 -1 0 -4 -4 -3 -2 -1 -1 0 -2 1 0 1 0 0 -1 0 -1 1 0 2 -1 1 0 2 0 1 -1 -2 -3 -1 -1 -1 0 -2 -2 0 -1 -2 -1 -4 0 -3 0 -1 0 -2 0 -3 -1 -1 0 0 0 3 3 3 1 1 3 0 2 0 1 0 0 0 1 0 1 0 1 0 3 -1 2 1 1 2 0 1 1 2 1 -1 1 1 1 -1 0 0 1 1 1 0 1 0 3 -1 0 1 2 0 3 -1 -1 0 -2 -2 -1 -2 2 0 -2 -1 -1 -2 0 -2 0 -2 -1 -1 0 -1 1 -2 3 -3 2 -1 0 -2 1 0 2 -2 2 -2 1 0 1 1 2 3 4 2 2 -1 1 -1 0 0 2 -1 1 -1 1 -2 -2 -5 -2 -2 0 0 -1 -3 0 -1 -1 -1 -1 -2 -1 -2 -1 -2 0 0 1 1 1 -1 1 1 0 -1 1 -2 0 1 2 1 2 2 0 1 2 2 1 1 -1 1 0 1 0 1 1 1 0 0 1 0 0 1 1 0 2 -1 1 -1 0 -2 1 -1 0 -1 -1 -2 0 -1 -1 -3 0 0 0 0 -2 -2 0 -1 -2 0 0 -2 1 -3 -1 0 -1 -1 0 1 -2 -1 -1 0 -1 -1 -1 0 -2 -2 -1 0 -2 -2 0 1 -1 1 -1 0 -2 0 -1 -1 0 1 -1 0 -1 -1 0 -1 -2 -4 -2 -1 1 0 -1 -2 0 0 1 -2 -1 1 0 1 -1 1 -1 -2 0 0 0 1 0 -1 -1 -1 0 -2 1 -1 0 1 -1 1 -1 0 0 -2 -1 -1 -1 -2 -1 0 -2 -1 -1 0 0 1 0 1 0 2 0 0 2 3 2 1 0 0 0 2 1 2 0 1 -1 1 1 -1 1 0 0 0 1 2 0 0 -1 3 0 -1 1 2 0 1 0 0 0 2 2 1 -1 1 1 0 0 2 0 2 1 1 -1 2 1 2 1 4 0 4 0 0 -1 2 0 2 -1 2 0 2 -1 3 -4 0 -1 2 -1 0 -1 0 -1 1 -2 0 -2 0 -2 -1 0 -1 0 -1 -2 -1 0 0 -2 -2 -1 -1 -1 0 1 -2 -1 0 -1 -3 -2 0 -1 -1 -1 -1 0 0 0 1 2 -1 0 -2 -1 -1 0 -2 -2 -1 0 0 0 1 1 -2 0 -1 -2 -2 -1 -1 -1 -5 -3 -8 -4 -1 0 -1 0 -1 -1 -2 0 0 1 -1 0 -1 0 -3 0 -1 -2 -1 0 0 0 1 1 -1 1 0 -1 -2 0 -1 1 1 1 -1 1 -2 1 1 -2 1 0 -1 -1 -1 0 1 -1 0 0 -1 0 0 0 -2 2 0 -1 1 -1 -1 0 -1 1 0 0 0 -1 -1 -1 -1 1 -1 -1 0 0 -1 1 -1 -2 0 -1 1 -1 0 1 1 1 2 0 1 0 1 -1 0 -1 -1 0 0 0 -1 -1 -1 1 -1 -1 0 -1 -2 -1 -1 0 -1 1 1 0 0 1 0 0 -1 0 0 0 0 1 1 0 -1 1 -1 0 0 0 -1 2 0 -1 0 -1 -1 -1 -1 0 0 0 0 2 -1 1 -2 -1 -1 0 0 2 -1 2 -2 0 -2 2 0 2 -1 0 0 0 -2 1 -1 1 1 0 0 2 -1 2 1 1 2 3 1 1 2 1 1 1 0 1 4 2 1 1 -1 2 -1 2 -2 4 2 1 1 2 3 5 3 7 -1 1 0 4 0 1 1 1 -1 1 0 2 1 1 2 0 0 2 0 0 0 3 1 1 2 2 0 2 -1 2 -1 2 4 4 2 1 3 3 0 2 -2 5 -3 5 -1 3 -3 3 -2 3 -1 1 -4 3 1 2 0 0c0,-1 0,-1 0,-1 0,0 2,-1 2,-1l2 0 -1 1 0 1 0 1 -2 -1 0 0 2 2 2 0 1 2 1 0 1 -1 1 0 1 2 0 1 -3 -1 -1 1 0 1 -2 1 -1 -1 -1 1 0 1 -1 1 -1 -1 -1 0 0 0 1 1 0 2 0 0 0 1 0 0 0 1 -1 1 -1 2 0 1 -1 5 4 5 0 2 -2 1 1 1 -2 1 2 1 0 1 0 0 0 1 1 1 0 1 1 2 0 0 1 2 1 2 0 1 1 0 1 1 2 -1 1 2 2 0 2 0 1 2 2 -1 2 -1 1 1 1 0 3 1 1 2 -1 1 2 2 0 2 1 2 1 1 2 3 2 1 0 2 3 1 3 2 0 1 2 1 -1 1 -2 2 -3 1 -2 -2 -1 2 0 1 2 2 0 2 1 2 0 2 2 0 1 0 0 -2 1 -1 4 1 4 0 2 -1 2 1 1 3 1 1 -1 1 2 3 5 -1 1 1 0 2 2 0 0 2 1 2 3 3 1 -1 2 1 2 -1 2 1 2 -2 1 0 2 3 2 1 1 2 1 -1 3 0 2 0 1 1 2 0 2 1 2 0 1 -1 1 2 1 0 0 2 -1 2 -2 0 0 3 2 1 0 2 -1 3 1 1 -2 1 -3 1 -2 2 -1 0 0 3 0 0 0 0 1 1 2 -1 2 -1 1 1 -1 1 -4 2 -1 1 0 1 1 0 -1 1 -2 -1 -2 1 1 2 1 1 1 -1 0 1 2 0 0 1 -1 0 -1 1 -1 0 -1 0 0 1 -1 1 0 1 1 1 -1 2 -1 0 0 0 -2 -1 -1 0 0 0 0 1 -1 1 -1 0 2 1 1 0 2 1 0 1 1 2 3 -1 3 2 2 1 5 3 1 1 1 1 1 1 1 1 1 0 1 1 1 0c0,0 -1,-3 1,-2 2,0 2,0 3,0 1,-1 4,2 6,2 2,-1 0,1 3,0 2,0 3,0 4,0 1,1 4,0 4,1 1,1 2,2 3,1 1,0 1,1 3,1 1,1 -1,2 1,2 1,1 1,0 2,0 1,0 1,-1 2,-1 2,0 3,1 3,1l0 -1 1 0 2 0c0,0 0,1 2,1 1,0 2,1 2,1 0,1 -2,2 0,3 1,0 2,1 2,1 1,0 2,0 2,0l1 1 3 1 3 2 1 2 3 0 1 -1 2 -1 3 -3 0 0 -1 0 -4 -3 -3 -3 0 -2 -1 -2 0 -2 -1 -1 0 0 -1 0 0 -1 1 0 0 -1 1 -2 -1 1 -1 0 -2 -1 0 -2 -1 0 -1 -2 -1 1 -1 0 -1 -3 1 -1 1 -1 0 -2 0 -1 1 -2 0 0 1 -2 0 -1 0 0 1 0 1 0 1 0 0 -1 1 1 0 -1 1 0 1 0 0 -1 -1 0 1 0c0,0 0,0 0,0 1,0 2,0 2,0l0 0 1 0 -1 -1 -2 -1 1 0 2 0 0 0 1 0 0 -1 0 0 0 0 0 -1 0 0 1 -1 0 0 0 -1 0 0 0 0 -2 -1 -2 1 -2 -2 0 -1 3 0 -3 -5 -4 -3 -5 -1 0 1 -3 -2 1 -1 -2 -2 -3 -1 2 -2 0 -4 -1 -1 0 -4 1 0 2 -2 0 -2 1 -1 4 3 1 1 2 1 2 0 0 -2 1 -1 -2 -5 3 0 2 0 0 -2 -1 -1 0 -2 3 -1 1 0 0 -2 1 -1 2 1 0 -1 0 -2 0 -1 2 2 2 0 0 1 -1 1 1 1 1 -1 1 -1 1 0 0 1 1 -1 0 -1 1 0 2 -1 1 0 1 2 2 1 2 -1 2 0 0 1 1 0 2 2 1 0 2 1 2 2 1 0 0 1 1 1 0 1 1 -2 0 -2 2 0 1 1 3 0 0 2 2 0 1 -1 1 -3 1 0 0 -1 1 0 1 1 1 -2 2 0 2 2 0 1 2 0 0 -2 1 0 2 0 1 -1 2 1 1 0 -1 1 -1 1 2 1 1 1 1 -1 1 1 2 0 3 1 1 0 1 -2 0 -1 1 -1 2 2 2 0 3 -1 0 -1 0 -5 -1 -1 -2 0 -1 -1 0 -1 -2 0 -1 -1 -2 0 0 -1 -1 -1 1 0 1 -1 0 -1 1 -1 0 -2 -1 0 0 -1 1 -3 2 -1 3 0 2 0 0 0 0 -2 -1 0 -1 -1 -1 0 -1 0 -2 0 -2 0 0 -1 1 -1 2 0 -1 -1 -2 0 -1 0 1 -1 -1 -2 0 0 2 0 1 -1 1 0 0 1 2 0 1 1 1 -1 0 -1 1 -1 2 0 1 2 0 -1 0 -1 3 -1 2 0 2 -1 2 0 0 -1 2 -1 2 0 1 -1 1 0 1 1 1 -1 0 -1 1 -1 1 0 0 -1 1 -1 1 1 1 0 2 0 1 -1 4 -2 0 0 1 0 2 -1 1 -1 1 0 2 0 0 -1 -1 -1 1 0 2 0 0 -2 2 0 0 0 2 -1 1 1 3 0 1 1 2 0 2 -1 1 0 1 2 1 1 0 1 1 1 1 1 0 0 0 2 0 1 0 0 -1 1 1 1 1 0 1 0 1 0 1 0 0 -1 1 -1 1 2 1 0 0 -1 -1 -2 1 0 2 2 1 2 1 2 1 0 1 -1 -1 -1 -1 -1 2 0 3 1 1 0 1 0 1 0 -1 1 -1 1 0 2 1 1 1 0 1 -1 2 0 3 0 1 1 1 -1 -1 -1 2 -1 2 0 1 -1 1 -1 1 -1 0 -1 2 -2 1 0 1 -1 2 0 2 -1 1 0 0 2 -2 1 -1 0 1 1 13 9 19 21 1 0 2 -1 0 -1 0 0 -1 -1 2 -1 2 1 0 1 0 1 1 0 2 1 1 0 1 0 1 0 2 0 2 0 1 0 1 0 1 -1 -1 -1 1 0 2 -1 3 0 2 1 2 1 1 2 1 2 1 0 2 0 1 1 1 0 1 1 0 0 0 1 0 1 0 1 1 1 0 0 1 0 1 1 2 0 0 0 1 -1 4 0 1 -1 1 -1 2 -1 0 1 0 1 0 1 1 1 2 1 2 1 0 0 1 0 2 1 1 0 0 -1 1 -2 1 -1 4 0 0 0 1 -1 3 -1 0 -2 0 -1 2 -1 0 -1 2 -1 1 0 1 -1 1 -1 -1 -1 0 0 0 -1 3 1 1 -1 0 -2 2 0 2 0 2 -1 1 0 2 0 1 0 0 0 1 1 0 1 1 0 2 0 0 0 2 0 1 0 2 -1 1 1 0 2 1 0 3 2 2 1 2 1 1 0 2 0 1 -2 2 0 1 1 1 0 1 0 4 0 1 1 1 -1 1 0 1 0 3 0 1 -2 -1 -1 -1 -1 0 -2 0 -2 0 -1 -1 0 -1 -1 -2 -1 -1 -1 0 -4 2 -1 0 -1 0 -1 2 -1 0 0 1 -1 -1 -1 1 -1 1 -1 1 0 1 1 2 1 2 0 0 1 2 0 2 1 3 -1 1 1 0 1 2 0 1 0 2 1 3 -1 1 1 1 1 0 1 0 1 0 1 1 0 1 2 0 1 1 1 1 0 1 1 0 1 3 0 2 1 1 1 1 -1 2 0 1 0 1 0 1 0 1 0 1 -2 2 0 3 0 2 -1 2 0 2 -1 1 1 3 0 3 0 1 2 3 1 2 0 1 0 1 0 1 2 2 1 0 1 1 0 2 1 1 0 3 0 3 1 5 0 2 0 0 -1 2 0 1 1 1 0 1 -2 3 -2 2 1 1 -2 1 0 4 0 1 -1 1 -1 0 -1 1 -1 1 -1 1 -1 1 -1 1 -1 1 0 1 0 2 -1 2 1 1 1 1 1 1 0 2 0 1 0 1 0 2 -1 0 -1 2 0 3 1 1 1 0 -1 2 0 0 1 1 0 2 0 1 1 1 0 4 -3 2 -2 2 0 1 -1 1 -1 -1 -2 0 0 -1 0 0 0 -1 0 0 -2 0 -1 0 -2 0 -1 0 0 1 -1 0 -1 -1 -1 0 -2 0 0 -1 -1 1 -2 0 -1 1 -1 1 -1 1 -1 1 -1 0 -2 -1 -1 0 -1 -1 0 0 -2 -1 -1 -1 0 -1 0 -2 1 -1 0 0 -1 0 -1 0 -1 0 -1 1 0 0 -2 1 -1 0 -1 1 0 2 0 1 -1 1 0 0 0 1 0 1 0 1 -1 1 0 1 -1 2 0 1 0 1 0 1 -1 1 0 0 -1 2 0 1 0 0 0 2 0 1 1 2 0 1 1 0 0 2 0 1 0 0 1 2 0 0 0 0 -1 1 0 1 0 1 0 0 0 1 0 1 0 1 1 0 0 0 1 0 1 1 0 0 0 1 0 1 0 1 1 -1 0 0 1 2 0 0 0 1 0 0 1 1 0 0 1 0 1 1 1 0 1 0 0 2 0 0 1 0 1 0 1 2 1 0 1 1 1 0 1 1 0 1 1 1 1 0 0 -1 1 1 0 0 0 1 1 0 1 2 2 2 1 1 1 0 2 1 0 0 2 1 0 1 0 0 1 0 1 1 2 1 1 1 1 1 1 1 0 1 -1 0 1 1 0 2 0 0 -1 1 0 0 1 0 0 0 0 2 1 1 0 0 0 1 1 0 -1 1 0 1 0 0 0 1 0 1 0 0 1 1 1 0 0 1 0 0 1 1 0 1 1 0 0 1 1 1 0 0 0 1 1 1 0 1 0 1 0 1 -1 0 0 1 0 0 1 -1 1 0 1 0 1 2 0 0 1 0 1 0 1 0 1 0 1 1 1 1 1 1 1 0 1 1 -1 2 0 1 0 0 1 1 0 1 0 0 0 1 0 1 0 2 -1 1 -1 1 0 0 -1 0 -1 1 0 0 -1 0 -1 1 -1 2 0 0 -1 1 0 1 0 0 -1 1 -1 1 0 1 -1 1 1 1 0 1 0 1 1 1 1 -1 1 0 1 1 1 0 1 1 1 1 0 0 1 0 2 -1 0 -1 0 -1 1 0 1 1 1 0 0 0 1 0 1 0 1 1 0 0 1 0 1 0 0 0 0 -1 1 0 1 1 2 0 0 0 1 0 0 -1 1 1 1 0 1 0 0 -1 1 0 0 0 1 1 1 -1 0 0 2 0 1 0 0 0 1 0 0 0 1 1 1 -1 1 -1 0 -1 0 -4 -1 -1 0 -2 -1 0 0 -2 2 0 1 -1 1 0 0 -1 1 -1 0 1 1 2 3 0 1 0 1 1 1 0 1 1 2 0 1 0 2 1 1 0 1 0 1 -1 1 0 1 1 1 0 1 -1 0 -2 0 -1 0 0 1 1 1 0 0 0 1 0 1 0 0 1 1 0 0 1 0 0 -2 2 0 1 0 0 -2 1 -1 0 -2 2 -1 0 -1 0 -1 2 1 2 -1 0 1 1 2 2 1 2 1 1 -1 1 1 2 -1 2 -1 0 -1 1 0 1 -1 3 -3 -1 -1 2 -1 0 -1 0 -2 1 1 0 0 2 -2 -1 -1 1 -1 -1 -2 2 0 0 -2 2 -1 0 -1 0 0 0 -2 1 0 1 -6 2 -2 0 -1 1 -1 1 -2 1 -2 1 -1 -1 -1 -1 -1 2 -2 -1 -3 1 -1 0 -1 0 0 1 -3 0 -1 1 -2 0 -2 0 0 0 -2 1 -2 0 -2 2 -2 0 -2 -1 -1 0 -2 0 -1 1 -1 -2 0 0 -4 0 0 0 -1 0 -3 -2 -2 -1 0 -1 -1 1 -1 1 -2 0 0 -2 1 -1 -1 -1 -4 0 -1 0 -1 -1 -3 1 -1 -1 -3 0 -1 0 0 0 -1 0 -1 0 0 0 -2 0 -1 0 -1 1 0 -1 -1 -1 -2 1 -1 0 -1 -1 1 -2 -1 -1 -1 0 -1 1 -1 0 -1 -2 -3 -1 0 -2 -1 1 -1 0 -1 1 -1 -1 -2 -1 0 -1 -1 -1 0 -1 -1 -3 -1 -1 -1 -2 -1 -1 0 0 -2 -2 -1 -1 0 -2 -1 -2 1 -1 0 -1 1 -1 0 0 0 0 -1 -1 -1 -2 0 1 3 1 1 -1 1 1 2 0 2 -1 1 0 -2 0 -2 -1 -2 -1 1 1 2 -1 2 -2 1 -3 0 0 0 1 -1 1 0 -1 -2 1 -1 1 -1 -2 0 -1 1 0 -1 -1 0 -1 2 -1 0 0 0 -1 1 -2 -1 0 -2 -1 -2 -1 -2 0 -4 -2 1 -1 0 -1 0 -1 1 -2 1 -1 0 -2 -1 -1 0 -2 -1 0 -1 0 -1 1 -1 1 -2 0 -2 2 -1 0 -3 3 -1 0 -2 1 0 -1 -1 2 -2 0 -1 1 -2 0 -2 0 0 0 -3 1 -3 0 0 1 -3 1 0 0 -2 2 -2 0 -2 1 -1 0 -2 0 0 0 -2 1 -1 1 1 0 -2 -1 -1 0 -3 0 -1 1 -3 2 -2 1 -2 -2 -3 0 -2 2 -1 0 -1 3 -2 0 -1 1 -1 1 1 2 0 2 -2 2 0 3 -1 1 0 2 -1 1 0 1 0 1 -1 1 1 0 1 1 1 1 1 1 -2 1 -1 -2 -1 0 -1 2 0 2 0 2 -1 3 0 0 1 1 0 1 0 1 0 0 -1 1 -1 2 0 1 1 3 -1 0 -1 -1 0 -1 0 -1 -1 1 -1 0 1 2 -1 -2 -1 0 -1 1 0 2 -2 2 0 2 0 1 0 2 1 2 -1 0 1 1 1 1 -1 0 -1 2 0 2 1 1 0 2 1 0 0 2 1 1 -1 1 0 1 1 -3 1 -2 0 -1 1 0 1 -1 0 0 1 0 1 1 0 2 2 1 -1 2 0 1 -1 0 -1 1 -1 -1 -1 1 0 2 2 1 0 1 -1 -1 -1 1 0 1 -1 0 0 0 -1 0 -1 1 -1 1 1 1 -1 1 1 0 1 1 1 2 -2 -1 -1 0 0 1 -1 1 0 1 0 1 0 1 -1 -2 -1 1 0 0 -1 -2 -1 -1 0 0 0 0 1 -1 0 -1 -1 0 0 0 1 -2 0 0 0 -1 0 0 -1 1 -1 -2 -2 1 -1 -2 -2 1 -2 0 -2 1 -1 0 -2 2 -1 0 -2 -1 0 2 -1 -2 -2 1 -4 1 -1 -1 -2 -1 -2 -1 -1 0 0 2 -1 -1 -2 1 -1 2 -2 2 0 1 0 1 0 1 -1 2 0 0 -1 2 0 0 -1 1 0 0 -1 2 0 0 1 1 0 0 0 1 2 1 0 1 -2 0 -1 1 -1 0 -1 1 0 0 1 2 1 0 1 0 1 0 1 1 1 -1 1 0 0 1 2 -1 0 0 1 1 0 -1 1 0 1 0 1 2 -2 0 1 2 1 0 2 1 0 0 -1 1 -2 1 1 1 0 -2 2 2 1 0 2 1 -2 1 -1 0 -1 1 0 0 -4 1 -1 -1 -1 1 -1 0 -1 0 0 0 -1 0 0 1 -2 -1 -1 0 -2 2 -1 2 0 0 1 1 1 1 -1 -1 -1 0 -1 -2 -1 -1 -3 -1 -1 0 0 -1 -1 -1 -2 1 -1 -1 -1 -1 -1 0 -2 -1 0 2 -2 2 0 1 -2 2 1 1 -1 2 2 2 0 1 0 1 0 1 0 -2 1 1 1 -1 0 -2 0 -2 2 0 1 1 1 0 2 1 0 0 2 2 1 0 1 0 0 0 1 1 0 1 2 0 1 -1 0 0 4 1 0 0 -1 1 0 1 1 0 1 -1 2 0 3 1 1 1 -1 2 0 0 1 0 1 -1 0 -1 1 -1 0 -2 1 0 1 -2 1 0 1 -1 0 0 2 -1 1 1 1 1 0 -1 2 -1 2 1 1 0 0 0 3 0 3 0 0 -2 1 0 1 0 1 0 3 -1 0 1 1 1 1 -1 0 -1 3 1 1 0 1 -1 1 1 2 0 3 1 2 -3 4 1 2 -1 -1 -3 1 0 2 1 1 -2 2 -3 -1 -1 1 0 1 2 0 3 3 0 4 -1 1 1 1 -2 0 0 2 -2 2 0 3 1 2 1 5 2 3 0 2 3 7 4 7 5 6 1 2 1 2 5 6 6 9 2 1 2 1 1 -1 0 1 -1 1 -1 0 2 2 2 6 1 3 1 2 3 0 1 1 0 1 0 1 0 2 1 -3 1 -3 1 -1 0 -1 2 -1 0 -2 0 0 0 -1 1 -3 -1 -1 0 -3 1 -1 -1 -1 -1 1 -1 -1 1 -1 -1 -2 0 1 1 -1 -1 -1 0 -1 0 -2 -1 0 -1 0 1 -2 1 1 2 -1 1 0 2 -1 1 -1 1 0 1 1 -1 -2 -2 -1 0 -1 -2 -1 -1 -4 1 -4 -2 -1 1 -1 1 -2 1 -2 -1 -1 2 0 2 -1 0 1 5 -2 0 -2 1 -1 -2 -1 -3 -3 -1 0 -4 -5 0 -1 -1 -1 0 -5 1 0 -1 -3 1 -1 0 -2 -2 1 0 -1 1 -2 2 0 0 -1 -1 -1 1 0 1 1 -1 1 0 2 0 2 2 1 2 1 1 -1 0 -1 1 -1 -1 -2 -4 -3 0 -3 -1 -1 -1 0 0 0 -1 1 0 1 -1 0 -2 -1 1 -2 -1 -2 -2 -2 1 -1 1 -1 -1 -1 1 -1 -1 -1 1 -1 0 -1 -1 -1 -2 1 -2 -2 -2 0 -1 1 0 1 2 2 0 1 -1 0 -2 -1 -2 -2 -1 -1 -1 -1 0 -1 -1 -2 0 -2 0 0 -1 -2 1 -1 -1 -2 1 -1 0 -1 0 -2 0 -1 0 1 -2 -2 0 0 1 -1 2 1 0 -1 -1 0 -1 -1 0 -1 1 0 -1 -1 -1 -1 -1 -1 -1 -1 1 0 0 -1 -2 -2 1 -1 0 -1 1 -1 -1 -1 0 -1 1 0 2 1 0 0 1 -2 1 0 1 1 1 0 1 1 1 -3 -1 -1 0 -1 1 -1 2 -2 0 -2 1 1 2 1 0 2 2 4 1 1 0 -1 1 -3 0 -1 0 -2 1 -1 -1 -2 1 1 1 -1 1 -3 2 0 1 -1 2 -1 0 1 3 -2 2 1 4 2 0 1 1 0 2 0 1 0 -1 1 2 2 1 -1 1 1 2 0 1 0 0 -1 -2 -2 0 -1 0 -1 -1 0 0 -1 1 -2 1 -3 1 -2 -1 -1 2 -2 -1 -1 1 -1 -1 -2 -1 -1 0 0 2 -1 1 -1 -2 -1 -1 -1 1 0 1 0 1 0 0 -1 -1 -1 2 -1 0 -1 -1 -1 1 0 1 0 0 -1 1 -1 -1 -1 1 0 2 -2 -1 -1 0 -1 1 1 2 -1 -1 -2 0 -2 1 0 0 0 1 -1 2 -2 -1 -1 1 -1 1 0 2 -2 -1 -1 1 0 2 0 2 -1 0 -1 0 -1 1 0 0 2 1 0 2 -1 1 1 6 0 1 1 0 0 0 -2 -2 -1 0 0 1 -1 0 -4 -2 -3 -2 0 -2 -2 1 -1 -2 -2 -3 -1 -3 -2 -2 -2 0 2 -1 -1 -1 1 0 1 -1 1 -1 -1 0 -2 2 -1 -1 -1 0 -1 1 0 1 1 -3 -4 -2 -1 0 2 0 0 -1 0 -3 -2 0 -1 2 0 -1 -1 -4 -3 -1 0 1 1 -1 1 -2 0 -2 -2 -2 0 -1 -3 0 -1 -1 0 -2 0 -2 2 0 1 -1 -1 -1 1 0 3 0 1 -1 -1 -1 -2 1 -2 -3 -1 0 -2 -1 0 1 -1 2 2 0 -1 1 -1 2 1 2 -1 -1 -1 -4 -2 -1 2 -2 0 -2 -1 2 0 1 -2 2 0 1 1 2 0 2 1 2 2 1 0 1 2 1 0 2 -1 1 1 3 -3 1 1 -1 1 1 -1 0 -1 2 -3 0 -1 0 -2 -1 -2 1 -5 0 -3 -1 -1 -1 -2 -2 -1 -1 -2 1 0 1 1 1 0 -1 -2 -2 0 -2 0 -3 -1 -4 -4 -1 0 1 -1 2 0 0 -2 -1 -1 -1 0 -1 -1 1 0 -1 -2 0 0 2 2 2 1 1 -1 -1 -1 0 -1 -1 -1 1 -1 1 1 0 1 2 0 0 4 0 1 4 2 1 0 2 0 0 3 1 0 3 -4 1 -2 -1 -1 0 -3 0 -1 1 1 0 2 1 0 1 -1 3 -1 0 -1 2 0 0 1 0 0 4 3 1 0 0 2 0 1 1 0 3 -1 1 1 0 0 0 0 1 -1 0 -1 0 0 1 0 -1 -2 2 0 0 1 0 1 1 0 2 -1 3 1 1 0 1 0 1 0 0 1 1 -1 0 -3 0 0 2 3 2 -1 0 -1 -1 -2zm-104 106l-1 1 2 1 1 0 0 -1 -1 -1 -1 0zm79 93l-3 -1 0 -1 -1 -1 -2 -1 0 -1 1 -1 -2 0 -1 1 -1 0 -1 1 0 1 2 0 1 0 1 1 0 0 1 2 1 0 1 1 1 1 1 -1 1 1 2 1 0 -1 -1 -1 -1 -1zm-49 65l-1 2 1 2 -1 1 -1 1 -1 1 -1 0 0 0 1 2 0 1 -1 0 1 1 1 -1 1 1 0 0 0 -1 0 -1 2 -1 1 -1 -1 -2 1 -1 1 0 -1 -2 -2 -2zm2 -1l-1 1 0 1 1 1 1 0 1 -1 -1 -1 -1 -1zm59 -62l-1 -1 -2 0 -1 -1 -1 -1 -1 1 1 1 1 0 2 1 2 1 1 1 2 -1 -1 0 -2 -1zm-63 82l-1 -2 0 -1 0 0 0 1 -1 2 1 0c0,0 1,0 1,0zm-616 -327l-1 0 -1 0 1 1 1 0 0 -1zm37 24l1 1 1 0 1 0 2 0 1 0 0 -1 0 -1 0 0 0 0 0 -2 -1 0 -1 1 0 1 0 0 -1 0 -1 -1 0 0 -1 1 -1 0 -1 0 0 1 0 1 1 -1zm-2 -10l-1 1 0 1 -1 1 0 0 1 0 1 -1 0 1 0 1 1 -1 0 -1 0 0 0 -2 -1 0zm29 -42l1 -1 0 -1 0 0 0 -1 1 0 0 -1 -1 0 -2 2 1 0 -1 1 -1 1 1 0 1 0zm-38 -13l0 0 0 2 0 0 2 1 0 0 0 2 2 3 1 1 1 0 -1 1 -1 0 -1 2 1 3 1 1 0 2 0 1 1 1 -1 1 1 2 1 2 1 1 0 1 1 1c0,0 2,-1 2,-1l1 -1 2 -2 1 -1 -1 -1 1 -1 3 -2 1 0 1 0 1 0 1 -1 1 -1 1 0 3 -2 0 -1 1 -1 1 -3 0 -1 -2 -2 -1 -2 0 -1 -2 -1 -2 -1 -1 1 -1 -1 -1 0 -2 -2 -1 0 0 0 -2 0 0 -1 -1 -1 -1 0 0 1 -1 0 -2 -2 0 0 0 0 1 2 0 0 -1 1 0 1 -1 0 -1 -1 0 -4 -1 -1 -2 0 -2 -1 -1 0 -1 1 1 2 1 1 1 1 0 0 -1 0 -1 -1 -1 0 -1 0 1 1 0 1zm40 14l2 0 2 0 1 -1 1 1 1 -2 -1 -1 -1 0 0 0 -2 0 0 1 -2 0 -1 1 0 1zm136 71l0 1 2 0 1 -1 0 0 0 0 0 -1 -2 -1 -1 0 -1 1 0 0 1 1zm-56 -8l4 0 2 1 1 0 1 0 0 -1 1 -1 0 -1 -1 -1 0 -2 -1 -1 -1 -1 0 -1 -1 0 -3 0 -2 2 -2 0 0 1 0 1 2 1 0 1 -1 0 -1 0 0 1 0 0 2 1zm-64 -48l0 1 2 -1 0 -1 -1 -2 -1 0 -1 0 0 1 2 2 -1 0zm-56 22l1 -1 1 0 0 1 -1 0 2 -1 1 -1 0 -1 1 -1 0 -1 0 -1 -1 1 -1 0 -1 1 -2 1 -1 2 -1 1 1 0 1 0zm13 0l-1 1 1 1 1 -1 1 -1 -1 0 -1 0zm-39 57l1 -1 0 0 0 -1 -2 0 0 1 0 1 1 0zm-3 0l0 -1 0 0 -2 1 0 1 1 1 0 -1 0 0 0 -1 1 0zm9 -10l-1 -1 -2 0 -1 0 0 1 0 0 -1 0 -1 0 1 1 1 1 1 0 1 0 1 0 0 0 -1 -1 2 0 0 -1zm34 -44l1 0 0 2 1 -1 0 0 1 -1 -2 0 0 -1 -1 0 0 1zm-224 -61l1 0 1 0 1 -1 0 -1 -1 0 -1 0 -1 0 -1 1 -1 0 -1 0 1 1 2 0zm212 65l-2 0 1 1 1 0 2 -1 -1 -1 -1 0 0 1zm-42 -69l0 1 0 1 -2 1 -2 1 0 2 0 1 1 1 1 0 1 1 -2 1 0 2 0 2 0 1 -2 1 0 0 2 1 0 1 1 -1 0 -1 0 0 1 0 1 1 2 -1 1 1 1 1 1 3 1 1 2 0 1 1 2 0 1 -1 2 0 1 0 2 1 4 0 1 0 2 0 1 0 1 1 1 1 2 0 1 -1 2 -2 2 0 2 -2 0 -1 -2 -2 -1 -1 -2 -1 -2 -1 -1 -1 -1 -1 1 0 1 0 2 0 0 -1 -2 -2 -2 -2 0 -1 -1 -2 -1 -1 0 -2 -1 0 0 0 -5 -4 -3 0 -2 0 -1 1 1 1 1 2 1 1 -1 1 0 1 0 2 -1 2 -1 0 0 -1 1 -1 0 -1 -1 -1 1 -2 -1 -1 -2 -3 -2 -2 -3 0 -1 1 0 1 -3 2 -2 0zm336 96l0 -1 2 -1 0 0 0 -1 -1 -2 0 1 -1 1 -1 1c0,0 -2,0 -2,0l2 1 1 1zm160 -11l1 -1 0 0 0 -2 -1 0 0 0 -1 1 1 1 0 1zm-11 -24l0 -1 0 -1 -1 1 1 1 0 0zm-5 -1l0 -1 -1 -1 -1 1 1 1 1 0zm21 22l1 -1 -1 -1 -1 0 0 0 1 2 0 0zm30 -16l2 0 2 0 1 1 2 1 2 0 1 -2 -1 -1 -1 -1 1 -1 -1 -1 -1 -1 -1 0 -1 0 -1 0 -2 0 0 0 -1 0 0 1 -1 0 0 1 0 2 0 1zm-57 -5l0 0 0 -1 -1 0 -1 0 1 2 1 -1zm26 24l0 1 1 0 -1 -2 -1 -1 -1 0 1 1 1 1zm1 -2l-1 -1 0 -1 -1 0 0 1 1 1 1 0zm-179 -26l1 -2 3 -1 2 1 3 0 2 -1 4 0 1 -1 2 0 2 1 1 -2 -1 -1 -1 -1 -2 -2 -3 -2 -2 0 -2 -1 -1 -1 -2 0 0 1 -3 -1 -1 0 -1 1 -2 2 1 2 0 3 -1 3 -2 1 0 1 1 0 1 0zm-51 -40l1 0 -1 1 -1 0 0 1 1 1 1 1 0 1 1 0 2 1 0 1 0 0 1 1 0 0 1 0 1 0 -1 1 -1 0 -1 0 0 1 0 1 5 2 2 1 2 0 2 1 1 1 1 1 1 1 2 0 2 0 2 0 2 1 1 -1 1 -1 0 -1 -1 -2 0 -1 -1 0 -1 0 0 -1 0 -1 1 1 1 0 1 1 1 1 0 0 1 0 1 -2 2 -2 2 -2 2 -1 1 -1 1 1 -1 1 2 0 1 0 1 0 0 -1 2 -1 2 -2 -1 0 -2 0 -2 1 -2 -1 -3 -1 -1 -1 -2 0 0 -1 -2 -2 -1 0 -1 -2 0 -1 -1 -2 -1 -1 -1 -1 0 0 1 -1 -1 -1 1 0 0 -1 0 -1 -1 0 -1 -1 -3 0 -1 0 -2 -1 -1 0 -2 -1 0 1 2 1 1 1 1 0 -2 0 -1 0 -1 0 -1 1 1 2 1 1 0 2 2 2 1 1 -1 0 -2 1 -1 -2 -1 -2 -1 0 -2 0 0 0 -1 0 -1 0 -1 -2 0 -1 -2 0 -1 -1 -2 -1 -1 0 -1 -1 -1 0 -2 1 0 2 0 1 0 1 0 2 -2 1 0 1 2 2 1 1zm59 -8l1 2 5 1 3 1 3 1 3 0 2 -1 2 1 1 0 3 -2 1 -2 1 -1 -1 -2 -1 -1 -1 0 -1 -1 1 0 -1 -1 -1 1 -3 -1 -3 1 -3 1 -1 0 -1 0 0 -1 -1 0 -2 0 -2 0 -1 0 0 1 -1 1 -3 -1 -1 -1 0 -1 -1 0 0 2 3 3zm-11 35l-1 -2 -2 -1 0 -2 -1 0 -2 0 -2 1 1 2 1 1 -1 1 1 1 1 0 2 2 1 0 1 0 -1 -1 1 -1 1 -1zm-28 8l-2 0 -2 -1 -1 -1 0 1 0 1 1 1 2 0 1 1 2 0 1 1 1 0 0 -1 -2 -1 -1 -1zm10 -46l1 1 0 1 1 1 1 1 -1 1 0 1 0 1 0 2 3 2 2 2 4 1 1 0 2 -1 1 0 1 1 1 -1 1 -1 0 -2 1 -1 0 -1 0 -2 -2 0 -2 -2 0 -1 1 -1 2 0 0 -1 -4 -1 -4 -1 -1 1 -2 0 -3 -2 -2 0 -2 0 -2 0 1 1 1 1zm-40 15l2 2 2 3 1 3 2 0 1 0 0 -2 -2 -3 0 -2 -2 -1 -2 0 -2 -2 -1 0 -1 -1 1 1 1 2zm52 -42l1 -1 0 0 0 -1 -1 -1 -2 2 -1 3 2 -1 1 -1zm-301 150l0 -1 -1 0 -2 0 1 1 2 0zm222 -52l1 1 1 0 0 -2 0 -1 -2 1 -1 0 1 1 0 0zm-353 126l1 0 1 -1 0 -1 0 0 -1 -1 -1 0 -1 0 -1 -2 -2 0 -2 -2 -1 -1 -2 0 -2 -3 -2 -3 -1 -3 -2 -2 0 -3 -1 -2 -1 -4 0 -1 1 -1 0 -1 -2 0 -1 0 -1 0 1 -1 2 0 1 -1 1 -2 -1 -1 -1 0 -1 0 0 0 2 -1 0 -1 0 0 -3 0 -3 -1 -2 -1 -1 0 -3 2 -2 0 -1 0 -2 2 0 1 -1 1 1 1 1 1 0 0 0 1 -1 0 -2 0 -1 2 0 2 1 0 1 0 2 -1 0 1 -1 1 -1 1 1 0 1 -1 1 0 0 0 -1 1 0 1 1 1 2 0 -1 1 -1 0 -1 1 0 0 1 2 -1 0 -1 0 -1 0 -1 0 -1 0 -2 1 0 2 1 1 0 2 0 1 2 2 0 1 2 1 1 0 1 0 1 0 2 -2 -1 -2 0 -1 1 -1 0 1 0 1 0 1 1 2 1 0 1 0 0 -1 0 -2 1 1 0 1 0 1 1 2 2 1 1 0 1 -1 1 0 -1 1 0 0 -1 1 -1 0 0 1 1 1 0 1 -1 0 0 0 0 1 0 1 3 0 1 0 2 0 2 1 -1 -2 1 1 1 1 0 1 2 1 1 0 1 -1 -1 -1 -2 -1 0 0 0 -1 1 0 2 1 0 1 1 2 1 -1 0 -1 1 0 1 1 1 1 1 0 0 -1 -1 -1 0 0 1 -1 1 1 1 1 0 0 1 1 0 1 1 -1 0 -1 0 -1 -1 0 -1 -1 0 0 1 0zm9 25l0 1 0 0 1 0 2 -1 1 0 -2 -1 -2 1zm-13 -1l0 0 -1 1 0 0 1 0 0 -1zm2 0l-1 1 1 0 1 0 1 1 -1 -2 -1 0zm-30 -72l-1 -1 -1 1 0 1 0 1 -1 1 -1 0 0 0 2 2 1 0 1 0 0 -1 1 0 2 -2 1 0 2 0 1 1 0 0 -1 0 -1 0 -1 0 0 0 -2 1 -1 2 0 1 0 1 0 0c0,0 0,1 0,1l2 0 2 -1 2 -1 1 1 1 0 2 1 1 -1 -1 -1 0 0 1 0 1 1 1 1 2 0 0 -1 1 0 1 -2 0 -1 1 -2 0 -1 -1 -1 -1 -2 -1 0 -1 0 -1 -1 1 0 2 0 0 0 1 1 0 1 1 0 1 -1 -1 -2 -1 -1 -2 -2 1 -1 1 1 0 1 1 1 2 0 0 -1 0 -1 -1 0 0 -1 1 -1 0 -2 -1 -1 -2 -2 1 0 2 1 1 0 0 -2 0 0 -1 0 0 -2 1 0 1 1 2 0 1 0 -1 -1 -1 -1 2 0 0 1 2 -1 0 -1 -1 -1 0 -1 2 0 1 -1 -1 -1 -1 -1 1 -1 0 1 1 -1 2 -2 1 -2 1 0 0 -2 2 -1 1 -2 1 -3 1 0 3 -2 3 -3 3 -1 1 -1 2 -1 2 -1 1 -1 2 -2 2 -1 0 0 2 0 0 -1 -1 -1 1 -1 0 -1 0 -2 -1 0 -1 0 0 -2 1 -2 -1 0 -1 -1 -1 0 -1 -1 -1 0 0 -2 -1 0 -1 1 -1 0 -1 0 -1 0 -1 0 -2 1 0 1 -1 1 -1 0 -1 1 0 1 -1 1 -1 1 1 1 0 1 -1 0 0 1 0 0 -1 1 -1 1 -3 1 -1 1 0 0 -1 0 -2 1 -1 1 -1 1 -1 0 0 -1 -1 0 0 1 0 1 0 1 -1 -2 0 -1 -2 0 -3 1 -1 1 -1 0 0 1 0 1 1 1 0 0 -1 1 -1 1 0 0 0 -1 0 -1 0 -1 -1 0 -1 2 -1 1 0 1 1 0 -1 0 0 2 -2 0 -1 0 0 1 -1 1 -1 0 -1 2 1 1 1 0 -1 1 -3 0 0 0 -1 2 0 1 1 0 1 0 1 1 -1 0 1 1 -1 1 -1 0 -2 -1 -2 1 0 1 0 1 -1 1 -1 1 -1 0 -1 -1 0 -1 -1 0 0 2 0 1 1 1 1 0 1 0 0 1 -1 2 0 0 1 1 1 -1 1 0 0 0 2 0 1 0 0 0 0 1 -1 0 -2 0 -1 1 -1 0 0 0 0 2 1 1 1 0 1 -1 1 1 -1 0 -1 1 -2 0 -1 0 0 1 1 1 1 -1 1 1 0 0 0 0 -2 1 0 0 1 1 1 0 3 1 1 0 0 1 0 1 -1 -1 -2 -1 -1 0 -1 -1 -1 0 -1 1 -1 1 0 0 0 1 0 1 0 0 0 1zm46 63l0 -2 0 0 0 2 0 0zm2 0l0 0 1 2 3 1 -1 -1 -2 -1 -1 -1zm7 -3l1 -2 0 -2 -3 -1 -2 -2 -1 0 -2 -2 -1 -1 -1 0 -2 -2 -1 0 -1 1 0 1 -1 0 1 1 2 1 -1 0 -1 1 -1 -1 0 0 0 1 3 3 1 0 1 1 1 1 0 -2 1 1 2 -1 0 1 0 2 0 0 1 1 2 0 1 -1 1 1zm108 -102l-1 0 -1 0 -1 0 0 1 2 0 0 1 1 -2 0 0zm-137 122l0 1 0 0 1 -1 0 -1 -1 0 0 1zm-48 -188l0 0 1 1 1 0 1 0 -2 -1 -1 0zm5 0l1 -2 0 -2 -2 -1 -2 1 -2 1 0 1 2 0 1 2 2 0zm4 -30l0 1 0 1 1 1 1 0 1 1 0 1 2 1 1 -2 0 -2 0 -1 0 -1 2 -1 3 -1 0 -1 -1 0 -2 -1 -1 -1 -1 0 0 -3 0 -1 -1 0 -1 -1 -1 0 -1 1 0 1 -1 2 -2 1 0 2 0 1 1 2zm-5 6l-1 0 -2 1 -1 1 -1 -1 -1 0 0 1 1 2 -1 4 1 2 2 2 2 0 2 -1 2 0 1 -1 3 0 -1 -1 -1 -1 -1 -2 -1 0 -1 -2 0 -1 1 -1 2 0 1 0 0 -1 -1 -2 -1 0 -1 -2 -1 1 0 1 -1 1 -1 0zm53 206l0 -1 -1 -1 -1 1 1 1 1 0zm-27 -32l-2 0 0 -1 -1 -1 -2 1 -1 1 0 0 1 1 1 -1 1 1 0 1 1 0 1 2 1 0 0 -1 -1 -1 1 -1 0 -1zm-4 38l0 1 1 0 0 0 2 0 0 -1 -2 0 -1 0zm-6 -6l0 -2 -2 -1 -5 -2 -3 -1 -1 1 -1 3 0 3 1 2 0 1 1 0 1 1 -1 1 1 0 2 -1 1 0 2 -2 1 -1 0 -3 1 -1 1 2 0 1 1 -1zm55 -6c0,0 1,-1 1,-1l-1 0 0 1zm84 -210l3 0 1 1 -1 0 -2 1 -2 0 0 0 2 1 1 0 2 -1 1 -1 1 -1 1 -2 1 -2 -1 -1 -3 -1 -2 -1 -3 1 -1 0 -1 0 -1 0 -2 1 -1 0 -1 0 1 1 2 1 0 1 2 0 1 2 2 0zm0 83l1 0 1 0 1 -1 -3 0 -1 0 -1 0 0 1c-1,0 0,1 0,1l2 -1zm-3 2l0 0 -2 -1 0 -1 -1 0 -1 1 1 1 1 0 2 0zm21 28l-1 1 0 0 2 1 1 -1 0 -1 -1 0 -1 0zm-24 -6l-2 1 0 0 1 1 0 1 1 0 1 0 0 -1 0 -1 -1 -1zm-121 0l1 0 2 -2 0 -1 0 0 -2 2 -1 0 -1 1 1 1 0 -1zm140 8l0 1 2 0 1 -2 -1 0 -1 0 -1 1zm-11 -23l-1 0 0 -1 0 -1 -1 0 -1 0 0 1 1 1 0 1 -1 -1 -1 0 1 2 0 1 1 -1 1 0 0 2 1 1 0 -2 -1 -1 1 -1 0 -1zm19 -41l0 -1 -1 -1 -1 0 0 0 0 2 0 1 0 1 1 0 1 -1 0 -1zm-43 -79l1 -1 -2 -1 0 4 1 -1 0 -1zm3 168l0 -1 -2 -1 -1 1 0 2 0 1 2 0 0 1 2 0 -1 -1 -1 -1 0 -1 1 0zm-28 0l0 1 0 2 1 1 1 0 -1 -1 0 0 1 0 1 1 1 -1 0 1 1 -1 1 -1 1 -1 2 0 0 -1 -1 -1 -2 -1 0 -1 -1 -2 -1 0 -1 0 -2 1 -1 0 -1 2 0 1 1 1zm37 -159l2 1 0 1 -1 4 -1 1 0 2 0 0 1 0 1 -1 2 -1 1 1 0 1 2 1 2 0 0 0 1 0 2 1 2 0 2 0 2 -1 2 -2 0 -1 2 -2 2 -1 2 -1 1 -2 0 -1 -3 -1 -2 -2 -1 -2 0 -2 1 -1 0 -2 -1 0 -4 0 -2 -1 -2 -1 -3 -3 -3 -2 -2 -1 -1 0 -1 1 0 1 0 1 0 2 -1 1 -1 2 -2 2 0 1 0 6 1 1zm18 159l1 0 0 -1 -1 -2 0 -2 -2 -1 -1 -2 -1 2 0 2 -1 2 0 1 2 0 0 1 2 0 1 0zm-8 10l1 -1 1 -1 1 -1 1 -1 2 -1 -1 -1 0 -1 -2 0 -2 1 -1 1 0 1 -1 1 -1 1 0 1 1 1 1 0zm-11 -14l1 0 0 -1 -2 0 -2 0 0 0 1 1 2 0zm-9 -4l1 1 2 -1 -1 -1 1 -1 0 0 0 -1 -1 0 -2 2 -1 1 0 1 1 -1z"/>
 </g>
</svg>
