<svg xmlns="http://www.w3.org/2000/svg" viewBox="0 0 490.188 490.188" width="512" height="512"><path d="M481.352 201.068L317.56 37.256c-8.619-8.619-21.597-11.201-32.845-6.542-11.258 4.679-18.605 15.656-18.605 27.846v80.003C117.614 148.047-.018 271.172 0 422.065c0 8.066.351 16.033 1.019 23.924.642 7.609 6.241 13.888 13.725 15.422a17.267 17.267 0 0 0 18.693-8.773C78.557 368.033 165.17 308.974 266.11 302.55v83.623c0 12.181 7.347 23.169 18.604 27.836a30.032 30.032 0 0 0 11.531 2.3 30.153 30.153 0 0 0 21.314-8.831l163.792-163.811c11.783-11.754 11.783-30.846.001-42.599z" fill="#00bcc9"/></svg>