<svg xmlns="http://www.w3.org/2000/svg" width="222" height="373" viewBox="0 0 362 608" shape-rendering="geometricPrecision" text-rendering="geometricPrecision" image-rendering="optimizeQuality" fill-rule="evenodd" clip-rule="evenodd"><defs><style>.fil0{fill:#00bcc9;fill-rule:nonzero}</style></defs><path class="fil0" d="M187 0c21 0 40 32 47 39 53 50 89 132 110 180 19 44 24 81 9 98-16 18-40 2-77-23-3-2-6-5-9-7-1 23-2 51-4 57-4 21-1 84-5 115-3 27-8 52-14 74-12 45-21 74-44 75-24 1-43-27-57-70-6-21-15-46-18-73-5-40-7-147-4-190-9 5-17 9-25 14-40 21-73 27-89 9-16-17-2-44 21-84 27-48 47-54 80-129 5-14 52-85 79-85z" id="Слой_x0020_1"/></svg>