<svg xmlns="http://www.w3.org/2000/svg" width="512" height="512" viewBox="0 0 97.088 97.088"><path d="M36.307 25.732c-1.172-1.172-3.244-1.17-4.413 0L21.375 36.253a3.121 3.121 0 0 0 0 4.414l11.862 11.861-1.805 1.803c-2.659 2.658-6.446 5.002-10.116 7.274-3.746 2.319-7.62 4.717-10.391 7.485C2.427 77.59-2.06 87.592.923 91.387c.105.135.223.261.349.375l.077.072c.115.105.238.203.369.289.761.51 1.753.769 2.949.769 5.003 0 12.52-4.284 19.147-10.912 2.77-2.769 5.167-6.644 7.489-10.396 2.268-3.664 4.611-7.451 7.27-10.107l1.807-1.805L52.242 71.53a3.122 3.122 0 0 0 4.413 0l10.52-10.519a3.123 3.123 0 0 0 0-4.414L36.307 25.732zm60.708 3.396a3.116 3.116 0 0 0-1.983-2.256c-5.926-2.148-10.997-6.558-14.208-9.88-2.43-2.514-5.453-5.643-10.411-9.537-2.753-2.163-5.743-3.259-8.89-3.259-8.563 0-16.5 7.974-20.471 12.727a3.122 3.122 0 0 0 .189 4.206l30.7 30.702a3.117 3.117 0 0 0 4.413 0l19.819-19.819a3.126 3.126 0 0 0 .842-2.884z" fill="#ffeea8"/></svg>