<svg xmlns="http://www.w3.org/2000/svg" width="78" height="95" viewBox="0 0 223 272" shape-rendering="geometricPrecision" text-rendering="geometricPrecision" image-rendering="optimizeQuality" fill-rule="evenodd" clip-rule="evenodd"><defs><style>.fil0{fill:#00d1e0;fill-rule:nonzero}</style></defs><path class="fil0" d="M182 66c-8 15-22 24-35 31-13 8-20 17-23 25-4 7-3 14-1 15h-2l-4 2c0 3 2 4 4 6l3 1h2l1 1h1v1h1l-1 1-3 3-13 15-6 7-2 2c-10-6 13 10 11 8v-3c1-2-1 0-2 0l-4-1h-1 1l3-2c4-2 7-8 8-14 3-13 3-29 4-44 2-14 7-26 16-33 8-7 17-8 28-2 10 6 24 17 38 40 7 12 13 27 16 45 1 9 2 19 1 30-1 6-1 11-3 17l-2 9-1 2c1-2-2 8-6 13-4 6-8 12-13 16-2 2-5 4-7 5h-1l-1 1-3 1-5 3c-3 2-7 3-11 4-8 1-16 2-26 1-18-2-37-8-56-16-17-7-37-13-55-27-17-13-29-34-32-60-5-53 6-111 31-142C46 9 64 2 81 0c17-1 32 2 45 5 26 6 43 23 52 35 7 11 8 19 4 26z" id="Слой_x0020_1"/></svg>