<svg xmlns="http://www.w3.org/2000/svg" width="512" height="512" viewBox="0 0 54.816 54.816"><path d="M48.19 31.889c0-2.863-2.344-5.453-6.124-7.324.092 1.926.246 4.054.494 6.449l.021.219-.094.198c-.098.203-2.545 5.015-15.217 5.015a.78.78 0 0 1-.781-.781c0-.022.012-.043.014-.064a.773.773 0 0 1 .756-.715l.012-.002c.571 0 1.111-.014 1.638-.032 8.892-.322 11.548-3.227 12.069-3.945a115.694 115.694 0 0 1-.511-7.05c-.362-9.194.838-13.372 1.546-15.831.627-2.173.723-2.507-.781-4.013C38.37 1.152 32.217.331 28.912.096c-.55-.04-1.019-.062-1.382-.076-.476-.018-.769-.019-.817-.02v.005c-3.627-.031-10.78.331-13.904 3.455-3.843 3.843 1.31 2.876.512 20.847-4.109 1.89-6.695 4.583-6.695 7.582 0 5.706 9.305 10.332 20.783 10.332 11.476.001 20.781-4.626 20.781-10.332zM13.909 7.652a.78.78 0 0 1 1.04-.375c.028.013.691.316 1.832.707 2.071.71 5.727 1.708 10.083 1.807.666.014 1.35.008 2.045-.024 2.704-.124 5.605-.636 8.519-1.782a24.41 24.41 0 0 0 1.638-.705.782.782 0 0 1 .674 1.41c-3.717 1.78-7.435 2.521-10.832 2.679-.485.023-.963.034-1.434.034-.199 0-.391-.008-.585-.013-7.017-.131-12.27-2.54-12.606-2.698a.784.784 0 0 1-.374-1.04zm-2.007 39.019a6.873 6.873 0 0 0-.038.521c-.621.188-1.169.724-1.156 1.537.031 1.944.848 3.24 2.138 3.792.96 2.314 3.209 2.919 5.703 1.626 1.497-.776 2.839-1.805 4.198-2.794.469-.342 1.979-1.668 3.005-2.053.148-.013.291-.048.426-.103.065-.004.12.011.177.021a1.4 1.4 0 0 0 .654.133c.235.008.456-.039.653-.133.059-.009.112-.024.179-.021.135.055.277.09.426.103 1.025.385 2.536 1.711 3.005 2.053 1.359.99 2.701 2.018 4.197 2.794 2.494 1.293 4.743.688 5.704-1.626 1.288-.552 2.106-1.848 2.137-3.792.015-.813-.534-1.349-1.155-1.537a6.403 6.403 0 0 0-.039-.521c-.215-1.845-3.135-1.865-2.917 0 .179 1.526-.049 1.943-1.626 1.611-1.519-.319-2.977-.84-4.449-1.324-1.861-.612-4.228-1.521-6.115-.702-1.888-.819-4.254.09-6.116.702-1.471.484-2.929 1.005-4.449 1.324-1.576.332-1.805-.085-1.626-1.611.222-1.865-2.699-1.844-2.916 0z" fill="#ffeea8"/></svg>