<svg id="Слой_1" xmlns="http://www.w3.org/2000/svg" width="388" height="362" viewBox="0 0 388 362"><style>.st0{fill:#fefefe}</style><g id="Слой_x0020_1"><path class="st0" d="M1.9 315.1v7.6c0 .8 0 .8-.1 1.7.4-.9.8-1.4 1.2-2l4.8-6.3V315h1.9v12.7H7.8v-7.5c0-.4 0-1.2.1-1.8-.1.2-.3.6-1.2 1.8l-4.8 6.3v1.2H0V315h1.9zm13.7 0v5.3h5.9v-5.3h1.9v12.7h-1.9V322h-5.9v5.8h-1.9v-12.7zm19.7 0v1.6h-4v11.1h-1.9v-11.1h-4v-1.6zm10.3 5.1c0-.8-.2-1.7-.6-2.3-.4-.6-1.2-1.5-2.7-1.5-1.2 0-2.2.6-2.8 1.3-.5.7-.8 1.6-.9 2.5h7zm1.9 4.2c-.4 1.1-1 2-2.1 2.8-1 .7-2.1 1-3.3 1-1.8 0-3.2-.6-4.3-1.9-1.1-1.3-1.5-2.9-1.5-4.7 0-3.4 1.9-6.7 5.9-6.7 4.7 0 5.5 4.4 5.5 6.4v.4h-9.2c0 .9.1 1.8.4 2.5.6 1.5 1.8 2.2 3.3 2.2 1.4 0 2.2-.6 2.6-1.1.4-.4.6-.9.8-1.3l1.9.4zm11.9-9.3v12.7h-1.9v-11.2h-4.1c-.2 5.7-.4 7.4-.8 8.5-.9 2.5-2.8 2.7-3.7 2.7h-.1v-1.6h.2c.6 0 1.4-.4 1.9-1.3.4-.7.6-1.9.8-8.3v-1.4h7.7zm12.7 0v12.7h-1.9v-11.2h-4.1c-.2 5.7-.4 7.4-.8 8.5-.9 2.5-2.8 2.7-3.7 2.7h-.1v-1.6h.2c.6 0 1.4-.4 1.9-1.3.4-.7.6-1.9.8-8.3v-1.4h7.7zm12.3 5.1c0-.8-.2-1.7-.6-2.3-.4-.6-1.2-1.5-2.7-1.5-1.2 0-2.2.6-2.8 1.3-.5.7-.9 1.6-.9 2.5h7zm1.9 4.2c-.4 1.1-1 2-2.1 2.8-1 .7-2.1 1-3.3 1-1.8 0-3.2-.6-4.3-1.9-1.1-1.3-1.5-2.9-1.5-4.7 0-3.4 1.9-6.7 5.9-6.7 4.7 0 5.5 4.4 5.5 6.4v.4h-9.2c0 .9.1 1.8.4 2.5.6 1.5 1.8 2.2 3.3 2.2 1.4 0 2.2-.6 2.7-1.1.3-.4.6-.9.8-1.3l1.8.4zm6.8-4c1.7 0 2.5-.4 3.1-2.7.2-.7.3-1.5.8-2 .5-.6 1.3-.7 1.7-.7.2 0 .4 0 .6.1v1.5h-.4c-.3 0-.6.1-.8.4-.2.3-.4.9-.4 1.2l-.2.9c-.3 1.4-1.1 2-1.9 2.1 1.2.1 1.7.9 2 1.7.5 1.3.7 2.4 1 2.9.2.4.4.5 1 .5h.4v1.5h-.8c-2.1 0-2.3-.9-2.7-2.4-.5-1.6-.6-2.1-.9-2.4-.5-.9-1.2-1.1-2.3-1.1h-1.8v5.9h-1.9v-12.7h1.9v5.3h1.6zm17.1-5.3v1.6h-4v11.1h-1.9v-11.1h-4v-1.6zm5.9 13.9c-.3.8-.6 1.6-1.3 2.3-.7.6-1.4.9-2.4.9-.5 0-1.1-.1-1.6-.3v-1.5c.5.2.9.2 1.4.2.4 0 .9 0 1.4-.4.5-.4.8-1.1 1.2-2.2l.1-.4-4.5-12.5h2.2l3.3 9.8 3.4-9.8h1.7l-4.9 13.9zm13-7.5c-2 0-3.1.3-3.8.6-1.1.5-1.3 1.5-1.3 2.1 0 .5.2 1.2.9 1.7.4.3 1 .5 1.8.5 1.2 0 2.3-.6 3-1.4.6-.8 1-2 1-2.9v-.6h-1.6zm-6.9-3.2c.5-2.7 2.6-3.5 5.4-3.5.8 0 2.5 0 3.6.9 1.4 1.1 1.4 2.9 1.4 4.5v4.9c0 .7.1 1.5.3 2.7h-2c-.2-.9-.2-1.7-.2-2.4-.4.7-1.4 2.6-4.4 2.6-1.6 0-2.7-.5-3.3-1.1-.5-.5-1.2-1.4-1.2-2.7 0-1.7 1-2.7 1.7-3.2 1.5-1.1 3.5-1.1 5.5-1.1h1.6v-.5c0-.7-.1-1.5-.5-2.1-.7-.9-1.8-.9-2.7-.9-1.1 0-3.2.2-3.5 2.2l-1.7-.3zm22.9-3.2v12.7h-1.9v-11.2h-4.1c-.2 5.7-.4 7.4-.8 8.5-.8 2.5-2.8 2.7-3.7 2.7h-.1v-1.6h.2c.6 0 1.5-.4 1.9-1.3.4-.7.7-1.9.8-8.3v-1.4h7.7zm6 11.2h3c.5 0 1.2 0 1.9-.5.4-.4.8-1.1.8-1.9 0-1-.4-1.5-.9-1.8-.5-.3-1.2-.4-1.7-.4h-3v4.6zm0-11.2v5h3.5c1 0 2.2.1 3.1 1 .4.4 1 1.3 1 2.8 0 1.2-.4 2.3-1.3 3.1-.9.8-1.8.9-2.6.9H149v-12.7h2.1zm12.6 0v5.3h5.9v-5.3h1.9v12.7h-1.9V322h-5.9v5.8h-1.9v-12.7zm20.1 6.4c0-4.2-2-5-3.6-5-1.5 0-3.5.8-3.5 5s2 5 3.5 5c1.6-.1 3.6-.9 3.6-5zm-3.6-6.6c3.3 0 5.7 2.4 5.7 6.6s-2.4 6.6-5.7 6.6c-3.3 0-5.7-2.4-5.7-6.6s2.5-6.6 5.7-6.6zm8.1 7.3h5.3v-1.6h-5.3zm10.4.6c0 .6.1 1.7.9 2.6.7.8 1.6 1.1 2.4 1.1.7 0 1.8-.3 2.5-1.5.6-1 .8-2.4.8-3.5 0-2.1-.5-3.1-.7-3.5-.7-1.1-1.7-1.4-2.5-1.4-.9 0-1.6.3-2.3 1-.9 1-1 2-1 2.6v2.6zm-1.9 9.2v-16.9h1.7v2.4c.5-1.2 1.7-2.6 3.8-2.6 1.6 0 2.7.6 3.5 1.5 1.1 1.2 1.6 3.3 1.6 5.1 0 1.7-.4 3.6-1.3 4.8-.7.9-1.8 1.9-3.8 1.9-2 0-3.1-1.1-3.6-2.2h-.1v6.1h-1.8zm20-10.5c-2 0-3.1.3-3.8.6-1.1.5-1.3 1.5-1.3 2.1 0 .5.2 1.2.9 1.7.4.3 1 .5 1.8.5 1.2 0 2.3-.6 3-1.4.6-.8 1-2 1-2.9v-.6h-1.6zm-6.9-3.2c.5-2.7 2.6-3.5 5.4-3.5.8 0 2.5 0 3.6.9 1.4 1.1 1.4 2.9 1.4 4.5v4.9c0 .7.1 1.5.3 2.7h-2c-.1-.9-.2-1.7-.2-2.4-.4.7-1.4 2.6-4.4 2.6-1.6 0-2.7-.5-3.3-1.1-.5-.5-1.2-1.4-1.2-2.7 0-1.7 1-2.7 1.7-3.2 1.5-1.1 3.5-1.1 5.5-1.1h1.6v-.5c0-.7 0-1.5-.5-2.1-.7-.9-1.8-.9-2.7-.9-1 0-3.2.2-3.5 2.2l-1.7-.3zm13.4.1c.4-1.6 1.4-2.5 2.3-2.9.4-.2 1.4-.6 3-.6 1.1 0 2.3.1 3.2.7 1.2.7 1.6 1.8 1.6 2.7 0 1.1-.6 1.8-.8 2-.4.4-1 .7-1.8.8v.1c.8 0 1.6.4 2.2 1 .5.5.8 1.2.8 2.1 0 1.5-.9 2.4-1.6 2.9-1.2.8-2.7.9-3.7.9s-2.8-.1-4.1-1.2c-.7-.6-1.2-1.6-1.4-2.5l1.9-.4c.1.8.5 1.3.7 1.5.5.5 1.3 1 2.8 1 .8 0 1.7-.2 2.3-.5.5-.3.9-.9.9-1.7 0-.8-.3-1.3-.6-1.6-.7-.6-1.7-.7-2.5-.7H227v-1.5h1.4c.5 0 1.3-.1 1.8-.3.9-.4 1.1-1.2 1.1-1.8 0-.7-.4-1.2-.7-1.4-.5-.4-1.4-.5-2.2-.5-.7 0-1.6.2-2.4.8-.4.3-.8.9-1 1.6l-1.7-.5zm15.4 7.9h4c.9 0 1.6-.3 2-.6.4-.4.6-1 .6-1.5 0-.9-.5-1.4-.8-1.6-.6-.5-1.5-.5-2-.5h-3.8v4.2zm0-5.9h3.6c.6 0 1.4-.1 1.9-.6.3-.4.5-.9.5-1.4 0-.4-.1-.9-.5-1.2-.5-.4-1.1-.4-1.7-.4h-3.7v3.6zm3.7-5.3c1 0 2.1 0 3 .5.5.3 1.3 1 1.3 2.4 0 .8-.3 1.6-.9 2.1-.2.2-.7.6-1.6.8.9.1 1.8.5 2.4 1 .2.2.8.9.8 2.2 0 1.2-.5 2.2-1.3 2.8-1 .7-2.1.8-3.1.8h-6.3V315h5.7zm17.2 0v12.7h-1.9v-11.2h-4.1c-.2 5.7-.4 7.4-.8 8.5-.9 2.5-2.8 2.7-3.7 2.7h-.1v-1.6h.2c.6 0 1.4-.4 1.9-1.3.4-.7.6-1.9.8-8.3v-1.4h7.7zm12.2 5.1c0-.8-.2-1.7-.6-2.3-.4-.6-1.2-1.5-2.7-1.5-1.2 0-2.2.6-2.8 1.3-.5.7-.8 1.6-.9 2.5h7zm2 4.2c-.4 1.1-1 2-2.1 2.8-1 .7-2 1-3.3 1-1.8 0-3.2-.6-4.3-1.9-1.1-1.3-1.5-2.9-1.5-4.7 0-3.4 1.9-6.7 5.9-6.7 4.7 0 5.5 4.4 5.5 6.4v.4h-9.2c0 .9.1 1.8.4 2.5.6 1.5 1.8 2.2 3.3 2.2 1.4 0 2.2-.6 2.6-1.1.4-.4.6-.9.8-1.3l1.9.4zm6.7-4c1.7 0 2.5-.4 3.1-2.7.2-.7.3-1.5.8-2 .5-.6 1.3-.7 1.7-.7.2 0 .4 0 .6.1v1.5h-.4c-.3 0-.6.1-.8.4-.2.3-.4.9-.4 1.2l-.2.9c-.3 1.4-1.1 2-1.9 2.1 1.2.1 1.7.9 2 1.7.5 1.3.7 2.4 1 2.9.2.4.4.5 1 .5h.4v1.5h-.8c-2.1 0-2.3-.9-2.8-2.4-.5-1.6-.6-2.1-.8-2.4-.5-.9-1.2-1.1-2.3-1.1h-1.8v5.9H277v-12.7h1.9v5.3h1.6zm15.5 1.1c-2 0-3.1.3-3.8.6-1.1.5-1.3 1.5-1.3 2.1 0 .5.2 1.2.9 1.7.4.3.9.5 1.8.5 1.2 0 2.3-.6 3-1.4.6-.8 1-2 1-2.9v-.6H296zm-6.9-3.2c.5-2.7 2.6-3.5 5.4-3.5.8 0 2.5 0 3.6.9 1.4 1.1 1.4 2.9 1.4 4.5v4.9c0 .7.1 1.5.3 2.7h-2c-.2-.9-.2-1.7-.2-2.4-.4.7-1.4 2.6-4.4 2.6-1.6 0-2.7-.5-3.3-1.1-.6-.5-1.2-1.4-1.2-2.7 0-1.7 1-2.7 1.7-3.2 1.6-1.1 3.6-1.1 5.5-1.1h1.6v-.5c0-.7-.1-1.5-.5-2.1-.6-.9-1.7-.9-2.6-.9-1.1 0-3.2.2-3.5 2.2l-1.8-.3zm22.1-3.2v1.6h-4v11.1h-1.9v-11.1h-4v-1.6zm10.3 5.1c0-.8-.2-1.7-.6-2.3-.4-.6-1.2-1.5-2.7-1.5-1.2 0-2.2.6-2.8 1.3-.5.7-.8 1.6-.9 2.5h7zm1.9 4.2c-.4 1.1-1 2-2.1 2.8-1 .7-2 1-3.3 1-1.8 0-3.2-.6-4.3-1.9-1.1-1.3-1.5-2.9-1.5-4.7 0-3.4 1.9-6.7 5.9-6.7 4.7 0 5.5 4.4 5.5 6.4v.4h-9.2c0 .9.1 1.8.4 2.5.6 1.5 1.8 2.2 3.3 2.2 1.4 0 2.2-.6 2.6-1.1.4-.4.6-.9.8-1.3l1.9.4zm11.8-9.3v12.7h-1.9v-11.2h-4.1c-.2 5.7-.4 7.4-.8 8.5-.9 2.5-2.8 2.7-3.7 2.7h-.1v-1.6h.2c.6 0 1.4-.4 1.9-1.3.4-.7.6-1.9.8-8.3v-1.4h7.7zm6 11.2h3c.5 0 1.2 0 1.9-.5.4-.4.8-1.1.8-1.9 0-1-.4-1.5-.9-1.8-.5-.3-1.2-.4-1.7-.4h-3v4.6zm0-11.2v5h3.5c1 0 2.2.1 3.1 1 .4.4 1 1.3 1 2.8 0 1.2-.4 2.3-1.3 3.1-.9.8-1.8.9-2.6.9h-5.8v-12.7h2.1zm12.6 0v5.3h5.9v-5.3h1.9v12.7h-1.9V322h-5.9v5.8h-1.9v-12.7zm18.1 6.4c-2 0-3.1.3-3.8.6-1.1.5-1.3 1.5-1.3 2.1 0 .5.2 1.2.9 1.7.4.3.9.5 1.8.5 1.2 0 2.3-.6 3-1.4.6-.8 1-2 1-2.9v-.6h-1.6zm-6.9-3.2c.5-2.7 2.6-3.5 5.4-3.5.8 0 2.5 0 3.6.9 1.4 1.1 1.4 2.9 1.4 4.5v4.9c0 .7.1 1.5.3 2.7h-2c-.2-.9-.2-1.7-.2-2.4-.4.7-1.4 2.6-4.4 2.6-1.6 0-2.7-.5-3.3-1.1-.5-.5-1.1-1.4-1.1-2.7 0-1.7 1-2.7 1.7-3.2 1.6-1.1 3.6-1.1 5.5-1.1h1.7v-.5c0-.7-.1-1.5-.5-2.1-.6-.9-1.7-.9-2.6-.9-1.1 0-3.2.2-3.6 2.2l-1.9-.3zm18.5-1.6c-1.1 0-1.8 0-2.5.7-.4.5-.5 1-.5 1.6 0 .4.1 1.1.6 1.5.6.5 1.5.5 2.2.5h2.7v-4.4h-2.5zm4.5 11.1h-1.9v-5.2h-2.7l-2.8 5.2h-2.2l3-5.3c-.1 0-1.2-.3-1.9-1-.4-.4-1-1.2-1-2.8 0-.6.1-1.5.7-2.2.9-1.2 2.1-1.4 3.6-1.4h5.2v12.7zm-278.6 22.6c1.7 0 2.5-.3 3.1-2.7.2-.7.3-1.5.7-2 .5-.6 1.3-.7 1.8-.7h.6v1.5h-.4c-.3 0-.6.1-.8.4-.2.3-.4.9-.4 1.2l-.2.9c-.3 1.4-1.1 2-1.9 2.1v.1c1.2.1 1.7.9 2 1.7.5 1.3.7 2.4 1 2.9.2.4.4.5 1 .5h.4v1.5c-.3.1-.5.1-.8.1-2.1 0-2.3-.9-2.8-2.4-.5-1.6-.6-2.1-.8-2.4-.5-.9-1.2-1.1-2.3-1.1h-1.8v5.9h-1.9v-12.7h1.9v5.3h1.6zm17.5 1c0-4.2-2-5-3.5-5s-3.6.8-3.6 5 2 5 3.6 5c1.4 0 3.5-.8 3.5-5zm-3.6-6.6c3.3 0 5.7 2.4 5.7 6.6s-2.4 6.6-5.7 6.6c-3.3 0-5.7-2.4-5.7-6.6s2.4-6.6 5.7-6.6zm11.4.3l4 9.7 3.8-9.7h2.6v12.7h-1.9v-8.7c0-.9 0-.8.1-2-.1.2-.4.8-1 2.2l-3.3 8.5h-1l-3.5-8.5c-.4-.9-.4-1.1-.9-2.2 0 .7.1 1.3.1 1.9v8.8H132v-12.7h2.7zm20.7 6.4c-2 0-3.1.3-3.8.6-1.1.5-1.3 1.5-1.3 2.1 0 .5.2 1.2.9 1.7.4.3.9.5 1.8.5 1.2 0 2.3-.6 3-1.4.6-.8 1-2 1-2.9v-.6h-1.6zm-6.9-3.2c.5-2.7 2.6-3.5 5.4-3.5.8 0 2.5 0 3.6.9 1.4 1.1 1.4 2.8 1.4 4.5v4.9c0 .7.1 1.5.3 2.7h-2c-.2-.9-.2-1.7-.2-2.4-.4.7-1.5 2.6-4.4 2.6-1.6 0-2.7-.5-3.3-1.1-.5-.5-1.1-1.4-1.1-2.7 0-1.7 1-2.7 1.7-3.2 1.5-1.1 3.6-1.1 5.5-1.1h1.7v-.5c0-.7-.1-1.5-.5-2.1-.6-.9-1.7-.9-2.6-.9-1.1 0-3.2.2-3.6 2.2l-1.9-.3zm16.1-3.2v5.3h5.9v-5.3h1.9v12.7h-1.9v-5.9h-5.9v5.9h-1.8v-12.7zm15 2.2c-.1 1.9-.3 5-1.1 7.2-.3.7-.6 1.5-.8 1.8h5.8v-9.6h-3.9v.6zm5.8-2.2v11.2h1.3v5h-1.8v-3.4h-8.5v3.4h-1.8v-5h1c.4-.6.8-1.4 1.2-2.3.9-2.3 1-4.8 1.1-7.8V345h7.5zm5.8 0v5.3h5.9v-5.3h1.9v12.7h-1.9v-5.9h-5.9v5.9h-1.9v-12.7zm18.1 6.4c-2 0-3.1.3-3.8.6-1.1.5-1.3 1.5-1.3 2.1 0 .5.2 1.2.9 1.7.4.3 1 .5 1.8.5 1.2 0 2.3-.6 3-1.4.6-.8 1-2 1-2.9v-.6h-1.6zm-6.9-3.2c.5-2.7 2.6-3.5 5.4-3.5.8 0 2.5 0 3.6.9 1.4 1.1 1.4 2.8 1.4 4.5v4.9c0 .7.1 1.5.3 2.7h-2c-.2-.9-.2-1.7-.2-2.4-.4.7-1.4 2.6-4.4 2.6-1.6 0-2.7-.5-3.3-1.1-.5-.5-1.2-1.4-1.2-2.7 0-1.7 1-2.7 1.7-3.2 1.5-1.1 3.5-1.1 5.5-1.1h1.6v-.5c0-.7-.1-1.5-.5-2.1-.7-.9-1.8-.9-2.7-.9-1.1 0-3.2.2-3.5 2.2l-1.7-.3zm18.5-1.7c-1 0-1.8 0-2.5.7-.4.5-.5 1-.5 1.6 0 .4.1 1.1.6 1.5.6.5 1.5.5 2.2.5h2.7v-4.4h-2.5zm4.5 11.2h-1.9v-5.2h-2.7l-2.8 5.2h-2.2l3-5.3c-.1 0-1.2-.3-1.9-1-.4-.4-1-1.2-1-2.8 0-.6.1-1.5.7-2.2.9-1.2 2.1-1.4 3.6-1.4h5.2v12.7zm11.8-12.7v7.6c0 .8 0 .8-.1 1.7.4-.9.8-1.4 1.2-2l4.8-6.3V345h1.9v12.7h-1.9v-7.5c0-.4 0-1.2.1-1.8-.1.2-.3.6-1.2 1.8l-4.8 6.3v1.2h-1.9V345h1.9zm19.5 0v1.5h-5.8v11.2H249v-12.7zm4.2 7.7c0 .7.1 1.7.9 2.6.7.8 1.6 1.1 2.4 1.1.7 0 1.8-.3 2.5-1.5.6-1 .8-2.4.8-3.5 0-2.1-.5-3.1-.7-3.5-.7-1.2-1.7-1.4-2.5-1.4-.9 0-1.6.3-2.3 1-.9 1-1 2-1 2.6v2.6zm-1.9 9.1V345h1.7v2.4c.5-1.2 1.7-2.6 3.8-2.6 1.6 0 2.7.6 3.5 1.5 1.1 1.2 1.6 3.2 1.6 5.1 0 1.7-.4 3.5-1.3 4.8-.7.9-1.9 1.9-3.8 1.9-2 0-3.1-1.1-3.6-2.2h-.1v6.2H259zm19.9-10.4c-2 0-3.1.3-3.8.6-1.1.5-1.3 1.5-1.3 2.1 0 .5.2 1.2.9 1.7.4.3 1 .5 1.8.5 1.2 0 2.3-.6 3-1.4.6-.8 1-2 1-2.9v-.6h-1.6zm-6.9-3.2c.5-2.7 2.6-3.5 5.4-3.5.9 0 2.5 0 3.6.9 1.4 1.1 1.4 2.8 1.4 4.5v4.9c0 .7.1 1.5.3 2.7h-2c-.1-.9-.2-1.7-.2-2.4-.4.7-1.4 2.6-4.4 2.6-1.6 0-2.7-.5-3.3-1.1-.5-.5-1.2-1.4-1.2-2.7 0-1.7 1-2.7 1.7-3.2 1.5-1.1 3.5-1.1 5.5-1.1h1.6v-.5c0-.7 0-1.5-.5-2.1-.7-.9-1.8-.9-2.7-.9-1 0-3.2.2-3.5 2.2l-1.7-.3z" id="_857955093328"/></g><path class="st0" d="M227.5 9.7l13 1.4c8.8.9 17 5.2 22.8 11.9l9.1 10.5c2.1 2.4 4.4 4.5 7 6.2l10.9 7.3c7.4 4.9 12.6 12.5 14.6 21.1l3.2 13.7c.7 3 1.8 5.9 3.3 8.7l6.3 11.6c4.2 7.7 5.3 16.8 3.1 25.3l-3.5 13.7c-.8 3-1.1 6-1.1 9.1l.2 13.3c.1 8.8-3.1 17.4-9 23.9l-9.5 10.5c-2.1 2.3-3.8 4.8-5.2 7.6l-6 11.8c-1.3 2.7-3 5.1-5 7.3 1.8-.3 3.5-.5 5.3-.7 3-.3 5.7.5 8 2.5l25.4-2.5c2.8-.3 5.4.5 7.5 2.1l7.1-1.4c3.4-.7 6.7.2 9.3 2.6 2.6 2.4 3.8 5.5 3.5 9-.1.9-.2 1.9-.2 2.9l1.8.6v-4.9c0-3.1 1.1-5.8 3.3-7.9s5-3.1 8.1-2.9l14.3.9c3.1.2 5.7 1.5 7.7 3.9s2.7 5.2 2.3 8.3l-4.6 31.9c0 .3-.1.6-.2.8.7 1.4 1.2 2.8 1.6 4.3.6 2.5.5 5.1-.1 7.6-.6 2.2-1.5 4.2-2.8 6-1.3 1.9-3 3.5-4.9 4.7-1.8 1.1-3.7 1.9-5.7 2.4-2.6.6-5.2.6-7.8 0-1.9-.5-3.8-1.2-5.5-2.3-1.2-.7-2.3-1.6-3.3-2.6-2.2 1-4.5 1.8-6.9 2.4-6.9 1.7-14.5 1.7-21.5 1.3-2.2-.1-4.2-.9-5.8-2.2-.6.3-1.3.5-2 .6l-13.9 2.9c-3.2.7-6.2 0-8.7-2-1.8 1-3.8 1.5-6 1.4l-12.6-.8c-.9-.1-1.7-.2-2.5-.4l-.3.3c-3.5 4.6-10.1 5.6-14.8 2.2-1.5-1.1-3.1-2.2-4.7-3.1l-10.9 1.5c-2.7.4-5.1-.2-7.3-1.6l-9.9 2.2c-3.4.7-6.5 0-9.2-2.2-2.1-1.8-3.4-4-3.8-6.7-1.5 2.1-3.7 3.7-6.4 4.3l-11.1 2.5c-3.2.7-6.2.1-8.8-1.9-.2-.2-.4-.3-.7-.5-2.2.4-4.4 1-6.6 1.4-1.6.3-3.2.7-4.8 1.3-3.1 1-6.2.7-9-1l-3.4 1.5c-3.7 1.7-7.8 1.2-10.9-1.1-.9.4-1.8.7-2.7.8l-12.4 2c-2.9.5-5.7-.2-8-1.9-2.6 1-5.6.9-8.3-.3l-12.3-5.7c-1.6 3.2-4.7 5.6-8.5 6l-12.6.9c-3.3.3-6.2-.7-8.5-2.9l-.8-.8c-1.6.2-3.2.4-4.7.7-4.9.8-9.9 1.7-14.7 2.8-.8.2-1.6.3-2.3.3-1 .2-2 .3-3 .3-6.2-.3-12.5-.4-18.7-.2-6.2.1-12.4.5-18.6 1.2-5.8.6-11.1-3.6-11.8-9.4L.2 275.9c-.6-5 2.4-9.6 6.9-11.3 2.6-9.6 4.6-19.4 6.2-29.2.8-4.7 4.4-8.3 9.2-8.9l17.9-2.4c3.1-.4 5.8.4 8.2 2.3.4.3.7.6 1 1 .6-.2 1.3-.3 1.9-.4l25.8-3.1c2.7-.3 5.3.4 7.4 1.8 5.7-1.2 11.7-2 17.4-1.7.2 0 .5 0 .7.1-1.7-2-3.2-4.3-4.5-6.7L92 204.7c-1.4-2.7-3.2-5.3-5.2-7.6l-9-9.9c-5.9-6.5-9.2-15.1-9.1-23.9l.1-13.9c0-3.1-.3-6.2-1.1-9.2l-3.4-12.9c-2.2-8.6-1.1-17.6 3.1-25.4L74 89.7c1.5-2.8 2.6-5.7 3.3-8.7l3-12.9c2-8.6 7.2-16.2 14.6-21.1l11.5-7.7c2.6-1.8 5-3.9 7-6.3l8.5-9.9c5.8-6.8 13.9-11 22.8-12l13.7-1.5c3.1-.3 6.2-1.1 9.2-2.3l12.2-4.8c8.3-3.3 17.5-3.3 25.7 0l12.8 5.1c3 1 6.1 1.8 9.2 2.1zm-34.9 15c-58.4 0-105.9 47.5-105.9 105.9 0 40 22.3 74.9 55.1 92.9l-4.3-1.5c-1.4-.5-2.8-.7-4.1-.6-29.6-19.4-49.2-52.8-49.2-90.7 0-59.7 48.6-108.3 108.3-108.3S300.8 71 300.8 130.7c0 40.3-22.1 75.5-54.9 94.2-1.2.2-2.4.4-3.3.5l-4 .6c35.3-17.2 59.8-53.4 59.8-95.3.1-58.5-47.4-106-105.8-106zm167.9 242c.1.1 0-5.1-.2-15.5-.1-4.9-.1-10.5-.2-16.7l14.3.9-4.6 31.9-9.3-.6zm-308.6 6.5l-.4 5.2-.5 5.1c-6.5-.3-13-.4-19.5-.3-6.5.1-13 .5-19.5 1.2l-1.2-10.1 4.7-.6c3.3-10.7 6.1-23 8.4-37l18-2.4c.8 12.9 2.7 25.7 5.6 38.3l4.4.6zm-17.3-.4c-.8-3.8-1.8-10.2-3-19.3-1.3 7.4-2.4 14-3.2 19.6l6.2-.3zm38.3-26c-2.4.3-4.6.6-6.8.8-.2 1.4-.3 2.5-.3 3.2l-.2 3.1 5.4-.8 5.4-.9.5 4.5.6 4.5c-3.5.5-5.8.9-6.9 1.1-1.9.3-3.5.6-5 .8l-.2 6 7.3-1.1 7.2-1.1.8 6 .7 6c-3.7.2-8 .7-12.6 1.5-4.7.7-9.8 1.7-15.4 2.9-.1-2.6-.1-6.4-.2-11.4l-.2-11.5c-.1-10.1-.2-17.7-.2-22.9l12.9-1.5 12.9-1.5.8 5.9.8 6c-2.5 0-4.9.2-7.3.4zM84 260.4c.2-13.2-.1-21-.8-23.5 7.6-1.9 13.7-2.6 18.3-2.4 4.6.3 8 1.5 10.4 3.8.6.6 1.1 1.2 1.6 1.9l10.1-4.6c.9.8 2.5 2.7 4.9 5.7 2.1 2.7 3.8 4.5 5.1 5.6l.3-14.9 12.9 4.6c-.3 2.7-.6 6.3-.8 10.9.7-.6 1.7-1.7 2.9-3.4 1.3-1.8 2.2-3 2.8-3.5-1.6 1.4 0-.1 4.8-4.4l10.9 5.1-13 13.1 14.3 22.9-12.9 6-10.5-20.5-.6 13.1c-.1 2.2 0 4.3.2 6.2l-12.4 2 .5-20.6-10.6 19.3-12.6-5.9L125 254l-10.3-10.8c.6 1.6.8 3.5.9 5.6.1 3.6-.8 6.9-2.5 9.8-1.5 2.4-3.5 4.5-6.2 6.2-3.2 2-6.9 3.4-11.4 4.1-.2 3.1 0 7.5.6 13.2l-12.7 1.3c.3-4.3.5-11.9.6-23zm11.3-2.9c2.8-.1 5.1-.9 6.9-2.6 1.3-1.3 2.1-2.8 2.4-4.7.4-2.5-.4-4.2-2.5-5-1.7-.7-4.1-.6-7.1.4l.3 11.9zm86.9-22.3c-.9 4.5-1.6 9-2 13.5-.4 4.4-.5 9-.2 13.7 1.2-4.8 2.9-9.9 5.2-15.3 2.2-5.3 3.7-8.7 4.3-10l12.9-1.9c-.6 8.2-.9 16.1-.7 23.7.2 7.7.4 14.5.7 20.5l-11.1 2.5c-.5-8-.9-15.8-1.2-23.3-1.5 2.9-3.1 6.3-4.6 10.2-1.6 3.9-2.6 7.5-2.9 10.6-.9.2-3.3.7-7.2 1.5-2.3.5-4.2 1-5.9 1.5-.5-7.8-.8-15.3-.8-22.7-.1-7.3-.4-14.8-1-22.3l14.5-2.2zm39.2 4c20.3-2.9 30.5-4.3 30.6-4.3-.2 2 0 16.8.5 44.5 4.6-4.4 8.3-8.9 11-13.4-2.9-1.1-5.2-2.9-6.8-5.3-3-4.7-2.7-9.4 1.2-14 2.7-3.3 6.7-6 12.1-8.1 5.1-2 11.1-3.3 18.1-4-.8 12.5-1 28.8-.6 48.9l-12.6-.8c.6-4.6.8-8.8.7-12.8l-1.6.1c-3.3 6-7 11.6-10.9 16.8-2.3-1.6-4.4-3-6.4-4.2-1.8-1-3.2-1.9-4.3-2.8v1.6l-12.7 1.8.2-36.3c-1.4.2-3.2.4-5.6.7-.7 10.2-.7 21.4.2 33.6l-12.7 2.8c.2-4.7.1-12.2-.3-22.3-.2-9.9-.3-17.4-.1-22.5zm55.1 8.8c-3.3.8-5.6 1.9-6.9 3.1-1.4 1.2-1.8 2.7-1.2 4.4.4 2.2 3 3.2 7.8 3.1l.3-10.6zm47.2-1.2c-5.6.3-9.6.5-12.1.7-.4 5.2.2 16.4 1.8 33.7l-13.9 2.9-.1-35.6c-.8.1-2.4.2-4.9.6-2.3.3-4.2.5-5.7.6l.9-12.2 31.8-3.1 2.2 12.4zm2 12.7c.1-5.8-.1-13.2-.4-22l11.9-2.4c-.4 4-.5 8.5-.2 13.3 4.2-.1 7.9.6 11 2 2.7 1.2 4.7 2.9 6.2 5.1 1.8 2.6 2.6 5.7 2.5 9.3-.1 4.6-1.3 8.3-3.8 11.1-2.4 2.7-5.8 4.6-10.4 5.7-4.6 1.1-10.7 1.5-18.3 1 .9-5.2 1.4-12.9 1.5-23.1zm10.3 12.3c3 .4 5.3.1 7.1-.9 2.1-1.2 3-3 2.5-5.5-.3-1.9-1.1-3.3-2.4-4.2-1.8-1.4-4.1-1.8-6.9-1.4l-.3 12zm27.2 12.3c-.9-.2-1.7-.6-2.5-1-.8-.5-1.4-1.1-1.8-1.8-.5-.7-.8-1.5-1-2.4-.2-.8-.2-1.7 0-2.6.2-.9.5-1.7 1.1-2.3.6-.7 1.2-1.3 1.9-1.7s1.6-.8 2.5-1c.9-.2 1.8-.2 2.7-.1 1 .2 1.8.6 2.6 1.1.7.5 1.3 1.1 1.8 1.8s.8 1.4 1 2.3c.2.8.2 1.7 0 2.6-.2.9-.6 1.7-1.1 2.4-.5.7-1.1 1.3-1.9 1.8-.7.5-1.6.8-2.5 1-.9.1-1.9.1-2.8-.1zM169.4 64c.3 0 .5-.1.8-.2 1.2-.4 1.7-1.7 1.3-2.9l-4.7-12.3c-.4-1.2-1.7-1.8-2.9-1.3-1.2.4-1.8 1.7-1.3 2.9l4.7 12.3c.4.9 1.2 1.5 2.1 1.5zm14.4-2.1h.3c1.2-.2 2.1-1.3 1.9-2.5l-2.9-20.5c-.2-1.2-1.3-2.1-2.5-1.9-1.2.2-2.1 1.3-1.9 2.5l2.9 20.5c.1 1.1 1.1 1.9 2.2 1.9zm14.8 0c1.1 0 2.1-.8 2.2-2l2.6-20.6c.2-1.2-.7-2.4-1.9-2.5-1.2-.2-2.4.7-2.5 1.9l-2.7 20.6c-.2 1.2.7 2.4 1.9 2.5.2.1.3.1.4.1zm16.8 1c.9 0 1.7-.5 2.1-1.3l4.9-11.3c.5-1.1 0-2.5-1.2-3s-2.5 0-3 1.2l-4.9 11.3c-.5 1.1 0 2.5 1.2 3 .3.1.6.1.9.1zm52 78.7l-.2-.2c-2.3-2.3-5.3-3.6-8.5-4-4-.5-7.9.7-11 3.2l17-35.7c3.1-6.5.3-14.3-6.2-17.3l-.2-.1c-1.3-.6-2.6-1-4-1.2-.8-.1-1.6-.1-2.4-.1 2.9-6.4.1-14.1-6.3-17.1l-.2-.1c-2.5-1.2-5.2-1.5-8-1-4.2.8-7.7 3.8-9.5 7.7l-.8 1.7c-1.3-1.8-3-3.3-5-4.2l-.2-.1c-2.5-1.2-5.2-1.5-8-1-4.2.8-7.7 3.8-9.5 7.6l-9.1 19.2c-1.8 2.7-1.1 12.4 1.2 6.8L208.2 81c1.7-3.6 5.5-5.5 9.2-5.1.9.1 1.9.4 2.8.8l.2.1c4.5 2.1 5 7.1 2.9 11.6 0 0-8.5 22.6-8.4 23l.2.8L231.7 77c1.7-3.6 5.4-5.5 9.2-5.1.9.1 1.9.4 2.8.8l.2.1c4.5 2.1 6.4 7.5 4.3 12l-26.5 59.1 26.1-48.5c1.7-3.6 2.5-5.5 6.2-5.1.9.1 1.9.4 2.8.8l.2.1c4.5 2.1 6.4 7.5 4.3 12 0 0-26.1 55.7-25.7 56l14-14.5c2.4-2.5 5.8-3.6 9-3.2 2.2.3 4.4 1.2 6.2 2.9l.2.2c4.3 4.1 4.4 10.9.3 15.2l-37 38.4c-5.6 7.3-15.7 12.4-23.6 15.1 0 0 17 .2 26.7-12.5l36.9-38.2c5.2-6 5-15.4-.9-21zm-143.5-9.7h-.3c-1.9-.2-3.8.3-5.5 1.3-2.3 1.4-3.9 3.4-4.5 5.8-.6 2.4-.3 4.9 1 7.1l27 46c6.2 14.1 18.6 23.5 33.2 25.3 4.6.5 9.3.3 13.9-.7 40.7-8.5 32.9-55.9 31-65.4v-.1l-8.2-39c-.7-3.2-3.3-5.6-6.5-6-.9-.1-1.7 0-2.5.1-2.2.4-3.9 1.6-5 3.3-1.1 1.7-1.5 3.7-1.1 5.7l6.1 29-4.4-.5-12.6-60c-.7-3.2-3.3-5.6-6.5-6-.9-.1-1.7 0-2.4.1-4.3.9-6.9 4.9-6 9l11.6 55.2-4.4-.2-14.2-67.6c-.7-3.2-3.3-5.6-6.5-6-1-.1-1.7 0-2.5.1-4.3.9-6.9 4.9-6 9l13.7 65.1-1.4.3c-.4.1-.9.2-1.3.3l-1.4.3L146.8 89c-.7-3.2-3.3-5.6-6.5-6-1-.1-1.7 0-2.5.1-2.2.4-3.9 1.6-5 3.3-1.1 1.7-1.5 3.7-1.1 5.7l12.7 60.7-2 3.2-11.6-19.8c-1.5-2.3-4-3.9-6.9-4.3zm77.7-112.7h-.1c-2.4-.2-4.9-.3-7.3-.3-.7 0-1.2-.6-1.2-1.3 0-.7.6-1.2 1.2-1.2 2.5 0 5 .2 7.5.3.7.1 1.2.7 1.1 1.3-.1.7-.6 1.2-1.2 1.2zm-22.3.4c-.6 0-1.2-.5-1.2-1.1-.1-.7.4-1.3 1.1-1.4 2.5-.3 5-.5 7.5-.6.8-.1 1.3.5 1.3 1.2s-.5 1.3-1.2 1.3c-2.4.1-4.9.3-7.3.6h-.2zm36.9 1.7h-.3c-2.4-.5-4.8-.9-7.2-1.3-.7-.1-1.1-.7-1-1.4.1-.7.7-1.1 1.4-1 2.5.4 5 .8 7.4 1.3.7.2 1.1.8 1 1.5-.2.5-.7.9-1.3.9zm-51.4 1c-.6 0-1.1-.4-1.2-.9-.2-.7.2-1.3.9-1.5 2.4-.6 4.9-1.2 7.3-1.6.7-.1 1.3.3 1.4 1 .1.7-.3 1.3-1 1.4-2.4.4-4.8 1-7.2 1.6h-.2zm65.7 3.1c-.1 0-.3 0-.4-.1-2.3-.8-4.7-1.6-7-2.2-.7-.2-1-.9-.8-1.5.2-.7.9-1 1.5-.9 2.4.7 4.8 1.4 7.1 2.3.6.2 1 .9.8 1.6-.2.5-.7.8-1.2.8zm-79.8 1.5c-.5 0-.9-.3-1.1-.8-.3-.6.1-1.3.7-1.6 2.3-.9 4.7-1.8 7.1-2.6.7-.2 1.4.2 1.6.8.2.7-.1 1.4-.8 1.6-2.3.8-4.6 1.6-6.9 2.5-.3.1-.5.1-.6.1zm93.4 4.4c-.2 0-.4 0-.6-.1-2.2-1.1-4.4-2.2-6.6-3.1-.6-.3-.9-1-.6-1.6.3-.6 1-.9 1.6-.7 2.3 1 4.6 2.1 6.8 3.2.6.3.9 1 .5 1.7-.2.3-.6.6-1.1.6zm-106.8 2c-.4 0-.9-.2-1.1-.6-.3-.6-.1-1.3.5-1.7 2.2-1.2 4.4-2.4 6.7-3.5.6-.3 1.3 0 1.6.6.3.6 0 1.3-.6 1.7-2.2 1-4.4 2.2-6.5 3.4-.2 0-.4.1-.6.1zm119.5 5.6c-.2 0-.5-.1-.7-.2-2-1.4-4.1-2.7-6.2-4-.6-.3-.8-1.1-.4-1.7.4-.6 1.1-.8 1.7-.4 2.1 1.3 4.2 2.6 6.3 4.1.6.4.7 1.2.3 1.7-.2.3-.6.5-1 .5zm-131.9 2.5c-.4 0-.8-.2-1-.5-.4-.6-.3-1.3.3-1.7 2-1.5 4-2.9 6.1-4.3.6-.4 1.3-.2 1.7.4s.2 1.3-.4 1.7c-2 1.3-4.1 2.8-6 4.2-.2.1-.4.2-.7.2zm143.6 6.7c-.3 0-.6-.1-.8-.3-1.8-1.6-3.7-3.2-5.6-4.7-.5-.4-.6-1.2-.2-1.7.4-.5 1.2-.6 1.7-.2 1.9 1.5 3.9 3.2 5.7 4.9.5.5.5 1.2.1 1.7-.3.2-.6.3-.9.3zM113.6 51c-.3 0-.6-.1-.9-.4-.5-.5-.5-1.3 0-1.8 1.8-1.7 3.6-3.4 5.5-5.1.5-.4 1.3-.4 1.7.1.4.5.4 1.3-.1 1.8-1.9 1.6-3.7 3.3-5.4 4.9-.1.4-.4.5-.8.5zm165.2 7.8c-.3 0-.7-.1-.9-.4-1.6-1.9-3.2-3.7-4.9-5.4-.5-.5-.5-1.3 0-1.8s1.3-.5 1.7 0c1.7 1.8 3.4 3.7 5 5.6.4.5.4 1.3-.1 1.7-.3.2-.6.3-.8.3zM103.7 62c-.3 0-.5-.1-.8-.3-.5-.4-.6-1.2-.2-1.7 1.5-2 3.2-3.9 4.8-5.7.5-.5 1.2-.6 1.8-.1.5.4.6 1.2.1 1.7-1.6 1.8-3.2 3.7-4.7 5.6-.2.4-.6.5-1 .5zm183.9 8.7c-.4 0-.8-.2-1-.6-1.3-2-2.7-4.1-4.2-6-.4-.6-.3-1.3.3-1.7.6-.4 1.3-.3 1.7.3 1.5 2 2.9 4.1 4.3 6.2.4.6.2 1.3-.4 1.7-.3 0-.5.1-.7.1zM95.4 74.3c-.2 0-.4-.1-.6-.2-.6-.3-.8-1.1-.4-1.7 1.3-2.1 2.6-4.3 4-6.3.4-.6 1.2-.7 1.7-.3.6.4.7 1.2.3 1.7-1.4 2-2.7 4.1-3.9 6.2-.3.4-.7.6-1.1.6zm199.4 9.3c-.5 0-.9-.3-1.1-.7-1-2.2-2.2-4.4-3.3-6.5-.3-.6-.1-1.3.5-1.7.6-.3 1.4-.1 1.7.5 1.2 2.2 2.4 4.4 3.4 6.7.3.6 0 1.3-.6 1.6-.3.1-.4.1-.6.1zM88.6 87.5c-.2 0-.3 0-.5-.1-.6-.3-.9-1-.7-1.6 1-2.3 2-4.6 3.2-6.8.3-.6 1.1-.9 1.7-.6.6.3.9 1.1.6 1.7-1.1 2.2-2.2 4.4-3.1 6.7-.2.4-.7.7-1.2.7zm211.6 9.9c-.5 0-1-.3-1.2-.9-.7-2.3-1.6-4.6-2.5-6.9-.3-.6.1-1.4.7-1.6.6-.3 1.4.1 1.6.7.9 2.3 1.8 4.7 2.5 7.1.2.7-.2 1.3-.8 1.6h-.3zm-216.5 4.1c-.1 0-.2 0-.3-.1-.7-.2-1-.9-.9-1.5.7-2.4 1.4-4.8 2.2-7.2.2-.6.9-1 1.6-.8.6.2 1 .9.8 1.6-.8 2.3-1.5 4.6-2.2 7-.1.6-.6 1-1.2 1zm220.1 10.3c-.6 0-1.1-.4-1.2-1-.4-2.4-.9-4.8-1.5-7.2-.2-.7.2-1.3.9-1.5s1.3.2 1.5.9c.6 2.4 1.1 4.9 1.6 7.3.1.7-.3 1.3-1 1.4-.2.1-.2.1-.3.1zM80.7 116h-.2c-.7-.1-1.2-.7-1-1.4.3-2.5.8-5 1.3-7.4.1-.7.8-1.1 1.5-1 .7.1 1.1.8.9 1.5-.5 2.4-.9 4.8-1.3 7.2-.1.7-.6 1.1-1.2 1.1zm224.7 10.5c-.7 0-1.2-.5-1.2-1.2-.1-2.4-.3-4.9-.6-7.3-.1-.7.4-1.3 1.1-1.4.7-.1 1.3.4 1.4 1.1.3 2.5.5 5 .6 7.5 0 .7-.5 1.3-1.3 1.3.1 0 .1 0 0 0zm-225.8 4.3c-.7 0-1.2-.6-1.2-1.2 0-2.5.1-5 .3-7.5.1-.7.6-1.2 1.3-1.2.7.1 1.2.7 1.1 1.3-.2 2.4-.3 4.9-.3 7.3 0 .7-.5 1.3-1.2 1.3zm225.7 8.5c-.8-.1-1.3-.6-1.2-1.3.2-2.4.2-4.9.2-7.3 0-.7.6-1.2 1.2-1.2.7 0 1.2.6 1.2 1.2 0 2.5-.1 5-.2 7.5 0 .6-.5 1.1-1.2 1.1zm-224.9 6.3c-.6 0-1.2-.5-1.2-1.1-.3-2.5-.5-5-.7-7.5 0-.7.5-1.3 1.2-1.3s1.3.5 1.3 1.2c.1 2.4.4 4.9.7 7.3.1.7-.4 1.3-1.1 1.4h-.2zm223 8.3h-.2c-.7-.1-1.1-.8-1-1.4.5-2.4.9-4.8 1.2-7.2.1-.7.7-1.2 1.4-1.1.7.1 1.2.7 1.1 1.4-.3 2.5-.7 5-1.2 7.4-.2.5-.7.9-1.3.9zm-220.2 6.3c-.6 0-1-.4-1.2-.9-.6-2.4-1.2-4.9-1.6-7.3-.1-.7.3-1.3 1-1.4.7-.1 1.3.3 1.4 1 .4 2.4 1 4.8 1.6 7.2.2.7-.2 1.3-.9 1.5-.1-.1-.2-.1-.3-.1zm216.4 8.1c-.1 0-.3 0-.4-.1-.7-.2-1-.9-.8-1.6.8-2.3 1.5-4.7 2.1-7 .2-.7.9-1 1.5-.9.7.2 1.1.8.9 1.5-.7 2.4-1.4 4.8-2.2 7.2-.1.5-.6.9-1.1.9zm-211.8 5.9c-.5 0-.9-.3-1.2-.8-.9-2.3-1.8-4.7-2.6-7-.2-.7.1-1.3.8-1.6.7-.2 1.3.1 1.6.8.8 2.3 1.6 4.6 2.5 6.9.3.6-.1 1.3-.7 1.6-.1.1-.2.1-.4.1zm206.1 7.8c-.2 0-.4-.1-.6-.1-.6-.3-.9-1-.6-1.7 1.1-2.2 2.1-4.4 3-6.7.3-.6 1-.9 1.6-.7.6.3.9 1 .7 1.6-.9 2.3-2 4.6-3.1 6.8-.1.5-.6.8-1 .8zm-199.6 5.6c-.4 0-.8-.2-1.1-.6-1.2-2.2-2.4-4.4-3.5-6.6-.3-.6 0-1.4.6-1.7.6-.3 1.4 0 1.7.6 1 2.2 2.2 4.4 3.4 6.5.3.6.1 1.3-.5 1.7-.2 0-.4.1-.6.1zm192.1 7.2c-.2 0-.5-.1-.7-.2-.6-.4-.7-1.2-.3-1.7 1.4-2 2.7-4.1 3.9-6.2.3-.6 1.1-.8 1.7-.4.6.3.8 1.1.4 1.7-1.2 2.2-2.6 4.3-4 6.4-.2.2-.6.4-1 .4zm-184 5.1c-.4 0-.7-.2-1-.5-1.5-2-3-4.1-4.3-6.1-.4-.6-.2-1.3.4-1.7.6-.4 1.3-.2 1.7.4 1.3 2 2.8 4 4.2 6 .4.5.3 1.3-.2 1.7-.3.2-.5.2-.8.2zm175 6.6c-.3 0-.6-.1-.8-.3-.5-.5-.6-1.2-.1-1.8 1.6-1.8 3.2-3.7 4.7-5.7.4-.6 1.2-.6 1.7-.2.6.4.6 1.2.2 1.7-1.5 2-3.1 3.9-4.8 5.8-.3.4-.6.5-.9.5zm-165.3 4.7c-.3 0-.6-.1-.9-.4-1.8-1.8-3.5-3.6-5.1-5.5-.4-.5-.4-1.3.1-1.8.5-.4 1.3-.4 1.7.1 1.6 1.8 3.3 3.6 5 5.4.5.5.5 1.3 0 1.8-.1.2-.5.4-.8.4zm154.7 5.8c-.3 0-.7-.1-.9-.4-.4-.5-.4-1.3.1-1.7 1.8-1.6 3.6-3.3 5.4-5 .5-.5 1.3-.5 1.8 0s.5 1.3 0 1.7c-1.8 1.8-3.6 3.5-5.5 5.1-.3.2-.6.3-.9.3zm-143.6 4c-.3 0-.5-.1-.8-.3-2-1.5-3.9-3.1-5.8-4.8-.5-.4-.6-1.2-.1-1.7.4-.5 1.2-.6 1.7-.1 1.8 1.6 3.7 3.2 5.6 4.7.5.4.6 1.2.2 1.7-.1.3-.4.5-.8.5zm130.7 3.3c.1-.2.2-.4.5-.6 2-1.4 4.1-2.8 6-4.3.5-.4 1.3-.3 1.7.2.4.6.3 1.3-.2 1.7-1.7 1.3-3.4 2.5-5.2 3.7-.9-.2-1.8-.5-2.8-.7z" id="Слой_x0020_1_1_"/></svg>