<svg xmlns="http://www.w3.org/2000/svg" width="300" height="280" viewBox="0 0 54702 51021" shape-rendering="geometricPrecision" text-rendering="geometricPrecision" image-rendering="optimizeQuality" fill-rule="evenodd" clip-rule="evenodd"><defs><style>.fil1{fill:#fefefe}.fil0{fill:#fff}</style></defs><g id="Слой_x0020_1"><path class="fil0" d="M32203 1354l1809 190c1229 129 2364 721 3173 1657l1263 1461c286 331 615 622 979 865l1516 1012c1024 684 1750 1731 2033 2930l448 1901c99 419 253 823 458 1201l875 1614c584 1078 739 2335 436 3522l-486 1904c-105 414-157 840-151 1267l24 1844c16 1226-431 2412-1253 3322l-1315 1458c-287 318-530 672-724 1053l-838 1647c-188 370-421 710-691 1016 245-38 491-68 737-93 417-42 797 75 1110 342l3525-342c388-38 757 75 1046 294l987-196c478-94 930 30 1291 357 362 326 532 763 486 1248-12 132-22 265-29 398 86 24 172 50 256 78-1-226-4-452-6-679-4-430 154-802 466-1098s691-433 1120-407l1987 125c431 27 792 212 1064 548 273 335 381 726 320 1153l-635 4437c-5 39-12 76-21 114 99 188 172 388 220 597 78 349 74 708-14 1055-76 298-204 577-382 829-184 260-415 481-684 651-245 154-513 263-795 330-359 86-729 86-1089-2-268-66-523-173-759-316-169-103-323-225-459-365-303 142-624 251-956 331-956 232-2015 239-2992 175-309-20-583-122-812-302-89 38-183 68-282 89l-1940 409c-440 92-857-2-1211-273-250 147-533 212-840 191l-1747-114c-119-8-233-28-341-59-12 16-24 31-36 47-490 638-1398 772-2052 304-213-152-431-302-655-437l-1512 214c-370 52-715-23-1015-220l-1384 302c-465 101-907-7-1273-312-294-245-472-562-523-924-205 293-517 509-891 595l-1543 351c-442 101-863 12-1226-260-32-24-62-48-91-73-303 55-617 133-918 200-222 49-451 102-666 174-434 145-868 95-1251-142l-469 216c-509 235-1086 159-1510-153-118 53-245 92-379 113l-1726 273c-410 65-791-27-1115-269-363 136-777 131-1155-45l-1709-794c-221 445-658 772-1187 826l-1770 181c-452 47-860-94-1187-409-39-36-75-75-108-114-220 29-439 61-656 95-688 109-1372 239-2051 391-109 25-216 38-322 39-134 32-276 46-421 38-868-43-1737-51-2605-32-863 18-1726 70-2584 163-811 88-1545-495-1643-1305l-170-1407c-84-696 329-1341 959-1577 366-1336 643-2704 866-4066 108-659 615-1151 1278-1238l2497-329c425-56 811 54 1142 327 53 43 101 88 147 135 87-27 178-47 271-58l3587-432c377-45 739 55 1029 256 790-168 1630-285 2415-238 33 2 66 4 99 7-241-284-450-596-622-931l-889-1734c-195-381-440-735-727-1052l-1251-1377c-825-908-1276-2095-1263-3323l21-1935c5-431-48-861-156-1278l-467-1793c-310-1190-158-2454 427-3537l916-1697c206-382 360-790 458-1212l416-1794c278-1201 1003-2252 2026-2940l1597-1073c363-244 692-537 978-869l1188-1385c806-939 1939-1535 3170-1668l1906-206c436-47 865-153 1273-316l1693-672c1149-457 2429-459 3579-5l1788 703c409 162 838 266 1275 312zm-4855 2086c-8118 0-14723 6604-14723 14723 0 5561 3100 10412 7663 12916l-593-210c-191-68-383-97-572-89-4116-2693-6842-7342-6842-12617 0-8308 6759-15067 15067-15067 8307 0 15066 6759 15066 15067 0 5603-3076 10502-7627 13097-171 28-333 55-466 74l-562 80c4915-2388 8311-7430 8311-13251 0-8119-6605-14723-14722-14723zm23353 33653c7 7 0-711-23-2156-7-681-14-1457-23-2327l1986 125-635 4437c-878-53-1312-79-1305-79zm-42922 905l-56 727-69 715c-908-46-1811-58-2712-35-900 16-1805 73-2713 172l-170-1407 648-80c460-1490 850-3205 1168-5142l2497-329c114 1793 374 3568 783 5322l624 57zm-2406-60c-105-529-245-1424-420-2685-182 1035-329 1942-442 2720l862-35zm5334-3619c-332 39-646 76-941 114-23 196-38 345-46 444l-22 430 749-113 749-124 67 625 80 623c-484 76-802 126-953 149-258 37-488 76-692 113l-23 841 1011-148 998-148 113 829 103 829c-522 30-1109 99-1759 205-651 98-1366 234-2145 409-9-356-16-887-23-1590l-23-1602c-16-1401-27-2461-34-3180l1793-216 1793-216 113 818 114 829c-356 23-696 49-1022 79zm1544 1898c22-1832-15-2920-114-3269 1052-258 1899-368 2542-329 635 37 1116 216 1442 533 84 81 157 169 222 267l1412-644c122 114 349 379 682 795 295 370 534 627 715 772l45-2066 1793 635c-45 371-83 878-113 1521 98-76 234-235 409-476 181-258 310-421 386-489-220 197 3-7 669-612l1520 715-1805 1827 1987 3178-1794 827-1452-2848-79 1827c-16 311-4 598 34 863l-1726 273 69-2871-1476 2678-1758-818 2110-3189-1438-1503c77 228 118 488 121 780 7 506-110 961-352 1361-204 340-491 628-862 862-439 280-965 471-1577 568-23 424 3 1037 79 1839l-1771 181c38-590 65-1653 80-3188zm1566-409c393-8 715-129 964-364 182-174 292-393 330-657 60-349-57-579-352-692-243-99-571-81-988 55l46 1658zm12087-3095c-128 628-223 1250-283 1871-61 612-68 1247-23 1903 166-674 408-1384 727-2134 310-742 510-1206 600-1395l1793-262c-90 1143-124 2239-101 3292 23 1066 53 2016 90 2848l-1543 352c-68-1113-124-2193-170-3246-212 409-428 882-646 1419-221 544-356 1036-409 1475-129 23-462 96-1000 216-317 69-589 140-816 216-69-1081-106-2132-113-3153-9-1021-53-2052-138-3096l2032-306zm5447 551c2821-402 4241-602 4255-602-29 274-4 2335 75 6184 644-612 1156-1235 1537-1867-409-159-722-405-942-738-424-658-371-1308 160-1952 370-460 934-835 1690-1122 704-274 1543-458 2519-557-105 1741-133 4006-80 6797l-1747-115c76-635 106-1228 92-1780l-228 12c-462 839-968 1617-1521 2336-318-227-612-420-885-579-248-141-446-270-594-384l4 225-1770 250 22-5053c-189 23-449 57-782 103-99 1416-92 2970 22 4666l-1770 386c22-659 12-1692-34-3100-39-1361-46-2400-23-3110zm7660 1230c-453 112-775 257-964 431-190 173-246 378-170 612 60 304 423 447 1088 432l46-1475zm6571-171c-780 38-1339 72-1679 102-62 718 23 2279 249 4683l-1941 409-11-4945c-106 7-333 34-681 80-317 37-582 68-795 90l126-1701 4426-431 306 1713zm273 1758c7-810-12-1831-57-3065l1657-328c-53 559-65 1176-35 1850 584-9 1094 86 1533 283 371 166 658 400 863 704 248 355 367 786 351 1294-7 634-186 1149-533 1542-326 379-807 644-1441 796-644 158-1490 204-2543 135 129-710 198-1781 205-3211zm1430 1713c416 60 745 18 988-125 294-167 412-420 351-760-38-258-148-455-330-591-249-189-570-253-964-193l-45 1669zm3790 1713c-121-30-234-77-340-142-106-64-192-147-256-249s-109-213-136-330c-26-117-24-240 6-367 23-122 71-231 147-325s165-173 268-237c101-65 217-110 346-138 128-25 253-31 374-15 136 30 255 80 358 153 101 71 184 154 249 248 64 95 110 201 135 318 28 117 26 237-4 357-31 122-81 234-154 336-72 102-159 185-260 249-103 65-218 112-347 142-128 31-257 31-386 0zM24126 8896c37 0 75-6 111-20 162-61 243-242 182-404l-650-1714c-60-162-242-244-403-182-162 61-243 242-182 404l650 1714c47 125 166 202 292 202zm1997-287c15 0 30-1 45-3 171-25 290-183 266-354l-407-2854c-24-171-183-294-354-266-171 24-290 183-266 354l407 2854c22 156 156 269 309 269zm2059 2c155 0 290-116 310-274l369-2857c22-171-99-328-270-350-169-22-329 98-351 270l-369 2857c-22 171 99 329 270 351 14 1 27 3 41 3zm2341 142c121 0 236-70 287-188l685-1571c69-159-3-343-162-412-158-70-343 3-412 162l-685 1570c-69 159 3 343 162 413 41 17 83 26 125 26zm7231 10936l-22-21c-325-313-734-507-1181-561-560-66-1106 94-1535 443l2359-4966c428-903 44-1982-859-2411l-23-11c-178-84-367-139-562-162-113-14-225-16-336-9 401-894 15-1953-875-2375l-23-11c-344-163-728-215-1115-144-587 106-1070 527-1326 1066l-114 239c-176-250-415-453-700-588l-23-10c-343-163-726-215-1112-146-587 106-1071 524-1327 1062l-1266 2666c-243 380-152 1724 171 948l1630-3432c236-496 757-766 1275-704 131 15 263 53 389 112l23 11c622 296 700 992 404 1615 0 0-1182 3139-1169 3202l23 112 2333-4910c236-497 757-766 1275-705 131 16 263 53 389 113l22 10c624 297 888 1042 593 1665l-3689 8224 3623-6750c236-497 341-766 858-704 132 15 263 52 389 112l22 11c624 296 889 1040 593 1663 0 0-3630 7749-3579 7784l1945-2017c337-349 803-498 1250-445 312 37 615 172 858 407l22 21c593 571 610 1516 38 2109l-5146 5337c-775 1021-2190 1727-3287 2105 1 0 2361 24 3713-1739l5125-5315c786-815 763-2114-53-2901zm-19964-1346l-45-4c-267-23-531 37-764 174-325 190-538 472-625 807s-39 684 137 983l3751 6396c862 1965 2587 3271 4623 3513 636 74 1292 45 1939-90 5663-1188 4580-7780 4306-9090l-3-15-1137-5418c-93-443-458-778-907-831-126-8-241-6-341 15-301 63-538 225-692 461s-207 518-149 794l845 4030-612-70-1748-8337c-94-444-458-778-908-831-123-10-241-6-341 15-594 124-961 685-841 1254l1611 7681-605-34-1971-9401c-93-443-458-778-908-831-141-9-241-6-342 16-593 124-959 684-840 1254l1900 9057-191 39c-62 13-124 27-185 41l-195 47-1585-7558c-93-444-458-778-907-831-140-14-241-6-342 15-301 63-537 225-691 461-155 236-207 518-149 793l1771 8445-273 442-1619-2760c-207-353-560-583-967-632zM28595 2672c-4 0-9 0-14-1-334-26-677-42-1019-46-94-2-170-80-169-175 1-94 78-169 172-169h2c349 4 699 21 1041 48 95 7 166 90 158 184-7 91-82 159-171 159zm-3089 58c-86 0-160-65-171-152-10-94 57-180 151-191 345-40 694-69 1039-87 108-10 176 69 180 163 5 95-68 176-163 181-337 16-679 46-1016 85-7 1-13 1-20 1zm5129 238c-12 0-24-1-36-4-329-70-666-130-1004-179-94-14-159-101-145-195 14-95 102-158 195-146 344 51 690 112 1026 184 93 19 152 111 132 204-17 80-89 136-168 136zm-7156 135c-77 0-147-52-166-130-24-92 32-186 124-209 337-85 680-160 1019-222 94-15 183 44 200 138 17 93-45 183-138 200-331 61-667 134-996 217-15 4-29 6-43 6zm9139 426c-19 0-39-3-58-10-320-114-647-218-971-310-92-26-145-121-119-212 26-92 121-144 212-119 332 94 666 201 994 318 89 31 136 130 104 219-25 70-91 114-162 114zm-11099 210c-68 0-133-40-160-108-35-88 8-188 96-223 323-129 653-248 981-355 90-29 188 21 216 110 30 91-20 188-110 217-321 104-643 221-959 347-21 8-43 13-64 12zm12994 609c-27 0-54-6-79-18-301-155-612-302-923-437-88-37-128-139-90-226s139-128 226-89c318 137 636 287 944 445 85 44 118 148 75 232-31 59-91 93-153 93zm-14851 280c-61 0-119-31-150-87-47-83-18-188 65-234 303-170 613-332 925-480 85-42 187-6 229 81 41 85 5 188-81 229-305 145-609 303-904 469-27 16-56 22-84 22zm16621 781c-34 0-68-10-98-31-281-194-570-380-858-553-82-49-109-155-59-236 49-81 155-108 235-59 295 177 590 367 877 566 79 54 98 161 44 239-33 48-87 74-141 74zm-18348 344c-51 0-103-24-137-69-57-76-41-183 34-240 277-207 564-408 854-598 80-51 186-29 238 50 52 80 30 186-50 238-284 186-565 383-835 585-31 23-68 34-104 34zm19962 939c-41 0-82-15-115-45-252-228-513-450-778-660-75-60-87-167-28-242s168-87 241-28c272 215 539 443 796 675 70 64 75 173 11 243-33 38-80 57-127 57zm-21527 402c-45 0-89-18-123-52-66-68-65-177 3-243 245-239 504-476 769-704 71-61 181-53 242 19 62 72 54 180-18 242-260 223-513 455-753 689-33 33-77 49-120 49zm22960 1079c-48 0-97-21-131-61-219-258-449-512-685-755-66-69-64-177 4-244 68-66 177-64 243 4 241 249 477 509 701 773 61 72 52 181-21 242-32 28-71 41-111 41zm-24338 455c-37 0-74-12-106-37-74-59-87-167-29-241 216-274 442-543 672-798 63-71 172-77 243-13 71 63 76 172 13 242-225 251-446 514-658 782-33 43-84 65-135 65zm25567 1200c-57 0-112-28-145-79-182-283-377-564-580-838-57-76-41-184 35-241 77-56 185-40 241 36 208 280 407 568 593 857 52 79 28 186-51 237-29 19-62 28-93 28zm-26733 501c-30 0-60-8-87-24-82-48-109-154-61-235 177-298 365-594 562-880 54-78 161-98 239-44 78 53 98 160 44 239-192 280-376 569-549 860-32 54-89 84-148 84zm27734 1299c-65 0-127-36-156-98-144-305-301-610-465-907-47-83-17-188 66-234s188-17 234 67c169 303 329 615 476 927 41 85 4 188-82 228-24 12-49 17-73 17zm-28667 541c-23 0-46-4-68-14-87-37-128-138-91-225 137-319 285-637 442-946 43-85 147-118 232-76 84 43 118 147 75 232-154 302-299 613-432 925-28 65-92 104-158 104zm29422 1375c-73 0-141-46-164-119-103-324-219-647-343-961-34-89 9-189 97-223 89-35 189 8 223 96 127 322 245 652 351 983 29 90-21 187-112 216-17 5-35 8-52 8zm-30106 572c-15 0-30-2-46-7-91-25-145-120-119-211 92-334 197-669 312-995 31-89 130-137 219-105 89 31 137 130 105 219-112 319-214 646-305 973-22 76-90 126-166 126zm30602 1429c-81 0-154-59-169-142-59-333-131-669-213-997-22-92 34-186 126-208 93-25 186 33 208 125 83 335 157 679 218 1019 17 94-46 183-139 200-10 1-21 3-31 3zm-31021 588c-8 0-16 0-24-1-94-13-160-100-147-194 48-344 109-689 179-1028 20-92 109-154 204-133 93 20 152 111 133 204-69 331-128 669-175 1005-12 85-86 147-170 147zm31251 1459c-91 0-167-71-172-163-16-339-43-681-80-1017-11-95 57-179 151-190 93-12 180 57 191 152 38 343 66 692 82 1039 4 95-69 175-164 179h-8zm-31404 597h-1c-95-1-171-79-171-173 3-346 18-696 43-1042 7-94 89-167 185-159 94 7 165 90 158 185-25 338-39 681-42 1018-1 95-78 171-172 171zm31389 1176h-12c-94-6-167-88-161-183 22-335 33-679 33-1019 1-95 78-173 173-173s171 78 171 173c0 348-11 698-33 1041-6 91-82 161-171 161zm-31275 882c-85 0-159-64-170-151-42-342-72-691-92-1039-5-94 68-175 163-181 93-5 176 68 180 163 19 340 50 681 90 1015 12 95-55 180-150 192-7 1-14 1-21 1zm31007 1162c-12 0-23-1-34-4-93-18-154-109-135-202 66-330 121-669 165-1006 13-94 100-162 193-149 94 13 161 99 148 193-44 346-102 692-169 1029-16 82-88 139-168 139zm-30624 863c-76 0-146-51-166-128-86-334-163-677-227-1018-18-93 43-183 137-201 91-17 183 43 200 137 64 334 138 669 223 995 23 92-32 186-124 210-14 4-29 5-43 5zm30090 1127c-18 0-37-3-56-8-89-32-138-129-107-219 109-319 209-648 297-975 24-92 120-145 210-122 92 25 147 118 122 210-90 335-192 671-303 998-25 71-91 117-163 116zm-29444 831c-68 0-132-40-159-107-129-320-251-649-360-979-29-90 20-187 109-217 92-31 188 19 218 109 107 322 225 645 352 958 36 88-7 188-95 224-21 8-43 12-65 12zm28651 1075c-26 0-51-6-76-18-85-42-120-145-78-230 151-304 293-617 423-930 37-87 137-127 226-92 87 36 128 137 92 225-133 320-279 639-433 949-30 61-91 96-154 96zm-27754 778c-60 0-118-31-149-87-171-300-334-610-485-921-41-86-5-189 80-230 86-42 189-6 230 80 147 304 307 607 473 901 48 83 19 188-64 235-27 15-56 22-85 22zm26718 1006c-33 0-67-9-96-29-79-53-100-160-47-239 190-282 372-573 541-865 48-82 154-110 236-62 82 47 110 153 62 235-173 298-359 595-553 884-33 50-88 77-143 76zm-25585 715c-52 0-103-23-137-68-210-277-412-563-602-851-52-79-30-186 50-238 78-52 185-31 238 49 185 281 383 562 588 833 57 75 42 183-33 240-31 24-68 35-104 35zm24325 918c-40 0-81-14-114-43-71-62-78-171-15-242 225-256 443-520 650-788 58-75 167-88 241-30 75 57 89 165 31 241-211 273-434 544-664 804-34 38-81 59-129 58zm-22977 641c-44 0-88-17-122-51-244-248-482-505-708-766-62-72-54-180 18-242s180-55 242 17c221 255 454 508 693 749 67 68 66 177-2 244-33 33-77 49-121 49zm21515 813c-48 0-95-20-129-59-63-71-55-180 16-243 255-223 507-456 747-695 67-67 176-67 243 0 67 68 67 177-1 244-245 243-502 483-763 711-32 28-72 42-113 42zm-19975 558c-36 0-74-12-105-36-273-213-543-438-801-668-72-63-78-172-14-243 62-71 172-77 242-14 253 226 517 445 784 654 75 58 89 166 30 241-34 43-84 66-136 66zm18178 457c12-31 34-59 64-80 284-188 563-387 830-592 76-58 183-43 242 32 57 76 43 184-33 242-233 178-476 353-722 520-119-58-247-99-381-122z"/><path class="fil1" d="M267 44417v1077c0 116-3 116-10 246 56-127 112-201 169-278l672-890v-155h267v1794h-267v-1059c0-63 3-172 14-257-14 32-39 92-162 250l-683 894v172H0v-1794h267zm1937 0v749h830v-749h268v1794h-268v-827h-830v827h-268v-1794zm2777 0v218h-563v1576h-268v-1576h-562v-218zm1444 717c-3-109-32-239-85-327-56-91-168-208-380-208-176 0-309 85-391 184-73 95-119 225-122 352l978-1zm278 588c-49 155-141 285-292 391-141 95-289 134-461 134-253 0-454-85-609-261-158-179-218-408-218-658 0-479 267-946 834-946 669-1 778 619 778 907v63H5432c-3 120 18 247 60 349 88 215 250 313 468 313 194 0 310-84 373-154 50-53 89-127 109-190l261 52zm1665-1305v1794h-267v-1576h-577c-28 802-60 1042-113 1200-120 348-398 376-521 376h-13v-232h28c81-3 204-63 271-186 52-96 91-271 109-1176l3-200h1080zm1796 0v1794h-268v-1576h-577c-28 802-60 1042-112 1200-120 348-398 376-521 376h-14v-232h28c81-3 204-63 271-186 53-96 91-271 109-1176l3-200h1081zm1729 717c-3-109-32-239-85-327-56-91-168-208-380-208-176 0-309 85-391 184-73 95-119 225-122 352l978-1zm278 588c-49 155-141 285-292 391-141 95-289 134-461 134-253 0-454-85-609-261-158-179-218-408-218-658 0-479 267-946 834-946 669-1 778 619 778 907v63h-1302c-4 120 17 247 59 349 88 215 250 313 468 313 194 0 310-84 373-154 50-53 89-127 109-190l261 52zm947-556c236 0 356-49 433-380 21-95 42-211 105-285 78-91 191-95 247-95 28 0 56 4 84 7v211c-17-3-38 0-56 0-38 4-81 11-112 53-33 39-50 130-57 162l-25 126c-38 198-151 286-270 303v7c172 14 238 131 281 243 66 186 99 334 137 412 32 63 64 74 134 74 21-1 42 0 63-4v215c-38 7-77 7-116 7-288 0-320-127-387-341-70-222-88-293-120-345-70-124-176-152-320-152h-260v827h-268v-1794h268v749h239zm2412-749v218h-564v1576h-266v-1576h-564v-218zm831 1963c-39 109-88 222-190 320-95 88-197 131-335 131-70-1-155-11-225-36v-207c74 21 123 24 194 24 63 0 133-3 200-59s113-148 169-314l22-59-631-1763h310l464 1379 483-1379h246l-707 1963zm1834-1059c-281 0-443 35-542 88-148 77-183 208-183 299 0 70 29 173 131 239 49 36 133 67 256 67 176 0 331-84 426-200 92-113 141-278 141-405v-88h-229zm-971-450c78-384 369-489 760-489 120-1 352 3 510 130 194 155 197 401 197 633v690c0 98 11 218 46 376h-281c-22-130-28-246-32-334-49 102-204 370-626 370-229 0-373-78-462-159-77-70-161-193-161-380 0-243 137-383 242-454 219-147 500-151 774-151h233v-74c0-95-7-215-70-299-92-123-247-131-373-131-148 0-458 22-500 314l-257-42zm3235-454v1794h-268v-1576h-577c-28 802-60 1042-113 1200-119 348-397 376-520 376h-14v-232h28c81-3 204-63 271-186 53-96 91-271 109-1176l3-200h1081zm838 1576h419c78 0 176 0 264-74 63-56 109-148 109-267 0-141-63-215-119-253-68-43-173-56-243-56h-430v650zm0-1576v707h500c141 0 317 14 444 137 59 60 144 179 144 395 0 172-49 320-180 432-123 109-257 123-362 123h-813v-1794h267zm1782 0v749h830v-749h267v1794h-267v-827h-830v827h-268v-1794zm2833 897c0-588-285-700-499-700-216 0-500 112-500 700s284 700 500 700c214 0 499-112 499-700zm-499-933c464 0 809 345 809 933s-345 933-809 933c-465 0-810-345-810-933s345-932 810-933zm1127 1035h749v-218h-749zm1478 85c0 91 15 235 127 362 99 109 228 151 341 151 102 0 250-42 352-211 84-137 109-334 109-496 0-299-74-443-105-493-99-162-243-200-352-200-127 0-232 46-324 141-130 140-148 284-148 369v377zm-267 1294v-2378h246v337l3-3c71-169 240-369 536-369 221-1 383 80 496 207 155 173 225 458 225 714 0 240-60 500-190 676-95 130-260 268-531 268-286 0-434-152-508-317h-10v865h-267zm2809-1474c-282 0-443 35-542 88-148 77-183 208-183 299 0 70 28 173 130 239 50 36 134 67 257 67 176 0 331-84 426-200 92-113 141-278 141-405v-88h-229zm-971-450c77-384 369-489 760-489 120-1 352 3 510 130 194 155 197 401 197 633v690c0 98 11 218 46 376h-281c-22-130-29-246-32-334-49 102-205 370-626 370-230 0-373-78-462-159-77-70-161-193-161-380 0-243 136-383 242-454 218-147 500-151 774-151h233v-74c0-95-8-215-71-299-91-123-246-131-373-131-148 0-457 22-499 314l-257-42zm1891 3c53-228 196-348 331-412 63-31 197-80 419-80 151-1 330 21 457 98 169 102 222 257 222 384 0 158-82 249-117 285-56 56-148 102-253 112v7c105 7 229 57 306 138 67 70 113 176 113 302 0 208-120 345-225 415-166 113-381 124-528 124-144 0-394-8-574-166-102-91-169-221-193-352l260-52c21 108 74 179 102 207 67 70 187 144 391 144 105 0 243-21 327-77 71-46 130-120 130-239 0-113-42-183-84-222-99-91-240-102-356-102h-200v-218h200c74 0 183-14 250-46 131-60 155-162 155-253 0-102-56-162-99-194-70-56-193-78-313-78-102 0-229 22-334 110-56 45-116 123-137 232l-250-67zm2171 1119h564c130 0 225-35 281-88s84-137 84-218c0-127-66-197-109-229-88-67-215-74-281-74h-539v609zm0-827h500c85 0 194-7 271-91 46-50 70-124 70-204 1-57-14-120-77-173-74-63-159-63-239-63h-525v531zm528-749c145 0 299 7 419 77 67 39 190 137 190 345 0 120-35 222-120 299-27 25-106 92-232 113v7c131 10 260 67 334 141 36 34 120 133 120 306 1 165-70 306-187 397-136 106-292 109-436 109h-883v-1794h795zm2416 0v1794h-267v-1576h-578c-28 802-60 1042-113 1200-119 348-397 376-520 376h-14v-232h28c81-3 204-63 271-186 53-96 91-271 109-1176l3-200h1081zm1728 717c-3-109-32-239-84-327-56-91-169-208-380-208-176 0-310 85-391 184-74 95-119 225-123 352l978-1zm278 588c-49 155-141 285-292 391-141 95-288 134-461 134-253 0-454-85-609-261-158-179-217-408-217-658 0-479 266-946 833-946 669-1 778 619 778 907v63h-1302c-3 120 18 247 59 349 89 215 250 313 469 313 193 0 309-84 373-154 49-53 88-127 109-190l260 52zm948-556c236 0 355-49 433-380 21-95 42-211 105-285 77-91 191-95 247-95 28 0 56 4 84 7v211c-17-3-38 0-56 0-39 4-81 11-113 53-32 39-49 130-56 162l-25 126c-38 198-151 286-270 303v7c172 14 239 131 281 243 66 186 99 334 137 412 32 63 64 74 134 74 21-1 42 0 63-4v215c-38 7-77 7-116 7-288 0-320-127-387-341-70-222-88-293-120-345-70-124-176-152-320-152h-260v827h-268v-1794h268v749h239zm2179 155c-281 0-443 35-542 88-147 77-183 208-183 299 0 70 29 173 131 239 49 36 133 67 256 67 176 0 331-84 426-200 92-113 141-278 141-405v-88h-229zm-971-450c78-384 369-489 760-489 120-1 352 3 510 130 194 155 197 401 197 633v690c0 98 11 218 46 376h-281c-21-130-29-246-32-334-49 102-204 370-626 370-229 0-373-78-462-159-77-70-161-193-161-380 0-243 137-383 242-454 219-147 500-151 774-151h233v-74c0-95-7-215-70-299-92-123-247-131-374-131-147 0-457 22-499 314l-257-42zm3119-454v218h-564v1576h-267v-1576h-563v-218zm1443 717c-3-109-32-239-85-327-56-91-168-208-380-208-175 0-309 85-390 184-74 95-120 225-123 352l978-1zm278 588c-49 155-141 285-292 391-141 95-288 134-461 134-253 0-454-85-609-261-158-179-218-408-218-658 0-479 267-946 834-946 669-1 778 619 778 907v63h-1302c-4 120 17 247 59 349 89 215 250 313 468 313 194 0 310-84 373-154 50-53 89-127 109-190l261 52zm1665-1305v1794h-266v-1576h-578c-28 802-60 1042-113 1200-119 348-397 376-520 376h-14v-232h28c81-3 204-63 271-186 53-96 91-271 109-1176l3-200h1080zm839 1576h419c77 0 176 0 263-74 64-56 110-148 110-267 0-141-64-215-120-253-67-43-172-56-243-56h-429v650zm0-1576v707h500c141 0 317 14 443 137 60 60 145 179 145 395 0 172-50 320-180 432-124 109-257 123-363 123h-813v-1794h268zm1781 0v749h831v-749h267v1794h-267v-827h-831v827h-267v-1794zm2545 904c-281 0-443 35-541 88-148 77-183 208-183 299 0 70 28 173 130 239 50 36 134 67 257 67 176 0 331-84 426-200 91-113 141-278 141-405v-88h-230zm-970-450c77-384 369-489 760-489 119-1 352 3 510 130 193 155 197 401 197 633v690c0 98 11 218 45 376h-281c-21-130-28-246-31-334-50 102-205 370-626 370-230 0-374-78-462-159-77-70-162-193-162-380 0-243 137-383 243-454 218-147 500-151 774-151h233v-74c0-95-8-215-71-299-91-123-246-131-373-131-148 0-457 22-500 314l-256-42zm2611-236c-147 0-260 3-348 102-60 67-74 144-74 229 0 53 11 151 88 218 81 70 215 77 317 77h383v-626h-366zm634 1576h-268v-732h-387l-397 732h-310l422-749c-17-4-165-42-267-137-57-53-144-176-144-395 0-91 21-207 98-316 123-173 299-197 514-197h739v1794zm-39284 3180c235 0 355-49 433-380 21-95 42-211 105-285 77-91 190-95 246-95 28 0 57 4 85 7v211c-18-3-39 0-57 0-38 4-80 11-112 53-32 39-49 130-56 162l-25 126c-39 198-151 286-271 304v6c172 14 239 131 282 243 66 186 98 335 137 412 32 63 63 74 134 74 20 0 42 0 63-4v215c-39 7-77 7-116 7-289 0-320-127-387-341-71-222-88-292-120-345-71-124-176-151-320-151h-261v826h-267v-1794h267v749h240zm2467 148c0-587-284-700-499-700s-500 113-500 700c0 588 285 700 500 700s499-112 499-700zm-499-932c464 0 809 345 809 932 0 588-345 933-809 933-465 0-810-345-810-933 0-587 345-932 810-932zm1609 35l560 1372 531-1372h373v1794h-268v-1231c0-127 7-116 15-282-15 25-60 116-138 313l-464 1200h-137l-497-1200c-52-123-59-154-126-313 0 102 10 187 10 271v1242h-232v-1794h373zm2911 904c-281 0-443 35-541 88-148 78-184 208-184 299 0 70 29 173 131 240 49 35 133 66 256 66 176 0 331-84 426-200 92-113 141-278 141-405v-88h-229zm-971-450c78-384 369-489 760-489 120 0 352 3 510 130 194 155 197 401 197 633v690c0 99 11 218 46 376h-281c-21-130-28-246-32-334-49 102-204 370-626 370-229 0-373-78-461-159-78-70-162-193-162-380 0-243 137-383 243-454 218-147 499-151 773-151h233v-74c0-95-7-215-70-299-92-123-247-130-373-130-148 0-458 21-500 313l-257-42zm2278-454v749h830v-749h267v1794h-267v-826h-830v826h-268v-1794zm2102 313c-11 264-42 700-159 1010-35 91-91 211-112 253h823v-1358h-548l-4 95zm820-313v1576h183v701h-246v-483h-1194v483h-246v-701h134c60-88 120-193 169-320 130-331 144-683 155-1094l3-162h1042zm824 0v749h831v-749h267v1794h-267v-826h-831v826h-267v-1794zm2545 904c-281 0-443 35-542 88-147 78-183 208-183 299 0 70 29 173 131 240 49 35 133 66 257 66 176 0 330-84 425-200 92-113 141-278 141-405v-88h-229zm-970-450c77-384 369-489 759-489 120 0 352 3 510 130 194 155 197 401 197 633v690c0 99 11 218 46 376h-281c-21-130-28-246-32-334-49 102-204 370-626 370-229 0-373-78-461-159-78-70-162-193-162-380 0-243 137-383 243-454 218-147 499-151 774-151h232v-74c0-95-7-215-70-299-92-123-247-130-373-130-148 0-458 21-500 313l-256-42zm2611-236c-147 0-261 4-348 102-60 67-74 144-74 229 0 53 10 151 88 218 80 70 215 77 316 77h384v-626h-366zm634 1576h-268v-731h-387l-397 731h-310l422-749c-17-4-165-42-267-137-57-53-145-176-145-394 0-92 22-208 99-317 123-173 299-197 513-197h740v1794zm1658-1794v1077c0 116-4 116-10 246 56-127 112-201 168-278l672-890v-155h268v1794h-268v-1059c0-63 4-172 15-257-15 32-39 92-162 250l-683 894v172h-268v-1794h268zm2753 0v218h-817v1576h-267v-1794zm592 1084c0 91 14 235 126 362 99 109 229 151 342 151 102 0 250-42 352-211 84-137 109-334 109-496 0-299-74-443-106-493-98-162-243-200-352-200-126 0-231 46-323 141-130 140-148 285-148 369v377zm-268 1295v-2379h247v338l3-4c71-169 240-369 535-369 222 0 384 80 496 207 155 172 226 458 226 714 0 240-61 500-190 676-96 130-261 268-532 268-285 0-433-152-506-317h-11v866h-268zm2809-1475c-281 0-442 35-541 88-148 78-184 208-184 299 0 70 29 173 131 240 50 35 134 66 257 66 176 0 330-84 426-200 91-113 141-278 141-405v-88h-230zm-970-450c77-384 369-489 759-489 120 0 352 3 510 130 194 155 197 401 197 633l1 690c0 99 10 218 45 376h-281c-21-130-28-246-31-334-50 102-205 370-627 370-229 0-373-78-461-159-77-70-162-193-162-380 0-243 137-383 243-454 218-147 500-151 774-151h233v-74c0-95-8-215-71-299-91-123-246-130-373-130-148 0-457 21-500 313l-256-42z" id="_2110631488"/></g></svg>