<svg xmlns="http://www.w3.org/2000/svg" viewBox="0 0 380 380" width="512" height="512"><g fill="#ffeea8"><path d="M360.883 38.244c-11.304-16.61-35.098-35.59-60.628-37.999-14.622-1.376-27.511 3.057-37.276 12.823l-.533.531-.435.614s-20.663 28.216-63.077 74.033c9.576-21.609 12.301-46.467-9.488-61.028-14.148-9.53-36.101-11.824-50.667-2.75-30.144 18.738-16.119 63.833-1.832 88.03.418.708 1.082 1.841 1.927 3.237-1.395-.845-2.529-1.508-3.237-1.926-24.196-14.287-69.291-28.312-88.029 1.831-9.074 14.567-6.78 36.519 2.749 50.667 14.598 21.845 39.545 19.05 61.192 9.415-51.306 47.931-90.832 79.692-90.832 79.692l-.219.177c-24.338 20.487-25.529 52.298-3.142 83.039 10.8 14.833 25.963 27.509 41.602 34.78 18.144 8.442 35.023 8.781 47.523.962 3.619-2.266 7.037-4.519 9.464-7.443 30.394-36.593-33.22-82.512-59.55-84.895-5.721-.52-12.439.754-15.306 5.566-6.161 10.36.414 25.148 10.683 35.417 26.444 26.443 49.249 21.109 49.249 21.109-17.63 10.403-40.482 5.626-58.219-12.168-13.721-13.771-23.111-35.156-13.157-51.893 2.95-4.967 10.637-12.836 28.911-9.676 30.922 5.351 73.995 39.049 80.503 70.883l7.281-10.936c25.243-37.899 55.994-73.07 86.529-103.798-.194-.252-.394-.498-.569-.771-24.672-38.427-58.276-65.889-74.772-78.007l15.793-15.913c18.024 13.558 50.6 41.065 75.645 78.86 40.629-39.053 79.056-69.558 101.463-87.343 9.466-7.512 15.178-12.048 17.757-14.624 16.052-16.054 13.597-39.774-7.303-70.496zM112.78 147.961c-7.627 1.82-22.823 7.726-32.342 1.475-6.029-3.96-9.573-25.745 36.191-18.146 11.216 1.862 22.597 3.563 33.533 6.706-12.533 3.046-24.836 6.971-37.382 9.965zm58.32-58.32c-2.994 12.547-6.919 24.85-9.965 37.383-3.142-10.936-4.843-22.317-6.706-33.533-7.6-45.764 14.186-42.221 18.146-36.191 6.251 9.518.345 24.713-1.475 32.341z"/><path d="M189.447 27.218c2.67 1.785-2.67-1.798 0 0zM50.357 166.307c-1.798-2.669 1.785 2.671 0 0z"/></g></svg>