<svg xmlns="http://www.w3.org/2000/svg" width="159" height="86" viewBox="0 0 989 536" shape-rendering="geometricPrecision" text-rendering="geometricPrecision" image-rendering="optimizeQuality" fill-rule="evenodd" clip-rule="evenodd"><defs><style>.fil0{fill:#00bcc9;fill-rule:nonzero}</style></defs><path class="fil0" d="M82 71l2-1v-3h-1l-1-1h-1l-1 1 1 1v1l-2 1h1l2 1zm-14 4l2 1v1h5v-2h-2v-2l-2-2v3l-1 1h-2zm14-11v-1l-1-1v-2h-1v3l2 1zm-13 6h-2l-1-1v2l-1 1 1 1 2 1v-1l1-2v-1zm827 371l-1 2h-1v1l-1 1v1l-1 1v2l2-1 1-2 1-1v-1l1-1 1-2h-2zM80 49l1 1h2l1-1h1l1 1v1l1 1 1-1 1 2h3l2 1h2l1-2-1-2h-4l-2-2h-4l-1-1h-5v2zm7-12l2-1 1 1 1-1 1-1 1-1v-1h-6l-1 1v2l1 1zm-2 8l2-1 2-1 1-2 1-1 1-1v-1l-1-1-1 1h-4v1l-1 1h2v2h1-2l-3 1v1l1 1h1zm740 238v-1l-1 1-1 1v1h1l1-2zm53 188l2-1v-1l-1 1-1 1zm10-21h-1l-2 2v1h-1l-1 1-1-1v-1h-1v3l-1 2h-1v2h-2v1l1 1h-1v1l1 2v-1l1-1 1-1v-3h2l1-1 1-2 1-2h3v-3zm-15 15v-1h-2v3l-1 2v2l1 2v-2l1-3 1-1 2-1v-2h-1l-1 1zM89 28v1l2-1h2v-1l-1-2h-1l-2 1h-2v1h1l1 1zM56 64h-2l-2-1-1-1-1 1v3h1l1-1 1 1 1 1 1 1h1-3l-1 1v4l1 1v1h2l1-1v-1h1l1 1v2h2v-3l1 1 1-1v-4l-1-1 1-1h4v-2h-1l-1-1v-1l1-1h1v1h2l1-2h1v-1l-1-1v-1l-1-1v-1h-1l-2 1-1 1v1l-1-1 1-1 1-1v-2l1-1-1-1-1 2-1 2h-1v-1l1-1-1-1v1l-1 1-1 1v1h2v1l-1 1h-1v3h-2l-1 2h-1zm-16 4l2-1 1 1h1l1 1v-2l1-1 1 1 1 2 1 1v-1l-1-1v-2l-1-1-1-2 1-1 2-1 2-1h2v1l2 1h2v-1h1l-1-1h-2l-4-2-3-1h-2l-3 3-1 1-2 1-1 1v4l1 1zm807 378v-1l-2-1v-3h-2l-3-1v-2l-1-2-2-1h-1l-1-2-1-2-1-2v-4l-1-2v-5l-1-2v-1l1-1v-1l1 1 2-1h2l1 1 1 2 2 1 1 1 2 2h1l-1-2-2-2-2-1-1-2-1-2-1-1-2-2v-2l-1-1-1-1-2-2-2-4v-1l-3-3-1-3h-1v-2l-1-1h-2l-1-1 1-1-1-1h-1l-1-2-1-2-1-1v-2h1l-1-2v-2l-1-2h-1l-2-2v-1h-1v-1h1l1 1 2 2-1-2-1-2-2-2h-1v-1l-3-2-1-2v-2l-1-1-2-1-1-2h-2l1 1v1h-3l2 2 2 1 1 1v2l1-1h1v1h-1l-1 1 1 1h1v1l-1 1h-1l-1-2-1 1-1 2 1 1 1 2 1 2 2 2v3l1 3 1 3 1 2 1 1h1l-1 1 4 3h1l2 3v4l1 2v1l1 1 2 1-1 1 1 1 1 2 1 1v2l1 3v4l1 3v3l2 1 2 3v1l2 2-1 3 1 2 1 2v2l2 2 1 1-1 2v3l1 2 1 1 1 2 2 1v-3l-1-1v-4l2-1v1l1 1 3-1h2l-1 1v1l2 1v2h1v-3zM64 50v-1l-1-1v-1h-1v1l-1 1 1 1h2zm27-18l1-1-1-1v2zm-2 22v-1h-1l-1 1h-1v-2l-1 1h-4v1l1 1h2l1 1 4-1v-1zm-6 5l-1 1v1l2 2 1-1-1-1-1-2zm9-2h2l1-1v-1h-1l-1-1h-3l-1 2v1l1 1 1-1h1zm-4 4l-1-1h-1l1 1 1 1v-1zm1 2h1v-2 1l-1 1zm10-4v1l2 3v2l1 2 1 1h2v-1l-1-1v-1h1v-1l1-1 1-1h1l1-1h-3l-2-2-2-1-1 1h-2zm10-13l1 1 2-1 1-1 1-1v-1l-1-1-1-1h-1l-2 1-2 1-1 1v1l3 1zM85 66v1l1 1 1 1v-2l-1-1h-1zm9-4v-1h-1l-1 1h-1 1v1l2-1zm4-13l-1 1v1h3v-1l1-1-1-2h-1l-1 1v1zm-2-6h-1v2l2 1h2v-2h-3v-1zm0-6l1-1v-2h-2v2l1 1zm-4 4l-1 1-1 1 1 1 1-1h1v-1h1l-2-2v1zm-2 26h1l1-1v-1l-1-1h-1l-1 1-1 1h1l1 1zm9-12v1h-2l1 1h2l1-1-1-1h-1zm-2-8h-2l-2-1-3-1-2-1-1 1v1h2l2 1 3 2 1 1h1l1-2v-1zm-2 21l1 1 1 1 2-1h2v-1l-1-1v-3l-1-2h-4l-1 1-1 1 1 2 1 2zm-8-6h-1v1l-1 1 1 1 1-1v-2zM52 307h-1l-1 1v1l1 1h1v-3zm40-20v-1l-1-1-1 1 1 1h1zm62-27h1l1-1h-2v1zm605 91h-1l-1 1-1 1v1l1 1v-1h2v-3zm6 7v1h1v-2l-1 1zm-748 7l-2-1v1l1 1 1-1zm212-127v-1l-1-1-1 1v2h1l1-1zm539 120h-1v2l1-1v-1zM315 203v-1l-1-1h-1l1 1 1 1zm-15-54l1-1-2-1h-1l1 1-1 1h2zm6 3l1-1-1-1h-2l1 1 1 1zm523-66l-1 1h-1l1 1 1-1v-1zM319 209v-1h-1v1l1 1v-1zm-21-66h1l1-1v-2h-2v3zm468 208h-2l-1-1-1 1-1 1-1 1v1l2 2v-1h1l1 1h2v-1h1l-1-1v-1l1-1h-1l-1 1v-2h1zm-509-80l-1-1h-1v1h1v1l2 1h1l1-1-1-1-1-1-1 1zm59-61l1-1v-4l-1-2h-1v3l1 1v3zm591 213l1 1v-1h-1zm4-38v-1l-2-1v1l-1 1h3zm-1 25v1h1v-2l-1 1zm-1-3l-1 1h1v-1zm-2 12l1 1 1-1h-2zm-1 9h1l-1-1v1zm-140-67l-2 1 1 1 1 1v-1h1l1-2h-1l1-1-2 1zm141 65l1-1h-1v1zm-2 6l-1 1h1v-3 2zm6-27v1h1v-1h-1zm4-133l1-2 1-1 2-1v-2l-1-2-2-1v-1l-1 1v1h-1l-2 2h-1v2l2-1v4l1 1v1l-1 1 1 1 1 1v-1l-1-2h1v-1zm-30-42l1 1v-2l-1 1zm103-110h-1l-2-1 1-1 1 1 1-1v-1l-1-1h-1l-1 1v1l-1-1h-1v-2h-2l-1 1v-2l2-1-1-2h-1l2-1-1-2v-1l-2-1h-2l-2 1 1-2h1l-1-2v-1h-1l-1 1-1-1-1-1h-2l1-1h2l2-1 1 1 1-3h2v-1l-1-1-3-1h5v-3h-2l-1-2-1 1v-3l-1-4 1-1v-1l-1-1-2 2h-1v-1h-1v1h-1l-1-1 1-1-5-1-1 1-2-1-1-1-1-1h-2l-2-1-1 2-1 1h-1l-1 1h2l-1 1-1 1h-1v1l2 1h-2l-1-2v-1h-1l-2 3-1 2-2 1h1l2-1 1 1 2 2 2 1 1 2-1 1v1h2l2-1 1 1v1l1 2v1l-1-1-1-2-1-1-1 2 1 1v1l-1-1-2-1-1-1-2 1h-1l-1-1 1-1-1-2-1-1-1-1-2-1-3-4-1-1v-1l-1-1h-1v2l-1-1v-1l-3-2h-4l1 1 1 1 3 1-2 1-3-1-1-2-1-1h-2 1v1l-2 1-2-2h1l-3-1v2l-1-1-1-1h-2l1 1-7-1-1 1-3-1v-1h-2v1l-1-1h-2l-1-1h-1l1 1h-4l-1 2-2-1-5-1v-1l3 1 1 1 1-1-5-2-5-1-2 1-1-1h1l-1-1h-2l1 1h-1l-2-1-5-1h-2l-1 1h-1l-1-1h-4l-1-1h-1l-2 1-1-1-1 1v1l-1-1-6 2v1h-2v1h-1l-1-1h-2v2h-2l-2-1h-2v1h-3l-4 1-1-1-4 1 2 1 1 3h1v2l2 2-1 1v1h1l1-1 3 1 1 1 1 1 2 2 1 2 2 1 2 2h-1l1 1-1 1 1 1v1l-1-1-2 1v1l-2 1-1 1-3-1-1-1v-1l-2-3h-2l-3-1-3 1-1-1-2-2v-2l-1-1h-2v-1l-1-1-2-1-1 1v4l-2 2-1 2-1-1v-1l-2 1h-3l-3 1-1-1-2 2h-3l-2-2h-1v2l-3 1-1 1h-3l-2 2v6l3 3v2l-2-2-1-2-2 1-1-1v1l2 1v3l-2-3h-1l-1-2-2-3-1-1h-2l1 2v1l-1-2h-4v1l-1-1h-2l-2 2h-1l1-1v-1l-2-3v-3l-1-1-1-3-3-2-3-2-3-3-7-2h-6l-3 2v1l-2-1-3 1-5 3h-2l-3 2-1 1-3 2-2 1-2 1-2 1-2-1-4 1-2 1 2-2 2-1 1-1-2-2-4-1-4-2-1-1v1l-2 2v2l-1-1-1 2h-2l1-2 1-1-1-2-2-1-2 2 1 1-1 1h-1l-1-2v-2l-1-2-2 2h-2l-2 1-1-1h1v-5l3 2 1-1v-1l-2-3-5-2-4-1-5 2h-4l-2 2v9l1 1-2 2v2l-2 1h-2v-1l-1-1 1-1h1l1-2-1-3h-1l-1-2h1l1-1v1l2 1 1 3v-5l-1-2-5 2-4 2v1l-2 2-2-1 1-1h1l-1-2v-3l2 1h3l5-2h1-15l-1 1h-14l-3 1-3-2-3 1-2 1 1 1h3l1 1h2l1 1v1l-3 3-1-1-3 1v2l-1 1 2 3 2 1 1-2 1-1 3-1v2h-3l1 2v1l1 1-2 1h1l2-1 1 1-1 2 2 2h2l2 2v2l-1-1h-2l1 2h-3l-1-1-2-2h-1l1 1-2 1-1-1-1 1 1 2v2h2l2-1 1 2h-1l2 1-2 1h-2l3 1h-4l-1-1h-2l-1-1-2-1-2-1h-2l-2-1h-2l-5 2v1l1 1-1 1 1 2-1-1-1 1-2-1-6 1-2-1-2-1-2-1-1-1-1-2h-2v1l2 2v3l2 4 2 4 1 7v1h-1l-1-1v-1l-2-1v2h-3l-2-2-3-1-2-2h-1l-5-4h-1l-1 1-1-1h-1l3-3h1-1l-1-1-2-2h-1l1 1 1 1v2l-2 1-2-1-3-2-1-1h-3v-2h-1 6l1 1h2l1-2v-1h-1l-1-1h-1v-2l-1-1h-1l-1-1h-1l-1 1h-3v-2l3-3v-1h-1l-2 2-1-1 2-2-1-1h-1v1l-1-2h-2l-1-1 1-2h-1l-1 2-1-3-1-1-2 1h-1v-2l-1 1h-1v1l-1-2h-3l-1-1-2 1h-1l-1 1h1l1 2-1-1-1 1v1-1l-2 1-1-1 1-1h1l-1-2h-1v1l-1 1-1-1-1-1-2-1v1h-3l-1-1v2h-1l-2-1h-1l1 1v1l-2 1h-1v-1l-1 1 1 2 1 1v1h1v2h2l1 2-1 1 2 1v1l-1 1h-1v-1l-2 1-1-1-2 1h1l-1 2h-3l-3 1-5 1-2-1h-2l-1 1-1-1h-7l-1-2-1-2 1-2v-1l-2-1h-2l-5 2h-6l-5 2h-3v1h-1l-1 1-2 1-2 1 1 2h3v1h-1l-2 2 1 1-1-1v-2l-2-2-1-1 1-1-2-1h-1l-3-3h-1v1l3 2v2l-1 1h-3l-1 1h-2l-4-3v-2h1l-1-2-2 1v2l-1 1-2-2h-2l-2 2 1 2-2 1 1 2 2 1 2-2 1-1 2-1 1 1v1l-3 2 1 1-1 2h-4l1 1-1 2-2 2 1 1h-1l-1 1-2 1-3 1h-3l-1 1 1 2 3 2 1 1h-3l-1 1 1 1-1 1-1 1h-2v1-1l1-1 1-4h-1v-1l1-1v-2l-1-2 1-1 1-1 1-1-1-3-1-1 1-1h3l2-3v-1l-1-2 1-3 1-2 1-2-1-2-1 1h-3 1l2-2h2v-2l1-1 1-2v-2l2-1v-1l-1-1v-1l1-2v-2h1l1-2v-5l-2-2 1-1-1-1h-1l-1-1-1-1h-1v2h-2l-1-2h1l-1-1h-2l-1-1h5l1 1h2v1h1v-1l-1-1-1-1-1-2h-3v-2l-2-1v-2h-2v-2h-1l-2 1v1l2 1h1v1h-1v1l-1 1-3-3v-2l-2-1-5-3h-2v-1l-4 1v-1l1-1-1-1h-3l-1 1h-1l-1 1-1 1h-3l-2 2h-2l-1 1-1-1h-1l-1 1v1l1 1 1-1 1 2v3l-1 2h-2l-2 1-3 1h-1l1-1 2-1v-1l-2-3 1-2v-1l1-1-1-2v-1l-2-2-1 1-1-1h-1l-1 2h-1l-1-1-2 1-1 2h-1l-1-1 2-2-1-1h-1l-2 3-3 2-2-1 2-2h1l2-2-1-1 1-2 2-1-1-1h-2v-1l-1-2-2 2-2-1-1-2h-1l-2 2-2-2h-1l-2 1v1l-2 1 1 1-1 2v3l-1 2-1 6 2 2v1h-1v2l2 2h1l2 2h2l-2 1v3h7l3 1-1 1h-3l-1-1-4 2-1-1-1 1-2-1h-1l-1 1h-3l-1 1v1h2v1h2l1 1 1-1 2 2 2 1 1 2-1 3-2 1 1-3-1-1v-2h-3v-1h-4l-2 2h2l-1 1h-2l1 1v1l-2 2v-2h-1l-1 1v3h-1l-1-2-1-2v2l-1 2-1 2-1-1v-1l1-3-1-1h-1l-4 1h-2l-2 1h-1l-1-1h-2l1 2-1 1v-1h-1l-1 1-1 3 1 1 2-1h1l2-1h1v2l-4 1-1 2h-2l-3 1v2h-4l-1 1-1 1h-2v1l1 1h-1v1l-1 1-1-1-2 2v2l-2 2 1 1h-2l-3 1-1 1v1h1l1-1 3 1-1 1h-1l1 1-1 3-1 1v2l-2-2h-1l-2-2h-1l1 1v1l-1 1 1 2 2-1 2 1h2v1l2 1h2l-1 1h-2l-1-1h-1l-1 1v1l2 2 1-1h2l1 2 1 1 1-1h2l-1 1 3 2h1l2 1-2 3-3 2-1 1v1l3 2 2 1h-3l-3-2v-2l1-2 1-1v-1l1-2h-1l-5 2-3 1v1l-2 1h-4l-2 2-5 1-5 1h-1l-2 2h-2l-1 1 1 1v3l1 1h1v2l2 1 2 3v3l1 1 1 2 2 1h7l2-1v4l2 1 2 2h4l2 1h1l2 2v4l1 1-1 2 2 1 1 1 3 4 1 3 2 1v2l-1 3h-1l-1-1 1 2h2l2 1 3 3 2 1h2l2-1 3-1 2 2h3l1 1 1 1v3l-1-3-1-1h-2l-3-2h-2l-2 2v3l-3-3h-3l-2-1v-1l-1-2-2-1h-3l-2-1v-2l1-1v-4l-1-3h-1l-1 2h-1v2l-1 1v2h-1l-1-4 1-1v-2l-2-1v-3l-1-1v-2l2-1v-5h-2l-1-1-4 2h-6l-3-3h-2v-2h-4l-2-1-2-2h-5l-2-1-1 1-2 3v1l-1 1-1-1v1l1 1 2-1h3l1 3-1 3h-3l-3-1-2-2h-1l-2 1-1 1h-1l2 3h1l1 2 2 2h3l1 1h4l1-1 1 1v1h2l1 2h1l1 1 3 1 1-1-1 1h-3l-2-1h-2l-2-2h-1l-1 1h-2l-1 1-1-1-1-1-2 1h-2l-2-1h-2l-1-1 1-1v-1l-1-1v-1l-2-2-1-1v-2l-1-2v-3l-1-1v-2l-1-1h-1v-2l-3-2v1l3 5 1 4-1 3-3 3-1 1v1l1 1v2l-1 3v1l3 2 4 2v2h2l2 2 1 3v6l1 2v3l1 2 3 2v4l1 1h2l2-1 2 1 1-1 1-2 2-2 2 1 1-1 3 2 1-1 1 2 4 1h2l2 2v1l2 2 1 1 1 1 1 1-1 1h-2v2l1 2 1 1v2h2l1 1h2l1-1 1 1 1-1 1 1-1 1h-3l-3 1-2-2h-1l-2-1 1-1v-2l-1-1-1-2h-1v-2l-2-2-1-1-3-1v-2l-2-2h-2l-3 3h-2l-1 1-3 2 1 4 1 1 3 2 2 5v1l-2 4-1 2 1 2-1 3v1l-2 2v1l-2 1-1 1v2l1 1v1l-2 1h-3v-1h-8l-6-1-2-2v-1h-3l-1 2v-1h-1l1-2h2l4-1h1l4 1h1v-1h2v1l-3 2 2 1 3-1 1-1 1-1v-1l-1-1v-1l1 1 1-1v-3l2-1v-1l-1 1-1-1 2-1v-3h-1l1-2 2-1-1-2-1-2-1-2v-4h1v-1l-2-2h-1l-1-1-3-1-3-3v-3l-1-1v-1l-1-1-1-1 1-2-3-3v-2l-1-2v-2l-1-1-1-4-1-1-1-2-1-2-1-1-1 1v-1h-2l-1-2-1-1-1-2h1v-4l-1-1 1-3-1-2v-3l-1-1v-1l-1-2h1v-1l-2-1h-2l-4-1-2-1-1 1h-7l-1 1h-1l1-1-2-1-1 1v5l1 1v1l-1 2 1 1v6l1 2-1 1v1l1 2v1l-2 1-3 4h-1l1 1 1 2-1 1-1 2 2 2 1-1 1 1 1 3h2l1 1h-1l-1 1v2l3 1v2l-1 1-1-1v1l1 3 1 1v2l1-1 2 1h1l2 1 1-2 1 1v2l1 1h1l3 4h2l1-1h1v1h2l-2 1v4l1 2v1h-1v2h-1l-2-3-2-1-3-1-1-2-1-1h-4l-4-2-3-1v-1h-1l-1-1-3 1-1 1-1-2h1l-1-1-4-2-3-1h-15l-2-1v1l-1-1-1 1v3h-1v1l1 1 1 1 1 2v1l1-1h1l1 2v2h2l2 2h-2l-1-1h-1l-1 3h-4v1l1 2h1v1l-1 1h-4l-1-1 1-1-1-2 1-1-1-2h-1l1-1-1-1-1 1h-1l-2 2h-1l-1 1v1h-2l-1 1v1h-8l-2 1-2 1-1 1v1h1v2h-2v-1h-1l-2 1v2-1l-2-1-1 1h-3l-1-2 2-1h1l1-1-1-1v-1h1l-1-2-1 1-1-1h-1l3-1h1l2-1-1-1-2 1-4 1-2 1 1 1v1l1 1-1 1h-1l-1-1v-1h1v-1h-1l-3 2 1 1 1 1h1l-1 1-1 2-1-1v-2l-1-1-3 1v1l-2 1h-3v1l-3 3-3 4h-1l-2-1v2l2 1 1 1-3-1v1h-4l-1 1 1 1v1l-1 2 1 2-1 1-3 1v1h-2v1l-1-2-2 2h-1l-4-4-3-2-1-1v-2h2v-2h1l2-1h3l1-1-2-3-1-1h-1l-2-2v-1l-2-1H94l-3-1h-1l3 3 3 1 1 3v9l-1 2 1 1h2l1 1 2 1-1 1 1 1h-1v1l1 1v4h-1l1 2v3l-1-1v-2l-2-1-2 2v-2l-1-1h-4l-2-1h-1l-1 1-2 3-3 2h-1l-2 1v2l-2 2-2 1v1l1 2 3 4 2 2-1 1h-1v2l-1 1-1 1-2-2-5-2h-2v-1h-3l-1-1-1-1-2-1-2-1h-2v1l1 1-1 1h1l-1 1h-2l1 2 1 2h2l1 2 2 1 1-1h2l1 1h1v1l1 1v2l-1 1h-1l-2 1h-1l-1-1h-2l-1-1h-3v-2h-2l-1-2-2 1-3-1v-1h-1l1-2-1-1v-1l-1-1v-2l-2-1v-2h-2l1-1 1-1v-3h-1l1-1v-1h-1l-1-2-4-2-1 1v-1h-2v1l-2-1h1l1-1 1-1h-2 1l-1-1h-1l-2 1h-1l1-1 1-1-2-1-1-1-2-1v-2l-1-1h4v2l3 2h1l2 1h2l1-1 1 1-1 1v1h2v-1h3l-1 1h3l2 2 1-1 1 1h2l2 1 1-1 2 1 2 1h8v-1h2l2-1h2l2-1 3-4v-1l2-1v-2l1-2v-4h-2l-1-2h-1v-2l-2-1-1-1v1l-2-1v-1l-3-2v-1l-1-1h-1l1 2h-1l-2-1h-1l-2-2h-1l1 1h-2l-1-2-2-1-1-1-5-3-8-4h-2l-1-1h-2v1h-5l-1-2h-1l1 1-1 1v-1h-2l-1 1 1 1-1 1-2 1 1-2h1l-1-1h-1l1-1h-1l-2 2v-1l1-1h-1l-1 1v-1l-1-1-1 1-1-1-1 1-1-2v-1l1-1v1l1 1h3l1-1v-1h-1l-1-1-1 1-1-1v-1l-2-1h-1l-1 1h1v1h-1v1h1l-1 1h-1l-1 2v-2l-1-1h-1v2l-1 1-2-1H9v2l-1 2H6l-2 2v2H3l-2 1-1 1h1v2l-1 2 1 1 2 3 1 1 2 1 1 1v1l4 2 1 1-1 2-1 2-2 4 2 1 1 2 3 5 3 7-1 1v5l1 1-1 1v2l1 1h2v5l1 1 2 2v2l-1 2-1 2 4 4 2 1 3 3v2l-2 5-3 5-1 3-3 3-2 3-1 1-4 3 1 2v-1l2-1h2l-1 1v2l-2-1 2 2h2l1 2h1l1-1h1l1 2v1l-3-1-1 1v1l-2 1-1-1-1 1v1l-1 1-1-1h-1l1 1v4l-1 1-1 2v1l-1 5 4 5v2l-2 1 1 1-2 1 2 1v2l1 1v1l1 2 1 2 1 2v1h1l1 1 2-1 1 2h4l1 2 2-1 2-1 1 1h1l3 1 1 2-1 1 2 2v2l1 2 1 1 2 3 2 1v2l3 1 3 2v1l2 1-1 1-2 2-3 1-2-2-1 2v1l2 2v2l1 2v2h3v-2l1-1 4 1h4l2-1 2 1 1 3 1 1-1 1 2 3 5-1 1 1v2h2v2l1 2 3 3 1-1 2 1 2-1 2 1 2-2h1l2 3 2 1 1 2 1-1h5l1 1h2l2 1h2l1-1 1 2h1v2l-1 2h-2v3l2 1v2l-1 3 1 1-2 1-3 1-2 2h-1v3l1 1 2-1 2-1 1 1-1 1-4 2-1 1v1h1l-1 1-2-1-2 1 1 2 1 1 1-1v1h2v1h-1l-1 1h-2v1l-1 1v1l1 1-1 2h-1l-2-1h-1v1l-1 1h-1l2 1h1l2 1v1l1 2 3-1 3 2 2 1 5 3 1 1 1 1 1 1 1 1h1l1 1h1s-1-3 1-2h3c1-1 4 2 6 2 2-1 0 1 3 0h4c1 1 4 0 4 1 1 1 2 2 3 1 1 0 1 1 3 1 1 1-1 2 1 2 1 1 1 0 2 0s1-1 2-1c2 0 3 1 3 1v-1h3s0 1 2 1c1 0 2 1 2 1 0 1-2 2 0 3 1 0 2 1 2 1h2l1 1 3 1 3 2 1 2h3l1-1 2-1 3-3h-1l-4-3-3-3v-2l-1-2v-2l-1-1h-1v-1h1v-1l1-2-1 1h-1l-2-1v-2h-1l-1-2-1 1h-1l-1-3 1-1 1-1v-3l1-2 1-2v-1h3v-1l1 1v-1h2v-1h-1 4l-1-1-2-1h4v-2l1-1v-1l-2-1-2 1-2-2v-1h3l-3-5-4-3-5-1v1l-3-2 1-1-2-2-3-1 2-2v-4l-1-1v-4h1l2-2v-2l1-1 4 3 1 1 2 1h2v-2l1-1-2-5h5v-2l-1-1v-2l3-1h1v-2l1-1 2 1v-4l2 2h2v1l-1 1 1 1 1-1 1-1h1v1l1-1v-1h1l2-1h1l1 2 2 1 2-1h2v1h1l2 2h1l2 1 2 2h1v1l1 1v1l1-2v-2h2l1 1h3v2h2l1-1 1-3h1v-1h1l1 1 1-2h2l2 2v1h2v-2h3l1-1 2 1h1l-1 1-1 1 2 1 1 1 1-1 1 1h2l3 1h1l1-2v-1l1-1 2 2h2l3-1v-6l-1-1h-2l-1-1v-1h-2l-1-1h-2v-1l-1-1h1l1-1v-1l1-1v-2h-1v-1l1-3 2-1h5v-2h-1l-1-1h-6v-1l1-1h2l-1-1h-3l1-1-1-2h2l1-1h1v1h2l1 1 1-1v-1l1-1h2l1 2v-2l3-1h2l2-1h2v-1l2-1h2l1-1h1l1 1 1-1v-1l1-1h1v-1l1-1 1 1h3l1-1 4-2h1l2-1 1-1h3v-1l-1-1h3v-2h2l2-1 1 1h3l1 1h2l2-1h1l1 2 1 1v1l1 1 1 1v3l-1 1 1 1h4v-1l1-1 1 2h1v-1l-1-2h1l2 2 1 2 1 2h1l1-1-1-1-1-1h2l3 1h3l-1 1-1 1v2l1 1h1l1-1h5l1 1 1-1-1-1 2-1h2l1-1 1-1 1-1v-1l2-2h1l1-1h2l2-1h1v2l-2 1h-1l1 1 13 9 19 21h1l2-1v-1l-1-1 2-1 2 1v2h1l2 1h9l1-1-1-1h1l2-1h3l2 1 2 1 1 2 1 2h3l1 1h1l1 1v3l1 1h1l1 1h2l1-1h4l1-1 1-1 2-1v3l1 1 2 1 2 1h1l2 1h1v-1l1-2 1-1h4l1-1 3-1v-3l2-1v-1l2-1h1l1-1 1-1-1-1v-1l3 1 1-1v-2h4l2-1h4l1 1v1h6l2-1 1 1v2h1l3 2 2 1 2 1h3l1-2h2l1 1h6l1 1 1-1h5l1-2-1-1-1-1v-5h-1l-1-1-2-1-1-1v-4l2-1v-2l2-1 1-1-1-1 1-1 1-1h1l1 1 2 1h2v1h2l2 1 3-1 1 1v1h3l2 1 3-1 1 1 1 1v3h1l1 2v1l1 1h1l1 1v1h3l2 1 1 1 1-1h6l1-2h5l2-1h2l2-1 1 1h6l1 2 3 1h4l1 2 2 1v1h1l2 1h4l3 1h7v-1h2l1 1h1l1-2 3-2 2 1 1-2h5l1-1 1-1v-1l1-1 1-1 1-1 1-1 1-1h2l2-1 2 1 1 1 1 1h5l2-1v-1h2l3 1 1 1v-1h2v1h3l1 1h1l4-3 2-2h2l1-1 1-1-1-2h-2v-6l1-1v-1l-1-1v-2l-1-1 1-2v-1l1-1 1-1 1-1 1-1v-2l-1-1v-1h-1v-2l-1-1h-2l-2 1h-1v-4h1v-2l1-1v-1h3l1-1h3l1-1h1l1-1h4l1-1h1v-1h5l1 1h2l1 1h3v1h2v-1h5l1 1v2h3l1 1h-1v1h3v1h1v2l1 1v1h2v3l2 1v1l1 1v1h1l1 1 1 1-1 1h1l1 1v1l2 2 2 1 1 1v2h1v2h2v2l1 2 1 1 1 1 1 1h1l1-1v1h3v-1h1v1l2 1h1l1 1v-1h4v1l1 1h1v1h1l1 1 1 1h1l1 1h3l1-1h1v1l-1 1v2h2v5l1 1 1 1 1 1v1l1-1h3v1h4l2-1 1-1h1v-2h1v-2l1-1h2v-1h2v-1l1-1h1l1-1 1 1h2l1 1 1 1-1 1v1l1 1v1l1 1h1v3h-2l-1 1v1l1 1v3h1v2l-1 1v1l1 2v1l-1 1 1 1v1l-1 1v1l1 1h-1v5l1 1-1 1h-2l-4-1h-1l-2-1-2 2v1l-1 1-1 1h-1l1 1 2 3v2l1 1v1l1 2v3l1 1v2l-1 1v1l1 1v1h-4v1l1 1v2l1 1h1v-2h3v-2l1-1v-2l2-1v-2l2 1 2-1v1l1 2 2 1 2 1 1-1 1 1 2-1 2-1v-1h1l1-1 3-3-1-1 2-1v-3l1 1 2-2-1-1 1-1-1-2h2v-2l2-1v-3h1l1-6 2-2v-1l1-1 1-2 1-2 1-1-1-1-1-1 2-2-1-3 1-1v-1l1-3v-1l1-2v-4l1-2v-2l2-2v-2l-1-1v-3l1-1h-2v-8l-2-2h-1l-1-1 1-1 1-2-2 1-1-1-1-4v-2l-1-3 1-1-1-3v-7h1l-1-1-1-2 1-1v-1l-1 1-2-1-1-1v-1l1-1v-1l-2-3h-1l-2-1 1-1v-1l1-1-1-2h-1l-1-1h-1l-1-1-3-1-1-1-2-1h-1v-2l-2-1h-1l-2-1-2 1h-1l-1 1h-1v-1l-1-1h-2l1 3 1 1-1 1 1 2v2l-1 1v-4l-1-2-1 1 1 2-1 2-2 1h-3l1-1h1l-1-2 1-1 1-1h-2l-1 1v-1h-1l-1 2h-1l-1 1-2-1v-2l-1-2-1-2v-4l-2 1h-2l-1 1-2 1h-1l-2-1h-1l-2-1v-2l1-1 1-2v-2l2-1v-3l3-1v-2h1l-1-1 2-2v-1l1-2v-5l1-3 1-3h1v-2l2-2v-2l1-1v-4l1-1 1 1v-2l-1-1v-4l1-3 2-2 1-2-2-3v-2l2-1v-1l3-2v-1l1-1 1 1h2l2-2h2l3-1h1l2-1h2l1-1 1 1v1l1 1 1 1 1-2 1-1-2-1v-1h4l2-1h3v1h3v-1l1-1h2l1 1 3-1v-1h-2l-1-1 1-1v1l2-1-2-1v-1h1l2-2h5l2 1 2-1v1l1 1 1-1v-1h2l2 1h1l2 1 2 1 1-1h1l1 1-3 1h-2l-1 1v1h-1v2h1l2 2 1-1h2l1-1v-1l1-1-1-1h1l2 2h1l1-1-1-1h1l1-1v-2l1-1 1 1 1-1 1 1v1l1 1 2-2-1-1 1-1h3l1-1-2-1h1v-1l-2-1h-1v1h-1l-1-1v1h-3v-1l1-1-2-2 1-1-2-2 1-2v-2l1-1v-2l2-1v-2h-1l2-1-2-2 1-4 1-1-1-2-1-2-1-1 2-1-1-2 1-1 2-2h4l1-1h2v-1h2v-1h1v-1h2v1h1l1 2h1l1-2v-1l1-1v-1h1v1l2 1v3l1 1-1 1 1 2h-1v1h1l-1 1v2l2-2v1l2 1v2h1v-1l1-2 1 1h1l-2 2 2 1v2l1-2 1-1v-1h1v-4l1-1-1-1 1-1v-2l1-2-1-1v-2l2-1h2v1l1 1 1-1-1-1v-1l-2-1-1-3-1-1-1-1-1-2 1-1-1-1-1-1v-2h-1l2-2h2l1-2 2 1 1-1 2 2h5l-2 1 1 1h-3l-2 2v1l1 1v2h1v2l2 1v2h1l1 2v1h-1v4h1v-1h1l1 1v1l-1 2v3l1 1 1-1h2v2h-1l-1 1h-1l-2 1v1l-2 1v1h-1v2l-1 1 1 1h1l-1 2-1 2 1 1v6l-2 1v5h-1l1 1 1 1h-1l-1 3 1 1v1l-1 1 1 2v3l1 2-3 4 1 2-1-1-3 1v2l1 1-2 2-3-1-1 1v1h2l3 3v4l-1 1 1 1h-2v2l-2 2v3l1 2 1 5 2 3v2l3 7 4 7 5 6 1 2 1 2 5 6 6 9 2 1 2 1 1-1v1l-1 1h-1l2 2 2 6 1 3 1 2h3l1 1v4l1-3 1-3 1-1v-1l2-1v-3l1-3-1-1v-3l1-1-1-1-1 1-1-1 1-1-1-2v1l1-1-1-1v-3h-2l1-2 1 1 2-1h1l2-1 1-1h1l1 1-1-2-2-1v-1l-2-1-1-4 1-4-2-1 1-1 1-2 1-2-1-1h2l2-1v1l5-2v-2l1-1-2-1-3-3h-1l-4-5v-1l-1-1v-5h1l-1-3 1-1v-2l-2 1v-1l1-2h2v-1l-1-1h1l1 1-1 1v4l2 1 2 1 1-1v-1l1-1-1-2-4-3v-3l-1-1h-1l-1 1v1h-1l-2-1 1-2-1-2-2-2 1-1 1-1-1-1 1-1-1-1 1-1v-1l-1-1-2 1-2-2h-2l-1 1v1l2 2v1h-1l-2-1-2-2-1-1-1-1v-1l-1-2v-2l-1-2 1-1-1-2 1-1v-4 1l-2-2 1-1 2 1v-1h-1l-1-1v-1h1l-1-1-1-1-1-1-1-1h1v-1l-2-2 1-1v-1l1-1-1-1v-1h1l2 1 1-2h1l1 1h1l1 1 1-3-1-1v-1l1-1 2-2v-2l1 1 2 1v2l2 4 1 1v-1l1-3v-3l1-1-1-2 1 1 1-1 1-3h2l1-1 2-1v1l3-2 2 1 4 2v1h4l-1 1 2 2 1-1 1 1h3v-1l-2-2v-2h-1v-1l1-2 1-3 1-2-1-1 2-2-1-1 1-1-1-2-1-1 2-1 1-1-2-1-1-1h3v-1l-1-1 2-1v-1l-1-1h2v-1l1-1-1-1h1l2-2-1-1v-1l1 1 2-1-1-2v-2h1l1-1 2-2-1-1 1-1h1l2-2-1-1h3l2-1v-2h1v2h1l2-1 1 1h6l1 1v-2l-2-1 1-1v-4l-2-3h-2l-2-2 1-1-2-2-3-1-3-2-2-2v2l-1-1-1 1v1l-1 1-1-1v-2l2-1-1-1v-1h1l1 1-3-4-2-1v2h-1l-3-2v-1h2l-1-1-4-3h-1l1 1-1 1h-2l-2-2h-2l-1-3v-1h-3l-2 2v1l-1-1-1 1v4l-1-1-1-2 1-2-3-1v-2h-1l1-1 2 2v-1l1-1 2 1 2-1-1-1-4-2-1 2h-2l-2-1h2l1-2h2l1 1h2l2 1 2 2h1l1 2h1l2-1 1 1 3-3 1 1-1 1 1-1v-1l2-3v-3l-1-2 1-5v-3l-1-1-1-2-2-1-1-2h1l1 1h1l-1-2h-4l-3-1-4-4h-1l1-1h2v-2l-1-1h-1l-1-1h1l-1-2 2 2 2 1 1-1-1-1v-1l-1-1 1-1 1 1v1h2v5l4 2h3v3h1l3-4 1-2-1-1v-4l1 1v2h1l1-1 3-1v-1h2v1l4 3h1v3h1l3-1 1 1 1-1v-1h1l-1-2h2v2h1l2-1 3 1h3v1l1-1v-3l2 3 2-1v-1l-1-2zM884 226l-1 1 2 1h1v-1l-1-1h-1zm79 93l-3-1v-1l-1-1-2-1v-1l1-1h-2l-1 1h-1l-1 1v1h3l1 1 1 2h1l1 1 1 1 1-1 1 1 2 1v-1l-1-1-1-1zm-49 65l-1 2 1 2-1 1-1 1-1 1h-1l1 2v1h-1l1 1 1-1 1 1v-2l2-1 1-1-1-2 1-1h1l-1-2-2-2zm2-1l-1 1v1l1 1h1l1-1-1-1-1-1zm59-62l-1-1h-2l-1-1-1-1-1 1 1 1h1l2 1 2 1 1 1 2-1h-1l-2-1zm-63 82l-1-2v-1 1l-1 2h2zM296 76h-2l1 1h1v-1zm37 24l1 1h5v-4h-1l-1 1v1h-1l-1-1-1 1h-2v2l1-1zm-2-10l-1 1v1l-1 1h1l1-1v2l1-1v-3h-1zm29-42l1-1v-2h1v-1h-1l-2 2h1l-1 1-1 1h2zm-38-13v2l2 1v2l2 3 1 1h1l-1 1h-1l-1 2 1 3 1 1v3l1 1-1 1 1 2 1 2 1 1v1l1 1 2-1 1-1 2-2 1-1-1-1 1-1 3-2h3l1-1 1-1h1l3-2v-1l1-1 1-3v-1l-2-2-1-2v-1l-2-1-2-1-1 1-1-1h-1l-2-2h-3v-1l-1-1h-1v1h-1l-2-2 1 2-1 1v1h-1l-1-1v-4l-1-1h-2l-2-1h-1l-1 1 1 2 1 1 1 1h-1l-1-1h-2l1 1v1zm40 14h4l1-1 1 1 1-2-1-1h-3v1h-2l-1 1v1zm136 71v1h2l1-1v-1l-2-1h-1l-1 1 1 1zm-56-8h4l2 1h2v-1l1-1v-1l-1-1v-2l-1-1-1-1v-1h-4l-2 2h-2v2l2 1v1h-2v1l2 1zm-64-48v1l2-1v-1l-1-2h-2v1l2 2h-1zm-56 22l1-1h1v1h-1l2-1 1-1v-1l1-1v-2l-1 1h-1l-1 1-2 1-1 2-1 1h2zm13 0l-1 1 1 1 1-1 1-1h-2zm-39 57l1-1v-1h-2v2h1zm-3 0v-1l-2 1v1l1 1v-2h1zm9-10l-1-1h-3v1h-2l1 1 1 1h3l-1-1h2v-1zm34-44h1v2l1-1 1-1h-2v-1h-1v1zM112 28h2l1-1v-1h-3l-1 1h-2l1 1h2zm212 65h-2l1 1h1l2-1-1-1h-1v1zm-42-69v2l-2 1-2 1v3l1 1h1l1 1-2 1v5l-2 1 2 1v1l1-1v-1h1l1 1 2-1 1 1 1 1 1 3 1 1h2l1 1h2l1-1h3l2 1h8l1 1 1 1h2l1-1 2-2h2l2-2v-1l-2-2-1-1-2-1-2-1-1-1-1-1h4v-1l-2-2-2-2v-1l-1-2-1-1v-2h-1l-5-4h-5l-1 1 1 1 1 2 1 1-1 1v3l-1 2h-1v-1l1-1v-1l-1-1 1-2-1-1-2-3-2-2h-3l-1 1v1l-3 2h-2zm336 96v-1l2-1v-1l-1-2v1l-1 1-1 1h-2l2 1 1 1zm160-11l1-1v-2h-1l-1 1 1 1v1zm-11-24v-2l-1 1 1 1zm-5-1v-1l-1-1-1 1 1 1h1zm21 22l1-1-1-1h-1l1 2zm30-16h4l1 1 2 1h2l1-2-1-1-1-1 1-1-1-1-1-1h-6v1h-1v4zm-57-5v-1h-2l1 2 1-1zm26 24v1h1l-1-2-1-1h-1l1 1 1 1zm1-2l-1-1v-1h-1v1l1 1h1zM604 81l1-2 3-1 2 1h3l2-1h4l1-1h2l2 1 1-2-1-1-1-1-2-2-3-2h-2l-2-1-1-1h-2v1l-3-1h-1l-1 1-2 2 1 2v3l-1 3-2 1v1h2zm-51-40h1l-1 1h-1v1l1 1 1 1v1h1l2 1v1l1 1h2l-1 1h-2v2l5 2 2 1h2l2 1 1 1 1 1 1 1h6l2 1 1-1 1-1v-1l-1-2v-1h-2v-2l1 1h1l1 1 1 1h1l1-2 2-2 2-2 2-1 1-1 1 1-1 1h4v-1l2-1 2-2h-3l-2 1-2-1-3-1-1-1h-2v-1l-2-2h-1l-1-2v-1l-1-2-1-1-1-1 1-1-1-1h1v-2h-1l-1-1h-4l-2-1h-1l-2-1v1l2 1 1 1h1-4l-1 1 1 2 1 1v2l2 2 1 1h-1l-2 1-1-2-1-2h-5l-1-2v-1h-2l-1-1-2-1h-1l-1-1h-1l-2 1v6l-2 1v1l2 2 1 1zm59-8l1 2 5 1 3 1 3 1h3l2-1 2 1h1l3-2 1-2 1-1-1-2-1-1h-1l-1-1h1l-1-1-1 1-3-1-3 1-3 1h-2v-1h-6v1l-1 1-3-1-1-1v-1h-1v2l3 3zm-11 35l-1-2-2-1v-2h-3l-2 1 1 2 1 1-1 1 1 1h1l2 2h2l-1-1 1-1 1-1zm-28 8h-2l-2-1-1-1v2l1 1h2l1 1h2l1 1h1v-1l-2-1-1-1zm10-46l1 1v1l1 1 1 1-1 1v4l3 2 2 2 4 1h1l2-1h1l1 1 1-1 1-1v-2l1-1v-3h-2l-2-2v-1l1-1h2v-1l-4-1-4-1-1 1h-2l-3-2h-6l1 1 1 1zm-40 15l2 2 2 3 1 3h3v-2l-2-3v-2l-2-1h-2l-2-2h-1l-1-1 1 1 1 2zm52-42l1-1V1l-1-1-2 2-1 3 2-1 1-1zM294 153v-1h-3l1 1h2zm222-52l1 1h1v-3l-2 1h-1l1 1zM163 227h1l1-1v-1l-1-1h-2l-1-2h-2l-2-2-1-1h-2l-2-3-2-3-1-3-2-2v-3l-1-2-1-4v-1l1-1v-1h-4l1-1h2l1-1 1-2-1-1h-2l2-1v-1h-3l-3-1-2-1h-1l-3 2h-3l-2 2v1l-1 1 1 1 1 1v1h-3l-1 2v2h2l2-1v1l-1 1-1 1h1l1-1h1l-1 1v1l1 1h2l-1 1h-1l-1 1 1 2h-5l-2 1v2l1 1v3l2 2v1l2 1h3l2-2-1-2v-1l1-1v3l1 2h2v-3l1 1v2l1 2 2 1h1l1-1h1l-1 1-1 1h-1v1l1 1v1h-1v2h6l2 1-1-2 1 1 1 1v1l2 1h1l1-1-1-1-2-1v-1h1l2 1v1l1 2 1-1v-1h1l1 1 1 1h1v-1l-1-1 1-1 1 1 1 1 1 1v1l1-1v-2h-1l-1-1h1zm9 25v1h1l2-1h1l-2-1-2 1zm-13-1l-1 1h1v-1zm2 0l-1 1h2l1 1-1-2h-1zm-30-72l-1-1-1 1v2l-1 1h-1l2 2h2v-1h1l2-2h3l1 1h-3l-2 1-1 2v3h2l2-1 2-1 1 1h1l2 1 1-1-1-1h1l1 1 1 1h2v-1h1l1-2v-1l1-2v-1l-1-1-1-2h-2l-1-1h3l1 1v1h1l1-1-1-2-1-1-2-2 1-1 1 1v1l1 1h2v-2h-1v-1l1-1v-2l-1-1-2-2h1l2 1h1v-2h-1v-2h1l1 1h3l-1-1-1-1h2v1l2-1v-1l-1-1v-1h2l1-1-1-1-1-1 1-1v1l1-1 2-2 1-2h1v-2l2-1 1-2 1-3h1l3-2 3-3 3-1 1-1 2-1 2-1 1-1 2-2 2-1h2v-1l-1-1 1-1v-3h-2v-2l1-2h-1l-1-1h-1l-1-1h-1v-2h-1l-1 1h-4l-2 1v1l-1 1h-1l-1 1v1l-1 1-1 1 1 1v1h-1v1l-1 1-1 1-3 1-1 1h-1l-2 1-1 1-1 1h-1v-1h-1v3l-1-2v-1h-2l-3 1-1 1h-1v2l1 1-1 1-1 1v-3h-1l-1 2-1 1v1h1-1v2h-3v1l-1 1h-1l-1 2 1 1h1l-1 1h-3l-1 2v1h2l1 1h-1l1 1-1 1h-1l-2-1-2 1v2l-1 1-1 1h-1l-1-1v-1h-1v3l1 1h2v1l-1 2 1 1 1-1h4v1h-3l-1 1h-1v2l1 1h1l1-1 1 1h-1l-1 1h-3v1l1 1 1-1 1 1-2 1 1 1h1l3 1h1v2l-1-1-2-1h-1l-1-1h-1l-1 1-1 1v3zm46 63v-2 2zm2 0l1 2 3 1-1-1-2-1-1-1zm7-3l1-2v-2l-3-1-2-2h-1l-2-2-1-1h-1l-2-2h-1l-1 1v1h-1l1 1 2 1h-1l-1 1-1-1v1l3 3h1l1 1 1 1v-2l1 1 2-1v3l1 1h2l1-1 1 1zm108-102h-3v1h2v1l1-2zM157 259v1l1-1v-1h-1v1zM109 71l1 1h2l-2-1h-1zm5 0l1-2v-2l-2-1-2 1-2 1v1h2l1 2h2zm4-30v2l1 1h1l1 1v1l2 1 1-2v-4l2-1 3-1v-1h-1l-2-1-1-1h-1v-4h-1l-1-1h-1l-1 1v1l-1 2-2 1v3l1 2zm-5 6h-1l-2 1-1 1-1-1h-1v1l1 2-1 4 1 2 2 2h2l2-1h2l1-1h3l-1-1-1-1-1-2h-1l-1-2v-1l1-1h3v-1l-1-2h-1l-1-2-1 1v1l-1 1h-1zm53 206v-1l-1-1-1 1 1 1h1zm-27-32h-2v-1l-1-1-2 1-1 1 1 1 1-1 1 1v1h1l1 2h1v-1l-1-1 1-1v-1zm-4 38v1h3v-1h-3zm-6-6v-2l-2-1-5-2-3-1-1 1-1 3v3l1 2v1h1l1 1-1 1h1l2-1h1l2-2 1-1v-3l1-1 1 2v1l1-1zm55-6l1-1h-1v1zm84-210h3l1 1h-1l-2 1h-2l2 1h1l2-1 1-1 1-1 1-2 1-2-1-1-3-1-2-1-3 1h-3l-2 1h-2l1 1 2 1v1h2l1 2h2zm0 83h2l1-1h-5v1c-1 0 0 1 0 1l2-1zm-3 2l-2-1v-1h-1l-1 1 1 1h3zm21 28l-1 1 2 1 1-1v-1h-2zm-24-6l-2 1 1 1v1h2v-2l-1-1zm-121 0h1l2-2v-1l-2 2h-1l-1 1 1 1v-1zm140 8v1h2l1-2h-2l-1 1zm-11-23h-1v-2h-2v1l1 1v1l-1-1h-1l1 2v1l1-1h1v2l1 1v-2l-1-1 1-1v-1zm19-41v-1l-1-1h-1v4h1l1-1v-1zM246 9l1-1-2-1v4l1-1V9zm3 168v-1l-2-1-1 1v3h2v1h2l-1-1-1-1v-1h1zm-28 0v3l1 1h1l-1-1h1l1 1 1-1v1l1-1 1-1 1-1h2v-1l-1-1-2-1v-1l-1-2h-2l-2 1h-1l-1 2v1l1 1zm37-159l2 1v1l-1 4-1 1v2h1l1-1 2-1 1 1v1l2 1h3l2 1h4l2-1 2-2v-1l2-2 2-1 2-1 1-2v-1l-3-1-2-2-1-2v-2l1-1V8h-5l-2-1-2-1-3-3-3-2-2-1h-1l-1 1v4l-1 1-1 2-2 2v7l1 1zm18 159h1v-1l-1-2v-2l-2-1-1-2-1 2v2l-1 2v1h2v1h3zm-8 10l1-1 1-1 1-1 1-1 2-1-1-1v-1h-2l-2 1-1 1v1l-1 1-1 1v1l1 1h1zm-11-14h1v-1h-4l1 1h2zm-9-4l1 1 2-1-1-1 1-1v-1h-1l-2 2-1 1v1l1-1z" id="Слой_x0020_1"/></svg>