<svg xmlns="http://www.w3.org/2000/svg" viewBox="0 0 486.759 486.759" width="512" height="512"><g fill="#ffeea8"><path d="M299.417 328.803l12.387 12.401c1.133-.857 2.26-1.659 3.285-2.684 12.234-12.225 12.234-32.058 0-44.282l-13.515-13.516a136.507 136.507 0 0 0 17.187-41.415h19.065c17.295 0 31.314-14.021 31.314-31.315 0-17.293-14.02-31.313-31.314-31.313h-19.05a137.201 137.201 0 0 0-17.188-41.407l13.5-13.51c12.234-12.225 12.234-32.057 0-44.281-12.229-12.232-32.05-12.232-44.28 0L257.304 90.99c-12.612-7.851-26.528-13.724-41.42-17.187V54.728c0-17.294-14.019-31.314-31.315-31.314-17.294 0-31.313 14.02-31.313 31.314v19.075A136.876 136.876 0 0 0 111.85 90.99L98.347 77.488c-12.229-12.232-32.051-12.232-44.28 0-12.234 12.225-12.234 32.057 0 44.281l13.5 13.493a136.922 136.922 0 0 0-17.202 41.416h-19.05C14.019 176.679 0 190.699 0 207.992c0 17.294 14.019 31.315 31.315 31.315H50.38c3.456 14.894 9.326 28.815 17.186 41.422l-13.5 13.502c-12.234 12.225-12.234 32.058 0 44.281 6.115 6.116 14.128 9.174 22.14 9.174 8.013 0 16.025-3.058 22.141-9.174l13.504-13.509a137.073 137.073 0 0 0 41.406 17.179v19.074c0 17.294 14.019 31.315 31.313 31.315 3.684 0 7.189-.756 10.475-1.927-6.163-21.27-1.146-45.092 15.613-61.851 24.508-24.523 64.251-24.5 88.759.01zm-114.848-58.142c-34.604 0-62.676-28.058-62.676-62.669 0-34.609 28.072-62.667 62.676-62.667 34.605 0 62.664 28.058 62.664 62.667 0 34.612-28.058 62.669-62.664 62.669z"/><path d="M477.583 268.344c-12.234-12.231-32.05-12.225-44.283-.007L313.868 387.74l-36.699-36.705c-12.234-12.231-32.05-12.225-44.279-.007-12.234 12.231-12.234 32.056 0 44.288l58.838 58.854a31.309 31.309 0 0 0 44.28.008l141.576-141.545c12.233-12.232 12.233-32.055-.001-44.289z"/></g></svg>