<svg xmlns="http://www.w3.org/2000/svg" width="512" height="512" viewBox="0 0 419.139 419.139"><g fill="#00bcc9"><path d="M61.711 229.869c-5.203 26.121 11.441 51.73 37.534 57.361 26.365 5.723 52.451-11.074 58.147-37.439l8.025-73.598c-26.365-14.307-16.704 44.993-62.243 35.165-31.278-6.77-39.804 13.244-41.463 18.511z"/><path d="M400.293 318.242c-2.062-6.182-8.767-9.598-14.937-7.492l-32.844 10.92-20.655-62.125c16.965-8.326 30.872-21.584 39.487-38.789 10.414-20.783 12.104-44.377 4.399-67.404L321.782 28.627 178.297 76.369l9.583 39.001L65.249 88.859l-40.438 130.82c-4.909 22.729-.681 46.003 11.919 65.537 10.414 16.165 25.674 27.84 43.438 34.271l-13.842 63.992-33.78-7.289c-6.354-1.279-12.661 2.674-14.04 9.061-1.38 6.381 2.67 12.658 9.057 14.041l45.221 9.77c.033 0 .05.029.073.029.051.016.111 0 .163.016l45.235 9.77c.846.184 1.676.264 2.509.264 5.442 0 10.336-3.783 11.533-9.322a11.821 11.821 0 0 0-9.062-14.045l-33.804-7.309 13.792-63.729c2.264.184 4.524.371 6.789.371 40.604 0 76.323-28.859 85.071-69.562l9.588-71.867 6.295 25.597c11.844 35.626 45.011 59.562 82.521 59.562 5.387 0 10.719-.648 15.999-1.646l20.6 61.945-32.78 10.895c-6.201 2.058-9.555 8.75-7.497 14.932 1.651 4.955 6.264 8.094 11.215 8.094 1.232 0 2.496-.186 3.729-.604l88.043-29.271c6.205-2.065 9.559-8.758 7.497-14.94zM171.83 251.496c-7.193 33.396-41.61 55.811-75.339 48.516h-.019c-16.553-3.568-30.718-13.365-39.887-27.594-9.166-14.23-12.259-31.182-8.938-46.748l33.776-109.138 105.328 22.772-14.921 112.192zm61.825-48.769L206.444 91.906l102.265-34.021 44.978 103.889c5.352 16.074 4.102 33.264-3.461 48.4-7.587 15.135-20.61 26.42-36.692 31.757a62.822 62.822 0 0 1-20.041 3.276c-27.322 0-51.468-17.43-59.838-42.48z"/><path d="M340.563 168.44c-2.276-5.046-12.86-24.037-43.226-13.946-44.243 14.715-41.044-45.291-65.682-28.225l15.903 72.273c8.522 25.582 36.274 39.493 61.837 30.974 25.352-8.438 39.137-35.694 31.168-61.076zM136.987 26.714c7.356-.399 13.016-6.698 12.62-14.065C149.21 5.27 142.9-.38 135.545.02c-7.387.399-13.046 6.698-12.645 14.074.403 7.369 6.711 13.019 14.087 12.62zm51.659 23.343c7.352-.399 13.016-6.698 12.616-14.073-.401-7.369-6.71-13.022-14.062-12.623-7.383.401-13.043 6.698-12.646 14.066.399 7.375 6.706 13.03 14.092 12.63zm-59.101 11.221c.398 7.377 6.706 13.03 14.061 12.628 7.387-.398 13.047-6.697 12.649-14.072-.402-7.368-6.711-13.021-14.096-12.622-7.353.399-13.01 6.698-12.614 14.066z"/></g></svg>