<svg xmlns="http://www.w3.org/2000/svg" width="495.97" height="495.97" viewBox="0 0 495.97 495.97"><path d="M495.97 151.65c0 25.024-20.277 45.304-45.303 45.304-2.774 0-5.488-.288-8.115-.764L405.36 328.962v47.727H90.61v-49.581L53.745 196.14a45.632 45.632 0 0 1-8.442.813C20.281 196.954 0 176.674 0 151.65c0-25.025 20.281-45.308 45.303-45.308 25.017 0 45.302 20.282 45.302 45.308 0 6.16-1.244 12.025-3.469 17.382 45.265 15.272 115.155 27.718 146.6-24.93-18.038-5.973-31.059-22.944-31.059-42.982 0-25.024 20.285-45.309 45.302-45.309s45.304 20.285 45.304 45.309c0 20.019-12.997 36.982-31.021 42.971 18.358 33.91 59.267 69.336 148.455 28.941a45.246 45.246 0 0 1-5.36-21.376c0-25.026 20.283-45.309 45.301-45.309s45.312 20.278 45.312 45.303zM90.615 440.159H405.37v-42.906H90.615v42.906z"/></svg>