<svg xmlns="http://www.w3.org/2000/svg" width="3296" height="1183" viewBox="0 0 329600 118316" shape-rendering="geometricPrecision" text-rendering="geometricPrecision" image-rendering="optimizeQuality" fill-rule="evenodd" clip-rule="evenodd"><defs><style>.fil0{fill:#0dc0cc;fill-rule:nonzero}</style></defs><g id="Слой_x0020_1"><g id="_858021174912"><path class="fil0" d="M238280 17959c145-20 286 143 376 560 68 404-40 1112-491 1777-422 669-1121 1241-1604 1846-243 304-392 595-429 861-44 252-9 643 111 862 101 221 328 461 726 768 392 310 927 633 1531 1190 300 277 619 646 881 1118 251 475 449 1059 480 1608 62 559 8 1122-160 1709-175 572-479 1100-803 1481-564 677-1142 1062-1587 1408-462 340-739 619-852 823-121 170-162 561-103 804 57 239 308 568 760 936 424 357 1001 730 1585 1380 290 308 575 744 774 1229 106 238 157 508 224 764 41 256 55 513 73 769-9 257-31 515-60 770-63 258-118 526-216 770-196 488-474 933-766 1246-582 658-1167 1036-1597 1385-461 361-725 677-813 920-84 242-73 658 40 872 103 245 385 561 833 919 438 364 996 756 1530 1404 309 360 589 860 756 1391 154 549 205 1082 144 1603-75 1059-700 2059-1287 2538-584 525-1124 837-1544 1153-424 313-711 600-858 910-156 311-185 764-124 1105 61 350 249 683 508 999 525 626 1209 1162 1633 1760 443 601 596 1232 562 1625-38 398-146 580-245 579-256-8-235-705-1040-1376-413-375-1059-702-1874-1410-393-357-848-886-1087-1628-224-739-272-1533-1-2379 269-819 821-1431 1312-1876 498-452 983-811 1319-1173 353-372 449-639 471-1013 2-414-60-677-374-1019-262-303-703-630-1218-1040-500-406-1158-964-1577-1901-407-955-435-1977-110-2971 363-1007 1056-1631 1593-2080 534-435 1000-797 1256-1149 258-364 290-568 259-905-48-352-149-453-409-732-265-271-721-584-1265-1030-544-462-1283-1119-1696-2209-372-1093-344-2182 87-3234 449-1030 1154-1621 1670-2040 530-416 964-732 1206-999 281-305 344-435 388-804 20-319-2-566-307-972-293-389-758-794-1230-1267-468-470-987-1072-1253-1853-269-806-230-1580-24-2286 219-715 652-1235 1038-1590 797-695 1452-1031 1883-1420 853-717 802-1471 995-1486zM180751 6028c-354 510-778 920-928 1166l-94 149-17 32-4 6 27-107 2-13 3-24 6-47 13-98 26-174c36-171 49-291 60-366 37-308 23-371 13-431-42-59 20 36 161 101l232 70 25 5 13 1h1l287 21h-1v2l-1 4-5 31-13-18-271 73-23 15-8 7-1 1-70 33h1l1 1 4 2 7 4 13 8 16-29-18 47-8 113 1 8h1l-3 70 1-1 3-3 6-6 10-10-13-21-21-34 83 29c165 22 363-97 559-164 197-69 380-1 472 263 85 259 57 655-199 1033-62 93-144 182-244 263l-183 117-11 12-5 5-3 2-1 1-54 20-5 2-90 37c-247 91-520 102-769 44-217-51-411-168-578-324l-121-126-123-157-85-131-83-147c-194-352-609-708-573-1143l19-187 20-141c22-135 51-280 116-457 63-172 166-388 357-601 115-119 172-183 397-321 61-35 243-118 371-143 319-69 530 3 647 70 131 76 144 149 203 231 96 161 160 328 235 414 305 360 386 654 214 911zm533 6050c-379 488-833 863-1000 1101-89 106-144 191-168 251l-2 6 2-89-5-196c-10-126-32-237-55-312l-17-49-8-19-1-4-2-3-18-90-1 1-2 2-11 11 3 8-3-4-80-78-62-36-26-10-9-2-41-12-28 4-195-2-48 17-1 1c-13-21 28 49-30-48l10-7 38-27 75-53 151-107c109-77 225-157 345-243l170-119 33-8 1 10v1l-226-212v4l2 4-11 122-9 251c21 332 187 750 191 1212 3 457-278 629-800 644-125 2-261-18-401-64l-200-79-5-1-1-1h-2l-219-205-8-4-15-10-31-19-59-40-25-19-12-10-7-5v-2l-165-256-11-23c-58-122-98-247-121-362-45-235-36-413-11-584 44-283 156-542 282-757 121-204 202-439 333-662 127-223 323-431 525-490 429-129 795-179 1091-89 349 108 515 627 666 809 334 388 418 708 234 953zm-303 5593c-425 433-846 743-1014 976-92 99-113 191-146 245-27 46-16-213-97-229l-130-8-2-1h-1l295 20h-6l-11 1-21 1-42-2-41-6-11-2c-5-35-3 97-19-172-13-183-26-368-38-555l-19-278-9-138c20-25-54-43 45-73l-1 1 102 109 92 43 16 4h117v3l2 6 2 12 4 23 75-25-25 19-176 201c-110 158-192 362-310 553-217 387-570 364-952-52-177-217-323-491-311-973l38-256c28-108 71-217 136-336 64-119 151-247 283-376 66-64 140-127 228-182l173-94 70-29c104-23 205-45 335-74l20-12 39-42 39-59 20-33 9-17 6-9v-1l1-2 298 20 1-1 3-3 234-119c147 66 332 69 498 197 204 154 225 667 283 841 157 379 130 662-82 884zm-125 2876c192 609 233 1236 137 1582-47 167-121 298-211 404l-116-25c-20-25-10-12-106-178-64-112-116-191-162-254l-104-129-19-20-1-1-81-105-1 2-1 3-2 7-6 14 11-2-89-41-132-9 116-85c83-61 175-236 247-298-20-26 17-73-22 31-86 299 74 716 130 1169 53 450-204 671-731 690-135-4-249-10-427-91-105-32-290-139-453-318-74-79-144-181-205-305l-51-119-18-52c-42-131-47-162-64-250-53-299-19-581 36-815 55-226 59-457 111-703l64-198-4-40c59-88 35-69 57-107 47-98 107-183 179-237 300-220 506-364 668-383 188-8 487 336 639 383 315 92 515 174 611 480zm-178 5442c-159 271-382 479-577 659-95 92-183 180-221 278 88-233 113-416 106-479l-2-19h-31l64 43c59 78 235 213 476 306 101 39 210 75 312 98l-27 13-75 51-15 8-5 1-97 4c-137 7-227 14-310 26-151 21-235 49-283 69l19 7 45-53c45-37 105-98 180-195l122-173 90-146 34 33 40 17 2 1 1 1h1l-279-93h1l11 2 20 5 41 9c68-238-47 626-100 1116l-6 52c-24 6 49 25-55 19h1l6-1 10-2-8-4-9-27-128-147-24-16-141-45 2-26-45-11-144-15-155 20 85-45c214-241 256-835 610-1092 167-142 312-184 477-138 163 53 365 181 590 527 187 346 440 902 46 1765-104 187-256 402-564 576-77 41-163 78-256 105l-199 39-10 1-334-14-78-30-336-119-107-63-247-157c-169-115-421-191-694-427-70-65-124-107-209-233-114-202-39 21-153-226-98-185-151-374-164-535-21-358-10-509 8-746 23-230 65-461 174-706 123-277 393-557 740-726 178-83 338-128 586-173l63 19 24 10 5 3 3 1 59-18h2l4 1 29 1c85 6 157 13 218 18 566 101 708 390 796 545 77 175 65 315-15 451zM87790 9725c-355 512-778 920-928 1167l-95 149-16 31-4 8 30-137 2-12 2-23 6-46 14-93 24-167c34-165 48-282 58-356 38-303 23-368 14-428-41-56 19 36 160 101l234 70 27 5 12 2h1l283 20v3l-1 4-5 31-13-19-270 73-23 16-9 6v2l-71 33h1l2 1 3 2 7 4 14 8 15-29-18 47-7 114 1 6v1l-2 70 1-1 3-3 5-6 11-10-14-22-21-33 83 29c166 23 363-97 559-164 196-70 381-2 472 264 86 258 56 653-199 1032-62 93-145 182-243 263l-184 117-10 11-6 6-3 2-1 1v1l-53 17-5 3-91 38c-246 91-520 101-769 43-217-50-412-167-578-324l-120-126-123-155-86-133-83-146c-193-352-608-708-572-1143l19-187 19-142c22-134 51-279 115-457 64-172 168-387 358-601 116-118 172-183 397-320 61-35 242-118 371-143 321-69 531 2 648 71 132 75 141 147 202 229 95 162 161 329 235 415 306 360 387 654 215 910zm533 6050c-381 489-833 863-1001 1102-88 106-144 191-167 250l-3 8 3-90-6-196c-9-126-31-237-55-312l-16-49-8-18-3-6-1-2-18-90-1 1-1 1-13 11 4 9-2-4-80-79-62-35-26-9-9-3-47-12-27 2h-192l-46 17-2 1c-13-22 29 48-29-48l9-7 38-27 76-54 151-106c109-77 224-159 345-243l170-120 31-8 2 11v1h1l-228-212h1l1 3 2 5-12 121-9 252c22 333 188 749 192 1211 2 458-279 629-800 645-126 2-262-19-402-65l-200-78-4-1-2-1h-1l-220-206-8-5-14-8-31-19-59-41-25-19-13-10-6-4-2-1-164-258-11-23c-58-121-97-245-120-361-45-235-36-413-12-586 45-279 156-540 282-755 122-205 203-439 334-663 128-222 323-431 524-489 429-129 796-178 1091-90 349 109 516 629 667 810 334 388 417 707 234 952zm-303 5592c-426 434-847 745-1015 978-92 99-112 191-145 245-27 46-17-214-98-228l-129-9-2-1h-1l295 20h-1l-5 1h-11l-21 1-42-2-42-6-10-3-5-1-2-2-5-67-9-134c-12-177-25-357-37-538l-19-270-9-134c21-23-53-43 46-69h-1l102 110 92 43 16 4 117 1v2l1 6 2 11 3 23 77-23-25 17-177 201c-109 158-191 363-309 555-218 385-571 362-952-53-178-218-323-491-311-973l37-257c29-107 72-217 136-336 65-118 152-247 283-375 66-64 141-127 228-183l174-94 70-29c103-22 204-45 334-73l20-12 40-42 38-59 20-33 9-17 6-8v-2l1-1v-1l299 20v-1l4-3 234-119c147 65 332 68 497 197 205 154 225 666 284 841 156 378 130 662-82 882zm-125 2878c192 609 233 1235 137 1582-48 167-121 299-211 404l-116-25c-20-25-10-12-106-179-65-111-117-191-162-253l-104-130-20-19v-1l-81-106-1 1v2l-2 3-2 7-6 13 11-1-89-41-132-9 118-85c82-62 174-235 247-301-20-26 15-70-24 34-85 299 74 714 131 1168 54 451-205 673-732 691-135-3-248-10-426-90-106-33-290-141-454-319-73-79-144-182-204-306l-51-118-18-51c-43-130-47-164-65-250-52-301-19-581 37-816 54-226 59-457 111-703l64-198-5-41c59-87 35-68 57-107 47-98 108-182 179-235 302-221 507-365 669-383 188-10 486 336 639 381 315 92 514 175 611 481zm-179 5441c-159 271-381 480-576 660-95 91-183 180-221 278 88-234 112-415 106-478l-2-21h-32l65 45c59 78 235 212 476 305 101 39 210 75 311 98l-26 12-76 52-13 8-6 1-98 4c-136 6-227 14-310 25-150 22-234 49-283 71l20 5 45-52c44-37 105-98 180-195l121-173 91-146 33 32 41 18 2 1 1 1h1l-278-93 11 2 21 4 41 11 20 5 4 37-25 214-99 857-8 52c-23 6 50 24-54 21h1l5-1 11-1-9-5-9-26-127-148-24-15-141-46 1-26-44-11-143-15-155 20 84-45c213-241 256-835 609-1092 167-141 313-183 478-137 163 52 364 179 590 526 187 345 439 904 46 1764-104 187-255 402-564 577-76 41-163 79-256 105l-199 39-11 1-333-14-79-30-335-119-108-64-246-156c-169-115-421-191-694-428-70-65-124-106-209-231-115-202-39 19-153-226-98-186-152-374-164-535-21-359-10-510 8-747 22-229 65-461 174-706 123-277 392-557 739-725 179-85 338-130 587-175l63 19 23 12 6 2 3 1 58-18h7l29 2c85 6 157 13 218 18 566 100 708 389 796 544 77 176 64 316-16 451zm104023 51569c-355 512-778 920-928 1168l-95 148-16 32-4 7 30-141 4-23 6-48 13-93 24-171c34-167 49-285 59-359 38-303 23-367 14-427-42-58 19 37 159 101l234 71 25 4 12 2h1l286 20v3l-1 4-6 31-12-18-270 72-23 16-9 7-71 34v1l2 1 3 2 7 3 15 8 15-29-18 46-7 116 1 5v1l-2 69h1l3-2 5-6 11-11-15-21-20-35 83 29c166 23 363-97 559-163 196-70 380-1 472 263 86 259 56 655-199 1033-62 93-145 183-244 263l-183 117-10 11-6 6-3 3-1 1-53 18-5 3-91 37c-247 91-520 101-769 44-217-51-412-168-578-325l-120-125-123-156-86-133-83-147c-193-350-609-707-572-1142l19-188 19-141c22-134 51-279 116-457 64-172 167-388 358-601 115-118 172-184 398-320 59-34 240-118 369-143 320-69 531 3 648 70 133 76 141 148 202 231 95 161 161 327 235 415 306 360 387 653 215 909zm533 6050c-381 489-833 863-1001 1102-89 106-143 191-167 251l-4 7 4-92-6-195c-9-125-31-237-55-311l-17-49-8-20-1-4-2-3-18-90-1 2-1 1-13 12 4 8-2-3-80-79-63-36-25-9-10-2-41-13-28 3-196-1-47 18-2 1c-13-22 28 47-29-48l9-6 39-27 76-55 152-106c110-78 225-160 346-245l172-121 29-4 1 10v1l-228-214 1 2 1 2 2 6-12 121-9 251c22 333 188 749 191 1211 2 458-278 629-799 645-126 2-262-19-402-64l-200-79-4-1h-2l-1-1-220-206-8-5-15-10-31-19-59-40-25-18-13-10-6-6-164-255-11-22c-59-123-98-248-121-363-46-236-36-414-12-585 45-282 156-541 282-756 122-205 203-439 334-663 128-224 322-431 524-490 429-129 796-178 1092-90 347 109 515 628 666 810 334 387 418 708 234 952zm-303 5593c-426 434-847 744-1015 978-91 98-111 191-145 244-27 46-16-213-98-228l-129-10h-3l296 21h-80l-41-7c-9-27-12 56-25-64-13-201-27-407-41-614l-21-307-10-154c21-27-54-49 45-79h-2l103 111 92 42 16 5h117l2 1v7l2 12 3 22 76-23-25 18-177 201c-109 158-190 363-310 554-217 385-570 363-951-53-177-217-323-490-312-973l39-257c29-106 71-217 135-335 66-119 152-247 283-377 66-64 142-125 230-182l173-94 70-29c103-22 204-45 333-73l20-11 39-42 40-60 19-33 9-17 5-9 1-1v-2h1l299 20 4-4 234-118c147 65 332 68 497 197 205 152 226 666 284 840 156 378 130 661-82 883zm-124 2877c192 609 232 1236 136 1581-47 167-121 300-211 406l-117-25c-20-25-9-12-105-180-65-111-117-191-163-255l-105-128-19-20h-1l-79-105h-1v2l-2 4-2 6-5 14 11-2-89-40-133-10 117-84c83-62 174-236 248-300-21-26 16-71-23 33-86 297 75 714 130 1167 54 451-205 672-731 692-136-4-249-11-427-92-105-31-290-139-454-317-73-80-144-182-204-306l-51-119-18-52c-43-129-47-162-64-248-54-301-19-582 36-816 54-226 58-458 111-703l63-199-4-40c60-88 35-69 57-107 47-98 109-184 180-236 301-221 506-365 668-383 188-10 486 336 639 382 315 91 514 175 612 480zm-180 5442c-159 271-382 478-576 660-95 91-183 179-221 277 88-234 112-415 106-479l-2-19-32-1 65 44c58 79 235 212 475 307 102 39 210 73 312 97l-26 13-76 52-14 7-5 1-101 4c-135 7-225 15-307 26-151 21-234 49-283 69l20 6 45-52c45-37 105-98 180-195l121-172 91-146 33 32 40 18h4v1h1l-278-94v1h1l11 2 20 5 41 9c68-237-49 632-102 1117l-6 52c-23 5 49 25-54 17h6l11-2-9-4-9-26-128-148-24-15-140-46 1-25-44-12-143-15-156 21 85-46c213-241 256-836 609-1091 167-142 313-185 478-139 163 52 364 180 590 528 187 343 439 902 46 1764-104 187-256 402-564 576-76 42-163 79-256 105l-199 40h-11l-334-15-79-29-334-119-107-64-247-156c-169-116-421-192-694-427-70-65-124-106-209-232-115-202-39 19-153-227-98-185-152-373-164-535-22-359-10-510 8-746 22-228 65-460 174-705 122-278 392-557 739-726 179-85 338-130 587-175l62 19 24 12 6 3 3 1 58-19h7l28 2c85 7 158 13 218 18 567 101 709 390 797 545 77 176 64 316-16 451zm14077-67819c-704 1031-1737 1673-2385 2018-151 67-305 135-465 205l-109 44-41 23-2 8 43-286 70-500c69-551 81-821 83-1036 0-211-19-345-35-423l-23-76-23 19 89 69c82 93 253 218 495 328 236 107 538 195 784 238l85 14 42 7h2c622-27 173-8 311-13v1l-1 3-2 7-5 12-32 103-15-2 40 118c12 6 28-4-93 44-79 31-158 74-212 108l-76 54-29 23-1 1c52-24-450 214-238 113h1l1 1 6 3 11 7 23 13 46 27c80 59 11-70 30-70l22-30c19-29-29 39-59 159-41 138-42 322-26 386l5 23v2l-7 233 3-2 9-10 19-18 37-36 38-36-27-16-60-19-68-115c-83-81 78 83 232 121 153 51 334 60 516 21 374-67 718-372 1121-506 391-138 782 63 958 709 163 630 52 1593-600 2483-158 219-362 424-603 612-79 55-169 111-258 162l-136 74-39 29-39 29-20 15-11 7-2 2h-1l-107 37-14 6-217 83c-595 207-1253 222-1859 71-526-132-1007-415-1419-799-105-95-203-199-299-306-86-93-277-332-301-374l-220-332c-74-120-143-244-209-367-251-472-581-899-854-1388-267-482-471-1021-427-1546l43-461 48-367c53-327 123-672 272-1079 147-397 380-876 795-1343 111-119 219-229 350-338l201-158c99-71 200-137 303-197 142-83 526-259 807-315 696-155 1173-8 1460 135 297 155 403 319 560 495 290 347 514 713 745 922 955 865 1303 1626 963 2137zm1461 20417c-756 988-1858 1528-2577 1828-358 128-694 227-991 320-221 81-441-394-556-345l-45 10c-99 79 9 28 15 27l-9-14c-24-39-131-169-272-265l-211-121-86-30-31-9-8-1-2-1-113-46-25 11-96 5c-252-62-505-37-656 0l-155 56-6 4 10-16 30 12 38-49 127-109c119-116 270-283 529-639l231-329 124-185-4 11 6 63 101 324c74 222 164 452 274 649 432 815 1038 1629 1043 2557 8 909-830 1274-2259 1155-346-34-716-122-1096-273-191-75-382-169-574-275-186-109-477-281-833-684-308-333-625-968-716-1484-106-531-88-959-32-1358 103-693 367-1333 682-1872 304-515 546-1076 899-1599 87-131 181-256 282-376 89-115 339-311 336-341 220-198 471-356 730-437 1082-344 2051-455 2857-255 946 242 1506 1351 1991 1799 1046 948 1411 1796 1048 2282zm-41419 8834c-498 345-1029 558-1476 786-453 213-805 465-1001 657-205 176-365 284-607 323-191 38-322-523-641-589-148-32-315-44-485-67l-68-8c117-867 142-1181 159-1446 40-487-37-617 2-707-79 1 100 226 342 372 118 72 242 122 313 144l56 16h394v2l1 6 4 18 6 40 11 77 177-57c-140 29-280 110-384 208-217 202-406 524-564 905-161 377-283 813-523 1196-428 769-1309 622-2188-491-207-270-388-608-516-1008-124-416-208-813-177-1431l-1-76 1-37 1-18 1-10 18-120c18-126 45-250 78-377 70-253 168-513 317-788 149-273 344-565 639-853 147-143 312-282 506-404 78-50 229-137 379-204l156-63 247-83 153-43c94-23 190-45 289-68 152-29 313-60 485-92 279-51 477-102 592-174 233-141 476-270 694-188 449 166 970 215 1439 526 558 363 761 1472 1042 1957 654 1057 611 1848 129 2169zm-543 9712c389 1216 269 2556-231 3383-244 399-565 739-933 1032-293 260-716-51-785 21l-11 17-38-35-66-67-1-2-271-354v1l-1 1-1 6-5 11-9 23-16 46 34-6s-128-90-301-139c-176-56-380-50-446-30l-35 11 76-2 46-56c81-48 187-127 307-238 125-113 314-336 403-457l-43 96-8 28-1 3c-17-12 40 31-40-27l1 3 6 13 11 25 43 99c-85 124-26 350 0 510 143 716 688 1497 797 2409 110 895-629 1391-1999 1308-345-36-653-90-1086-304-288-117-738-398-1131-840-175-194-342-439-483-730-31-62-76-165-118-272-50-130-30-85-48-137l-40-121-18-63-35-129c-23-86-40-171-55-257-128-700-54-1368 80-1938 130-548 180-1103 338-1676 21-120 157-382 168-459l14-109v-3l52-64 2-6 7-11 10-22 22-46 46-89c126-232 281-436 460-573 750-572 1330-948 1813-1064 562-102 1335 514 1788 540 937 50 1533 129 1731 740zm89 18336c-316 545-823 910-1339 1185-489 297-769 654-904 946-131 281-82 533-22 601l-90-31-139 98c5 115 95 139 156 216l131 51 69 15 41 21 27 16 15 8 7 5 4 2 1 1-47 54-106 121-485 559-240 278-60 69-15 17c-385-252 515 353 423 290v-14l5-86c19-91-41-26-65-19l-184-28-23-7 50-7 102-54c137-103 253-320 310-543 112-493 96-1142 171-1687 71-550 245-1008 579-1292 336-283 677-298 1093-82 408 227 930 665 1479 1568 265 459 490 1024 598 1728 51 351 71 739 36 1157-21 217-46 409-104 660l-93 344-20 79c37-87-99 286-234 486-140 229-320 444-515 615-81 72-176 145-251 195l-26 13-51 26-106 50-196 112c-139 55-281 104-434 132-305 61-636 83-988 32-699-80-1439-306-2157-599-685-276-1449-507-2125-1029-664-510-1144-1341-1240-2337-177-2039 237-4253 1182-5454 547-697 1256-973 1897-1031 650-52 1230 79 1721 190 1016 224 1689 879 2004 1323 273 431 314 765 158 1037zM28226 2534c389 1214 271 2555-230 3382-245 399-566 740-934 1033-293 259-716-51-784 21l-11 17-39-35-65-68-2-2-271-353v2l-2 6-5 11-8 23-17 46 35-6s-129-91-302-138c-176-57-380-51-445-31l-36 11 77-2 46-57c81-48 188-127 307-239 125-112 314-335 403-455l-44 96-7 27-1 4c-18-12 40 30-41-27l1 3 6 13 11 24 44 100c-85 124-26 349 0 509 143 717 687 1497 796 2411 111 895-629 1390-1998 1306-346-36-653-89-1087-303-287-117-738-399-1131-840-174-194-341-439-482-730-31-61-77-164-118-272-51-129-31-85-49-137l-40-121-18-64-35-128c-23-85-39-172-55-258-127-699-54-1367 80-1937 131-548 180-1103 338-1676 21-120 157-382 168-458l15-110v-3l52-64 2-6 6-12 11-22 22-45 46-89c125-232 281-437 460-573 749-572 1329-948 1812-1065 563-101 1336 515 1789 541 936 49 1533 129 1730 740zm89 18335c-317 545-823 910-1340 1186-487 296-768 653-903 945-131 283-82 533-22 602l-90-32-139 99c5 115 95 139 155 215l133 52 68 14 42 22 26 15 15 9 7 5 4 2 1 1-47 54-106 121-484 559-241 278-60 69-15 17c-386-252 517 353 425 290v-14l4-87c19-90-41-26-64-18l-185-28-23-7 49-7 102-54c137-103 254-320 311-542 112-495 94-1143 170-1688 71-551 245-1009 580-1292s676-298 1092-82c408 227 931 665 1479 1568 265 459 491 1023 598 1727 52 352 72 740 37 1158-22 217-46 409-105 660l-93 344-20 79c36-87-99 284-234 485-140 230-320 445-515 616-81 72-177 145-250 194l-26 14-52 25-105 51-197 111c-138 56-280 105-435 133-303 61-634 83-986 32-700-80-1439-307-2157-600-685-276-1449-506-2126-1028-663-511-1144-1341-1239-2337-177-2039 236-4253 1181-5455 547-696 1257-972 1897-1030 650-53 1230 79 1721 189 1017 225 1689 879 2004 1323 274 432 315 766 158 1037zm161787 46946c769 531 1341 1209 1677 1516l202 207 42 43 10 9 4-4v3l-76-9c-100-15-262-32-311-45-307-63-522-89-658-108-555-69-672-42-782-25-104 76 66-35 184-291 57-127 104-290 128-423l8-46 3-23 1-1 36-523h1l2 1h4l7 1 56 11-33 21c-14 90 45 377 132 494l28 41 14 16h1l60 129 1-1 2-4 3-5 8-13 14-24-39-16-16-13 87 32 209 14 11-3h2l125 5-1-2-6-5-9-10-19-21-39 28-61 36 15-31c17-43 37-51 46-220 10-277-186-549-286-849-104-294 14-574 438-711 415-126 1048-70 1647 346 147 100 287 233 415 392l112 177 51 93 19 20 18 21 10 11 5 5h1l1 1 26 81 4 9 58 144c143 393 157 830 62 1229-83 346-269 659-521 927l-202 195-248 197-215 140-237 135c-572 315-1160 947-1866 891l-301-31-231-31c-216-35-446-81-724-183-272-100-606-261-936-556-84-78-161-153-239-247l-112-144-141-218c-56-95-183-371-221-570-107-494 1-823 104-1011 115-210 227-238 353-340 248-167 506-287 643-417 575-538 1056-703 1440-447zm11022-940c735 569 1248 1294 1565 1635 115 140 222 270 334 405l-119 64-204 31c-97 18-179 38-248 60l-89 30-34 14-9 4-2 1h-1l-164 34h1l6 6 20 22 14-8-7 4-144 148-66 113-16 46-4 17-21 81 3 52c-33 135-19 272 0 353l31 84-86-106c-62-65-152-147-345-287l-440-299c-375-228-220-168-253-143 113-74 131-6 205-18 135-4 283-21 412-54 533-124 1155-437 1848-442 685-4 948 481 935 1354-5 211-48 438-130 671-32 106-133 291-141 335-89 150-178 316-460 570-227 213-674 436-1032 499-367 72-656 59-922 21-456-70-872-246-1222-450-332-195-704-336-1059-553-352-214-679-531-776-858-215-696-292-1302-153-1795 169-582 964-885 1257-1155 621-590 1151-762 1516-486zm10211 540c582 690 977 1398 1315 1670 161 118 296 150 353 253 57 73-342 93-373 253-15 72-17 157-25 246l-2 23-31-1-535-77c-502-69-649-79-800-89-263-22-335 20-381-1 1 42 122-54 201-185l78-169 8-30v-1l-1-211 2-1h3l11-2 21-4 41-6c-49-89-32-151-41-139l44 71 117 135c90 89 202 169 329 243 252 151 565 264 852 443 578 323 520 895-170 1494-356 278-810 505-1575 483l-40 2-21 1-10-1-93-13-252-52c-169-47-344-113-531-215-186-102-387-237-588-443-100-104-196-219-282-356-36-53-98-162-145-271l-42-103-60-176-31-108-49-202c-20-97-43-209-69-334-39-190-81-318-139-385-112-136-217-279-166-405 107-255 121-569 326-849 238-333 1037-424 1346-564 635-302 1111-266 1405 76zm5236 173c912-289 1873-303 2424-87 266 106 482 257 658 436l-6 232c-89 100-2 33-363 278-110 80-180 138-236 189l-35 36-2 1-190 147 1 1h3l5 3 13 5 24 8-3-18s-48 69-74 162c-31 95-28 205-16 240l6 20v-41l-32-25-129-166c-69-74-161-155-267-233l-164-112-43-28-5-2-2-1v-1h-1l-86-10v-2l2-6 5-12 35-33c66 104 215 102 320 121 474 55 1087-238 1768-321 674-82 1019 358 1019 1223-11 220-31 409-164 694-61 175-237 472-525 733-127 116-290 229-487 323l-186 82c-91 34-52 17-85 28-199 67-255 75-391 102-473 84-919 32-1295-56-361-87-731-102-1118-194l-312-105-67 1h-2l-48-38-4-2-7-3-16-7-30-13-60-29c-154-77-291-177-377-292-362-486-598-833-644-1114-34-325 467-815 520-1078 106-544 210-890 669-1036zm9907 303c408 239 709 584 961 904 127 157 247 308 381 393l75 40-258-71c-165-34-278-46-350-45l-74 4-7 15 46-43c112-69 346-326 527-728 36-83 79-175 108-266l39-108-1 14 40 105c17 82 201 173 219 169l2-1 10 119 26 216c19 132 39 229 61 309 22 83 42 137 61 182l309 752-7-81-55-168-214-127-240-165c-160-97-360-221-567-327l-316-151 7-4 31-27c57-54 81-172 93-259 32-42-41-86 70-74 691 84 1626 80 1909-39l37-18 13-18 1-5 1-2c371-844-506 1149-416 944l-1-1h-6l-47-2-10 34-15 100c-14 77-19 176-12 273l5 58-8-40-40-76-127-125c-233-138-619-194-958-296-344-101-649-260-861-510-213-252-262-480-169-744 100-260 329-583 867-942 277-173 622-324 1067-399 222-36 469-52 739-32 142 12 263 26 431 65l226 59 43 10c-78-32 222 73 402 198 196 126 377 295 508 475l143 228 35 75 62 154c37 103 67 220 83 316 15 91 23 184 28 276 4 144-4 253-15 346-23 183-58 331-100 472-86 284-191 541-320 837-64 143-101 303-167 507-38 106-64 205-140 349-44 76-49 113-129 220-110 132-239 261-379 375-201 149-145 126-173 163l-21 38-3 4v1l-276 129-3 1-5 4-26 16-50 29c-136 79-275 146-409 198-272 106-527 157-747 157-461-5-716-16-1122-64-373-51-757-136-1155-329-454-220-896-679-1131-1246-60-143-95-275-139-437-48-174-93-411-45-414-2-235 29-494 65-693 193-849 628-1090 879-1243 280-137 501-132 704-13zM103098 35101c405-467 1151-492 1894-75 357 201 733 482 1114 812 137 120 244 280 345 452 137-150 275-293 423-418 385-326 984-359 1321-582 691-458 1153-744 1367-520 424 444 447 1265 68 2081-183 394-439 808-739 1227-143 198-350 337-560 482 149 158 292 319 407 500 280 441 472 923 650 1323 364 822 463 1507 165 1836-300 329-748 29-1434-440-333-228-690-528-1058-872-175-163-336-353-499-550-194 223-380 446-600 614-402 309-840 520-1204 715-747 401-1370 511-1669 182s-26-823 400-1576c207-367 480-759 792-1164 112-146 239-283 371-418-197-216-392-424-552-654-296-423-326-1082-529-1452-416-760-677-1268-473-1503zm107659 59275c425 444 449 1265 69 2081-183 394-438 807-739 1227-142 198-350 338-560 482 149 159 292 319 407 500 279 442 473 925 650 1323 364 822 463 1508 166 1836-300 329-749 29-1435-440-333-227-690-528-1058-871-175-163-336-354-499-551-194 223-380 447-600 615-402 308-840 519-1204 714-747 401-1370 510-1669 183-299-330-26-823 400-1577 207-366 480-759 793-1164 112-146 238-283 370-418-197-216-392-424-552-653-296-423-326-1082-529-1453-416-760-677-1268-473-1503 405-467 1151-491 1894-75 357 201 733 482 1114 812 137 120 244 281 345 453 137-151 275-295 423-420 385-324 984-358 1321-581 691-458 1153-744 1366-520zM64480 82557c434 434 118 1627-786 3022-436 671-987 1410-1608 2180-535 665-1302 1154-1919 1837l-6 7c593 709 1251 1318 1769 2003 599 793 1087 1600 1518 2277 885 1395 1322 2452 1024 2781-299 329-1087-344-2292-1385-586-505-1238-1130-1925-1824-594-598-1159-1309-1778-1986-34 35-68 69-103 104-644 651-1198 1376-1821 1944-721 659-1455 1196-2072 1669-1268 975-2230 1456-2528 1128-299-330 312-1196 1259-2522 460-643 1027-1361 1659-2117 508-609 1105-1192 1684-1819-34-36-66-72-98-109-598-701-1235-1335-1764-2003-615-774-940-1757-1396-2406-935-1329-1534-2210-1335-2450 396-477 1481-130 2749 865 610 479 1282 1085 1982 1767 565 550 991 1325 1552 1977 637-657 1212-1355 1819-1939 704-675 1598-1033 2188-1534 1209-1027 2010-1686 2228-1467zM196371 8707c395-476 1481-129 2748 866 611 479 1282 1085 1982 1767 566 551 992 1325 1553 1978 636-658 1212-1356 1820-1939 703-676 1596-1034 2187-1535 1209-1027 2010-1687 2228-1468 434 435 118 1629-787 3023-435 671-986 1409-1606 2179-535 666-1304 1156-1920 1838l-6 6c592 710 1252 1319 1769 2004 599 793 1087 1599 1517 2277 885 1396 1323 2453 1025 2781-299 330-1087-344-2293-1385-586-506-1238-1130-1925-1824-594-599-1158-1308-1777-1987-34 35-68 70-103 105-644 651-1199 1376-1821 1945-721 658-1456 1195-2072 1668-1268 974-2230 1455-2528 1128-299-330 312-1196 1258-2522 460-644 1029-1361 1659-2117 509-610 1106-1192 1685-1820-34-35-66-72-98-109-598-700-1234-1334-1765-2002-614-774-939-1757-1395-2406-935-1329-1534-2210-1335-2451zm-59483 14416c395-477 1480-129 2748 865 610 480 1282 1085 1982 1768 566 551 992 1325 1553 1977 636-657 1211-1356 1819-1938 704-677 1598-1034 2188-1536 1208-1027 2010-1686 2228-1467 433 435 118 1628-787 3023-435 670-986 1409-1607 2179-535 666-1304 1154-1919 1838l-6 6c593 709 1251 1318 1768 2003 599 793 1087 1600 1517 2279 887 1394 1324 2452 1025 2779-299 329-1087-343-2293-1383-585-507-1237-1132-1924-1825-594-599-1160-1310-1778-1987-34 35-68 70-102 104-644 652-1199 1376-1822 1945-721 659-1455 1196-2071 1668-1269 975-2230 1456-2528 1128-299-330 312-1195 1258-2521 460-644 1028-1361 1659-2117 509-609 1105-1191 1684-1820-34-35-66-72-98-109-598-701-1234-1334-1765-2002-614-775-939-1757-1395-2406-934-1330-1533-2211-1334-2451zm-16409 61067c405-466 1152-492 1894-75 357 201 734 481 1114 813 138 119 244 279 345 451 138-150 276-294 424-419 385-325 984-358 1321-581 690-458 1152-745 1366-521 424 446 447 1267 68 2083-182 392-438 806-738 1225-143 199-350 339-561 483 150 158 293 318 408 500 279 442 471 924 650 1323 364 822 463 1508 164 1835-299 330-748 29-1433-440-333-227-690-527-1058-870-175-163-337-354-499-551-195 223-381 446-601 615-401 307-840 519-1203 714-747 401-1371 510-1669 183-300-330-27-824 400-1578 206-366 480-758 792-1164 112-145 238-282 371-417-197-215-392-423-552-653-296-424-326-1082-529-1453-417-759-677-1268-474-1503zM237726 3706c405-467 1152-492 1894-75 357 202 734 482 1114 813 138 119 244 280 345 452 137-151 276-294 423-419 386-325 985-358 1322-582 690-458 1152-744 1366-520 424 445 448 1265 68 2082-182 393-437 807-739 1226-142 198-349 338-559 482 149 159 292 319 407 500 279 442 472 924 649 1324 364 822 464 1506 166 1835-299 329-749 28-1434-440-333-228-690-528-1059-871-174-163-336-354-499-551-194 223-379 446-600 615-402 308-840 519-1203 715-748 400-1371 510-1670 181s-26-823 400-1576c207-366 481-759 793-1164 112-146 238-283 371-418-197-215-392-424-553-653-295-423-325-1082-528-1453-416-759-677-1268-474-1503zm56900 59122c405-467 1152-492 1894-75 357 201 734 482 1114 812 138 120 244 280 345 452 138-150 276-294 424-419 385-324 984-358 1321-581 690-458 1152-744 1366-520 424 444 447 1265 68 2081-182 394-437 807-739 1227-142 198-350 337-560 482 150 158 293 319 408 500 279 442 471 923 649 1323 364 822 464 1507 165 1836s-748 29-1433-440c-333-228-690-528-1059-871-175-163-336-354-499-551-194 223-379 447-600 615-402 308-840 519-1203 714-747 401-1371 510-1670 183-299-330-26-824 400-1577 207-366 480-759 792-1164 113-146 239-283 372-418-197-216-392-424-553-654-295-423-325-1082-529-1452-415-760-676-1268-473-1503zM61576 12156c404-466 1150-492 1893-74 358 200 733 481 1115 812 137 119 243 280 344 452 137-150 275-294 423-420 385-325 985-358 1321-581 691-457 1153-745 1368-521 424 446 446 1267 68 2083-183 393-439 806-740 1226-142 198-349 338-560 482 150 159 293 319 407 500 280 442 473 924 650 1323 365 822 463 1508 166 1836-300 330-749 28-1434-440-333-228-690-528-1058-871-175-163-337-354-500-551-194 223-380 446-599 615-403 308-841 519-1204 714-748 402-1371 510-1669 183-300-330-26-824 400-1577 207-367 479-759 792-1164 112-146 239-282 371-418-197-215-392-423-553-653-295-424-326-1082-528-1453-417-759-677-1268-473-1503zm126214 18330c0 337-247 610-554 610-306 0-555-273-555-610s249-610 555-610c307 0 554 273 554 610zm42220-14417c0 360-265 652-592 652s-593-292-593-652 266-652 593-652 592 292 592 652zm-85484 53828c0 1000-738 1811-1647 1811-910 0-1648-811-1648-1811s738-1811 1648-1811c909 0 1647 811 1647 1811zm74802-37832c0 577-427 1046-951 1046-526 0-951-469-951-1046 0-578 425-1047 951-1047 524 0 951 469 951 1047zm-1719 82503c0 507-374 919-835 919-462 0-836-412-836-919 0-508 374-919 836-919 461 0 835 411 835 919zm12792-56413c0 596-440 1080-983 1080s-983-484-983-1080c0-597 440-1081 983-1081s983 484 983 1081zm35119 20473c0 219-162 397-362 397s-362-178-362-397c0-220 162-399 362-399s362 179 362 399zm-98978-41978c0 671-495 1215-1104 1215-610 0-1105-544-1105-1215 0-670 495-1213 1105-1213 609 0 1104 543 1104 1213zM94364 54556c0 440-324 797-724 797s-724-357-724-797c0-439 324-796 724-796s724 357 724 796zm17323 47021c0 663-488 1200-1090 1200-603 0-1091-537-1091-1200 0-662 488-1199 1091-1199 602 0 1090 537 1090 1199zM267141 7496c0 314-231 568-517 568-285 0-516-254-516-568s231-569 516-569c286 0 517 255 517 569zm25255 30601c0 242-178 438-398 438s-398-196-398-438c0-241 178-437 398-437s398 196 398 437zm-29771-20800c0 767-565 1389-1263 1389s-1263-622-1263-1389 565-1388 1263-1388 1263 621 1263 1388zm16849 9300c0 786-580 1423-1294 1423-715 0-1295-637-1295-1423 0-787 580-1424 1295-1424 714 0 1294 637 1294 1424zm-31557 77596c0 776-572 1405-1279 1405-706 0-1279-629-1279-1405 0-777 573-1407 1279-1407 707 0 1279 630 1279 1407zM124466 13664c0 1027-757 1859-1690 1859-935 0-1691-832-1691-1859s756-1859 1691-1859c933 0 1690 832 1690 1859zm160448 67174c0 191-141 346-315 346-175 0-316-155-316-346 0-192 141-348 316-348 174 0 315 156 315 348zm-21886 20811c0 245-181 444-403 444s-403-199-403-444c0-244 181-443 403-443s403 199 403 443zm25815 6268c0 301-222 546-496 546-275 0-497-245-497-546 0-302 222-547 497-547 274 0 496 245 496 547zm13031-8854c0 1049-774 1899-1728 1899s-1727-850-1727-1899c0-1050 773-1899 1727-1899s1728 849 1728 1899zm-156601-7619c0 532-393 963-877 963-483 0-875-431-875-963s392-963 875-963c484 0 877 431 877 963zM18937 56714c0 625-461 1131-1029 1131s-1028-506-1028-1131c0-624 460-1131 1028-1131s1029 507 1029 1131zm-7568 44433c0 377-278 682-620 682-343 0-621-305-621-682s278-683 621-683c342 0 620 306 620 683zM1137 68425c0 346-254 625-568 625-315 0-569-279-569-625 0-345 254-626 569-626 314 0 568 281 568 626zm93325-34201c0 341-252 619-562 619-311 0-563-278-563-619 0-342 252-619 563-619 310 0 562 277 562 619zm-17152-4423c0 678-501 1228-1117 1228-617 0-1117-550-1117-1228 0-679 500-1229 1117-1229 616 0 1117 550 1117 1229zM55529 10255c0 655-482 1185-1076 1185-595 0-1078-530-1078-1185 0-654 483-1184 1078-1184 594 0 1076 530 1076 1184zm-20367 8588c0 730-538 1321-1202 1321s-1202-591-1202-1321 538-1321 1202-1321 1202 591 1202 1321zM19796 33672c0 339-251 615-560 615s-559-276-559-615c0-340 250-615 559-615s560 275 560 615zM22704 221c0 122-90 221-201 221s-201-99-201-221 90-221 201-221 201 99 201 221zm0 117874c0 122-90 221-201 221s-201-99-201-221 90-221 201-221 201 99 201 221zM40356 2814c0 514-379 931-847 931s-847-417-847-931c0-515 379-932 847-932s847 417 847 932zM9493 49740l1943-1552h92l1749 1397 120-96-668-2260 28-97 1749-1397-46-156h-2161l-75-59-668-2261h-148l-668 2261-75 59H8503l-46 156 1750 1397 28 97z"/><path class="fil0" d="M9556 49835c-101-118 73-450 468-930 198-240 451-516 752-823 249-214 542-593 885-457 170 41 340 198 519 321l64 42 9-2 12-8-66-173-19 42 4 57 4 35 3 20-64-206c-27-90-55-181-84-279-150-516 113-914 576-1203 157-123 61-40 61-40l-52 51-87 93 132-58 66-43 16 3 10 2-19 1-171 1c-113-2-230 5-340-6-211-25-391-131-503-304-127-171-171-446-248-675l42 135-14-67-39-91 7-11 3-10 2-5-4 10-60 201c-71 277-168 533-342 661-167 137-416 153-668 136l-213-5-3-5-10-10-42-23c-39-17-103-36-192-55-137 53-41 99 32 227l64 79 124 115 166 146c117 119 210 217 240 366 0 140-31 288-87 432-113 321-174 464-245 638-139 338-265 627-378 860-225 469-392 715-481 682-91-32-71-330 27-844 49-256 117-567 201-924 41-174 100-410 101-447l19-122-101-78c-45-35-31-1-125-93-93-92-188-186-285-282-237-241-483-492-737-750-128-135-258-270-391-409l-182-205c5-65 17-201 100-191 701-130 1440-266 2206-407l81-8 28-84c149-320 300-644 453-971 173-369 348-741 525-1116 54-93 63-212 155-191 108-11 131 32 175 90l253 305c89 107 180 210 275 308 163 506 330 1021 498 1542l82 23 17-13c2-5-14-14 104 7l514 84c349 68 689 134 1030 202l634 134 140 37 44 131c36 91-16 129-33 202-93 256-185 506-272 746-472 376-925 737-1366 1088l-13 6-2 4c73 825 147 1658 220 2471 38 100-70 125-136 162l-238-130c-164-106-324-209-480-310-303-199-587-388-853-563-132-89-261-174-388-258l-121-121-135-16-132 84c-335 230-628 433-874 603-497 331-798 497-848 437zm12256-95l1943-1552h92l1749 1397 121-96-668-2260 28-97 1749-1397-46-156h-2162l-74-59-668-2261h-149l-668 2261-74 59h-2162l-46 156 1749 1397 29 97z"/><path class="fil0" d="M21875 49835c-100-118 74-450 469-930 198-240 450-516 752-823 249-214 542-593 885-457 169 41 340 198 518 321l59 42-2-7-6-13-19-32-55-71 36-59-12 52 4 53 4 33 3 18-64-209c-28-90-55-181-85-279-149-516 114-914 577-1203 157-123 61-40 61-40l-52 51-88 93 133-58 66-43 15 3 10 2-19 1-171 1c-113-2-230 5-340-6-211-25-391-131-502-304-127-171-171-446-248-675l42 135-14-67-40-91 7-11 4-10 1-5-3 10-60 201c-71 277-168 533-342 661-168 137-416 153-668 136l-214-5-3-5-9-10-42-23c-39-17-103-36-192-55-137 53-41 99 32 227l100 116c140 129 296 243 391 377 242 258-4 633-84 921-167 425-313 768-446 1058-264 574-459 883-559 846-101-36-65-400 63-1022 72-316 156-685 252-1110l24-138-42-114-120-74c-111-108-223-219-339-332-237-241-483-492-737-750-129-135-259-270-391-409l-182-205c4-65 17-201 99-191 702-130 1440-266 2207-407l80-8 28-84c149-320 301-644 453-971 174-369 348-741 525-1116 54-93 64-212 156-191 108-11 130 32 175 90l252 305c90 107 181 210 275 308 164 506 330 1021 498 1542l82 23 17-13c2-5-13-14 105 7l514 84c349 68 689 134 1030 202l633 134 141 37 43 131c37 91-15 129-32 202-93 256-185 506-273 746-472 376-924 737-1365 1088l-14 6-1 4c64 739 130 1481 194 2213-1 182 101 363-88 412-105 19-220-62-326-93-216-86-422-183-616-277-195-166-359-307-517-441-178-151-352-299-522-442l-122-121-134-16-133 84c-334 230-627 433-874 603-497 331-797 497-848 437zm12257-95l1943-1552h92l1749 1397 120-96-668-2260 29-97 1748-1397-45-156h-2162l-75-59-667-2261h-149l-668 2261-75 59h-2161l-46 156 1749 1397 28 97z"/><path class="fil0" d="M34195 49835c-101-118 74-450 469-930 197-240 450-516 751-823 249-214 542-593 885-457 170 41 340 198 519 321l64 42 9-2 12-8-66-173-19 42 4 57 4 35 3 20-63-206c-28-90-56-181-85-279-150-516 114-914 577-1203 156-123 60-40 60-40l-51 51-88 93 133-58 65-43 16 3 10 2-19 1-171 1c-113-2-231 5-340-6-211-25-391-131-503-304-127-171-171-446-248-675l43 135-15-67-39-91 6-11 5-10 1-5-3 10-61 201c-71 277-167 533-341 661-169 137-417 153-668 136l-214-5-3-5-9-10-43-23c-39-17-103-36-192-55-137 53-41 99 32 227l64 79 125 115 165 146c117 119 210 217 240 366 1 140-31 288-87 432-112 321-174 464-245 638-138 338-265 627-378 860-225 469-391 715-481 682-91-32-71-330 27-844 49-256 117-567 201-924 41-174 100-410 101-447l19-122-101-78c-46-35-31-1-125-93-93-92-188-186-284-282-238-241-484-492-738-750-128-135-258-270-391-409l-181-205c4-65 17-201 99-191 701-130 1440-266 2207-407l80-8 28-84c149-320 300-644 453-971 173-369 348-741 525-1116 54-93 63-212 155-191 108-11 131 32 175 90l253 305c90 107 180 210 275 308 163 506 330 1021 498 1542l82 23 16-13c3-5-13-14 106 7l513 84c349 68 689 134 1031 202l633 134 141 37 43 131c36 91-16 129-32 202-94 256-185 506-273 746-472 376-925 737-1365 1088l-14 6-2 4c74 825 148 1658 220 2471 38 100-70 125-136 162l-238-130c-164-106-324-209-480-310-303-199-587-388-853-563-132-89-261-174-388-258l-121-121-134-16-133 84c-335 230-628 433-874 603-497 331-798 497-848 437zm293809 23142c-316 545-823 910-1339 1186-489 296-769 654-904 946-131 281-82 532-22 601l-90-32-139 99c5 114 95 138 156 215l132 52 68 14 41 21 27 17 15 7 7 5 4 2 1 1-47 55-106 121-485 558-240 278-60 69-15 17c-385-252 515 354 423 290v-14l5-85c19-92-41-26-65-20l-184-28-23-6 50-8 102-54c136-102 253-319 310-542 112-494 96-1143 171-1687 71-550 245-1008 579-1293 336-283 677-297 1093-81 408 226 930 664 1479 1568 265 459 490 1023 598 1727 51 351 71 739 36 1157-21 217-46 409-104 661l-93 343-20 79c37-86-99 286-234 486-140 230-320 445-515 616-81 71-176 144-251 194l-26 13-51 26-106 51-196 111c-139 56-281 105-434 133-305 60-636 82-988 31-699-79-1439-306-2157-599-685-275-1449-507-2125-1028-664-511-1144-1342-1240-2337-177-2040 237-4254 1182-5455 547-696 1256-973 1897-1030 650-52 1230 78 1721 189 1016 224 1689 879 2004 1323 273 431 314 765 158 1037zm0-16663c-316 546-823 911-1339 1186-489 297-769 654-904 946-131 281-82 533-22 601l-90-31-139 98c5 115 95 139 156 215l132 52 68 15 41 21 27 16 15 8 7 5 4 2 1 1-47 54-106 121-485 559-240 278-60 69-15 17c-385-253 515 353 423 290v-14l5-86c19-91-41-26-65-19l-184-28-23-7 50-7 102-54c136-103 253-320 310-543 112-493 96-1142 171-1687 71-550 245-1008 579-1292 336-283 677-298 1093-82 408 227 930 665 1479 1568 265 459 490 1024 598 1728 51 351 71 739 36 1157-21 217-46 409-104 660l-93 344-20 79c37-87-99 286-234 485-140 230-320 445-515 616-81 72-176 145-251 195l-26 12-51 26-106 51-196 112c-139 55-281 104-434 132-305 61-636 83-988 32-699-80-1439-306-2157-599-685-276-1449-507-2125-1029-664-511-1144-1341-1240-2337-177-2039 237-4253 1182-5455 547-696 1256-972 1897-1030 650-52 1230 79 1721 189 1016 225 1689 880 2004 1323 273 432 314 766 158 1037zm0-19066c-316 545-823 910-1339 1186-489 296-769 653-904 945-131 282-82 533-22 601l-90-31-139 99c5 114 95 138 156 215l132 52 68 14 41 21 27 16 15 8 7 5 4 2 1 1-47 55-106 120-485 559-240 278-60 69-15 17c-385-252 515 354 423 290v-14l5-86c19-91-41-26-65-19l-184-28-23-7 50-7 102-54c136-103 253-320 310-543 112-493 96-1142 171-1687 71-550 245-1008 579-1292 336-283 677-298 1093-82 408 227 930 665 1479 1569 265 458 490 1023 598 1727 51 351 71 739 36 1157-21 217-46 409-104 660l-93 344-20 79c37-87-99 286-234 486-140 229-320 444-515 615-81 72-176 145-251 195l-26 13-51 26-106 50-196 112c-139 56-281 105-434 132-305 61-636 83-988 32-699-80-1439-306-2157-599-685-276-1449-507-2125-1029-664-510-1144-1341-1240-2337-177-2039 237-4253 1182-5454 547-697 1256-973 1897-1031 650-52 1230 79 1721 190 1016 224 1689 879 2004 1323 273 431 314 765 158 1037zm-16521-6454c424 444 447 1265 68 2082-183 393-438 806-739 1226-114 158-268 278-433 394 122 133 237 269 333 420 279 442 471 924 649 1323 364 822 464 1508 165 1836-299 329-748 29-1433-440-333-227-690-528-1059-871-158-147-305-318-452-495-232 259-442 530-699 727-402 308-840 519-1203 714-748 401-1371 510-1670 183-299-330-26-824 400-1577 207-366 480-759 792-1164 142-184 307-355 478-526-215-237-431-462-607-713-295-424-325-1083-528-1453-416-760-677-1267-474-1503 405-466 1152-491 1894-74 357 200 734 481 1114 812 156 135 272 323 385 520 107-114 216-223 331-320 385-324 984-358 1321-581 691-458 1153-744 1367-520zM35384 82621c-355 511-778 920-928 1167l-95 149-16 31-4 7 27-107 1-13 4-24 6-48 13-97 25-175c36-171 50-291 61-365 37-308 22-371 13-431-42-59 20 36 160 100l233 70 25 5 13 2h1l286 20-1 1v6l-6 31-13-19-270 74-23 15-8 7h-1l-71 34h1l2 1 3 2 7 4 14 8 15-29-17 47-8 113 1 8h1l-3 70 1-1 3-3 6-6 10-10-14-21-21-34 83 29c166 22 364-97 560-164 196-70 380-1 471 263 86 259 57 655-199 1033-62 93-144 182-243 263l-184 117-10 12-5 5-3 2-1 1h-1l-53 19-5 2-90 38c-247 91-520 102-769 44-217-51-411-168-578-324l-121-126-123-157-85-131-83-147c-194-352-609-708-573-1143l19-187 20-141c22-136 51-280 115-457 64-172 167-388 357-602 116-118 172-183 398-320 61-36 243-118 371-143 319-69 530 3 647 70 131 76 144 149 202 230 96 162 161 329 235 415 306 360 387 654 215 910zm533-5883c-380 489-833 863-1000 1101-89 107-145 192-168 251l-3 7 3-90-5-195c-10-126-32-238-55-313l-17-48-8-20-2-4-1-2-19-91-1 1-1 2-12 12 4 7-3-3-80-79-62-36-26-9-9-2-41-13-29 4-195-2-47 18h-2c-13-21 28 49-29-48l9-6 39-27 75-54 151-107c109-76 225-157 345-242l169-120 33-8 2 10v1l-227-212v1l1 3 2 5-11 121-9 252c21 332 187 749 191 1211 2 457-278 629-800 644-126 2-262-18-401-64l-200-79-5-1-2-1h-1l-219-205-8-4-15-9-31-20-59-40-25-18-13-11-6-5v-1l-166-257-10-23c-59-122-98-247-121-362-45-234-36-413-11-584 44-282 156-541 281-756 122-205 203-439 334-663 127-223 323-431 525-490 428-128 795-178 1091-89 348 109 515 627 666 810 334 387 417 707 234 952zm-303-6154c-426 433-847 743-1014 977-92 98-113 191-146 244-27 46-17-213-98-228l-129-9-3-1 295 20h-7l-10 1-21 1-42-2-42-5-10-3c-6-35-3 98-19-172-13-182-26-368-38-555l-19-278-10-138c21-25-53-43 46-73l-1 1 102 109 92 43 16 5h117v3l2 5 2 12 3 23 76-24-25 18-176 201c-111 158-192 363-311 554-216 386-570 363-951-53-177-217-323-491-311-973l38-256c28-108 71-217 136-336 64-118 151-247 283-376 66-64 140-126 228-182l173-94 70-29c104-23 204-45 334-74l20-11 40-42 39-60 19-33 10-17 5-9 1-1 1-2 298 21 1-1 3-4 234-118c147 65 332 68 498 197 204 153 225 666 283 840 157 379 130 662-82 884zM13164 83545c0 999-738 1810-1647 1810-910 0-1647-811-1647-1810 0-1001 737-1812 1647-1812 909 0 1647 811 1647 1812zm12960-11623c425 445 447 1266 68 2082-182 394-438 807-739 1227-113 157-268 278-433 394 123 133 237 269 333 420 280 441 472 923 649 1323 365 822 464 1507 166 1836-300 329-748 27-1434-441-332-228-689-527-1058-871-159-147-306-317-453-494-232 258-442 529-699 727-402 308-841 519-1204 714-747 401-1370 510-1668 183-300-330-27-824 400-1577 207-367 479-760 792-1165 142-184 307-354 478-526-215-236-432-462-608-713-295-423-325-1082-528-1452-416-760-676-1269-473-1503 404-467 1151-493 1893-75 358 201 733 481 1115 812 155 135 271 323 384 521 107-114 216-223 331-320 385-325 985-358 1321-582 691-457 1153-744 1367-520zm230374-9237c0 1027-757 1859-1691 1859s-1690-832-1690-1859 756-1859 1690-1859 1691 832 1691 1859zM71638 75711c0 999-738 1811-1647 1811s-1647-812-1647-1811c0-1001 738-1812 1647-1812s1647 811 1647 1812zm-7828-17094c-354-512-778-920-928-1168l-94-148-17-32-3-7 29 141 4 23 6 47 13 94 24 170c35 168 50 286 59 359 39 304 24 368 14 428-42 57 19-37 160-101l233-71 25-4 13-2 287-20v-3l-1-4-6-31-13 18-270-72-23-16-9-7-70-34v-1l2-1 3-2 7-4 14-7 16 29-19-46-7-116 1-6-1-69 3 2 5 6 12 11-15 21-20 34 83-28c166-24 363 96 558 163 197 70 380 1 473-263 85-259 56-655-199-1034-62-93-145-182-244-262l-183-117-11-11-6-6-2-3-1-1-54-18-5-3-91-37c-247-91-520-101-769-44-216 51-411 167-577 325l-120 125-124 156-85 133-84 147c-193 350-609 707-572 1142l19 188 19 140c22 135 51 280 117 458 63 172 166 388 358 601 115 118 172 184 398 320 58 34 240 118 368 142 321 70 531-2 649-69 133-76 140-149 202-231 95-161 160-327 234-415 306-360 387-653 215-909zm533-6050c-380-489-833-863-1001-1102-88-106-142-192-167-251l-3-7 3 92-6 195c-9 125-30 236-54 311l-17 49-8 20-2 4-1 3-18 90-1-2-2-2-12-11 4-9-2 4-81 79-62 36-26 9-9 2-42 12-28-2-196 1-47-18-2-1c-12 22 28-48-29 47l10 7 38 27 76 55 152 106c110 78 225 160 347 245l171 121 29 4 2-10v-2l-228 215v-2l2-2 1-6-11-121-10-251c22-333 188-749 192-1211 2-458-279-629-799-645-126-2-262 19-402 64l-200 78-4 1-2 1h-1l-1 2-220 205-8 5-15 9-30 19-59 41-26 18-12 10-6 5-1 1-163 255-12 22c-58 123-97 248-121 363-46 236-36 414-11 585 44 282 155 541 281 756 122 205 203 439 334 663 128 223 322 431 524 490 430 129 796 178 1092 90 348-109 515-628 667-811 333-387 417-707 233-951zm-303-5593c-426-434-847-745-1014-978-92-98-112-191-145-244-27-46-17 213-99 228l-128 9h-4l296-20h-6l-10-1h-21l-42 1-42 7c-9 27-11-56-25 64-13 201-26 407-41 614l-21 307-10 154c21 27-53 49 46 79h-2l103-111 91-42 17-5h117l1-1v-2l1-6 1-11 4-22 76 23-25-18-178-201c-109-158-190-363-310-554-216-385-570-363-950 53-178 217-324 490-312 972l38 258c29 106 72 217 135 335 66 119 152 247 283 376 67 65 142 126 230 183l174 94 70 28c103 23 203 46 332 73l20 12 40 42 39 60 19 33 10 17 4 8 2 2v2h1l298-20 5 4 234 118c147-65 332-68 496-197 206-152 226-666 284-840 157-378 131-662-82-883zm-124-2877c192-609 232-1236 136-1581-47-167-120-300-210-406l-117 25c-20 25-9 12-106 180-65 111-117 191-162 254l-105 129-19 20h-1l-80 105h-1v-2l-1-4-3-7-4-13 10 2-89 40-133 10 117 84c83 62 174 236 249 300-22 26 15 71-24-33-86-297 75-714 131-1168 53-450-205-672-732-691-135 4-249 11-427 92-105 31-290 139-454 317-72 80-143 182-203 306l-52 119-17 52c-43 129-47 162-65 248-53 301-19 582 37 816 53 226 57 458 111 703l62 199-4 40c60 88 35 69 58 107 47 98 108 183 180 236 300 221 505 365 668 383 187 10 486-336 639-382 315-91 513-175 611-480zm-179-5442c-159-271-382-478-577-660-95-91-183-180-221-277 89 234 112 415 106 479l-2 19-31 1 65-44c58-79 234-213 474-307 103-39 211-74 312-97l-26-13-75-52-14-8h-5l-101-4c-136-7-226-15-308-26-150-21-234-49-283-69l20-6 46 51c44 38 105 99 180 196l120 171 91 147 33-32 40-18 3-1h2v-1l-277 95v-1h1l10-2 20-5 41-10c68 238-49-632-101-1116l-6-52c-24-5 49-25-54-17h6l10 2-8 4-9 26-128 148-24 15-141 45 2 26-45 12-143 14-156-20 86 46c213 240 256 836 608 1091 168 142 314 184 479 138 162-52 363-179 589-527 188-344 439-902 46-1764-103-187-255-402-564-576-76-42-163-79-256-105l-199-40h-10l-334 15-80 29-334 119-107 64-247 155c-169 117-421 193-693 428-70 65-125 106-210 232-114 202-39-19-153 227-97 185-152 373-164 534-21 359-9 511 8 746 23 229 66 461 175 706 122 278 392 557 738 726 179 85 338 130 587 175l63-19 24-12 6-3 2-1 59 19h6l29-2c85-7 158-13 218-19 567-100 708-389 796-544 77-176 64-316-15-451zm255185 30580c0-244-180-443-403-443-222 0-403 199-403 443s181 443 403 443c223 0 403-199 403-443zm-233 38435c0-532-393-963-877-963s-876 431-876 963 392 963 876 963 877-431 877-963zm-70789-31425c-355-511-778-920-928-1167l-95-149-16-31-4-7 26 107 2 13 4 24 6 48 13 97 25 175c36 171 50 291 61 365 37 308 22 371 13 432-42 58 20-37 160-101l233-70 25-5 13-2h1l286-20-1-1v-6l-6-31-13 19-271-74-22-15-8-7h-1l-71-34h1l2-1 3-2 7-4 13-8 16 29-17-47-8-113 1-8h1l-3-70 1 1 3 3 6 6 10 10-14 21-21 34 83-29c166-22 363 97 560 165 196 69 380 0 471-264 86-259 57-655-199-1033-62-93-144-182-243-263l-184-117-10-12-5-4-3-3-1-1h-1l-53-19-5-2-90-38c-247-91-521-102-770-44-216 51-411 168-577 325l-121 125-123 157-86 131-82 148c-194 351-609 707-574 1142l20 187 20 141c22 136 51 280 115 457 64 172 167 388 357 602 115 118 172 183 398 320 61 36 242 118 371 143 319 70 530-3 647-70 130-76 144-149 202-230 96-161 161-329 235-415 306-360 387-654 215-910zm254 5883c-380-489-833-863-1001-1101-88-107-144-191-167-251l-3-7 3 90-6 195c-9 126-31 238-54 313l-17 48-8 20-2 4-1 2-19 91-1-1-1-2-12-12 4-7-3 4-80 78-62 36-26 9-9 2-41 13-29-4-195 2-47-18h-2c-13 21 28-49-29 48l9 6 39 27 75 54 151 107c109 76 224 157 345 242l169 120 33 8 2-10v-1l-227 212v-1l1-3 2-5-12-121-8-251c21-332 186-750 191-1212 2-457-279-629-800-644-126-2-262 18-402 64l-200 79-4 1-2 1h-1l-219 205-8 4-15 9-31 20-59 40-26 18-12 11-6 5-1 1-165 257-10 23c-59 122-98 247-122 362-44 234-36 413-10 584 44 282 155 541 281 756 121 205 203 439 333 663 128 223 324 431 525 490 429 128 796 178 1092 89 348-109 515-627 666-810 334-387 417-707 234-952zm-886 6154c-426-433-847-743-1014-977-92-98-113-191-146-244-27-46-17 213-98 228l-129 9-3 1 295-20h-7l-10-1-21-1-42 2-42 5-10 3c-5 35-3-97-19 172-13 183-26 368-38 555l-19 278-10 138c21 25-53 43 46 73l-1-1 102-109 92-43 16-5h117v-3l2-5 2-12 3-23 76 24-25-18-176-201c-111-158-192-363-311-554-216-386-569-363-951 53-177 217-323 491-311 973l38 256c28 108 71 217 136 336 64 118 151 247 283 376 66 64 140 126 228 182l173 94 70 29c104 23 205 45 334 74l20 11 40 43 39 59 19 33 10 17 5 9 1 1 1 2 298-20h1l3 4 234 118c147-65 332-68 498-196 204-154 225-667 283-841 157-379 130-662-82-884zM87527 117504c404 466 1150 492 1893 74 358-200 733-481 1115-812 155-135 271-323 384-520 107 114 216 222 331 319 385 326 985 359 1321 582 690 457 1153 744 1367 521 424-446 447-1267 68-2083-182-394-438-806-739-1226-114-158-268-279-433-394 122-133 237-269 332-420 280-442 473-924 650-1323 365-822 463-1508 166-1836-300-330-749-28-1434 441-333 227-690 527-1058 870-159 148-306 318-453 495-232-259-442-530-699-727-403-308-841-520-1204-714-747-402-1371-510-1669-183-299 330-26 824 400 1577 207 367 480 759 792 1164 143 184 308 355 479 526-216 237-432 462-608 713-295 424-325 1082-528 1453-417 759-677 1268-473 1503zm161056-71407l1944-1553h92l1749 1397 120-96-668-2260 28-97 1749-1397-46-156h-2161l-75-59-668-2261h-149l-668 2261-74 59h-2162l-46 156 1749 1397 29 97z"/><path class="fil0" d="M248646 46348c-100-119 74-450 469-930 198-240 450-517 752-823 249-214 542-593 885-457 169 41 340 198 518 320l65 43 8-2 13-8-66-174-19 43 3 56 5 36 3 20-64-207c-27-90-55-180-85-278-149-517 114-914 577-1203 157-123 61-40 61-40l-52 51-88 93 133-58 66-43 15 3 11 2-20 1-170 1c-114-2-231 5-340-6-211-25-391-132-504-304-126-171-170-446-247-675l42 135-14-67-39-92 6-10 4-10 2-5-4 10-60 201c-71 276-168 533-342 660-168 137-416 154-668 137l-214-5-2-5-10-10-42-24c-39-16-103-35-192-54-138 52-41 98 32 226l64 80 124 114 166 147c117 119 209 216 240 366 0 139-31 288-87 432-113 321-174 464-245 638-139 338-266 627-378 860-225 468-392 715-482 682-90-32-71-331 27-844 49-257 118-567 202-924 40-174 100-410 101-447l19-122-101-78c-46-36-31-1-125-93-93-93-188-187-285-283-237-241-483-491-737-749-128-135-258-270-391-410l-182-204c4-65 17-202 100-191 701-130 1439-266 2206-407l80-8 28-84c149-320 301-644 453-971 174-369 349-741 525-1116 54-93 64-212 156-191 108-11 131 32 175 89l252 306c90 107 181 210 276 308 163 506 329 1020 498 1542l81 23 17-14c2-4-13-13 105 7l514 85c349 68 688 134 1030 201l633 135 141 36 43 132c37 91-15 128-32 201-93 257-185 507-272 746-472 377-925 738-1366 1088l-13 7-2 4c73 825 147 1657 219 2471 38 99-69 124-135 162l-239-131c-163-105-323-208-479-309-303-200-587-388-853-564-132-88-262-173-388-257l-122-121-134-16-133 83c-334 231-627 433-874 603-496 331-797 498-848 438zm12257-251l1943-1553h92l1749 1397 120-96-668-2260 29-97 1748-1397-45-156h-2162l-74-59-668-2261h-149l-668 2261-74 59h-2162l-46 156 1749 1397 28 97z"/><path class="fil0" d="M260966 46351c-100-119 74-451 469-931 197-240 450-516 751-823 249-214 543-593 886-457 169 42 340 198 518 321l59 42-2-6-6-14-19-32-55-71 36-59-12 52 4 53 4 33 3 18-64-209c-28-90-55-181-85-279-150-516 114-913 577-1203 157-122 60-40 60-40l-51 51-88 93 133-57 66-44 15 3 10 2-19 1-171 1c-113-2-230 6-340-6-211-25-391-131-503-304-126-171-171-446-248-675l43 135-15-67-39-91 7-11 4-9 1-6-3 11-60 200c-72 277-168 533-342 661-168 137-417 153-669 136l-213-5-3-4-9-11-42-23c-40-16-103-36-193-55-136 53-41 99 32 227l101 116c140 130 296 243 390 377 243 259-3 633-83 921-167 425-313 768-446 1058-264 574-459 883-559 846-101-35-65-400 63-1022 71-315 155-685 251-1109l24-139-42-114-119-74c-111-108-224-219-339-332-238-241-484-492-738-750-128-134-258-270-390-409l-182-205c4-65 17-201 99-191 701-129 1440-266 2207-407l80-8 28-84c149-320 300-643 453-971 173-368 348-741 524-1115 55-94 64-212 157-191 108-12 130 31 174 89l253 305c89 108 181 210 275 308 163 506 330 1021 498 1542l82 24 17-14c2-5-14-13 105 7l513 84c349 68 689 135 1031 202l633 134 141 37 43 131c36 92-15 129-32 202-93 256-185 506-273 746-472 376-925 738-1365 1088l-14 7-2 3c65 739 131 1481 195 2213-1 182 100 363-89 413-104 18-220-63-326-93-215-87-421-184-616-278-195-166-358-306-517-441-177-151-352-298-521-441l-122-121-134-17-133 84c-335 230-627 433-874 603-497 331-797 497-848 438zm12256-254l1944-1553h92l1748 1397 121-96-668-2260 28-97 1749-1397-46-156h-2161l-75-59-668-2261h-148l-669 2261-74 59h-2161l-46 156 1749 1397 28 97z"/><path class="fil0" d="M273286 46348c-101-119 73-450 468-930 198-240 451-517 752-823 249-214 542-593 885-457 170 41 340 198 519 320l64 43 9-2 12-8-66-174-19 43 4 56 4 36 3 20-63-207c-28-90-56-180-85-278-150-517 113-914 577-1203 156-123 60-40 60-40l-52 51-88 93 134-58 65-43 16 3 10 2-19 1-171 1c-113-2-231 5-340-6-211-25-391-132-503-304-127-171-171-446-248-675l42 135-14-67-39-92 6-10 4-10 2-5-4 10-60 201c-71 276-168 533-342 660-168 137-416 154-668 137l-213-5-4-5-9-10-42-24c-39-16-103-35-192-54-137 52-41 98 32 226l64 80 124 114 166 147c117 119 210 216 240 366 0 139-31 288-87 432-113 321-174 464-245 638-139 338-266 627-378 860-225 468-391 715-481 682-91-32-71-331 26-844 50-257 118-567 202-924 41-174 100-410 101-447l19-122-101-78c-46-36-31-1-125-93-93-93-188-187-285-283-237-241-483-491-737-749-128-135-258-270-391-410l-181-204c4-65 16-202 99-191 701-130 1440-266 2207-407l80-8 28-84c149-320 300-644 453-971 173-369 348-741 525-1116 54-93 63-212 155-191 108-11 131 32 175 89l253 306c89 107 180 210 275 308 163 506 329 1020 498 1542l82 23 16-14c3-4-13-13 106 7l513 85c349 68 689 134 1030 201l633 135 141 36 44 132c36 91-16 128-32 201-94 257-186 507-273 746-472 377-925 738-1365 1088l-14 7-2 4c73 825 148 1657 220 2471 38 99-70 124-136 162l-238-131c-164-105-324-208-480-309-303-200-587-388-853-564-132-88-261-173-388-257l-121-121-134-16-133 83c-335 231-628 433-874 603-498 331-798 498-848 438zm-87251 6072c61 294-447 571-1503 822-1053 211-2672 424-4795 191-1060-108-2233-342-3433-645-1204-303-2399-642-3639-865-1240-232-2565-348-4019-359-1442-18-3031 44-4590 233-1516 175-2967 482-4465 996-1493 494-3247 1323-5403 1897-2130 582-4401 858-6607 924-2207 68-4521-2-6947-449-2024-353-6347-1826-8667-2642-1917-670-3353-1246-4859-1567-1728-383-3588-563-5458-638-1873-79-3621-19-5281 262-1650 255-3346 838-5244 1332-1903 489-3847 749-5638 844-1846 112-3560 41-5213-91-1650-127-3238-428-4669-827-1435-401-2685-912-3770-1343-1088-433-2042-795-2938-1044-3587-991-5919-968-5958-1327-61-295 447-571 1503-822 1053-211 2672-424 4795-191 1059 108 2233 342 3433 645 1204 303 2398 642 3639 864 1240 233 2565 348 4018 360 1443 18 3032-44 4591-233 1516-175 2967-482 4465-996 1493-495 3246-1324 5403-1897 2130-582 4401-858 6607-924 2207-68 4521 1 6947 449 2024 352 6347 1826 8667 2642 1917 669 3353 1246 4859 1567 1728 382 3588 563 5458 638 1873 78 3620 19 5281-263 1650-255 3346-838 5244-1331 1903-489 3847-750 5637-844 1847-112 3561-41 5214 90 1650 127 3238 429 4669 828 1435 401 2685 912 3770 1342 1088 433 2041 796 2938 1044 3587 991 5919 969 5958 1328zM50743 17218c145-20 286 143 376 560 68 404-40 1112-491 1777-421 668-1121 1240-1604 1846-242 304-392 595-428 861-45 252-10 643 110 862 101 221 328 461 726 768 392 310 927 633 1532 1190 299 277 618 646 880 1118 251 475 449 1059 480 1608 62 559 8 1122-160 1709-174 572-478 1100-803 1481-564 676-1142 1062-1587 1408-461 340-739 618-852 823-121 170-162 561-103 804 57 239 308 568 761 936 423 357 1000 730 1584 1380 290 308 575 744 774 1229 106 238 157 508 224 764 41 256 56 513 73 769-9 257-31 515-60 770-63 258-118 526-216 770-196 488-474 933-766 1246-582 658-1166 1036-1597 1385-461 361-725 677-813 920-83 242-73 658 40 872 103 245 386 560 834 919 437 364 995 756 1529 1403 309 361 589 861 756 1392 154 549 205 1082 145 1603-76 1059-701 2059-1287 2538-585 525-1124 837-1544 1153-425 313-712 600-858 910-157 311-186 764-125 1105 61 350 249 683 508 999 525 626 1209 1162 1633 1760 443 601 597 1232 562 1625-38 398-146 580-245 579-255-8-235-705-1040-1376-413-375-1059-702-1873-1410-394-357-849-886-1087-1628-225-739-273-1534-2-2379 270-819 822-1431 1312-1876 498-452 983-811 1320-1173 352-372 448-639 470-1013 2-414-60-677-374-1019-262-303-702-630-1218-1041-500-405-1158-964-1576-1900-407-955-435-1977-111-2971 363-1007 1056-1631 1593-2080 534-435 1000-797 1257-1150 257-363 289-567 258-904-48-352-149-453-409-732-265-272-721-584-1265-1030-544-462-1282-1120-1695-2209-373-1093-345-2182 86-3234 450-1031 1154-1621 1670-2040 530-417 964-732 1206-999 281-305 344-435 388-804 20-319-2-566-307-972-293-389-758-794-1230-1267-468-470-987-1072-1253-1853-269-806-230-1580-23-2286 218-715 651-1235 1037-1590 797-695 1452-1031 1883-1420 853-717 802-1471 995-1486zm121316 93846c20 145-143 287-560 377-404 68-1112-41-1777-491-668-422-1240-1121-1846-1604-304-243-595-392-861-429-252-44-643-9-862 110-221 102-461 329-768 727-310 392-633 927-1190 1531-277 300-646 618-1117 880-476 252-1059 450-1609 481-559 62-1122 7-1709-160-572-175-1100-479-1480-803-677-565-1063-1143-1409-1587-340-462-618-740-823-852-170-122-561-162-803-103-240 57-569 308-937 760-357 424-729 1001-1379 1585-309 290-745 574-1230 774-238 106-507 157-764 224-256 41-513 55-769 72-257-8-515-30-770-60-258-63-526-117-770-215-488-196-932-474-1246-766-658-582-1035-1167-1385-1597-361-461-677-725-920-813-242-84-658-73-872 39-245 103-560 386-918 834-364 438-757 995-1404 1530-360 309-861 588-1392 756-549 154-1082 204-1603 144-1059-75-2059-700-2538-1287-525-584-836-1124-1153-1544-313-424-600-711-910-858-311-156-764-185-1105-124-350 60-683 249-999 507-626 526-1162 1210-1760 1634-601 443-1232 596-1625 561-398-37-580-145-579-244 8-256 705-235 1376-1040 376-413 702-1059 1410-1874 357-394 886-848 1628-1087 739-224 1534-272 2380-2 819 270 1430 822 1875 1313 452 497 811 983 1173 1319 372 353 640 449 1013 471 414 1 677-61 1019-374 303-263 630-703 1041-1218 405-500 964-1159 1900-1577 955-407 1977-435 2972-110 1006 362 1630 1056 2080 1593 434 534 796 999 1149 1256 363 258 567 290 904 259 353-48 454-150 732-409 272-266 584-721 1030-1265 462-544 1120-1283 2210-1696 1092-372 2181-345 3233 86 1031 450 1621 1155 2040 1671 417 530 733 964 999 1206 305 281 435 344 804 387 319 20 566-1 972-306 390-293 794-758 1267-1230 470-468 1072-987 1853-1253 806-269 1580-230 2287-24 714 219 1234 651 1589 1038 695 797 1031 1451 1420 1883 717 853 1471 801 1486 994zM79779 58279c405-466 1152-491 1894-75 357 201 734 482 1114 813 138 119 244 280 345 451 138-150 276-294 424-419 385-324 984-358 1321-581 690-458 1152-744 1366-520 424 445 447 1265 68 2082-182 393-437 806-739 1226-142 198-349 338-560 482 150 159 293 319 408 500 279 442 471 924 649 1323 365 822 464 1508 165 1836-299 329-748 29-1433-440-333-227-690-528-1059-871-174-163-336-354-499-551-194 224-379 447-600 615-401 308-840 519-1203 714-747 402-1371 510-1669 183-300-330-27-823 399-1577 207-366 481-758 793-1164 112-146 238-282 371-418-197-215-392-424-553-653-295-424-325-1083-528-1453-416-760-677-1267-474-1503zm196848-46696l1943-1553h92l1749 1397 120-96-668-2260 29-97 1749-1397-46-156h-2162l-75-59-667-2260h-149l-668 2260-75 59h-2161l-46 156 1749 1397 28 97z"/><path class="fil0" d="M276690 11834c-101-119 74-450 469-930 197-240 450-517 751-823 249-214 542-593 885-457 170 41 340 198 519 320l64 43 9-2 12-8-65-174-20 43 4 56 4 36 4 20-64-207c-28-90-55-180-85-278-150-517 114-914 577-1203 156-123 60-40 60-40l-51 51-88 93 133-58 65-43 16 3 10 2-19 1-171 1c-113-2-230 5-340-6-211-25-391-132-503-304-126-171-171-446-248-675l43 135-15-67-39-92 7-10 4-10 1-5-3 10-61 201c-71 276-168 533-342 660-167 137-416 154-668 137l-213-5-3-5-9-10-42-24c-40-16-104-35-193-54-137 53-41 98 32 226l64 80 125 114 165 147c117 119 210 216 241 366 0 139-32 288-88 432-112 321-174 464-244 638-139 338-266 627-379 860-224 468-391 715-481 682-91-32-71-331 27-844 49-257 117-567 201-924 41-174 100-410 101-447l19-122-101-78c-45-36-31-1-125-93-93-93-188-186-285-283-237-241-482-491-737-749-128-135-258-270-390-410l-182-204c4-65 16-202 99-191 701-130 1440-266 2207-407l80-8 28-84c149-320 300-644 453-971 173-369 348-741 525-1116 54-93 63-212 156-191 108-11 130 32 174 89l253 306c90 107 180 210 275 308 164 506 330 1020 498 1542l82 23 17-14c2-4-14-13 105 7l513 85c349 68 689 134 1031 201l633 135 141 36 43 132c36 91-15 128-32 201-94 257-185 507-273 746-472 377-925 738-1365 1088l-14 7-2 4c74 825 148 1657 220 2471 38 99-70 124-135 162l-239-131c-164-105-324-208-480-309-302-200-587-388-853-564-132-88-261-173-388-257l-121-121-134-16-133 83c-335 231-627 433-874 603-497 331-797 498-848 438zm12256-251l1944-1553h92l1748 1397 121-96-668-2260 28-97 1749-1397-46-156h-2161l-75-59-668-2260h-149l-667 2260-75 59h-2161l-47 156 1749 1397 29 97z"/><path class="fil0" d="M289009 11837c-100-119 74-451 469-931 198-240 451-516 752-823 249-214 542-593 885-457 169 42 340 198 519 321l58 42-2-6-6-14-18-32-56-71 36-59-12 52 4 53 5 33 2 18-64-209c-28-90-55-181-85-278-149-517 114-914 578-1204 156-123 60-40 60-40l-52 51-88 93 133-57 66-44 15 3 11 2-19 1-171 1c-113-2-231 6-340-6-211-25-391-131-503-304-127-171-171-446-248-675l42 135-14-67-39-91 6-11 4-9 1-6-3 11-60 200c-71 277-168 533-342 661-168 137-416 153-668 136l-213-5-3-4-10-11-42-23c-39-16-103-36-192-55-137 53-41 99 32 227l101 116c139 130 295 243 390 377 242 259-3 633-83 921-168 426-314 768-447 1058-263 574-458 883-559 846-100-35-65-400 63-1022 72-315 156-685 252-1109l24-139-42-114-119-74c-111-108-224-219-340-332-237-241-483-492-737-750-129-134-259-270-391-409l-181-205c4-65 16-201 99-191 701-129 1439-266 2206-407l81-8 28-84c149-320 300-643 452-971 174-368 349-741 525-1115 54-94 64-212 156-191 108-12 131 31 175 89l253 305c89 108 180 211 275 308 163 506 329 1021 498 1542l81 24 17-14c3-5-13-13 105 7l514 84c349 68 689 135 1030 202l633 134 141 37 44 131c36 92-16 129-33 202-93 256-185 506-273 746-471 376-924 738-1365 1088l-14 7-1 3c65 739 130 1481 194 2213-1 182 101 363-88 413-105 18-220-63-326-93-215-87-421-184-616-278-195-166-359-306-517-441-178-151-352-298-522-442l-122-120-134-17-133 84c-334 230-627 433-874 603-497 331-797 497-848 438zm12257-254l1943-1553h92l1749 1397 120-96-667-2260 28-97 1748-1397-45-156h-2162l-74-59-668-2260h-149l-668 2260-74 59h-2162l-46 156 1749 1397 28 97z"/><path class="fil0" d="M301329 11834c-100-119 74-450 469-930 197-240 450-517 751-823 250-214 543-593 886-457 169 41 340 198 518 320l64 43 9-2 12-8-65-174-19 43 3 56 5 36 3 20-64-207c-28-90-55-180-85-278-149-517 114-914 577-1203 157-123 60-40 60-40l-51 51-88 93 133-58 65-43 16 3 10 2-19 1-171 1c-113-2-230 5-340-6-211-25-390-132-503-304-126-171-170-446-248-675l43 135-15-67-39-92 7-10 4-10 1-5-3 10-60 201c-72 276-168 533-342 660-168 137-417 154-668 137l-214-5-3-5-9-10-43-24c-39-16-102-35-192-54-137 53-41 98 33 226l63 80 125 114 165 147c118 119 210 216 240 366 1 139-31 288-86 432-113 321-175 464-246 638-138 338-265 627-378 860-224 468-391 715-481 682-91-32-71-331 27-844 49-257 118-567 201-924 41-174 101-410 101-447l19-122-100-78c-46-36-31-1-126-93-93-93-188-186-284-283-237-241-483-491-737-749-129-135-259-270-391-410l-182-204c4-65 17-202 100-191 700-130 1439-266 2206-407l80-8 28-84c149-320 300-644 453-971 173-369 348-741 525-1116 54-93 63-212 156-191 107-11 130 32 174 89l253 306c90 107 181 210 275 308 164 506 330 1020 498 1542l82 23 17-14c2-4-13-13 105 7l513 85c349 68 689 134 1031 201l633 135 141 36 43 132c37 91-16 128-32 201-94 257-185 507-273 746-472 377-925 738-1365 1088l-14 7-2 4c74 825 148 1657 220 2471 38 99-69 124-135 162l-239-131c-163-105-323-208-480-309-302-200-587-388-853-564-132-88-261-173-388-257l-121-121-134-16-133 83c-335 231-627 433-874 603-497 331-797 498-848 438zM138718 4157c405-467 1151-492 1893-75 357 201 734 482 1115 813 137 119 244 280 344 452 138-151 276-294 424-419 385-326 984-358 1321-582 691-458 1152-744 1367-520 424 445 447 1265 68 2082-183 393-438 807-739 1225-142 199-350 339-560 483 150 159 292 319 407 500 280 442 473 924 650 1324 364 822 463 1506 166 1835-300 329-750 28-1435-440-333-228-690-528-1058-871-175-163-336-354-499-551-194 223-380 446-600 614-402 309-840 520-1204 716-747 400-1370 510-1669 181-300-329-26-823 400-1576 207-366 480-759 793-1164 111-146 238-283 370-418-197-215-392-424-552-653-296-423-326-1082-529-1453-416-759-677-1268-473-1503zM35310 63671c-158-271-381-478-576-660-95-91-183-179-221-277 89 234 112 416 106 479l-2 19-31 1 64-44c59-79 235-212 475-306 102-40 211-74 312-97l-26-14-75-52-14-7-5-1-102-4c-135-7-225-15-307-26-150-21-234-49-283-69l20-6 45 52c45 38 105 98 180 195l121 172 91 147 33-33 40-17 3-1h1v-1h1l-277 94v-1l11-2 20-5 41-9c68 238-49-632-101-1117l-6-52c-24-5 49-25-54-17l6 1 10 1-9 4-8 27-129 147-23 16-141 45 2 26-45 11-143 15-156-20 85 46c213 240 256 835 609 1091 168 142 314 184 478 138 163-52 364-180 590-527 188-344 439-903 46-1764-104-188-256-403-564-576-76-43-163-79-256-106l-199-39h-10l-335 14-79 30-334 118-107 64-247 156c-169 116-421 192-693 427-70 65-125 106-210 233-114 201-39-20-153 226-98 185-152 373-164 535-22 359-10 511 8 746 22 228 65 461 174 706 123 277 393 556 739 725 179 85 338 130 587 175l63-19 24-12 5-2 3-1 59 18h6l28-2c85-7 159-13 219-18 566-101 708-390 796-545 77-175 64-316-16-451zm37207 48075c-511-354-920-778-1166-928l-149-94-32-17-7-4 108 27 12 2 24 3 48 6 97 13 175 26c171 36 291 49 366 60 307 37 371 23 431 13 58-42-36 20-101 161l-70 232-5 25-2 13v1l-20 287-1-1h-2l-4-1-30-5 18-13-73-271-15-23-7-8-1-1-34-70v1l-1 1-1 4-4 7-8 13 29 16-47-18-114-8-7 1v1l-71-2h2l2 3 6 6 11 10 21-13 34-21-29 83c-22 165 97 363 164 559 69 197 1 380-263 472-259 85-655 57-1034-199-93-62-182-144-262-244l-118-183-11-11-5-5-3-3-1-1-19-54-2-5-37-90c-92-247-102-520-44-769 50-217 167-411 324-578l126-121 156-123 132-85 147-83c351-194 707-609 1143-573l187 19 141 20c135 22 279 51 457 116 172 63 388 166 601 357 118 115 183 172 321 397 35 61 118 243 143 371 69 320-3 530-70 647-76 131-149 144-231 203-161 96-328 160-415 235-360 305-654 386-910 214zm-6050 533c-489-379-863-833-1101-1000-107-88-192-144-251-168l-7-2 90 2 195-5c126-10 238-31 313-55l48-17 20-8 4-1 2-2 91-18-1-1-2-2-12-11-7 3 4-2 78-81 36-62 9-26 2-9 13-41-4-28 2-195-18-47v-2c21-13-49 28 48-30l6 10 27 38 54 75 107 151c76 109 157 225 242 345l120 170 8 33-10 2h-1l212-227h-4l-5 2-121-11-251-9c-332 21-750 187-1212 191-457 3-629-278-644-800-2-125 18-261 64-401l79-200 1-5 1-1v-2l205-219 4-8 10-15 19-31 40-59 18-25 11-12 5-7h1l257-165 23-11c122-58 247-98 362-121 234-45 413-36 584-11 282 44 541 156 757 282 204 121 438 202 662 333 223 127 431 323 490 525 128 429 178 795 89 1091-109 349-627 515-810 666-387 334-707 418-952 234zm-5593-303c-433-425-743-846-977-1014-99-91-191-112-244-146-46-27 213-16 228-97l9-130 1-2v-1l-20 295v-6l-1-11-1-21 2-42 5-41 3-11c35-5-98-2 172-19 182-12 368-26 555-38l278-19 138-9c25 20 43-54 73 45l-1-1-110 102-42 92-5 17v116h-3l-5 2-12 2-23 4 24 75-18-25-201-176c-158-110-363-191-554-310-386-217-363-570 53-952 217-177 490-323 972-311l257 38c107 29 217 71 336 136 118 65 247 151 375 283 65 66 127 140 183 229l94 173 29 69c23 104 45 205 74 335l11 20 42 39 60 39 33 20 17 9 9 6h1l1 1-20 298 1 1 4 3 118 234c-65 147-68 332-197 498-153 204-666 225-840 283-379 157-662 130-884-82zm-2877-125c-609 193-1236 233-1581 137-167-47-299-121-404-211l24-116c25-20 13-10 179-106 112-64 191-116 254-162l128-104 21-19v-1l106-81h-1l-2-1-3-1-7-2-13-6 2 11 40-89 10-132 84 116c62 83 237 175 299 247 26-20 72 17-31-22-299-86-716 74-1169 130-450 54-671-204-690-731 3-135 10-249 91-427 31-105 139-290 318-453 79-74 181-144 305-205l119-51 52-18c130-42 162-47 250-63 299-54 580-20 815 35 225 55 457 59 702 111l199 64 40-4c88 59 69 35 107 57 98 47 182 108 236 179 220 301 364 506 383 668 9 188-336 487-382 639-92 315-175 515-481 611zm-5441-178c-271-159-479-382-660-577-91-95-179-183-277-221 233 88 416 113 479 106l19-2v-31l-43 64c-79 59-213 235-306 476-40 101-75 210-98 312l-13-27-51-75-9-14v-6l-4-97c-7-137-15-227-26-309-21-152-49-236-69-284l-7 19 53 45c37 45 98 105 195 180l173 122 145 90-32 34-17 40-1 2-1 1v1l93-278-2 11-5 20-9 41c238 68-626-47-1116-100l-52-6c-6-24-25 49-19-55v1l1 6 2 10 3-8 27-9 148-128 16-24 45-141 26 2 10-45 16-144-21-155 46 85c240 214 835 256 1091 610 142 167 184 312 139 477-53 163-181 365-528 590-345 187-901 440-1765 46-187-104-401-256-576-564-41-77-77-163-104-256l-40-199v-10l14-334 30-78 119-336 63-107 156-247c116-169 192-421 428-694 65-70 106-123 232-209 203-114-20-38 227-153 185-98 373-151 534-164 359-21 509-10 747 8 229 23 461 65 705 175 278 123 557 392 726 739 84 178 129 338 174 586l-19 63-11 24-3 5-1 3 19 59v2l-1 5-1 28c-7 85-14 157-18 218-101 566-390 708-545 796-175 77-316 65-451-15zm218528-9765c-316 546-823 911-1339 1186-488 297-769 654-904 946-131 281-82 533-22 601l-90-32-139 99c5 115 95 138 156 215l132 52 68 15 42 21 26 16 15 8 8 4 3 2 1 1-47 55-106 121-485 559-240 277-60 70-15 17c-385-253 515 353 423 290l1-1v-14l4-85c19-91-41-26-65-19l-184-28-22-7 49-8 102-53c137-103 253-320 310-543 112-493 96-1143 171-1687 71-550 245-1008 579-1292 336-284 677-298 1093-82 408 227 930 665 1479 1568 265 459 490 1024 598 1727 51 352 72 740 37 1158-22 216-47 409-105 660l-93 344-20 78c37-86-99 287-234 486-140 230-320 445-515 616-81 72-176 145-251 195l-26 12-51 26-106 51-195 111c-140 56-282 105-435 133-305 60-636 82-988 32-699-80-1439-307-2157-599-685-276-1449-508-2125-1029-664-511-1144-1341-1240-2337-177-2039 237-4254 1182-5455 547-696 1256-973 1897-1030 650-52 1230 79 1721 189 1016 225 1689 880 2004 1323 273 432 314 766 158 1037zm0-16662c-316 545-823 910-1339 1186-488 296-769 653-904 946-131 281-82 532-22 601l-90-32-139 99c5 114 95 138 156 215l132 52 68 14 42 21 26 16 15 8 8 5 3 2 1 1-47 55-106 121-485 558-240 278-60 69-15 17c-385-252 515 354 423 290l1-1v-13l4-86c19-91-41-25-65-19l-184-28-22-6 49-8 102-54c137-103 253-319 310-542 112-494 96-1143 171-1687 71-550 245-1008 579-1293 336-283 677-297 1093-81 408 226 930 664 1479 1568 265 459 490 1023 598 1727 51 351 72 739 37 1157-22 217-47 409-105 661l-93 343-20 79c37-86-99 286-234 486-140 230-320 445-515 615-81 72-176 145-251 195l-26 13-51 26-106 51-195 111c-140 56-282 105-435 133-305 60-636 82-988 31-699-79-1439-306-2157-599-685-275-1449-507-2125-1028-664-511-1144-1342-1240-2337-177-2040 237-4254 1182-5455 547-696 1256-973 1897-1030 650-52 1230 78 1721 189 1016 224 1689 879 2004 1323 273 431 314 765 158 1037zm0-19067c-316 545-823 910-1339 1186-488 297-769 654-904 946-131 281-82 532-22 601l-90-32-139 99c5 114 95 138 156 215l132 52 68 14 42 21 26 17 15 7 8 5 3 2 1 1-47 55-106 121-485 558-240 278-60 69-15 17c-385-252 515 354 423 291l1-2v-13l4-85c19-92-41-26-65-20l-184-27-22-7 49-8 102-54c137-102 253-319 310-542 112-494 96-1143 171-1687 71-550 245-1008 579-1292 336-284 677-298 1093-82 408 226 930 664 1479 1568 265 459 490 1023 598 1727 51 351 72 739 37 1157-22 217-47 409-105 661l-93 344-20 78c37-86-99 287-234 486-140 230-320 445-515 616-81 71-176 144-251 195l-26 12-51 26-106 51-195 111c-140 56-282 105-435 133-305 60-636 82-988 31-699-79-1439-306-2157-599-685-275-1449-507-2125-1028-664-511-1144-1341-1240-2337-177-2040 237-4254 1182-5455 547-696 1256-973 1897-1030 650-52 1230 78 1721 189 1016 224 1689 879 2004 1323 273 431 314 765 158 1037zm-164453 7824c-100-119 74-450 469-930 197-240 450-516 751-823 250-214 543-593 886-457 169 41 340 198 518 321l65 42 8-2 13-8-66-173-19 42 3 56 5 36 3 20-64-206c-28-90-55-181-85-279-149-516 114-914 577-1203 157-123 60-40 60-40l-51 51-88 93 133-58 66-43 15 3 10 2-19 1-170 1c-114-2-231 5-341-6-210-25-390-131-503-304-126-171-170-446-248-675l43 135-14-67-40-91 7-11 4-10 1-5-3 10-60 201c-72 276-168 533-342 661-168 137-416 153-669 136l-213-5-3-5-9-10-42-23c-40-17-103-36-192-55-138 53-42 99 32 227l63 79 125 114 165 147c118 119 210 217 241 366 0 140-32 288-87 432-113 321-174 464-245 638-139 338-266 627-378 860-225 469-392 715-482 682-91-32-71-330 27-844 49-256 118-567 202-924 40-174 100-410 100-447l19-122-100-78c-46-35-31-1-125-93s-189-186-285-282c-237-242-483-492-737-750-129-135-259-270-391-409l-182-205c4-65 17-201 99-191 702-130 1440-266 2207-407l80-8 28-84c149-320 300-644 453-971 173-369 349-741 525-1116 54-93 63-212 156-191 108-11 130 32 174 90l253 305c90 107 181 210 276 308 163 506 329 1021 497 1542l82 23 17-13c2-5-13-14 105 6l513 85c350 68 689 134 1031 202l633 134 141 36 43 132c37 91-15 129-32 202-94 256-185 506-273 746-472 376-925 737-1365 1088l-14 6-1 4c73 825 147 1657 219 2471 38 100-69 125-135 162l-239-130c-163-106-323-209-480-310-302-199-587-388-852-563-133-89-262-174-389-258l-121-121-134-16-133 84c-335 230-627 433-874 602-497 332-797 498-848 438z"/><path class="fil0" d="M106663 73752l1943-1553h92l1749 1397 120-96-668-2260 29-97 1748-1397-45-156h-2162l-75-59-667-2260h-149l-668 2260-75 59h-2161l-46 156 1749 1397 28 97zm121536 31869c-100-119 74-450 469-930 197-240 450-517 751-823 250-214 543-593 886-457 169 41 340 198 518 320l65 43 8-2 13-8-66-174-19 43 3 56 5 36 3 20-64-207c-28-90-55-180-85-278-149-516 114-914 577-1203 157-123 60-40 60-40l-51 51-88 93 133-58 66-43 15 3 10 2-19 1-171 1c-113-2-230 5-340-6-210-25-390-132-503-305-126-170-170-445-248-674l43 135-14-67-40-92 7-10 4-10 1-5-3 10-60 201c-72 276-168 533-342 660-168 137-417 154-669 137l-213-5-3-5-9-10-42-24c-40-16-104-35-192-54-138 53-42 98 32 226l63 80 125 114 165 147c118 119 210 216 241 366 0 139-32 288-87 432-113 321-175 464-245 638-139 338-266 627-378 860-225 468-392 715-482 682-91-32-71-331 27-844 49-257 118-567 202-924 40-174 99-410 100-447l19-122-100-78c-46-36-31-1-125-93-94-93-189-186-285-283-237-241-483-491-737-749-129-135-259-270-391-409l-182-205c4-65 17-202 99-191 702-130 1440-266 2207-407l80-8 28-84c149-320 300-644 453-971 173-369 349-741 525-1116 54-93 63-212 156-191 108-11 130 32 174 89l253 306c90 107 181 210 276 308 163 506 329 1020 497 1542l82 23 17-14c2-4-13-13 105 7l513 85c350 68 689 134 1031 201l633 135 141 36 43 132c37 91-15 128-32 201-94 257-185 507-273 746-472 377-925 738-1365 1088l-14 7-1 4c73 825 147 1657 219 2471 38 99-69 124-135 162l-239-131c-163-105-324-208-480-309-302-200-587-388-852-564-133-88-262-173-389-257l-121-121-134-16-133 83c-335 231-627 433-874 603-497 331-797 498-848 438z"/><path class="fil0" d="M228231 105370l1943-1553h92l1749 1397 120-96-668-2260 29-97 1748-1397-45-156h-2162l-75-59-667-2261h-149l-668 2261-75 59h-2161l-46 156 1749 1397 28 97zm-198682 2419c-497 345-1028 558-1475 786-454 213-806 465-1002 657-204 176-365 284-607 323-191 38-321-523-641-589-148-32-315-44-484-67l-69-8c118-867 142-1181 160-1446 40-487-38-617 1-707-78 1 101 226 343 372 117 72 241 122 312 144l56 16h395v2l1 6 3 18 6 40 12 77 176-57c-140 29-280 110-384 208-217 202-405 524-563 905-161 377-284 813-524 1196-427 769-1308 622-2187-491-207-270-389-608-517-1008-124-416-207-813-177-1431l-1-76 1-37 1-18 1-10 18-120c19-126 45-250 79-377 69-253 168-513 316-788 149-273 345-565 639-853 148-143 313-282 507-404 77-50 228-137 378-204l157-63 246-83 154-43c93-23 189-45 289-68 152-29 312-60 484-92 280-51 478-102 592-174 233-140 476-270 694-188 449 166 971 215 1439 526 558 363 762 1472 1043 1957 654 1057 610 1848 128 2169zM315113 4769c395-477 1480-129 2747 865 611 479 1283 1085 1983 1768 565 551 992 1325 1552 1977 636-657 1212-1356 1819-1938 704-677 1598-1034 2189-1536 1208-1027 2009-1686 2228-1467 433 435 118 1628-787 3023-436 670-987 1409-1607 2179-536 666-1304 1154-1920 1838l-5 6c592 709 1251 1318 1767 2003 599 793 1088 1600 1518 2278 886 1395 1324 2452 1025 2780-300 329-1087-343-2293-1384-585-506-1237-1131-1924-1824-594-599-1160-1310-1778-1987-34 35-68 69-102 104-645 652-1200 1376-1823 1945-720 659-1454 1196-2070 1668-1269 975-2230 1456-2528 1128-300-330 311-1195 1258-2521 460-644 1028-1362 1659-2117 508-610 1104-1192 1684-1820-34-36-67-72-99-109-598-701-1233-1334-1764-2002-614-775-939-1757-1395-2406-934-1330-1534-2211-1334-2451zm-5438 82316c488-385 870-834 1106-999l143-103 30-19 7-5-106 34-12 3-24 5-47 9-96 19-173 36c-168 46-287 68-361 83-305 57-369 46-430 40-61-38 38 18 111 154l84 227 7 25 2 13v1l38 285 1-1h2l4-1 30-7-19-12 56-275 14-24 7-8v-1l30-73v1l1 2 2 3 4 7 9 13-28 17 46-20 112-15h8v1l70-7-1 1-3 3-5 6-10 11-22-12-35-19 34 81c32 164-74 369-129 569-57 200 23 379 292 454 264 69 657 16 1019-263 89-68 173-156 247-260l106-190 11-11 4-6 3-3 1-1 15-55 2-5 32-92c75-252 69-526-4-771-65-213-194-400-360-556l-133-113-164-113-137-77-152-74c-363-171-744-563-1176-500l-185 31-140 29c-134 30-276 68-449 143-168 75-377 191-578 394-110 123-172 184-295 417-32 63-103 250-120 379-49 323 36 529 111 641 84 126 157 135 243 188 166 86 337 140 428 209 379 282 677 345 922 157zm-5856 621c464-409 810-885 1037-1067 101-95 182-156 240-183l6-3-89 8-196 7c-126-2-239-17-315-35l-50-14-19-6-4-2-3-2-92-12 2-1 1-2 11-12 8 3-4-2-84-76-39-59-11-26-3-8-15-41 2-28-14-195 15-48v-2c-21-12 51 25-49-27l-7 11-24 40-49 78-97 157c-70 114-143 234-221 360l-108 176-6 34 10 1h1l-226-213h4l5 2 120-19 251-25c332 1 760 140 1221 115 456-25 610-317 593-838-6-126-35-260-89-397l-92-194-1-5-1-1v-2l-219-206-4-8-10-14-22-29-44-57-19-24-12-12-5-5-2-1-266-149-24-9c-125-51-252-82-368-98-237-30-415-10-584 26-279 61-530 189-737 328-197 133-426 229-641 374-214 141-410 349-456 554-101 436-128 805-21 1095 131 341 658 475 850 614 408 309 732 373 965 174zm-6197-500c405-451 689-891 911-1073 93-97 184-124 235-161 44-29-214-3-234-83l-17-128-1-3v-1l39 294v-1l-1-6 1-10-1-21-4-42-9-41-3-11c-35-3 97-8-173-8-183-1-369-2-556-3l-278-2h-139c-24 22-46-51-70 49l1-1 116 95 47 90 6 16v1l8 115h3l5 2 12 1 23 2-19 77 17-26 189-189c151-120 350-214 533-344 372-240 327-591-112-947-227-163-509-291-990-249l-253 54c-106 35-213 84-327 156s-237 167-357 306c-60 70-118 148-168 240l-83 178-25 72c-16 105-32 207-53 338l-10 21-39 42-57 43-32 21-17 11-8 6h-1l-2 1 39 296-1 1-3 4-103 241c74 142 88 327 227 484 166 195 679 184 856 230 388 133 670 89 878-137z"/></g></g></svg>