<svg xmlns="http://www.w3.org/2000/svg" width="400" height="401" viewBox="0 0 5288 5295" shape-rendering="geometricPrecision" text-rendering="geometricPrecision" image-rendering="optimizeQuality" fill-rule="evenodd" clip-rule="evenodd"><defs><style>.fil0{fill:none}.fil1,.fil2{fill:#fefefe;fill-rule:nonzero}.fil2{fill:#ffeea8}</style></defs><g id="Слой_x0020_1"><path class="fil0" d="M3547 4394c-324 235-713 361-1114 361-1046 0-1894-848-1894-1895 0-1046 848-1894 1894-1894"/><path class="fil1" d="M3863 4830c-207 150-436 266-678 345-243 79-497 120-752 120-670 0-1279-274-1720-715S0 3531 0 2860s272-1280 713-1720c440-441 1048-713 1720-713v1079c-374 0-713 151-958 396s-397 584-397 958c0 376 152 716 397 961 244 244 583 395 958 395 146 0 287-22 419-65 135-44 262-109 379-193l632 872z"/><path class="fil2" d="M2863 0c670 0 1276 271 1715 710s710 1045 710 1715c0 387-93 764-264 1100-172 336-422 633-736 861l-630-869c174-126 313-291 409-479 95-187 147-397 147-613 0-373-152-711-396-955s-582-396-955-396V0z"/></g></svg>