<svg xmlns="http://www.w3.org/2000/svg" width="200" height="199" viewBox="0 0 865 861" shape-rendering="geometricPrecision" text-rendering="geometricPrecision" image-rendering="optimizeQuality" fill-rule="evenodd" clip-rule="evenodd"><defs><style>.fil0{fill:#002d40}.fil1{fill:#fefefe;fill-rule:nonzero}</style></defs><g id="Слой_x0020_1"><path class="fil0" d="M549 33l44 4c29 3 57 17 76 40l30 35c7 8 15 15 24 21l36 24c25 17 42 42 49 71l11 45c2 10 6 20 11 29l21 39c14 26 18 56 10 85l-11 45c-3 10-4 21-4 31l1 44c0 30-11 58-30 80l-32 35c-7 8-13 16-17 25l-21 40c-13 26-36 46-63 57l-45 16c-9 4-18 8-26 14l-37 26c-24 17-53 24-83 21l-46-6c-10-2-21-2-31 0l-44 5c-29 4-59-3-83-20l-39-27c-8-6-17-11-27-14l-42-15c-27-11-50-31-63-57l-22-42c-5-9-10-17-17-25l-30-33c-20-22-31-50-31-80l1-46c0-11-1-21-4-31L4 426c-8-29-4-59 10-85l22-41c5-9 9-19 11-29l10-43c7-29 24-54 49-71l38-26c9-6 17-13 24-21l28-33c20-22 47-37 76-40l46-5c11-1 21-4 31-8l41-16c27-11 58-11 86 0l43 17c9 4 20 6 30 8z"/><path class="fil1" d="M433 83C237 83 79 241 79 437c0 195 158 354 354 354 195 0 353-159 353-354 0-196-158-354-353-354zm0 716C233 799 70 636 70 437 70 237 233 74 433 74c199 0 362 163 362 363 0 199-163 362-362 362z"/><path class="fil1" d="M462 64c-8 0-16-1-24-1-3 0-4-2-4-4s1-4 4-4c8 0 17 0 25 1 2 0 4 2 4 4-1 3-2 4-5 4zm-74 2c-2 0-4-2-4-4s1-4 4-5c8-1 16-1 25-2 2 0 4 2 4 4 0 3-2 4-4 5-8 0-16 1-24 2h-1zm124 5h-1c-8-1-16-3-24-4-3 0-4-2-4-5 0-2 3-4 5-3 8 1 16 2 24 4 3 1 4 3 4 5-1 2-3 3-4 3zm-172 4c-2 0-4-2-4-4-1-2 0-4 2-5 9-2 17-3 25-5 2 0 4 1 5 3 0 3-1 5-4 5-7 2-16 3-23 5l-1 1zm219 10h-1c-8-3-16-6-24-8-2 0-3-3-2-5 0-2 3-3 5-3 8 2 16 5 24 8 2 1 3 3 2 5s-2 3-4 3zm-267 5c-1 0-3-1-3-3-1-2 0-4 2-5 8-3 16-6 23-9 3 0 5 1 6 3 0 2-1 5-3 5-8 3-15 6-23 9h-2zm313 15c-1 0-2-1-2-1-7-4-15-7-22-10-2-1-3-4-2-6 0-2 3-3 5-2 8 3 15 7 23 11 2 1 2 3 1 5 0 2-2 3-3 3zm-357 6c-2 0-3 0-4-2s0-4 2-5c7-5 14-8 22-12 2-1 4 0 5 2s1 4-2 5l-21 12h-2zm399 19c-1 0-1 0-2-1-7-4-14-9-21-13-2-1-2-4-1-6s4-2 6-1c7 4 14 9 21 13 2 2 2 4 1 6-1 1-2 2-4 2zm-441 8c-1 0-2 0-3-1-1-2-1-5 1-6 6-5 13-10 20-15 2-1 5 0 6 2s1 4-1 5c-7 5-14 10-20 14-1 1-2 1-3 1zm480 23c-1 0-2 0-3-1-6-6-12-11-18-16-2-2-2-4-1-6s4-2 6-1c6 6 13 11 19 17 2 1 2 4 0 6-1 0-2 1-3 1zm-517 10c-1 0-3-1-3-2-2-1-2-4 0-6 6-5 12-11 18-16 2-2 5-2 6 0 2 2 1 4 0 6-7 5-13 11-18 16-1 1-2 2-3 2zm552 25c-2 0-3 0-4-1-5-6-10-12-16-18-2-2-2-4 0-6s4-2 6 0c6 6 11 12 17 19 1 1 1 4-1 5-1 1-2 1-2 1zm-586 11h-2c-2-2-2-4-1-6 5-7 11-13 16-19 2-2 5-2 6-1 2 2 2 4 1 6-6 6-11 12-16 19-1 1-2 1-4 1zm615 29c-1 0-3 0-3-2-5-6-9-13-14-20-2-2-1-4 1-6 1-1 4-1 5 1l15 21c1 2 0 4-2 6h-2zm-643 12h-2c-2-1-2-4-1-6 4-7 9-14 13-21 2-2 4-2 6-1s3 4 1 6c-4 6-9 13-13 20-1 2-2 2-4 2zm667 32c-1 0-3-1-4-3-3-7-7-14-11-22-1-2 0-4 2-5s4-1 5 1c4 8 8 15 12 23 1 2 0 4-2 5-1 0-1 1-2 1zM85 293c-1 0-1-1-2-1-2-1-3-3-2-5 3-8 7-16 11-23 1-2 3-3 5-2s3 4 2 6c-3 7-7 15-10 22-1 2-2 3-4 3zm707 33c-1 0-3-2-4-3-2-8-5-16-8-23-1-3 0-5 2-6 3-1 5 0 6 3 3 7 6 15 8 23 1 2 0 5-2 5-1 1-1 1-2 1zM69 339h-2c-2 0-3-3-2-5 2-8 4-16 7-24 1-2 3-3 5-2 3 0 4 3 3 5-3 8-5 15-7 23-1 2-3 3-4 3zm735 35c-2 0-3-2-4-4-1-8-3-16-5-24 0-2 1-4 3-5 2 0 5 1 5 3 2 8 4 17 5 25 1 2-1 4-3 5h-1zM59 388h-1c-2-1-4-3-4-5 2-8 3-16 5-25 0-2 2-3 5-3 2 1 3 3 3 5-2 8-3 16-4 24-1 2-2 4-4 4zm751 35c-2 0-4-2-4-4-1-8-1-16-2-24-1-3 1-5 3-5 3 0 5 1 5 4 1 8 1 16 2 25 0 2-2 4-4 4zM55 437c-2 0-4-2-4-4 0-8 0-17 1-25 0-2 2-4 4-4s4 2 4 5c-1 8-1 16-1 24 0 2-2 4-4 4zm754 29c-2-1-4-3-4-5 1-8 1-16 1-24 0-3 2-5 4-5s4 2 4 5c0 8 0 16-1 25 0 2-1 4-4 4zM58 487c-2 0-4-2-5-4-1-8-1-17-2-25 0-2 2-4 4-4s4 1 5 4c0 8 1 16 2 24 0 2-2 4-4 5zm745 28h-1c-2-1-4-3-3-5 1-8 3-16 4-24 0-3 2-4 4-4 3 0 4 2 4 5-1 8-2 16-4 24 0 2-2 4-4 4zM67 535c-2 0-4-1-4-3l-6-24c0-2 1-5 4-5 2 0 4 1 4 3l6 24c0 2-1 5-3 5h-1zm723 28l-1-1c-2 0-4-3-3-5 3-8 5-16 7-23 1-3 3-4 5-3 3 0 4 3 3 5-2 8-4 16-7 24-1 1-2 3-4 3zM82 582c-1 0-3-1-4-2-3-8-6-16-8-24-1-2 0-4 2-5 3-1 5 1 6 3 2 8 5 15 8 23 1 2 0 4-2 5h-2zm689 26h-2c-2-1-3-4-2-6 4-7 7-14 11-22 0-2 3-3 5-2s3 3 2 5c-3 8-7 16-10 23-1 1-2 2-4 2zm-667 19c-2 0-3-1-4-2-4-7-8-15-11-22-1-2 0-5 2-6s4 0 5 2c4 7 7 15 11 22 2 2 1 4-1 5-1 1-1 1-2 1zm642 24h-2c-2-2-3-4-1-6 4-7 9-14 13-21 1-2 3-3 5-2 2 2 3 4 2 6-4 7-9 14-13 21-1 2-3 2-4 2zm-615 17c-1 0-2 0-3-1l-15-21c-1-2 0-4 2-5 1-2 4-1 5 1 5 7 9 13 14 20 2 2 1 4 0 6h-3zm585 22c-1 0-2 0-3-1-2-1-2-4 0-5 5-7 10-13 15-19 2-2 4-2 6-1s2 4 1 6c-5 6-11 13-16 19-1 1-2 1-3 1zm-552 16c-2 0-3-1-3-1-6-6-12-13-17-19-2-2-2-4 0-6 2-1 4-1 6 1 5 6 11 12 16 18 2 1 2 4 0 6 0 0-1 1-2 1zm517 19c-1 0-3 0-3-1-2-2-2-4 0-6 6-5 12-11 18-17 2-1 4-1 6 0 1 2 1 5 0 6-6 6-12 12-19 17 0 1-1 1-2 1zm-480 14c-1 0-2 0-3-1-7-5-13-11-19-16-2-2-2-4-1-6 2-2 5-2 6 0 6 5 13 10 19 15 2 2 2 4 1 6-1 1-2 2-3 2zm440 16c-1 0-2 0-3-1-1-2-1-5 1-6 7-5 14-9 20-14 2-2 4-1 6 0 1 2 1 5-1 6-7 5-13 10-20 15h-3zm-399 12c-1 0-2-1-3-1-7-4-14-9-21-13-2-2-2-4-1-6s4-2 6-1c7 4 14 9 21 13 2 1 2 4 1 6-1 1-2 2-3 2zm356 13c-1 0-3-1-3-2-1-2 0-5 2-6 7-3 14-7 21-11 2-1 5-1 6 1s0 5-2 6c-7 4-14 8-22 12h-2zm-312 9h-2c-7-4-15-7-22-11-3-1-3-3-2-5 1-3 3-3 5-2 7 3 15 7 23 10 2 1 3 3 2 5s-2 3-4 3zm267 10c-2 0-4-1-4-3-1-2 0-4 2-5 8-3 16-6 23-9 2-1 5 0 6 3 1 2 0 4-3 5-7 3-15 6-23 9h-1zm-220 6h-1c-8-2-16-5-24-7-2-1-4-4-3-6s3-3 5-2c8 2 16 5 24 7 2 1 3 3 3 5-1 2-2 3-4 3zm172 7c-2 0-4-2-4-4-1-2 1-4 3-5 8-1 16-3 24-5 2-1 4 1 5 3 0 2-1 4-3 5-8 2-16 4-25 5v1zm-124 3c-8-1-17-3-25-4-2-1-4-3-3-5 0-2 2-4 5-3 8 1 16 3 24 4 2 0 4 2 3 4 0 2-2 4-4 4zm75 3c-3 0-4-2-5-4 0-2 2-4 4-5 8 0 17-1 25-2 2 0 4 2 4 4 1 2-1 4-3 4-8 1-17 2-25 3zm-25 0h-25c-3-1-4-3-4-5s2-4 4-4c8 1 17 1 25 1 2 0 4 2 4 4 0 3-2 4-4 4zM203 441h-1c-7-1-13 1-19 4-8 5-13 11-15 19s-1 17 4 24l90 154c20 47 62 78 111 84 15 2 31 1 46-2 137-28 111-187 104-218v-1l-27-130c-3-11-11-19-22-20h-8c-8 2-13 6-17 11-4 6-5 13-4 20l21 96-15-1-42-201c-2-10-11-18-22-20-3 0-6 0-8 1-14 3-23 16-20 30l38 184h-14l-47-226c-3-11-11-19-22-20-4-1-6 0-9 0-14 3-23 17-20 30l46 218-5 1c-1 0-3 1-4 1l-5 1-38-182c-2-10-11-18-22-20-3 0-5 0-8 1-7 1-13 5-17 11-3 5-4 12-3 19l42 203-6 10-39-66c-5-8-13-14-23-15z"/><path class="fil1" d="M683 473h-1c-8-8-18-12-28-14-14-1-27 3-37 11l57-119c10-22 1-48-21-58l-1-1c-4-2-8-3-13-4h-8c9-21 0-47-21-57h-1c-8-4-17-5-27-4-14 3-25 13-32 26l-2 6c-4-6-10-11-17-14l-1-1c-8-3-17-5-26-3-14 2-26 13-32 25l-31 65c-6 9-3 41 4 22l40-82c5-12 18-19 30-17 3 0 7 1 10 3 15 7 17 24 10 39 0 0-29 75-28 77v2l56-118c6-12 19-18 31-17l9 3h1c15 7 21 25 14 40l-89 198 88-162c5-12 8-19 20-17 3 0 7 1 10 3 15 7 21 25 14 40 0 0-87 186-86 187l47-49c8-8 19-12 30-10 8 1 15 4 21 10 15 14 15 36 1 51L550 662c-18 25-52 42-79 51 0 0 57 0 90-42l123-128c19-20 18-51-1-70zM509 210c3 0 5-1 7-4l16-38c2-4 0-8-4-10-3-1-8 0-10 4l-16 38c-2 4 0 8 4 10h3zm-56-3c3 0 7-3 7-7l9-68c0-4-2-8-7-9-4 0-8 3-8 7l-9 68c0 5 2 8 7 9h1zm-50 0h1c4-1 7-5 7-9l-10-68c-1-4-5-7-9-7-4 1-7 5-6 9l10 68c0 4 3 7 7 7zm-48 7c1 0 2 0 3-1 4-1 6-5 4-9l-16-42c-1-3-5-5-9-4-4 2-6 6-5 10l16 41c1 3 4 5 7 5z"/></g></svg>